%FSLAX46Y46*%
G04 Gerber Fmt 4.6, Leading zero omitted, Abs format (unit mm)*
G04 Created by KiCad (PCBNEW (2014-10-08 BZR 5171)-product) date 10/19/2014 5:22:49 PM*
%MOMM*%
G01*
G04 APERTURE LIST*
%ADD10C,0.100000*%
%ADD11C,0.300000*%
%ADD12C,0.177800*%
%ADD13R,1.524000X1.524000*%
%ADD14C,1.524000*%
%ADD15C,2.750000*%
%ADD16R,1.397000X0.889000*%
%ADD17R,1.524000X2.032000*%
%ADD18R,2.032000X1.524000*%
%ADD19R,1.270000X2.540000*%
%ADD20R,2.540000X1.270000*%
%ADD21R,0.889000X1.397000*%
%ADD22R,1.397000X1.397000*%
%ADD23C,1.397000*%
%ADD24R,1.600200X1.600200*%
%ADD25C,1.600200*%
%ADD26C,1.408000*%
%ADD27R,1.198880X1.198880*%
%ADD28R,0.800100X0.800100*%
%ADD29R,4.800000X4.720000*%
%ADD30R,1.400000X1.270000*%
%ADD31R,4.720000X4.800000*%
%ADD32R,1.270000X1.400000*%
%ADD33R,0.914400X0.914400*%
%ADD34R,0.599440X1.399540*%
%ADD35R,0.700000X1.300000*%
%ADD36R,1.300000X0.700000*%
%ADD37R,1.300000X0.600000*%
%ADD38R,0.406400X1.524000*%
%ADD39R,1.524000X0.406400*%
%ADD40R,1.270000X0.508000*%
%ADD41R,0.508000X1.270000*%
%ADD42R,1.000760X0.701040*%
%ADD43R,0.800000X0.550000*%
%ADD44R,1.399540X0.599440*%
%ADD45R,2.260600X2.997200*%
%ADD46R,3.657600X2.032000*%
%ADD47R,1.016000X2.032000*%
%ADD48R,1.000760X0.800100*%
%ADD49C,0.635000*%
%ADD50R,2.000000X2.800000*%
%ADD51R,1.800000X1.800000*%
%ADD52C,1.800000*%
%ADD53C,0.685800*%
%ADD54C,0.381000*%
%ADD55C,1.270000*%
%ADD56C,0.254000*%
%ADD57C,0.635000*%
%ADD58C,0.762000*%
%ADD59C,0.508000*%
G04 APERTURE END LIST*
D10*
D11*
X179423572Y-41458571D02*
X179423572Y-39958571D01*
X179995000Y-39958571D01*
X180137858Y-40030000D01*
X180209286Y-40101429D01*
X180280715Y-40244286D01*
X180280715Y-40458571D01*
X180209286Y-40601429D01*
X180137858Y-40672857D01*
X179995000Y-40744286D01*
X179423572Y-40744286D01*
X180923572Y-41458571D02*
X180923572Y-39958571D01*
X182495001Y-41315714D02*
X182423572Y-41387143D01*
X182209286Y-41458571D01*
X182066429Y-41458571D01*
X181852144Y-41387143D01*
X181709286Y-41244286D01*
X181637858Y-41101429D01*
X181566429Y-40815714D01*
X181566429Y-40601429D01*
X181637858Y-40315714D01*
X181709286Y-40172857D01*
X181852144Y-40030000D01*
X182066429Y-39958571D01*
X182209286Y-39958571D01*
X182423572Y-40030000D01*
X182495001Y-40101429D01*
X183137858Y-40458571D02*
X183137858Y-41458571D01*
X183137858Y-40601429D02*
X183209286Y-40530000D01*
X183352144Y-40458571D01*
X183566429Y-40458571D01*
X183709286Y-40530000D01*
X183780715Y-40672857D01*
X183780715Y-41458571D01*
X185137858Y-41387143D02*
X184995001Y-41458571D01*
X184709287Y-41458571D01*
X184566429Y-41387143D01*
X184495001Y-41315714D01*
X184423572Y-41172857D01*
X184423572Y-40744286D01*
X184495001Y-40601429D01*
X184566429Y-40530000D01*
X184709287Y-40458571D01*
X184995001Y-40458571D01*
X185137858Y-40530000D01*
X179780715Y-42358571D02*
X179066429Y-42358571D01*
X178995000Y-43072857D01*
X179066429Y-43001429D01*
X179209286Y-42930000D01*
X179566429Y-42930000D01*
X179709286Y-43001429D01*
X179780715Y-43072857D01*
X179852143Y-43215714D01*
X179852143Y-43572857D01*
X179780715Y-43715714D01*
X179709286Y-43787143D01*
X179566429Y-43858571D01*
X179209286Y-43858571D01*
X179066429Y-43787143D01*
X178995000Y-43715714D01*
X182280714Y-43858571D02*
X182280714Y-43072857D01*
X182209285Y-42930000D01*
X182066428Y-42858571D01*
X181780714Y-42858571D01*
X181637857Y-42930000D01*
X182280714Y-43787143D02*
X182137857Y-43858571D01*
X181780714Y-43858571D01*
X181637857Y-43787143D01*
X181566428Y-43644286D01*
X181566428Y-43501429D01*
X181637857Y-43358571D01*
X181780714Y-43287143D01*
X182137857Y-43287143D01*
X182280714Y-43215714D01*
X182852143Y-43858571D02*
X183637857Y-42858571D01*
X182852143Y-42858571D02*
X183637857Y-43858571D01*
X184209286Y-43858571D02*
X184209286Y-42858571D01*
X184209286Y-42358571D02*
X184137857Y-42430000D01*
X184209286Y-42501429D01*
X184280714Y-42430000D01*
X184209286Y-42358571D01*
X184209286Y-42501429D01*
X184852143Y-43787143D02*
X184995000Y-43858571D01*
X185280715Y-43858571D01*
X185423572Y-43787143D01*
X185495000Y-43644286D01*
X185495000Y-43572857D01*
X185423572Y-43430000D01*
X185280715Y-43358571D01*
X185066429Y-43358571D01*
X184923572Y-43287143D01*
X184852143Y-43144286D01*
X184852143Y-43072857D01*
X184923572Y-42930000D01*
X185066429Y-42858571D01*
X185280715Y-42858571D01*
X185423572Y-42930000D01*
X179959286Y-44758571D02*
X180459286Y-46258571D01*
X180959286Y-44758571D01*
X182245000Y-46258571D02*
X181387857Y-46258571D01*
X181816429Y-46258571D02*
X181816429Y-44758571D01*
X181673572Y-44972857D01*
X181530714Y-45115714D01*
X181387857Y-45187143D01*
X182887857Y-46115714D02*
X182959285Y-46187143D01*
X182887857Y-46258571D01*
X182816428Y-46187143D01*
X182887857Y-46115714D01*
X182887857Y-46258571D01*
X184387857Y-46258571D02*
X183530714Y-46258571D01*
X183959286Y-46258571D02*
X183959286Y-44758571D01*
X183816429Y-44972857D01*
X183673571Y-45115714D01*
X183530714Y-45187143D01*
D12*
X185496254Y-37973031D02*
G75*
G03X185267600Y-38023800I-85585J-154835D01*
G74*
G01*
X184784896Y-38099924D02*
G75*
G03X185267600Y-38023800I204788J269915D01*
G74*
G01*
X185420333Y-38734333D02*
G75*
G03X182880000Y-38735000I-1270333J634333D01*
G74*
G01*
X183197502Y-39687499D02*
G75*
G02X182880000Y-38735000I991017J859508D01*
G74*
G01*
X183197500Y-39528750D02*
G75*
G02X183356250Y-38735000I476250J317500D01*
G74*
G01*
X183197500Y-39687500D02*
X183197500Y-39528750D01*
X183356250Y-38735000D02*
X183515000Y-38735000D01*
X183833770Y-39371270D02*
G75*
G02X183515000Y-38735000I158750J477520D01*
G74*
G01*
X183832500Y-39370000D02*
G75*
G02X183832500Y-38735000I317500J317500D01*
G74*
G01*
X183832002Y-38734833D02*
G75*
G03X184467500Y-38735000I317998J952330D01*
G74*
G01*
X184467500Y-39370000D02*
G75*
G03X184467500Y-38735000I-317500J317500D01*
G74*
G01*
X184466230Y-39371270D02*
G75*
G03X184785000Y-38735000I-158750J477520D01*
G74*
G01*
X184943750Y-38735000D02*
X184785000Y-38735000D01*
X185102500Y-39687500D02*
X185102500Y-39528750D01*
X185102500Y-39528750D02*
G75*
G03X184943750Y-38735000I-476250J317500D01*
G74*
G01*
X185102498Y-39687499D02*
G75*
G03X185420000Y-38735000I-991017J859508D01*
G74*
G01*
X184404000Y-37033200D02*
G75*
G03X184658000Y-36779200I0J254000D01*
G74*
G01*
X184404000Y-37033200D02*
G75*
G03X184150000Y-37236400I-25400J-228600D01*
G74*
G01*
X183413400Y-38023800D02*
G75*
G03X182880000Y-37693600I-431800J-101600D01*
G74*
G01*
D13*
X156845000Y-70485000D03*
D14*
X156845000Y-67945000D03*
X159385000Y-70485000D03*
X159385000Y-67945000D03*
X161925000Y-70485000D03*
X161925000Y-67945000D03*
X164465000Y-70485000D03*
X164465000Y-67945000D03*
X167005000Y-70485000D03*
X167005000Y-67945000D03*
X169545000Y-70485000D03*
X169545000Y-67945000D03*
X172085000Y-70485000D03*
X172085000Y-67945000D03*
X174625000Y-70485000D03*
X174625000Y-67945000D03*
X177165000Y-70485000D03*
X177165000Y-67945000D03*
X179705000Y-70485000D03*
X179705000Y-67945000D03*
X182245000Y-70485000D03*
X182245000Y-67945000D03*
X184785000Y-70485000D03*
X184785000Y-67945000D03*
X187325000Y-70485000D03*
X187325000Y-67945000D03*
D15*
X151975000Y-69215000D03*
X151975000Y-118215000D03*
D16*
X177165000Y-80962500D03*
X177165000Y-79057500D03*
X177165000Y-82867500D03*
X177165000Y-84772500D03*
D17*
X185166000Y-76835000D03*
X181864000Y-76835000D03*
D18*
X187706000Y-76327000D03*
X187706000Y-73025000D03*
X190881000Y-76327000D03*
X190881000Y-73025000D03*
D19*
X163449000Y-80010000D03*
X160401000Y-80010000D03*
X163449000Y-83185000D03*
X160401000Y-83185000D03*
X163449000Y-76835000D03*
X160401000Y-76835000D03*
D17*
X183261000Y-94615000D03*
X179959000Y-94615000D03*
D18*
X182880000Y-91821000D03*
X182880000Y-88519000D03*
D20*
X168910000Y-103886000D03*
X168910000Y-106934000D03*
D19*
X165989000Y-107950000D03*
X162941000Y-107950000D03*
D21*
X152717500Y-61595000D03*
X150812500Y-61595000D03*
D22*
X154940000Y-87630000D03*
D23*
X154940000Y-85090000D03*
X154940000Y-82550000D03*
X154940000Y-80010000D03*
X154940000Y-77470000D03*
X154940000Y-74930000D03*
D24*
X179705000Y-125095000D03*
D25*
X179705000Y-122555000D03*
X179705000Y-120015000D03*
X179705000Y-117475000D03*
D24*
X168275000Y-125095000D03*
D25*
X168275000Y-122555000D03*
X168275000Y-120015000D03*
X168275000Y-117475000D03*
D24*
X156845000Y-125095000D03*
D25*
X156845000Y-122555000D03*
X156845000Y-120015000D03*
X156845000Y-117475000D03*
D24*
X131445000Y-74295000D03*
D25*
X131445000Y-71755000D03*
X131445000Y-69215000D03*
X131445000Y-66675000D03*
X131445000Y-64135000D03*
X131445000Y-61595000D03*
D24*
X144145000Y-125095000D03*
D25*
X144145000Y-122555000D03*
X144145000Y-120015000D03*
X144145000Y-117475000D03*
D24*
X131445000Y-125095000D03*
D25*
X131445000Y-122555000D03*
X131445000Y-120015000D03*
X131445000Y-117475000D03*
D26*
X187325000Y-51435000D03*
X185545000Y-52455000D03*
X187325000Y-53475000D03*
X185545000Y-54495000D03*
X187325000Y-55515000D03*
X185545000Y-56535000D03*
X187325000Y-57555000D03*
X185545000Y-58575000D03*
D27*
X128490980Y-132080000D03*
X130589020Y-132080000D03*
X136525000Y-66454020D03*
X136525000Y-64355980D03*
D28*
X134889240Y-81848960D03*
X134889240Y-83251040D03*
X136888220Y-82550000D03*
D29*
X167640000Y-87630000D03*
D30*
X166600000Y-83825000D03*
X168680000Y-83825000D03*
D29*
X161925000Y-90170000D03*
D30*
X160885000Y-86365000D03*
X162965000Y-86365000D03*
D31*
X162560000Y-103505000D03*
D32*
X166365000Y-102465000D03*
X166365000Y-104545000D03*
D31*
X163195000Y-97790000D03*
D32*
X167000000Y-96750000D03*
X167000000Y-98830000D03*
D33*
X136144000Y-79629000D03*
X136144000Y-77851000D03*
X138176000Y-78740000D03*
X169164000Y-63881000D03*
X167386000Y-63881000D03*
X168275000Y-61849000D03*
D34*
X171450000Y-83693000D03*
X171450000Y-89027000D03*
X172720000Y-83693000D03*
X173990000Y-83693000D03*
X175260000Y-83693000D03*
X172720000Y-89027000D03*
X173990000Y-89027000D03*
X175260000Y-89027000D03*
X171450000Y-100203000D03*
X171450000Y-105537000D03*
X172720000Y-100203000D03*
X173990000Y-100203000D03*
X175260000Y-100203000D03*
X172720000Y-105537000D03*
X173990000Y-105537000D03*
X175260000Y-105537000D03*
D33*
X174244000Y-111379000D03*
X174244000Y-109601000D03*
X176276000Y-110490000D03*
D34*
X186690000Y-126238000D03*
X186690000Y-131572000D03*
X187960000Y-126238000D03*
X189230000Y-126238000D03*
X190500000Y-126238000D03*
X187960000Y-131572000D03*
X189230000Y-131572000D03*
X190500000Y-131572000D03*
X148590000Y-52578000D03*
X148590000Y-57912000D03*
X149860000Y-52578000D03*
X151130000Y-52578000D03*
X152400000Y-52578000D03*
X149860000Y-57912000D03*
X151130000Y-57912000D03*
X152400000Y-57912000D03*
D35*
X149545000Y-85725000D03*
X151445000Y-85725000D03*
X138115000Y-67945000D03*
X140015000Y-67945000D03*
D36*
X126365000Y-133665000D03*
X126365000Y-131765000D03*
D35*
X140655000Y-84455000D03*
X142555000Y-84455000D03*
D36*
X180975000Y-136205000D03*
X180975000Y-134305000D03*
X177165000Y-136205000D03*
X177165000Y-134305000D03*
X173355000Y-136205000D03*
X173355000Y-134305000D03*
X169545000Y-136205000D03*
X169545000Y-134305000D03*
X165735000Y-136205000D03*
X165735000Y-134305000D03*
X161925000Y-136205000D03*
X161925000Y-134305000D03*
X164465000Y-63815000D03*
X164465000Y-61915000D03*
X172085000Y-63815000D03*
X172085000Y-61915000D03*
X150495000Y-136205000D03*
X150495000Y-134305000D03*
X146685000Y-136205000D03*
X146685000Y-134305000D03*
X142875000Y-136205000D03*
X142875000Y-134305000D03*
X139065000Y-136205000D03*
X139065000Y-134305000D03*
X135255000Y-136205000D03*
X135255000Y-134305000D03*
X131445000Y-136205000D03*
X131445000Y-134305000D03*
X132715000Y-83500000D03*
X132715000Y-81600000D03*
X128905000Y-136205000D03*
X128905000Y-134305000D03*
X186690000Y-80960000D03*
X186690000Y-79060000D03*
X189230000Y-82870000D03*
X189230000Y-84770000D03*
D35*
X190815000Y-80645000D03*
X188915000Y-80645000D03*
D36*
X186690000Y-84770000D03*
X186690000Y-82870000D03*
X185420000Y-98740000D03*
X185420000Y-96840000D03*
D35*
X183195000Y-105410000D03*
X181295000Y-105410000D03*
X181295000Y-103505000D03*
X183195000Y-103505000D03*
X183835000Y-112395000D03*
X185735000Y-112395000D03*
X152080000Y-64135000D03*
X150180000Y-64135000D03*
D36*
X177800000Y-57465000D03*
X177800000Y-55565000D03*
X177800000Y-60010000D03*
X177800000Y-61910000D03*
D35*
X157800000Y-64135000D03*
X159700000Y-64135000D03*
X155890000Y-64135000D03*
X153990000Y-64135000D03*
D14*
X168275000Y-48895000D03*
X170815000Y-48895000D03*
X165735000Y-48895000D03*
D37*
X177800000Y-107315000D03*
X177800000Y-109855000D03*
X183400000Y-109855000D03*
X183400000Y-107315000D03*
D38*
X149225000Y-101600000D03*
X150025100Y-101600000D03*
X150825200Y-101600000D03*
X151625300Y-101600000D03*
X152425400Y-101600000D03*
X153225500Y-101600000D03*
X148424900Y-101600000D03*
X147624800Y-101600000D03*
X146824700Y-101600000D03*
X146024600Y-101600000D03*
X145224500Y-101600000D03*
X149225000Y-90170000D03*
X150025100Y-90170000D03*
X150825200Y-90170000D03*
X151625300Y-90170000D03*
X152425400Y-90170000D03*
X153225500Y-90170000D03*
X148424900Y-90170000D03*
X147624800Y-90170000D03*
X146824700Y-90170000D03*
X146024600Y-90170000D03*
X145224500Y-90170000D03*
D39*
X154940000Y-95885000D03*
X143510000Y-95885000D03*
X154940000Y-95084900D03*
X143510000Y-95084900D03*
X143510000Y-94284800D03*
X154940000Y-94284800D03*
X154940000Y-93484700D03*
X143510000Y-93484700D03*
X143510000Y-92684600D03*
X154940000Y-92684600D03*
X154940000Y-91884500D03*
X143510000Y-91884500D03*
X143510000Y-96685100D03*
X154940000Y-96685100D03*
X154940000Y-97485200D03*
X143510000Y-97485200D03*
X143510000Y-98285300D03*
X154940000Y-98285300D03*
X154940000Y-99085400D03*
X143510000Y-99085400D03*
X143510000Y-99885500D03*
X154940000Y-99885500D03*
D40*
X129159000Y-98425000D03*
X129159000Y-99695000D03*
X129159000Y-100965000D03*
X129159000Y-102235000D03*
X129159000Y-103505000D03*
X129159000Y-104775000D03*
X129159000Y-106045000D03*
X129159000Y-107315000D03*
X129159000Y-108585000D03*
X129159000Y-109855000D03*
X138811000Y-109855000D03*
X138811000Y-108585000D03*
X138811000Y-107315000D03*
X138811000Y-106045000D03*
X138811000Y-104775000D03*
X138811000Y-103505000D03*
X138811000Y-102235000D03*
X138811000Y-100965000D03*
X138811000Y-99695000D03*
X138811000Y-98425000D03*
X129159000Y-85090000D03*
X129159000Y-86360000D03*
X129159000Y-87630000D03*
X129159000Y-88900000D03*
X129159000Y-90170000D03*
X129159000Y-91440000D03*
X129159000Y-92710000D03*
X129159000Y-93980000D03*
X129159000Y-95250000D03*
X129159000Y-96520000D03*
X138811000Y-96520000D03*
X138811000Y-95250000D03*
X138811000Y-93980000D03*
X138811000Y-92710000D03*
X138811000Y-91440000D03*
X138811000Y-90170000D03*
X138811000Y-88900000D03*
X138811000Y-87630000D03*
X138811000Y-86360000D03*
X138811000Y-85090000D03*
D41*
X146685000Y-47879000D03*
X145415000Y-47879000D03*
X144145000Y-47879000D03*
X142875000Y-47879000D03*
X141605000Y-47879000D03*
X140335000Y-47879000D03*
X139065000Y-47879000D03*
X137795000Y-47879000D03*
X136525000Y-47879000D03*
X135255000Y-47879000D03*
X135255000Y-57531000D03*
X136525000Y-57531000D03*
X137795000Y-57531000D03*
X139065000Y-57531000D03*
X140335000Y-57531000D03*
X141605000Y-57531000D03*
X142875000Y-57531000D03*
X144145000Y-57531000D03*
X145415000Y-57531000D03*
X146685000Y-57531000D03*
D22*
X164465000Y-60325000D03*
D23*
X167005000Y-60325000D03*
X169545000Y-60325000D03*
X172085000Y-60325000D03*
X172085000Y-52705000D03*
X169545000Y-52705000D03*
X167005000Y-52705000D03*
X164465000Y-52705000D03*
D42*
X137795000Y-126047500D03*
X137795000Y-125095000D03*
X137795000Y-124142500D03*
X140335000Y-124142500D03*
X140335000Y-125095000D03*
X140335000Y-126047500D03*
D43*
X150565000Y-108270000D03*
X150565000Y-109220000D03*
X150565000Y-110170000D03*
X152965000Y-110170000D03*
X152965000Y-108270000D03*
D44*
X184658000Y-79756000D03*
X179324000Y-79756000D03*
X184658000Y-81026000D03*
X184658000Y-82296000D03*
X184658000Y-83566000D03*
X179324000Y-81026000D03*
X179324000Y-82296000D03*
X179324000Y-83566000D03*
D45*
X181991000Y-81661000D03*
D44*
X183007000Y-97790000D03*
X177673000Y-97790000D03*
X183007000Y-99060000D03*
X183007000Y-100330000D03*
X183007000Y-101600000D03*
X177673000Y-99060000D03*
X177673000Y-100330000D03*
X177673000Y-101600000D03*
D45*
X180340000Y-99695000D03*
D46*
X143510000Y-81407000D03*
D47*
X143510000Y-74803000D03*
X141224000Y-74803000D03*
X145796000Y-74803000D03*
D48*
X169715180Y-110490000D03*
X171914820Y-109537500D03*
X171914820Y-111442500D03*
D34*
X158750000Y-61722000D03*
X158750000Y-56388000D03*
X157480000Y-61722000D03*
X156210000Y-61722000D03*
X154940000Y-61722000D03*
X157480000Y-56388000D03*
X156210000Y-56388000D03*
X154940000Y-56388000D03*
D49*
X183515000Y-38100000D03*
X184785000Y-38100000D03*
X184150000Y-37465000D03*
D50*
X174230000Y-78740000D03*
X166130000Y-78740000D03*
X177405000Y-94615000D03*
X169305000Y-94615000D03*
D51*
X128905000Y-143510000D03*
D52*
X132405000Y-143510000D03*
X135905000Y-143510000D03*
X139405000Y-143510000D03*
X142905000Y-143510000D03*
X146405000Y-143510000D03*
X149905000Y-143510000D03*
X153405000Y-143510000D03*
D51*
X159385000Y-143510000D03*
D52*
X162885000Y-143510000D03*
X166385000Y-143510000D03*
X169885000Y-143510000D03*
X173385000Y-143510000D03*
X176885000Y-143510000D03*
X180385000Y-143510000D03*
X183885000Y-143510000D03*
D51*
X153035000Y-39370000D03*
D52*
X149535000Y-39370000D03*
X146035000Y-39370000D03*
X142535000Y-39370000D03*
X139035000Y-39370000D03*
X135535000Y-39370000D03*
X132035000Y-39370000D03*
X128535000Y-39370000D03*
D51*
X173355000Y-39370000D03*
D52*
X169855000Y-39370000D03*
X166355000Y-39370000D03*
X162855000Y-39370000D03*
D51*
X121920000Y-109855000D03*
D52*
X121920000Y-113355000D03*
X121920000Y-116855000D03*
X121920000Y-120355000D03*
X121920000Y-123855000D03*
X121920000Y-127355000D03*
X121920000Y-130855000D03*
X121920000Y-134355000D03*
D51*
X121920000Y-79375000D03*
D52*
X121920000Y-82875000D03*
X121920000Y-86375000D03*
X121920000Y-89875000D03*
X121920000Y-93375000D03*
X121920000Y-96875000D03*
X121920000Y-100375000D03*
X121920000Y-103875000D03*
D51*
X121920000Y-48895000D03*
D52*
X121920000Y-52395000D03*
X121920000Y-55895000D03*
X121920000Y-59395000D03*
X121920000Y-62895000D03*
X121920000Y-66395000D03*
X121920000Y-69895000D03*
X121920000Y-73395000D03*
D51*
X189865000Y-113030000D03*
D52*
X189865000Y-109530000D03*
X189865000Y-106030000D03*
X189865000Y-102530000D03*
X189865000Y-99030000D03*
X189865000Y-95530000D03*
X189865000Y-92030000D03*
X189865000Y-88530000D03*
D53*
X144145000Y-84455000D03*
X147955000Y-67945000D03*
X141605000Y-67945000D03*
X151130000Y-84455000D03*
X149225000Y-95250000D03*
X149225000Y-92075000D03*
X145415000Y-95250000D03*
X149860000Y-103505000D03*
X145415000Y-83185000D03*
X140970000Y-78105000D03*
X159385000Y-95250000D03*
X159385000Y-96520000D03*
X132080000Y-132080000D03*
X138430000Y-64770000D03*
X186690000Y-133985000D03*
X187960000Y-133985000D03*
X189230000Y-133985000D03*
X161290000Y-108585000D03*
X161290000Y-107315000D03*
X146050000Y-76200000D03*
X146050000Y-73025000D03*
X188595000Y-71755000D03*
X149860000Y-88265000D03*
X181610000Y-97155000D03*
X180340000Y-97155000D03*
X179070000Y-97155000D03*
X181610000Y-102235000D03*
X180340000Y-102235000D03*
X179070000Y-102235000D03*
X176530000Y-104140000D03*
X173990000Y-106680000D03*
X173990000Y-104140000D03*
X172720000Y-106680000D03*
X172720000Y-104140000D03*
X171450000Y-106680000D03*
X171450000Y-104140000D03*
X180340000Y-103505000D03*
X189230000Y-74295000D03*
X186055000Y-74295000D03*
X184785000Y-74295000D03*
X189230000Y-71120000D03*
X189230000Y-69850000D03*
X185420000Y-85725000D03*
X184150000Y-85090000D03*
X182245000Y-84455000D03*
X180975000Y-84455000D03*
X177165000Y-86360000D03*
X173990000Y-86995000D03*
X172720000Y-86995000D03*
X171450000Y-86995000D03*
X173990000Y-90805000D03*
X172720000Y-90805000D03*
X171450000Y-90805000D03*
X179705000Y-76200000D03*
X177800000Y-76200000D03*
X182245000Y-79375000D03*
X180975000Y-79375000D03*
X161925000Y-76835000D03*
X161925000Y-79375000D03*
X161925000Y-81915000D03*
X130810000Y-95250000D03*
X137160000Y-96520000D03*
X137160000Y-85090000D03*
X154940000Y-58420000D03*
X149860000Y-59690000D03*
X151130000Y-59690000D03*
X148590000Y-59690000D03*
X149225000Y-61595000D03*
X168910000Y-65405000D03*
X135255000Y-55880000D03*
X146685000Y-59690000D03*
X136525000Y-49530000D03*
X137160000Y-109855000D03*
X130810000Y-108585000D03*
X145415000Y-97155000D03*
X149225000Y-99695000D03*
X153035000Y-95885000D03*
X141605000Y-125095000D03*
X150495000Y-111760000D03*
X137795000Y-80645000D03*
X137160000Y-98425000D03*
X173355000Y-111760000D03*
X191135000Y-78105000D03*
X190500000Y-78740000D03*
X189865000Y-78105000D03*
X189230000Y-78740000D03*
X188595000Y-78105000D03*
X165100000Y-82550000D03*
X177800000Y-88265000D03*
X176530000Y-99060000D03*
X174625000Y-96520000D03*
X175260000Y-117475000D03*
X165100000Y-118110000D03*
X135255000Y-125730000D03*
X186055000Y-63500000D03*
X150495000Y-113030000D03*
X146685000Y-115570000D03*
X146050000Y-121285000D03*
X153035000Y-113030000D03*
X142240000Y-69850000D03*
X140970000Y-69850000D03*
X166370000Y-90805000D03*
X166370000Y-92075000D03*
X130810000Y-109855000D03*
X158750000Y-54610000D03*
X135255000Y-49530000D03*
X130810000Y-96520000D03*
X152080000Y-108270000D03*
X176530000Y-100330000D03*
X185420000Y-95250000D03*
X186690000Y-95250000D03*
X172720000Y-94615000D03*
X171450000Y-94615000D03*
X154305000Y-66040000D03*
X160655000Y-64135000D03*
X151130000Y-92075000D03*
X157480000Y-90170000D03*
X158750000Y-88900000D03*
X151130000Y-88265000D03*
X148590000Y-85725000D03*
X149860000Y-80010000D03*
X139065000Y-55880000D03*
X149225000Y-77470000D03*
X137795000Y-55880000D03*
X162560000Y-125095000D03*
X140970000Y-114935000D03*
X135890000Y-114935000D03*
X162560000Y-130175000D03*
X160655000Y-132080000D03*
X157480000Y-132080000D03*
X153035000Y-131445000D03*
X150495000Y-125095000D03*
X146685000Y-125095000D03*
X158750000Y-133350000D03*
X152400000Y-132080000D03*
X150495000Y-126365000D03*
X146685000Y-126365000D03*
X142875000Y-127000000D03*
X191135000Y-56515000D03*
X192405000Y-57785000D03*
X137160000Y-106045000D03*
X145415000Y-93980000D03*
X137160000Y-95250000D03*
X137160000Y-112395000D03*
X153035000Y-111760000D03*
X136525000Y-113665000D03*
X132715000Y-86995000D03*
X134620000Y-72390000D03*
X134620000Y-59055000D03*
X167005000Y-65405000D03*
X175260000Y-86995000D03*
X179070000Y-85090000D03*
X173355000Y-109855000D03*
X140335000Y-62865000D03*
X133350000Y-62865000D03*
X124460000Y-130810000D03*
X185420000Y-146050000D03*
X140335000Y-55880000D03*
X151130000Y-107315000D03*
X144780000Y-107315000D03*
X137160000Y-108585000D03*
X137160000Y-107315000D03*
X137160000Y-104775000D03*
X137160000Y-103505000D03*
X137160000Y-100965000D03*
X137160000Y-99695000D03*
X137160000Y-93980000D03*
X137160000Y-92710000D03*
X137160000Y-90170000D03*
X137160000Y-88900000D03*
X137160000Y-86360000D03*
X136525000Y-55880000D03*
X142875000Y-55880000D03*
X164465000Y-65405000D03*
X142875000Y-62865000D03*
X145415000Y-55880000D03*
X155575000Y-110490000D03*
X156845000Y-108585000D03*
X141605000Y-55880000D03*
X172085000Y-65405000D03*
X154305000Y-109220000D03*
X139700000Y-111125000D03*
X136525000Y-126365000D03*
X136525000Y-123190000D03*
X185420000Y-99695000D03*
X153035000Y-93980000D03*
D54*
X140015000Y-67945000D02*
X141605000Y-67945000D01*
X141605000Y-67945000D02*
X142198878Y-67945000D01*
X148590000Y-64135000D02*
X147955000Y-64770000D01*
X147955000Y-64770000D02*
X147955000Y-67945000D01*
X150180000Y-64135000D02*
X148590000Y-64135000D01*
X143510000Y-69256122D02*
X143510000Y-74803000D01*
X142198878Y-67945000D02*
X143510000Y-69256122D01*
X151445000Y-85725000D02*
X151445000Y-84770000D01*
X151445000Y-84770000D02*
X151130000Y-84455000D01*
X144780000Y-95885000D02*
X145415000Y-95250000D01*
X145415000Y-95250000D02*
X149225000Y-95250000D01*
X150025100Y-100330000D02*
X150025100Y-96050100D01*
X150025100Y-96050100D02*
X149225000Y-95250000D01*
X144780000Y-95885000D02*
X143510000Y-95885000D01*
X150025100Y-101600000D02*
X150025100Y-100330000D01*
X150025100Y-100330000D02*
X150025100Y-100164900D01*
X149225000Y-92075000D02*
X149225000Y-90170000D01*
X150025100Y-103339900D02*
X149860000Y-103505000D01*
X150025100Y-103339900D02*
X150025100Y-101600000D01*
X179324000Y-81026000D02*
X177228500Y-81026000D01*
X177228500Y-81026000D02*
X177165000Y-80962500D01*
D55*
X161925000Y-90170000D02*
X161925000Y-90805000D01*
X161925000Y-90805000D02*
X159385000Y-93345000D01*
X159385000Y-93345000D02*
X159385000Y-95250000D01*
X159385000Y-95250000D02*
X159385000Y-96520000D01*
D54*
X130589020Y-132080000D02*
X132080000Y-132080000D01*
X136525000Y-64355980D02*
X138015980Y-64355980D01*
X138015980Y-64355980D02*
X138430000Y-64770000D01*
D56*
X186690000Y-131572000D02*
X186690000Y-133985000D01*
X187960000Y-131572000D02*
X187960000Y-133985000D01*
X189230000Y-131572000D02*
X189230000Y-133985000D01*
D57*
X162941000Y-107950000D02*
X161925000Y-107950000D01*
X161925000Y-107950000D02*
X161290000Y-108585000D01*
X161925000Y-107950000D02*
X161290000Y-107315000D01*
D58*
X145796000Y-74803000D02*
X145796000Y-75946000D01*
X145796000Y-75946000D02*
X146050000Y-76200000D01*
X145796000Y-74803000D02*
X145796000Y-73279000D01*
X145796000Y-73279000D02*
X146050000Y-73025000D01*
D56*
X190881000Y-73025000D02*
X190500000Y-73025000D01*
X190500000Y-73025000D02*
X188595000Y-71755000D01*
D54*
X149860000Y-88265000D02*
X150025100Y-88430100D01*
X150025100Y-88430100D02*
X150025100Y-90170000D01*
X180340000Y-99695000D02*
X180340000Y-98425000D01*
X180340000Y-98425000D02*
X181610000Y-97155000D01*
X180340000Y-99695000D02*
X180340000Y-97155000D01*
X180340000Y-98425000D02*
X179070000Y-97155000D01*
X180340000Y-99695000D02*
X180340000Y-100965000D01*
X180340000Y-100965000D02*
X181610000Y-102235000D01*
X180340000Y-99695000D02*
X180340000Y-102235000D01*
X180340000Y-100965000D02*
X179070000Y-102235000D01*
X173990000Y-105537000D02*
X173990000Y-106680000D01*
X173990000Y-105537000D02*
X173990000Y-104140000D01*
X172720000Y-105537000D02*
X172720000Y-106680000D01*
X172720000Y-105537000D02*
X172720000Y-104140000D01*
X171450000Y-105537000D02*
X171450000Y-106680000D01*
X171450000Y-105537000D02*
X171450000Y-104140000D01*
D56*
X189865000Y-99030000D02*
X187355000Y-99030000D01*
X185420000Y-105410000D02*
X184785000Y-106045000D01*
X185420000Y-100965000D02*
X185420000Y-105410000D01*
X187355000Y-99030000D02*
X185420000Y-100965000D01*
D54*
X181295000Y-103505000D02*
X180340000Y-103505000D01*
X181991000Y-81661000D02*
X181991000Y-84201000D01*
X181991000Y-84201000D02*
X182880000Y-85090000D01*
X181991000Y-81661000D02*
X181991000Y-84709000D01*
X181991000Y-84709000D02*
X181610000Y-85090000D01*
D56*
X187706000Y-73025000D02*
X187325000Y-73025000D01*
X187325000Y-73025000D02*
X186055000Y-71755000D01*
X190881000Y-73025000D02*
X191135000Y-73025000D01*
X191135000Y-73025000D02*
X192405000Y-74295000D01*
X187706000Y-73025000D02*
X187960000Y-73025000D01*
X187960000Y-73025000D02*
X189230000Y-74295000D01*
X187325000Y-73025000D02*
X186055000Y-74295000D01*
X187706000Y-73025000D02*
X186055000Y-73025000D01*
X186055000Y-73025000D02*
X184785000Y-74295000D01*
D54*
X190881000Y-73025000D02*
X190881000Y-72136000D01*
X190881000Y-72136000D02*
X189230000Y-71120000D01*
X190815000Y-80645000D02*
X192405000Y-80645000D01*
X192405000Y-70485000D02*
X189230000Y-69850000D01*
X192405000Y-80645000D02*
X192405000Y-70485000D01*
D12*
X186690000Y-84770000D02*
X185420000Y-85725000D01*
X181991000Y-81661000D02*
X181991000Y-82931000D01*
X181991000Y-82931000D02*
X184150000Y-85090000D01*
X181991000Y-84201000D02*
X182245000Y-84455000D01*
X181991000Y-81661000D02*
X181991000Y-83439000D01*
X181991000Y-83439000D02*
X180975000Y-84455000D01*
X177165000Y-84772500D02*
X177165000Y-86360000D01*
X173990000Y-89027000D02*
X173990000Y-86995000D01*
X172720000Y-89027000D02*
X172720000Y-86995000D01*
X171450000Y-89027000D02*
X171450000Y-86995000D01*
X173990000Y-89027000D02*
X173990000Y-90805000D01*
X172720000Y-89027000D02*
X172720000Y-90805000D01*
X171450000Y-89027000D02*
X171450000Y-90805000D01*
X181229000Y-77470000D02*
X180975000Y-77470000D01*
X180975000Y-77470000D02*
X179705000Y-76200000D01*
X179705000Y-76200000D02*
X177800000Y-76200000D01*
X180975000Y-77470000D02*
X179705000Y-76200000D01*
X181229000Y-77470000D02*
X181229000Y-78359000D01*
X181229000Y-78359000D02*
X182245000Y-79375000D01*
X181229000Y-77470000D02*
X181229000Y-79121000D01*
X181229000Y-79121000D02*
X180975000Y-79375000D01*
X160401000Y-76835000D02*
X160655000Y-76835000D01*
X160655000Y-76835000D02*
X161925000Y-75565000D01*
X160401000Y-76835000D02*
X161925000Y-76835000D01*
X160655000Y-76835000D02*
X161925000Y-78105000D01*
X160401000Y-80010000D02*
X161290000Y-80010000D01*
X161290000Y-80010000D02*
X161925000Y-79375000D01*
X160401000Y-83185000D02*
X160655000Y-83185000D01*
X160655000Y-83185000D02*
X161925000Y-81915000D01*
X160401000Y-83185000D02*
X161925000Y-83185000D01*
X160655000Y-80010000D02*
X161925000Y-80645000D01*
X160401000Y-80010000D02*
X160655000Y-80010000D01*
X160655000Y-83185000D02*
X161925000Y-84455000D01*
D54*
X129159000Y-95250000D02*
X130810000Y-95250000D01*
X138811000Y-96520000D02*
X137160000Y-96520000D01*
X138811000Y-85090000D02*
X137160000Y-85090000D01*
X154940000Y-56388000D02*
X154940000Y-58420000D01*
D56*
X149860000Y-57912000D02*
X149860000Y-59690000D01*
X151130000Y-57912000D02*
X151130000Y-59690000D01*
X148590000Y-57912000D02*
X148590000Y-59690000D01*
X150812500Y-61595000D02*
X149225000Y-61595000D01*
D54*
X169164000Y-63881000D02*
X169164000Y-65151000D01*
X169164000Y-65151000D02*
X168910000Y-65405000D01*
X135255000Y-57531000D02*
X135255000Y-55880000D01*
X146685000Y-57531000D02*
X146685000Y-59690000D01*
X136525000Y-47879000D02*
X136525000Y-49530000D01*
X138811000Y-109855000D02*
X137160000Y-109855000D01*
X129159000Y-108585000D02*
X130810000Y-108585000D01*
X144945100Y-96685100D02*
X145415000Y-97155000D01*
X143510000Y-96685100D02*
X144945100Y-96685100D01*
X149225000Y-101600000D02*
X149225000Y-99695000D01*
X154940000Y-95885000D02*
X153035000Y-95885000D01*
X140335000Y-125095000D02*
X141605000Y-125095000D01*
X150565000Y-111690000D02*
X150495000Y-111760000D01*
X150565000Y-110170000D02*
X150565000Y-111690000D01*
D56*
X136779000Y-79629000D02*
X136144000Y-79629000D01*
X137795000Y-80645000D02*
X136779000Y-79629000D01*
D54*
X138811000Y-98425000D02*
X137160000Y-98425000D01*
D56*
X173736000Y-111379000D02*
X173355000Y-111760000D01*
X173037500Y-111442500D02*
X171914820Y-111442500D01*
X173037500Y-111442500D02*
X173355000Y-111760000D01*
X174244000Y-111379000D02*
X173736000Y-111379000D01*
D54*
X177165000Y-82867500D02*
X178117500Y-82867500D01*
X178435000Y-82550000D02*
X178689000Y-82296000D01*
X178117500Y-82867500D02*
X178435000Y-82550000D01*
X179324000Y-82296000D02*
X178689000Y-82296000D01*
D56*
X190881000Y-76327000D02*
X190881000Y-77851000D01*
X190881000Y-77851000D02*
X191135000Y-78105000D01*
X190881000Y-76327000D02*
X190881000Y-78359000D01*
X190881000Y-78359000D02*
X190500000Y-78740000D01*
X190881000Y-76327000D02*
X190881000Y-77089000D01*
X190881000Y-77089000D02*
X189865000Y-78105000D01*
X187706000Y-76327000D02*
X187706000Y-77216000D01*
X187706000Y-77216000D02*
X189230000Y-78740000D01*
X187706000Y-77216000D02*
X188595000Y-78105000D01*
X189230000Y-84770000D02*
X189230000Y-85725000D01*
X179070000Y-86995000D02*
X177800000Y-88265000D01*
X187960000Y-86995000D02*
X179070000Y-86995000D01*
X189230000Y-85725000D02*
X187960000Y-86995000D01*
D54*
X176530000Y-99060000D02*
X177673000Y-99060000D01*
X177673000Y-99060000D02*
X177165000Y-99060000D01*
D59*
X175260000Y-117475000D02*
X173990000Y-118745000D01*
X173990000Y-118745000D02*
X165735000Y-118745000D01*
X165735000Y-118745000D02*
X165100000Y-118110000D01*
D54*
X131445000Y-134305000D02*
X133350000Y-134305000D01*
X133350000Y-134305000D02*
X133350000Y-133985000D01*
D59*
X133350000Y-137795000D02*
X133350000Y-133985000D01*
X133985000Y-146050000D02*
X133985000Y-142875000D01*
X133985000Y-138430000D02*
X133350000Y-137795000D01*
X133985000Y-142875000D02*
X133985000Y-138430000D01*
X133350000Y-133985000D02*
X134620000Y-132715000D01*
D54*
X177800000Y-61910000D02*
X177800000Y-62865000D01*
X178435000Y-63500000D02*
X186055000Y-63500000D01*
X177800000Y-62865000D02*
X178435000Y-63500000D01*
D59*
X150495000Y-113030000D02*
X153035000Y-113030000D01*
X146685000Y-120650000D02*
X146685000Y-115570000D01*
X146050000Y-121285000D02*
X146685000Y-120650000D01*
D54*
X151765000Y-108585000D02*
X151765000Y-112395000D01*
X151765000Y-113030000D02*
X153035000Y-113030000D01*
X151765000Y-112395000D02*
X151765000Y-113030000D01*
X152080000Y-108270000D02*
X151765000Y-108585000D01*
D58*
X141224000Y-74803000D02*
X141224000Y-70231000D01*
X141224000Y-70231000D02*
X140970000Y-69850000D01*
D55*
X140970000Y-69850000D02*
X139065000Y-69850000D01*
X131445000Y-74295000D02*
X134620000Y-74295000D01*
X134620000Y-74295000D02*
X139065000Y-69850000D01*
X139065000Y-69850000D02*
X142240000Y-69850000D01*
X128535000Y-44185000D02*
X127000000Y-45720000D01*
D54*
X183765000Y-52455000D02*
X183515000Y-52705000D01*
X177800000Y-54961000D02*
X180056000Y-52705000D01*
X177800000Y-55565000D02*
X177800000Y-54961000D01*
X180056000Y-52705000D02*
X183515000Y-52705000D01*
X185545000Y-52455000D02*
X183765000Y-52455000D01*
X129159000Y-109855000D02*
X130810000Y-109855000D01*
X139065000Y-133350000D02*
X139065000Y-134305000D01*
X139700000Y-132715000D02*
X140970000Y-132715000D01*
X139065000Y-133350000D02*
X139700000Y-132715000D01*
X142875000Y-133350000D02*
X142240000Y-132715000D01*
X142240000Y-132715000D02*
X140970000Y-132715000D01*
X142875000Y-134305000D02*
X142875000Y-133350000D01*
X146685000Y-133350000D02*
X146685000Y-134305000D01*
X147320000Y-132715000D02*
X148590000Y-132715000D01*
X146685000Y-133350000D02*
X147320000Y-132715000D01*
X150495000Y-133350000D02*
X149860000Y-132715000D01*
X149860000Y-132715000D02*
X148590000Y-132715000D01*
X150495000Y-134305000D02*
X150495000Y-133350000D01*
X162560000Y-132715000D02*
X163830000Y-132715000D01*
X161925000Y-133350000D02*
X161925000Y-134305000D01*
X161925000Y-133350000D02*
X162560000Y-132715000D01*
X163830000Y-132715000D02*
X164465000Y-132715000D01*
X165100000Y-132715000D02*
X164465000Y-132715000D01*
X165735000Y-133350000D02*
X165100000Y-132715000D01*
X165735000Y-134305000D02*
X165735000Y-133350000D01*
X169545000Y-133350000D02*
X169545000Y-134305000D01*
X170180000Y-132715000D02*
X171450000Y-132715000D01*
X169545000Y-133350000D02*
X170180000Y-132715000D01*
X173355000Y-133350000D02*
X172720000Y-132715000D01*
X172720000Y-132715000D02*
X171450000Y-132715000D01*
X173355000Y-134305000D02*
X173355000Y-133350000D01*
X177165000Y-133350000D02*
X177165000Y-134305000D01*
X177800000Y-132715000D02*
X179070000Y-132715000D01*
X177165000Y-133350000D02*
X177800000Y-132715000D01*
X180975000Y-133350000D02*
X180340000Y-132715000D01*
X180340000Y-132715000D02*
X179070000Y-132715000D01*
X180975000Y-134305000D02*
X180975000Y-133350000D01*
D55*
X119380000Y-53975000D02*
X119380000Y-73025000D01*
X119380000Y-46990000D02*
X119380000Y-53975000D01*
X125730000Y-46990000D02*
X127000000Y-45720000D01*
X125730000Y-46990000D02*
X119380000Y-46990000D01*
X119750000Y-73395000D02*
X119380000Y-73025000D01*
X121920000Y-73395000D02*
X119750000Y-73395000D01*
X119380000Y-95250000D02*
X119380000Y-73025000D01*
X119380000Y-103505000D02*
X119380000Y-95250000D01*
X119750000Y-103875000D02*
X119380000Y-103505000D01*
X121920000Y-103875000D02*
X119750000Y-103875000D01*
X119750000Y-134355000D02*
X119380000Y-133985000D01*
X119380000Y-133985000D02*
X119380000Y-103505000D01*
X121920000Y-134355000D02*
X119750000Y-134355000D01*
D54*
X127635000Y-96520000D02*
X126365000Y-95250000D01*
X126365000Y-95250000D02*
X119380000Y-95250000D01*
X129159000Y-96520000D02*
X127635000Y-96520000D01*
X128535000Y-39370000D02*
X128535000Y-40375000D01*
D55*
X128535000Y-44185000D02*
X128535000Y-39370000D01*
D54*
X128535000Y-36565000D02*
X128535000Y-39370000D01*
X158750000Y-53975000D02*
X157480000Y-52705000D01*
X157480000Y-52705000D02*
X157480000Y-36195000D01*
X157480000Y-36195000D02*
X128905000Y-36195000D01*
X158750000Y-54610000D02*
X158750000Y-53975000D01*
X158750000Y-56388000D02*
X158750000Y-54610000D01*
X128905000Y-36195000D02*
X128535000Y-36565000D01*
X135255000Y-49530000D02*
X134620000Y-50165000D01*
X134620000Y-50165000D02*
X130175000Y-50165000D01*
X130175000Y-50165000D02*
X126365000Y-53975000D01*
X126365000Y-53975000D02*
X119380000Y-53975000D01*
X135255000Y-47879000D02*
X135255000Y-49530000D01*
D55*
X153405000Y-145680000D02*
X153035000Y-146050000D01*
X126365000Y-142240000D02*
X126365000Y-146050000D01*
X124195000Y-134355000D02*
X126365000Y-136525000D01*
X126365000Y-136525000D02*
X126365000Y-142240000D01*
X124195000Y-134355000D02*
X121920000Y-134355000D01*
X152400000Y-146050000D02*
X153035000Y-146050000D01*
X147955000Y-146050000D02*
X152400000Y-146050000D01*
X140970000Y-146050000D02*
X147955000Y-146050000D01*
X133985000Y-146050000D02*
X140970000Y-146050000D01*
X126365000Y-146050000D02*
X133985000Y-146050000D01*
X153405000Y-143510000D02*
X153405000Y-145680000D01*
X183885000Y-145045000D02*
X182880000Y-146050000D01*
X164465000Y-146050000D02*
X152400000Y-146050000D01*
X171450000Y-146050000D02*
X164465000Y-146050000D01*
X178435000Y-146050000D02*
X171450000Y-146050000D01*
X182880000Y-146050000D02*
X178435000Y-146050000D01*
X183885000Y-143510000D02*
X183885000Y-145045000D01*
D54*
X178435000Y-145415000D02*
X178435000Y-146050000D01*
X178435000Y-146050000D02*
X178435000Y-145415000D01*
X178435000Y-142875000D02*
X178435000Y-139065000D01*
X179070000Y-138430000D02*
X179070000Y-132715000D01*
X178435000Y-139065000D02*
X179070000Y-138430000D01*
X178435000Y-146050000D02*
X178435000Y-142875000D01*
X171450000Y-142875000D02*
X171450000Y-132715000D01*
X171450000Y-146050000D02*
X171450000Y-142875000D01*
X164465000Y-145415000D02*
X164465000Y-146050000D01*
X164465000Y-146050000D02*
X164465000Y-145415000D01*
X163830000Y-133985000D02*
X163830000Y-132715000D01*
X164465000Y-139065000D02*
X163830000Y-138430000D01*
X163830000Y-138430000D02*
X163830000Y-133985000D01*
X164465000Y-139065000D02*
X164465000Y-142875000D01*
X164465000Y-146050000D02*
X164465000Y-142875000D01*
X147955000Y-142875000D02*
X147955000Y-139065000D01*
X148590000Y-138430000D02*
X148590000Y-132715000D01*
X147955000Y-139065000D02*
X148590000Y-138430000D01*
X147955000Y-146050000D02*
X147955000Y-142875000D01*
X140970000Y-142875000D02*
X140970000Y-132715000D01*
X140970000Y-146050000D02*
X140970000Y-142875000D01*
X134620000Y-132715000D02*
X135255000Y-133350000D01*
X135255000Y-133350000D02*
X135255000Y-134305000D01*
X135890000Y-125095000D02*
X137795000Y-125095000D01*
X135890000Y-125095000D02*
X135255000Y-125730000D01*
D59*
X134620000Y-132715000D02*
X135255000Y-132080000D01*
X135255000Y-128270000D02*
X135255000Y-132080000D01*
X135255000Y-125730000D02*
X135255000Y-128270000D01*
D54*
X129159000Y-96520000D02*
X130810000Y-96520000D01*
X152965000Y-108270000D02*
X152080000Y-108270000D01*
X176530000Y-100330000D02*
X177673000Y-100330000D01*
X177673000Y-100330000D02*
X177165000Y-100330000D01*
D56*
X169715180Y-110490000D02*
X167640000Y-110490000D01*
X167005000Y-109855000D02*
X167005000Y-108585000D01*
X167640000Y-110490000D02*
X167005000Y-109855000D01*
D54*
X181295000Y-105410000D02*
X176530000Y-105410000D01*
X176530000Y-108585000D02*
X167005000Y-108585000D01*
X167005000Y-108585000D02*
X167005000Y-108585000D01*
X176530000Y-105410000D02*
X176530000Y-108585000D01*
X152080000Y-64135000D02*
X153990000Y-64135000D01*
X154305000Y-66040000D02*
X155575000Y-66040000D01*
X158115000Y-69215000D02*
X156845000Y-70485000D01*
X158115000Y-67310000D02*
X158115000Y-69215000D01*
X157480000Y-66675000D02*
X158115000Y-67310000D01*
X156210000Y-66675000D02*
X157480000Y-66675000D01*
X155575000Y-66040000D02*
X156210000Y-66675000D01*
X160655000Y-64135000D02*
X159700000Y-64135000D01*
X153990000Y-64135000D02*
X153990000Y-65725000D01*
X153990000Y-65725000D02*
X154305000Y-66040000D01*
X153990000Y-62169000D02*
X153990000Y-62773397D01*
X153416000Y-61595000D02*
X153990000Y-62169000D01*
X152717500Y-61595000D02*
X153416000Y-61595000D01*
X153990000Y-62773397D02*
X153990000Y-63231000D01*
X153990000Y-63231000D02*
X153990000Y-64135000D01*
X154940000Y-61722000D02*
X154940000Y-62865000D01*
X154081603Y-62865000D02*
X153990000Y-62773397D01*
X154940000Y-62865000D02*
X154081603Y-62865000D01*
X154940000Y-60325000D02*
X154940000Y-61722000D01*
X158750000Y-61722000D02*
X158750000Y-60325000D01*
X158750000Y-60325000D02*
X154940000Y-60325000D01*
D56*
X155890000Y-64135000D02*
X156210000Y-64455000D01*
X156210000Y-64455000D02*
X156210000Y-65405000D01*
X156210000Y-65405000D02*
X156845000Y-66040000D01*
X156845000Y-66040000D02*
X160020000Y-66040000D01*
X160020000Y-66040000D02*
X160655000Y-66675000D01*
X160655000Y-66675000D02*
X160655000Y-69215000D01*
X160655000Y-69215000D02*
X159385000Y-70485000D01*
X156210000Y-61722000D02*
X156210000Y-63815000D01*
X156210000Y-63815000D02*
X155890000Y-64135000D01*
X157800000Y-64135000D02*
X157480000Y-64455000D01*
X157480000Y-64455000D02*
X157480000Y-65405000D01*
X157480000Y-65405000D02*
X161925000Y-65405000D01*
X161925000Y-65405000D02*
X163195000Y-66675000D01*
X163195000Y-66675000D02*
X163195000Y-69215000D01*
X163195000Y-69215000D02*
X161925000Y-70485000D01*
X157480000Y-61722000D02*
X157480000Y-63815000D01*
X157480000Y-63815000D02*
X157800000Y-64135000D01*
X154940000Y-91884500D02*
X154940000Y-90170000D01*
X179705000Y-71755000D02*
X179705000Y-70485000D01*
X156845000Y-73025000D02*
X156845000Y-88265000D01*
X157480000Y-72390000D02*
X156845000Y-73025000D01*
X179070000Y-72390000D02*
X157480000Y-72390000D01*
X179705000Y-71755000D02*
X179070000Y-72390000D01*
X154940000Y-90170000D02*
X156845000Y-88265000D01*
X154940000Y-93484700D02*
X156070300Y-93484700D01*
X156210000Y-89535000D02*
X156210000Y-92710000D01*
X182245000Y-71755000D02*
X182245000Y-70485000D01*
X157480000Y-73660000D02*
X157480000Y-88265000D01*
X158115000Y-73025000D02*
X157480000Y-73660000D01*
X180975000Y-73025000D02*
X158115000Y-73025000D01*
X182245000Y-71755000D02*
X180975000Y-73025000D01*
X157480000Y-88265000D02*
X156210000Y-89535000D01*
X156210000Y-93345000D02*
X156210000Y-92710000D01*
X156070300Y-93484700D02*
X156210000Y-93345000D01*
X150825200Y-90170000D02*
X150825200Y-91770200D01*
X150825200Y-91770200D02*
X151130000Y-92075000D01*
X158115000Y-88265000D02*
X157480000Y-88900000D01*
X181610000Y-73660000D02*
X158750000Y-73660000D01*
X158750000Y-73660000D02*
X158115000Y-74295000D01*
X158115000Y-74295000D02*
X158115000Y-88265000D01*
X184785000Y-70485000D02*
X181610000Y-73660000D01*
X157480000Y-89535000D02*
X157480000Y-90170000D01*
X157480000Y-88900000D02*
X157480000Y-89535000D01*
X151625300Y-90170000D02*
X151625300Y-88760300D01*
X186055000Y-69215000D02*
X186055000Y-71120000D01*
X186055000Y-71120000D02*
X182880000Y-74295000D01*
X182880000Y-74295000D02*
X159385000Y-74295000D01*
X159385000Y-74295000D02*
X158750000Y-74930000D01*
X158750000Y-74930000D02*
X158750000Y-88265000D01*
X158750000Y-88265000D02*
X158750000Y-88900000D01*
X186055000Y-69215000D02*
X184785000Y-67945000D01*
X151625300Y-88760300D02*
X151130000Y-88265000D01*
X148424900Y-90170000D02*
X148424900Y-89065100D01*
X148590000Y-88900000D02*
X148590000Y-85725000D01*
X148424900Y-89065100D02*
X148590000Y-88900000D01*
X148590000Y-85725000D02*
X149545000Y-85725000D01*
X149860000Y-73660000D02*
X150495000Y-74295000D01*
X139065000Y-62865000D02*
X149860000Y-73660000D01*
X139065000Y-57531000D02*
X139065000Y-62865000D01*
X150495000Y-79375000D02*
X149860000Y-80010000D01*
X150495000Y-74295000D02*
X150495000Y-79375000D01*
X146024600Y-90170000D02*
X146024600Y-85139740D01*
X146697170Y-84467170D02*
X146697170Y-84442830D01*
X146024600Y-85139740D02*
X146697170Y-84467170D01*
X149860000Y-80010000D02*
X149860000Y-82550000D01*
X149860000Y-82550000D02*
X149225000Y-83185000D01*
X149225000Y-83185000D02*
X147955000Y-83185000D01*
X147955000Y-83185000D02*
X146697170Y-84442830D01*
X146697170Y-84442830D02*
X146685000Y-84455000D01*
X152400000Y-57912000D02*
X152400000Y-56515000D01*
X140335000Y-54610000D02*
X139065000Y-55880000D01*
X146050000Y-54610000D02*
X140335000Y-54610000D01*
X147955000Y-56515000D02*
X146050000Y-54610000D01*
X152400000Y-56515000D02*
X147955000Y-56515000D01*
X139065000Y-57531000D02*
X139065000Y-55880000D01*
X149225000Y-77470000D02*
X149225000Y-78105000D01*
X153670000Y-58420000D02*
X153670000Y-56515000D01*
X160655000Y-60960000D02*
X159385000Y-59690000D01*
X159385000Y-59690000D02*
X154940000Y-59690000D01*
X154940000Y-59690000D02*
X153670000Y-58420000D01*
X193040000Y-76200000D02*
X193040000Y-67945000D01*
X185735000Y-112395000D02*
X187325000Y-112395000D01*
X191770000Y-111125000D02*
X193040000Y-109855000D01*
X188595000Y-111125000D02*
X191770000Y-111125000D01*
X187325000Y-112395000D02*
X188595000Y-111125000D01*
X193040000Y-76200000D02*
X193040000Y-109855000D01*
X164465000Y-66675000D02*
X160655000Y-62865000D01*
X191770000Y-66675000D02*
X164465000Y-66675000D01*
X193040000Y-67945000D02*
X191770000Y-66675000D01*
X160655000Y-62865000D02*
X160655000Y-60960000D01*
X139700000Y-53975000D02*
X137795000Y-55880000D01*
X146050000Y-53975000D02*
X139700000Y-53975000D01*
X148015958Y-55940958D02*
X146050000Y-53975000D01*
X153095958Y-55940958D02*
X148015958Y-55940958D01*
X153670000Y-56515000D02*
X153095958Y-55940958D01*
X145224500Y-90170000D02*
X145224500Y-85280500D01*
X137795000Y-62230000D02*
X149225000Y-73660000D01*
X149225000Y-73660000D02*
X149225000Y-78105000D01*
X149225000Y-78105000D02*
X149225000Y-78740000D01*
X149225000Y-78740000D02*
X148590000Y-79375000D01*
X148590000Y-79375000D02*
X148590000Y-81915000D01*
X148590000Y-81915000D02*
X146050000Y-84455000D01*
X137795000Y-62230000D02*
X137795000Y-57531000D01*
X145224500Y-85280500D02*
X146050000Y-84455000D01*
X137795000Y-57531000D02*
X137795000Y-55880000D01*
X170815000Y-116205000D02*
X175895000Y-116205000D01*
X167640000Y-116205000D02*
X170815000Y-116205000D01*
X158115000Y-105410000D02*
X158115000Y-106680000D01*
X155879800Y-94284800D02*
X156845000Y-95250000D01*
X156845000Y-95250000D02*
X156845000Y-97155000D01*
X156845000Y-97155000D02*
X158115000Y-98425000D01*
X158115000Y-98425000D02*
X158115000Y-105410000D01*
X154940000Y-94284800D02*
X155879800Y-94284800D01*
X158115000Y-106680000D02*
X165100000Y-113665000D01*
X165100000Y-113665000D02*
X167640000Y-116205000D01*
X178435000Y-125095000D02*
X179705000Y-125095000D01*
X176530000Y-123190000D02*
X178435000Y-125095000D01*
X176530000Y-116840000D02*
X176530000Y-123190000D01*
X175895000Y-116205000D02*
X176530000Y-116840000D01*
X179705000Y-125095000D02*
X181610000Y-125095000D01*
X181610000Y-125095000D02*
X182880000Y-126365000D01*
X182880000Y-126365000D02*
X182880000Y-133350000D01*
X180385000Y-138385000D02*
X180975000Y-137795000D01*
X180975000Y-137795000D02*
X180975000Y-136205000D01*
X180385000Y-143510000D02*
X180385000Y-138385000D01*
X180975000Y-137795000D02*
X182245000Y-137795000D01*
X182245000Y-137795000D02*
X182880000Y-137160000D01*
X182880000Y-137160000D02*
X182880000Y-133350000D01*
X179705000Y-125095000D02*
X179705000Y-125095000D01*
X168275000Y-125095000D02*
X165100000Y-125095000D01*
X157480000Y-106680000D02*
X163830000Y-113030000D01*
X155740100Y-96685100D02*
X154940000Y-96685100D01*
X157480000Y-98425000D02*
X157480000Y-105410000D01*
X155740100Y-96685100D02*
X157480000Y-98425000D01*
X157480000Y-105410000D02*
X157480000Y-106680000D01*
X163830000Y-123825000D02*
X163830000Y-113030000D01*
X165100000Y-125095000D02*
X163830000Y-123825000D01*
X176885000Y-138075000D02*
X176175000Y-138075000D01*
X172085000Y-125095000D02*
X168275000Y-125095000D01*
X175895000Y-128905000D02*
X172085000Y-125095000D01*
X175895000Y-137795000D02*
X175895000Y-128905000D01*
X176175000Y-138075000D02*
X175895000Y-137795000D01*
X176885000Y-138075000D02*
X177165000Y-137795000D01*
X177165000Y-137795000D02*
X177165000Y-136205000D01*
X176885000Y-143510000D02*
X176885000Y-138075000D01*
X173355000Y-137795000D02*
X173990000Y-137795000D01*
X163830000Y-126365000D02*
X162560000Y-125095000D01*
X171450000Y-126365000D02*
X163830000Y-126365000D01*
X174625000Y-129540000D02*
X171450000Y-126365000D01*
X174625000Y-137160000D02*
X174625000Y-129540000D01*
X173990000Y-137795000D02*
X174625000Y-137160000D01*
X156845000Y-106680000D02*
X162560000Y-112395000D01*
X162560000Y-125095000D02*
X162572170Y-125082830D01*
X162572170Y-125082830D02*
X162572170Y-112407170D01*
X162572170Y-112407170D02*
X162560000Y-112395000D01*
X156845000Y-105410000D02*
X156845000Y-106680000D01*
X155905200Y-97485200D02*
X156845000Y-98425000D01*
X156845000Y-98425000D02*
X156845000Y-105410000D01*
X155905200Y-97485200D02*
X154940000Y-97485200D01*
X173385000Y-137825000D02*
X173355000Y-137795000D01*
X173355000Y-137795000D02*
X173355000Y-136205000D01*
X173385000Y-143510000D02*
X173385000Y-137825000D01*
X132715000Y-106045000D02*
X132715000Y-107339340D01*
X141605000Y-126365000D02*
X142875000Y-125095000D01*
X142875000Y-123825000D02*
X142875000Y-125095000D01*
X140970000Y-121920000D02*
X142875000Y-123825000D01*
X140970000Y-114935000D02*
X140970000Y-121920000D01*
X131445000Y-93345000D02*
X132715000Y-94615000D01*
X132715000Y-94615000D02*
X132715000Y-95250000D01*
X131445000Y-93345000D02*
X131445000Y-85090000D01*
X132715000Y-106045000D02*
X132715000Y-95250000D01*
X135255000Y-114300000D02*
X135890000Y-114935000D01*
X135255000Y-112395000D02*
X135255000Y-114300000D01*
X133350000Y-110490000D02*
X135255000Y-112395000D01*
X133350000Y-107974340D02*
X133350000Y-110490000D01*
X132715000Y-107339340D02*
X133350000Y-107974340D01*
X131445000Y-71755000D02*
X130810000Y-71755000D01*
X130810000Y-71755000D02*
X130175000Y-72390000D01*
X129540000Y-83185000D02*
X131445000Y-85090000D01*
X129540000Y-77470000D02*
X129540000Y-83185000D01*
X130175000Y-76835000D02*
X129540000Y-77470000D01*
X130175000Y-72390000D02*
X130175000Y-76835000D01*
X131445000Y-85090000D02*
X131445000Y-85090000D01*
X131445000Y-85090000D02*
X131445000Y-85090000D01*
X142905000Y-137825000D02*
X142875000Y-137795000D01*
X142875000Y-137795000D02*
X142875000Y-136205000D01*
X142905000Y-143510000D02*
X142905000Y-137825000D01*
X147955000Y-107950000D02*
X148590000Y-107315000D01*
X151625300Y-104279700D02*
X151625300Y-101600000D01*
X151625300Y-104279700D02*
X148590000Y-107315000D01*
X142875000Y-137795000D02*
X143510000Y-137795000D01*
X147955000Y-129540000D02*
X147955000Y-108585000D01*
X144145000Y-133350000D02*
X147955000Y-129540000D01*
X144145000Y-137160000D02*
X144145000Y-133350000D01*
X143510000Y-137795000D02*
X144145000Y-137160000D01*
X147955000Y-108585000D02*
X147955000Y-107950000D01*
X141287500Y-126047500D02*
X141605000Y-126365000D01*
X140335000Y-126047500D02*
X141287500Y-126047500D01*
X141605000Y-130810000D02*
X144145000Y-133350000D01*
X141605000Y-126365000D02*
X141605000Y-130810000D01*
X144145000Y-125095000D02*
X146685000Y-125095000D01*
X162560000Y-130175000D02*
X161290000Y-128905000D01*
X157480000Y-132080000D02*
X160655000Y-132080000D01*
X153035000Y-127635000D02*
X153035000Y-131445000D01*
X150495000Y-125095000D02*
X153035000Y-127635000D01*
X156210000Y-105410000D02*
X156210000Y-106680000D01*
X156070300Y-98285300D02*
X156210000Y-98425000D01*
X156210000Y-98425000D02*
X156210000Y-105410000D01*
X154940000Y-98285300D02*
X156070300Y-98285300D01*
X156210000Y-106680000D02*
X159385000Y-109855000D01*
X169545000Y-137795000D02*
X168910000Y-137795000D01*
X161290000Y-111760000D02*
X159385000Y-109855000D01*
X161290000Y-130810000D02*
X161290000Y-128905000D01*
X161290000Y-128905000D02*
X161290000Y-111760000D01*
X161925000Y-131445000D02*
X161290000Y-130810000D01*
X166370000Y-131445000D02*
X161925000Y-131445000D01*
X168275000Y-133350000D02*
X166370000Y-131445000D01*
X168275000Y-137160000D02*
X168275000Y-133350000D01*
X168910000Y-137795000D02*
X168275000Y-137160000D01*
X169885000Y-138135000D02*
X169545000Y-137795000D01*
X169545000Y-137795000D02*
X169545000Y-136205000D01*
X169885000Y-143510000D02*
X169885000Y-138135000D01*
X160655000Y-133350000D02*
X161925000Y-132080000D01*
X158750000Y-133350000D02*
X160655000Y-133350000D01*
X151765000Y-131445000D02*
X152400000Y-132080000D01*
X151765000Y-127635000D02*
X151765000Y-131445000D01*
X150495000Y-126365000D02*
X151765000Y-127635000D01*
X146050000Y-126365000D02*
X146685000Y-126365000D01*
X145415000Y-127000000D02*
X146050000Y-126365000D01*
X142875000Y-127000000D02*
X145415000Y-127000000D01*
X166370000Y-138430000D02*
X167005000Y-137795000D01*
X154940000Y-108585000D02*
X156845000Y-110490000D01*
X156845000Y-110490000D02*
X159385000Y-110490000D01*
X159385000Y-110490000D02*
X160655000Y-111760000D01*
X160655000Y-111760000D02*
X160655000Y-129540000D01*
X154305000Y-104140000D02*
X154940000Y-104775000D01*
X153695400Y-99085400D02*
X153670000Y-99110800D01*
X153670000Y-99110800D02*
X153670000Y-100330000D01*
X153670000Y-100330000D02*
X154305000Y-100965000D01*
X154305000Y-100965000D02*
X154305000Y-104140000D01*
X153695400Y-99085400D02*
X154940000Y-99085400D01*
X154940000Y-104775000D02*
X154940000Y-105410000D01*
X154940000Y-105410000D02*
X154940000Y-108585000D01*
X160655000Y-130810000D02*
X160655000Y-129540000D01*
X161925000Y-132080000D02*
X160655000Y-130810000D01*
X165735000Y-132080000D02*
X161925000Y-132080000D01*
X167005000Y-133350000D02*
X165735000Y-132080000D01*
X167005000Y-137795000D02*
X167005000Y-133350000D01*
X166385000Y-138445000D02*
X166370000Y-138430000D01*
X166370000Y-138430000D02*
X165735000Y-137795000D01*
X165735000Y-137795000D02*
X165735000Y-136205000D01*
X166385000Y-143510000D02*
X166385000Y-138445000D01*
X187325000Y-55515000D02*
X182610000Y-55515000D01*
X179705000Y-58420000D02*
X177800000Y-58420000D01*
X182610000Y-55515000D02*
X179705000Y-58420000D01*
X157480000Y-56388000D02*
X157480000Y-57785000D01*
X177800000Y-58420000D02*
X177800000Y-57465000D01*
X158115000Y-58420000D02*
X177800000Y-58420000D01*
X157480000Y-57785000D02*
X158115000Y-58420000D01*
X157480000Y-56388000D02*
X157480000Y-56788050D01*
X185545000Y-56535000D02*
X182225000Y-56535000D01*
X179070000Y-59055000D02*
X177800000Y-59055000D01*
X179705000Y-59055000D02*
X179070000Y-59055000D01*
X182225000Y-56535000D02*
X179705000Y-59055000D01*
X177800000Y-60010000D02*
X177800000Y-59055000D01*
X156210000Y-57785000D02*
X157480000Y-59055000D01*
X157480000Y-59055000D02*
X177800000Y-59055000D01*
X156210000Y-57785000D02*
X156210000Y-56388000D01*
X187325000Y-57555000D02*
X188190000Y-57555000D01*
X189230000Y-56515000D02*
X191135000Y-56515000D01*
X188190000Y-57555000D02*
X189230000Y-56515000D01*
X146405000Y-138075000D02*
X146685000Y-137795000D01*
X146685000Y-137795000D02*
X146685000Y-136205000D01*
X146405000Y-143510000D02*
X146405000Y-138075000D01*
X152425400Y-104749600D02*
X149225000Y-107950000D01*
X149225000Y-107950000D02*
X149225000Y-108585000D01*
X146330000Y-138075000D02*
X146405000Y-138075000D01*
X149225000Y-109220000D02*
X149225000Y-108585000D01*
X149225000Y-129540000D02*
X149225000Y-109220000D01*
X145415000Y-133350000D02*
X149225000Y-129540000D01*
X145415000Y-137160000D02*
X145415000Y-133350000D01*
X146330000Y-138075000D02*
X145415000Y-137160000D01*
X152425400Y-101600000D02*
X152425400Y-104749600D01*
X150565000Y-109220000D02*
X149225000Y-109220000D01*
X189865000Y-57785000D02*
X192405000Y-57785000D01*
X188595000Y-59055000D02*
X189865000Y-57785000D01*
X188595000Y-59055000D02*
X186055000Y-59055000D01*
X185545000Y-58575000D02*
X185575000Y-58575000D01*
X185575000Y-58575000D02*
X186055000Y-59055000D01*
X139405000Y-138135000D02*
X139065000Y-137795000D01*
X139405000Y-143510000D02*
X139405000Y-138135000D01*
X139065000Y-137795000D02*
X139065000Y-136205000D01*
X150825200Y-103809800D02*
X149225000Y-105410000D01*
X137795000Y-132080000D02*
X137795000Y-132080000D01*
X138430000Y-137795000D02*
X137795000Y-137160000D01*
X137795000Y-137160000D02*
X137795000Y-132080000D01*
X138430000Y-137795000D02*
X139065000Y-137795000D01*
X143510000Y-111125000D02*
X149225000Y-105410000D01*
X142240000Y-111125000D02*
X143510000Y-111125000D01*
X137795000Y-115570000D02*
X142240000Y-111125000D01*
X137795000Y-121285000D02*
X137795000Y-115570000D01*
X139065000Y-122555000D02*
X137795000Y-121285000D01*
X139065000Y-126365000D02*
X139065000Y-122555000D01*
X139065000Y-130810000D02*
X139065000Y-126365000D01*
X137795000Y-132080000D02*
X139065000Y-130810000D01*
X150825200Y-101600000D02*
X150825200Y-103809800D01*
X139065000Y-124460000D02*
X139065000Y-126365000D01*
X139065000Y-124142500D02*
X139065000Y-124460000D01*
X139065000Y-124142500D02*
X139065000Y-124460000D01*
X140335000Y-124142500D02*
X139065000Y-124142500D01*
D54*
X126365000Y-131765000D02*
X127320000Y-131765000D01*
X127635000Y-132080000D02*
X128490980Y-132080000D01*
X127320000Y-131765000D02*
X127635000Y-132080000D01*
X136525000Y-66454020D02*
X136525000Y-67310000D01*
X137160000Y-67945000D02*
X138115000Y-67945000D01*
X136525000Y-67310000D02*
X137160000Y-67945000D01*
D56*
X140655000Y-84455000D02*
X140335000Y-84455000D01*
X140335000Y-84455000D02*
X139700000Y-83820000D01*
X139700000Y-83820000D02*
X137160000Y-83820000D01*
X138811000Y-87630000D02*
X135890000Y-87630000D01*
X135890000Y-91440000D02*
X138811000Y-91440000D01*
X135890000Y-87630000D02*
X135890000Y-91440000D01*
X139065000Y-78740000D02*
X139065000Y-81280000D01*
X138176000Y-78740000D02*
X139065000Y-78740000D01*
X139065000Y-81915000D02*
X139065000Y-81280000D01*
X135890000Y-87630000D02*
X135890000Y-85090000D01*
X135890000Y-85090000D02*
X137160000Y-83820000D01*
X137160000Y-83820000D02*
X137795000Y-83185000D01*
X137795000Y-83185000D02*
X139065000Y-81915000D01*
X137160000Y-81280000D02*
X137795000Y-81915000D01*
X137795000Y-81915000D02*
X139065000Y-81915000D01*
X134686040Y-81848960D02*
X135255000Y-81280000D01*
X134889240Y-81848960D02*
X134686040Y-81848960D01*
X135255000Y-81280000D02*
X137160000Y-81280000D01*
X134889240Y-83251040D02*
X134889240Y-84089240D01*
X135890000Y-92710000D02*
X135255000Y-92075000D01*
X135255000Y-92075000D02*
X135255000Y-85090000D01*
X135890000Y-92710000D02*
X135890000Y-95250000D01*
X135255000Y-84455000D02*
X135255000Y-85090000D01*
X134889240Y-84089240D02*
X135255000Y-84455000D01*
X134889240Y-83251040D02*
X134620000Y-83520280D01*
X135890000Y-102235000D02*
X135890000Y-95250000D01*
X137160000Y-95250000D02*
X138811000Y-95250000D01*
X135890000Y-95250000D02*
X137160000Y-95250000D01*
X138811000Y-102235000D02*
X135890000Y-102235000D01*
X138811000Y-106045000D02*
X137160000Y-106045000D01*
X135890000Y-106045000D02*
X137160000Y-106045000D01*
X135890000Y-102235000D02*
X135890000Y-106045000D01*
X151765000Y-92710000D02*
X150495000Y-93980000D01*
X150495000Y-93980000D02*
X146685000Y-93980000D01*
X146685000Y-93980000D02*
X145415000Y-93980000D01*
X154940000Y-92684600D02*
X151765000Y-92710000D01*
X134620000Y-109855000D02*
X137160000Y-112395000D01*
X131445000Y-83185000D02*
X131445000Y-84455000D01*
X131445000Y-81280000D02*
X131445000Y-83185000D01*
X132080000Y-80645000D02*
X131445000Y-81280000D01*
X132080000Y-80645000D02*
X132715000Y-80645000D01*
X134620000Y-93980000D02*
X134620000Y-106680000D01*
X133985000Y-93345000D02*
X134620000Y-93980000D01*
X133985000Y-86995000D02*
X133985000Y-93345000D01*
X131445000Y-84455000D02*
X133985000Y-86995000D01*
X134620000Y-106680000D02*
X134620000Y-109855000D01*
X132715000Y-81600000D02*
X132715000Y-80645000D01*
X132715000Y-80645000D02*
X133985000Y-80645000D01*
X135509000Y-77851000D02*
X136144000Y-77851000D01*
X134620000Y-80010000D02*
X133985000Y-80645000D01*
X134620000Y-78740000D02*
X134620000Y-80010000D01*
X135509000Y-77851000D02*
X134620000Y-78740000D01*
X132715000Y-81280000D02*
X132715000Y-80645000D01*
X132715000Y-81600000D02*
X132715000Y-81280000D01*
X152965000Y-111690000D02*
X152965000Y-110170000D01*
X152965000Y-111690000D02*
X153035000Y-111760000D01*
X132715000Y-93345000D02*
X133985000Y-94615000D01*
X133985000Y-94615000D02*
X133985000Y-110490000D01*
X133985000Y-110490000D02*
X135890000Y-112395000D01*
X135890000Y-112395000D02*
X135890000Y-113030000D01*
X135890000Y-113030000D02*
X136525000Y-113665000D01*
X132715000Y-86995000D02*
X132715000Y-93345000D01*
X134620000Y-72390000D02*
X134620000Y-72390000D01*
X134620000Y-59055000D02*
X134620000Y-72390000D01*
X167386000Y-65024000D02*
X167005000Y-65405000D01*
X167386000Y-63881000D02*
X167386000Y-65024000D01*
X169545000Y-60325000D02*
X169545000Y-60579000D01*
X169545000Y-60579000D02*
X168275000Y-61849000D01*
X167005000Y-60325000D02*
X167005000Y-60579000D01*
X167005000Y-60579000D02*
X168275000Y-61849000D01*
D12*
X179324000Y-83566000D02*
X179324000Y-84709000D01*
X175260000Y-86995000D02*
X175260000Y-89027000D01*
X179324000Y-84709000D02*
X179070000Y-85090000D01*
D54*
X177673000Y-101600000D02*
X176530000Y-101600000D01*
X175260000Y-102870000D02*
X175260000Y-105537000D01*
X176530000Y-101600000D02*
X175260000Y-102870000D01*
D56*
X171978320Y-109601000D02*
X171914820Y-109537500D01*
X173037500Y-109537500D02*
X173355000Y-109855000D01*
X171914820Y-109537500D02*
X173037500Y-109537500D01*
X173609000Y-109601000D02*
X173355000Y-109855000D01*
X174244000Y-109601000D02*
X173609000Y-109601000D01*
X176911000Y-109855000D02*
X176276000Y-110490000D01*
X177800000Y-109855000D02*
X176911000Y-109855000D01*
X132080000Y-106680000D02*
X132080000Y-107315000D01*
X190500000Y-138430000D02*
X189865000Y-139065000D01*
X189865000Y-139065000D02*
X187325000Y-139065000D01*
X134620000Y-113030000D02*
X134620000Y-114935000D01*
X133350000Y-69215000D02*
X133350000Y-69850000D01*
X133350000Y-69850000D02*
X132715000Y-70485000D01*
X132715000Y-70485000D02*
X130175000Y-70485000D01*
X130175000Y-70485000D02*
X129540000Y-71120000D01*
X129540000Y-71120000D02*
X129540000Y-76200000D01*
X129540000Y-76200000D02*
X128905000Y-76835000D01*
X128905000Y-76835000D02*
X128905000Y-83185000D01*
X128905000Y-83185000D02*
X130810000Y-85090000D01*
X130810000Y-85090000D02*
X130810000Y-93980000D01*
X130810000Y-93980000D02*
X132080000Y-95250000D01*
X132080000Y-95250000D02*
X132080000Y-106680000D01*
X140335000Y-60960000D02*
X140335000Y-62865000D01*
X133350000Y-62865000D02*
X133350000Y-69215000D01*
X128905000Y-126365000D02*
X124460000Y-130810000D01*
X128905000Y-118110000D02*
X128905000Y-126365000D01*
X130810000Y-116205000D02*
X128905000Y-118110000D01*
X133350000Y-116205000D02*
X130810000Y-116205000D01*
X134620000Y-114935000D02*
X133350000Y-116205000D01*
X185420000Y-140970000D02*
X187325000Y-139065000D01*
X185420000Y-146050000D02*
X185420000Y-140970000D01*
X190500000Y-136525000D02*
X190500000Y-131572000D01*
X190500000Y-136525000D02*
X190500000Y-138430000D01*
X134620000Y-112395000D02*
X134620000Y-113030000D01*
X132715000Y-110490000D02*
X134620000Y-112395000D01*
X132715000Y-107950000D02*
X132715000Y-110490000D01*
X132080000Y-107315000D02*
X132715000Y-107950000D01*
X146824700Y-90170000D02*
X146824700Y-84950300D01*
X146824700Y-84950300D02*
X147320000Y-84455000D01*
X140335000Y-57531000D02*
X140335000Y-60960000D01*
X140335000Y-60960000D02*
X140335000Y-63500000D01*
X147955000Y-83820000D02*
X147320000Y-84455000D01*
X149884340Y-83820000D02*
X147955000Y-83820000D01*
X151130000Y-82574340D02*
X149884340Y-83820000D01*
X151130000Y-74295000D02*
X151130000Y-82574340D01*
X140335000Y-63500000D02*
X151130000Y-74295000D01*
X140335000Y-57531000D02*
X140335000Y-55880000D01*
X137795000Y-124142500D02*
X134937500Y-124142500D01*
X134937500Y-124142500D02*
X134620000Y-123825000D01*
X134620000Y-128270000D02*
X134620000Y-127635000D01*
X133350000Y-125095000D02*
X134620000Y-123825000D01*
X133350000Y-126365000D02*
X133350000Y-125095000D01*
X134620000Y-127635000D02*
X133350000Y-126365000D01*
D54*
X126365000Y-133665000D02*
X127320000Y-133665000D01*
X127635000Y-133350000D02*
X128905000Y-133350000D01*
X127320000Y-133665000D02*
X127635000Y-133350000D01*
D56*
X128905000Y-134305000D02*
X128905000Y-133985000D01*
D54*
X128905000Y-133985000D02*
X128905000Y-133350000D01*
D56*
X128905000Y-133350000D02*
X132715000Y-133350000D01*
X132715000Y-133350000D02*
X133985000Y-132080000D01*
X147624800Y-104470200D02*
X146050000Y-106045000D01*
X142240000Y-109855000D02*
X144780000Y-107315000D01*
X142240000Y-109855000D02*
X142240000Y-109855000D01*
X134620000Y-117475000D02*
X142240000Y-109855000D01*
X134620000Y-123825000D02*
X134620000Y-117475000D01*
X134620000Y-128270000D02*
X134620000Y-128270000D01*
X134620000Y-131445000D02*
X134620000Y-128270000D01*
X133985000Y-132080000D02*
X134620000Y-131445000D01*
X147624800Y-101600000D02*
X147624800Y-104470200D01*
X144780000Y-107315000D02*
X146050000Y-106045000D01*
X150565000Y-108270000D02*
X150565000Y-107880000D01*
X150565000Y-107880000D02*
X151130000Y-107315000D01*
X138811000Y-108585000D02*
X137160000Y-108585000D01*
X146824700Y-104000300D02*
X144145000Y-106680000D01*
X142240000Y-108585000D02*
X138811000Y-108585000D01*
X142240000Y-108585000D02*
X144145000Y-106680000D01*
X146824700Y-101600000D02*
X146824700Y-104000300D01*
X138811000Y-107315000D02*
X137160000Y-107315000D01*
X146024600Y-103530400D02*
X144780000Y-104775000D01*
X142240000Y-107315000D02*
X138811000Y-107315000D01*
X142240000Y-107315000D02*
X144780000Y-104775000D01*
X146024600Y-101600000D02*
X146024600Y-103530400D01*
X138811000Y-104775000D02*
X137160000Y-104775000D01*
X145224500Y-103060500D02*
X143510000Y-104775000D01*
X145224500Y-103060500D02*
X145224500Y-101600000D01*
X138811000Y-104775000D02*
X143510000Y-104775000D01*
D12*
X138811000Y-103505000D02*
X137160000Y-103505000D01*
D56*
X140335000Y-103505000D02*
X138811000Y-103505000D01*
X140970000Y-102870000D02*
X140970000Y-101600000D01*
X140335000Y-103505000D02*
X140970000Y-102870000D01*
X142684500Y-99885500D02*
X141605000Y-100965000D01*
X143510000Y-99885500D02*
X142684500Y-99885500D01*
X141605000Y-100965000D02*
X140970000Y-101600000D01*
X138811000Y-100965000D02*
X137160000Y-100965000D01*
X140335000Y-100965000D02*
X141605000Y-99695000D01*
X142214600Y-99085400D02*
X143510000Y-99085400D01*
X142214600Y-99085400D02*
X141605000Y-99695000D01*
X138811000Y-100965000D02*
X140335000Y-100965000D01*
X138811000Y-99695000D02*
X137160000Y-99695000D01*
X140335000Y-99695000D02*
X140970000Y-99060000D01*
X141744700Y-98285300D02*
X143510000Y-98285300D01*
X141744700Y-98285300D02*
X140970000Y-99060000D01*
X138811000Y-99695000D02*
X140335000Y-99695000D01*
X138811000Y-93980000D02*
X137160000Y-93980000D01*
X142570200Y-97485200D02*
X143510000Y-97485200D01*
X142240000Y-97155000D02*
X142240000Y-96520000D01*
X142570200Y-97485200D02*
X142240000Y-97155000D01*
X138811000Y-93980000D02*
X139700000Y-93980000D01*
X139700000Y-93980000D02*
X141605000Y-95885000D01*
X141605000Y-95885000D02*
X142240000Y-96520000D01*
X138811000Y-92710000D02*
X137160000Y-92710000D01*
X139700000Y-92710000D02*
X140335000Y-93345000D01*
X142074900Y-95084900D02*
X143510000Y-95084900D01*
X142074900Y-95084900D02*
X140335000Y-93345000D01*
X138811000Y-92710000D02*
X139700000Y-92710000D01*
X138811000Y-90170000D02*
X137160000Y-90170000D01*
X140335000Y-90170000D02*
X140970000Y-90805000D01*
X140970000Y-90805000D02*
X140970000Y-92710000D01*
X142544800Y-94284800D02*
X143510000Y-94284800D01*
X142544800Y-94284800D02*
X140970000Y-92710000D01*
X138811000Y-90170000D02*
X140335000Y-90170000D01*
X138811000Y-88900000D02*
X137160000Y-88900000D01*
X140970000Y-88900000D02*
X141605000Y-89535000D01*
X141605000Y-89535000D02*
X141605000Y-90805000D01*
X142379700Y-93484700D02*
X143510000Y-93484700D01*
X141605000Y-92710000D02*
X141605000Y-90805000D01*
X142379700Y-93484700D02*
X141605000Y-92710000D01*
X138811000Y-88900000D02*
X140970000Y-88900000D01*
X138811000Y-86360000D02*
X137160000Y-86360000D01*
X143510000Y-92684600D02*
X142849600Y-92684600D01*
X141605000Y-86360000D02*
X142240000Y-86995000D01*
X142240000Y-86995000D02*
X142240000Y-88265000D01*
X142240000Y-92075000D02*
X142849600Y-92684600D01*
X142240000Y-92075000D02*
X142240000Y-88265000D01*
X138811000Y-86360000D02*
X141605000Y-86360000D01*
X143510000Y-91884500D02*
X143510000Y-86360000D01*
X136525000Y-61570660D02*
X147955000Y-73000660D01*
X147955000Y-73000660D02*
X147955000Y-81915000D01*
X147955000Y-81915000D02*
X144780000Y-85090000D01*
X136525000Y-61570660D02*
X136525000Y-57531000D01*
X143510000Y-86360000D02*
X144780000Y-85090000D01*
X136525000Y-55880000D02*
X136525000Y-57531000D01*
X142875000Y-57531000D02*
X142875000Y-55880000D01*
X152425400Y-88925400D02*
X152400000Y-88900000D01*
X152425400Y-90170000D02*
X152425400Y-88925400D01*
X152400000Y-88900000D02*
X152425400Y-88925400D01*
X142875000Y-62865000D02*
X142875000Y-57531000D01*
X142875000Y-64770000D02*
X142875000Y-62865000D01*
X142875000Y-64770000D02*
X152400000Y-74295000D01*
X152400000Y-88900000D02*
X152400000Y-74295000D01*
X164465000Y-63815000D02*
X164465000Y-65405000D01*
X153035000Y-74295000D02*
X153035000Y-88900000D01*
X144145000Y-57531000D02*
X144145000Y-55880000D01*
X145415000Y-55880000D02*
X145415000Y-57531000D01*
X144145000Y-55880000D02*
X145415000Y-55880000D01*
X153225500Y-89090500D02*
X153225500Y-90170000D01*
X153225500Y-89090500D02*
X153035000Y-88900000D01*
X144145000Y-57531000D02*
X144145000Y-65405000D01*
X144145000Y-65405000D02*
X153035000Y-74295000D01*
X155575000Y-105410000D02*
X155575000Y-107315000D01*
X155575000Y-102870000D02*
X155575000Y-105410000D01*
X154940000Y-99885500D02*
X154940000Y-102235000D01*
X154940000Y-102235000D02*
X155575000Y-102870000D01*
X154940000Y-130810000D02*
X161925000Y-137795000D01*
X154940000Y-111125000D02*
X154940000Y-130810000D01*
X155575000Y-110490000D02*
X154940000Y-111125000D01*
X155575000Y-107315000D02*
X156845000Y-108585000D01*
X162885000Y-138755000D02*
X161925000Y-137795000D01*
X161925000Y-137795000D02*
X161925000Y-136205000D01*
X162885000Y-143510000D02*
X162885000Y-138755000D01*
X164465000Y-60325000D02*
X164465000Y-61915000D01*
X147624800Y-90170000D02*
X147624800Y-84785200D01*
X151765000Y-82550000D02*
X149860000Y-84455000D01*
X149860000Y-84455000D02*
X147955000Y-84455000D01*
X141605000Y-64110660D02*
X141605000Y-57531000D01*
X151765000Y-74270660D02*
X151765000Y-81915000D01*
X141605000Y-64110660D02*
X151765000Y-74270660D01*
X151765000Y-81915000D02*
X151765000Y-82550000D01*
X147624800Y-84785200D02*
X147955000Y-84455000D01*
X141605000Y-57531000D02*
X141605000Y-55880000D01*
X172085000Y-65405000D02*
X172085000Y-63815000D01*
X172085000Y-60325000D02*
X172085000Y-61915000D01*
X133350000Y-85090000D02*
X133985000Y-85090000D01*
X135255000Y-93345000D02*
X134620000Y-92710000D01*
X134620000Y-92710000D02*
X134620000Y-86360000D01*
X135890000Y-109220000D02*
X135890000Y-109855000D01*
X135890000Y-107315000D02*
X135890000Y-109220000D01*
X135255000Y-106680000D02*
X135890000Y-107315000D01*
X135255000Y-95885000D02*
X135255000Y-106680000D01*
X137160000Y-111125000D02*
X139700000Y-111125000D01*
X135890000Y-109855000D02*
X137160000Y-111125000D01*
X135255000Y-95885000D02*
X135255000Y-93345000D01*
X132715000Y-84455000D02*
X133350000Y-85090000D01*
X132715000Y-84455000D02*
X132715000Y-83500000D01*
X134620000Y-85725000D02*
X134620000Y-86360000D01*
X133985000Y-85090000D02*
X134620000Y-85725000D01*
X149905000Y-138385000D02*
X150495000Y-137795000D01*
X150495000Y-137795000D02*
X150495000Y-136205000D01*
X149905000Y-143510000D02*
X149905000Y-138385000D01*
X153225500Y-104330500D02*
X153670000Y-104775000D01*
X151765000Y-137795000D02*
X150495000Y-137795000D01*
X154305000Y-105410000D02*
X153670000Y-104775000D01*
X154305000Y-109220000D02*
X154305000Y-105410000D01*
X154305000Y-135255000D02*
X154305000Y-109220000D01*
X151765000Y-137795000D02*
X154305000Y-135255000D01*
X153225500Y-101600000D02*
X153225500Y-104330500D01*
X135255000Y-137795000D02*
X135255000Y-136205000D01*
X135905000Y-138445000D02*
X135255000Y-137795000D01*
X135905000Y-138430000D02*
X135905000Y-138445000D01*
X135905000Y-143510000D02*
X135905000Y-138430000D01*
X136842500Y-126047500D02*
X136525000Y-126365000D01*
X148424900Y-104940100D02*
X148424900Y-101600000D01*
X136525000Y-123190000D02*
X136525000Y-116205000D01*
X136525000Y-116205000D02*
X142240000Y-110490000D01*
X142240000Y-110490000D02*
X142875000Y-110490000D01*
X147955000Y-105410000D02*
X142875000Y-110490000D01*
X148424900Y-104940100D02*
X147955000Y-105410000D01*
X137795000Y-126047500D02*
X136842500Y-126047500D01*
X135905000Y-138415000D02*
X136525000Y-137795000D01*
X135905000Y-138415000D02*
X135905000Y-138430000D01*
X136525000Y-126365000D02*
X136525000Y-137795000D01*
D54*
X128905000Y-136205000D02*
X128905000Y-137160000D01*
X129540000Y-137795000D02*
X128905000Y-137160000D01*
X130175000Y-137795000D02*
X131445000Y-137795000D01*
X130175000Y-137795000D02*
X129540000Y-137795000D01*
X132405000Y-138755000D02*
X131445000Y-137795000D01*
D56*
X131445000Y-137795000D02*
X131445000Y-136205000D01*
D54*
X132405000Y-143510000D02*
X132405000Y-138755000D01*
D56*
X186690000Y-80960000D02*
X187645000Y-80960000D01*
X187960000Y-80645000D02*
X188915000Y-80645000D01*
X187645000Y-80960000D02*
X187960000Y-80645000D01*
X184658000Y-81026000D02*
X186624000Y-81026000D01*
X186624000Y-81026000D02*
X186690000Y-80960000D01*
X186690000Y-82870000D02*
X189230000Y-82870000D01*
X184658000Y-82296000D02*
X186116000Y-82296000D01*
X186116000Y-82296000D02*
X186690000Y-82870000D01*
X183007000Y-99060000D02*
X184150000Y-99060000D01*
X184785000Y-99695000D02*
X185420000Y-99695000D01*
X184150000Y-99060000D02*
X184785000Y-99695000D01*
X185420000Y-98740000D02*
X185420000Y-99695000D01*
X183195000Y-103505000D02*
X184785000Y-103505000D01*
X183195000Y-105410000D02*
X184150000Y-105410000D01*
X184150000Y-100330000D02*
X184785000Y-100965000D01*
X184785000Y-100965000D02*
X184785000Y-102870000D01*
X184150000Y-100330000D02*
X183007000Y-100330000D01*
X184785000Y-104775000D02*
X184785000Y-103505000D01*
X184785000Y-103505000D02*
X184785000Y-102870000D01*
X184150000Y-105410000D02*
X184785000Y-104775000D01*
X183007000Y-100330000D02*
X183515000Y-100330000D01*
X179705000Y-107315000D02*
X177800000Y-107315000D01*
X180340000Y-109855000D02*
X182880000Y-112395000D01*
X180340000Y-107950000D02*
X180340000Y-109855000D01*
X179705000Y-107315000D02*
X180340000Y-107950000D01*
X183835000Y-112395000D02*
X182880000Y-112395000D01*
X166370000Y-51435000D02*
X168910000Y-51435000D01*
X165735000Y-50800000D02*
X166370000Y-51435000D01*
X165735000Y-50800000D02*
X165735000Y-48895000D01*
X169545000Y-52070000D02*
X168910000Y-51435000D01*
X169545000Y-52705000D02*
X169545000Y-52070000D01*
D54*
X189865000Y-109530000D02*
X188285000Y-109530000D01*
X187960000Y-109855000D02*
X183400000Y-109855000D01*
X188285000Y-109530000D02*
X187960000Y-109855000D01*
X183400000Y-107315000D02*
X188580000Y-107315000D01*
X188580000Y-107315000D02*
X189865000Y-106030000D01*
D56*
X121920000Y-130855000D02*
X123145000Y-130855000D01*
X126365000Y-128270000D02*
X125095000Y-128270000D01*
X125095000Y-128270000D02*
X124460000Y-128270000D01*
X124460000Y-128270000D02*
X123825000Y-128905000D01*
X123825000Y-128905000D02*
X123825000Y-130175000D01*
X128270000Y-126365000D02*
X128270000Y-111125000D01*
X131445000Y-107315000D02*
X132080000Y-107950000D01*
X132080000Y-107950000D02*
X132080000Y-109855000D01*
X132080000Y-109855000D02*
X130810000Y-111125000D01*
X130810000Y-111125000D02*
X128270000Y-111125000D01*
X131445000Y-107315000D02*
X129159000Y-107315000D01*
X128270000Y-126365000D02*
X126365000Y-128270000D01*
X123145000Y-130855000D02*
X123825000Y-130175000D01*
X126645000Y-127355000D02*
X127635000Y-126365000D01*
X127635000Y-126365000D02*
X127635000Y-125730000D01*
X127635000Y-125730000D02*
X127635000Y-111125000D01*
X128270000Y-106045000D02*
X127635000Y-106680000D01*
X127635000Y-106680000D02*
X127635000Y-111125000D01*
X128270000Y-106045000D02*
X129159000Y-106045000D01*
X121920000Y-127355000D02*
X126645000Y-127355000D01*
X126335000Y-123855000D02*
X127000000Y-123190000D01*
X127000000Y-123190000D02*
X127000000Y-120650000D01*
X127000000Y-120650000D02*
X127000000Y-107315000D01*
X128270000Y-104775000D02*
X127000000Y-106045000D01*
X127000000Y-106045000D02*
X127000000Y-107315000D01*
X128270000Y-104775000D02*
X129159000Y-104775000D01*
X121920000Y-123855000D02*
X126335000Y-123855000D01*
X128270000Y-103505000D02*
X126365000Y-105410000D01*
X126365000Y-117475000D02*
X126365000Y-118110000D01*
X126365000Y-105410000D02*
X126365000Y-117475000D01*
X129159000Y-103505000D02*
X128270000Y-103505000D01*
X126025000Y-120355000D02*
X126365000Y-120015000D01*
X126365000Y-120015000D02*
X126365000Y-117475000D01*
X121920000Y-120355000D02*
X126025000Y-120355000D01*
X125080000Y-116855000D02*
X125730000Y-116205000D01*
X125730000Y-116205000D02*
X125730000Y-114935000D01*
X128270000Y-102235000D02*
X129159000Y-102235000D01*
X125730000Y-104775000D02*
X125730000Y-114935000D01*
X128270000Y-102235000D02*
X125730000Y-104775000D01*
X121920000Y-116855000D02*
X125080000Y-116855000D01*
X124770000Y-113355000D02*
X125095000Y-113030000D01*
X125095000Y-113030000D02*
X125095000Y-111125000D01*
X125095000Y-111125000D02*
X125095000Y-106680000D01*
X128270000Y-100965000D02*
X125095000Y-104140000D01*
X125095000Y-104140000D02*
X125095000Y-106680000D01*
X128270000Y-100965000D02*
X129159000Y-100965000D01*
X121920000Y-113355000D02*
X124770000Y-113355000D01*
X121920000Y-100375000D02*
X125685000Y-100375000D01*
X125685000Y-100375000D02*
X126365000Y-99695000D01*
X126365000Y-99695000D02*
X129159000Y-99695000D01*
X121920000Y-96875000D02*
X124815000Y-96875000D01*
X124815000Y-96875000D02*
X126365000Y-98425000D01*
X126365000Y-98425000D02*
X129159000Y-98425000D01*
X121920000Y-93375000D02*
X127665000Y-93375000D01*
X127665000Y-93375000D02*
X128270000Y-93980000D01*
X128270000Y-93980000D02*
X129159000Y-93980000D01*
X121920000Y-89875000D02*
X125435000Y-89875000D01*
X125435000Y-89875000D02*
X125730000Y-90170000D01*
X128270000Y-92710000D02*
X125730000Y-90170000D01*
X128270000Y-92710000D02*
X129159000Y-92710000D01*
X121920000Y-86375000D02*
X122570000Y-86375000D01*
X122570000Y-86375000D02*
X124460000Y-87630000D01*
X128270000Y-91440000D02*
X124460000Y-87630000D01*
X129159000Y-91440000D02*
X128270000Y-91440000D01*
X124150000Y-82875000D02*
X121920000Y-82875000D01*
X124150000Y-82875000D02*
X125095000Y-83820000D01*
X129159000Y-90170000D02*
X128270000Y-90170000D01*
X125095000Y-83820000D02*
X125095000Y-86995000D01*
X128270000Y-90170000D02*
X125095000Y-86995000D01*
X128270000Y-88900000D02*
X129159000Y-88900000D01*
X128270000Y-88900000D02*
X125730000Y-86360000D01*
X125730000Y-86360000D02*
X125730000Y-71755000D01*
X123870000Y-69895000D02*
X125730000Y-71755000D01*
X121920000Y-69895000D02*
X123870000Y-69895000D01*
X129159000Y-87630000D02*
X128270000Y-87630000D01*
X128270000Y-87630000D02*
X126365000Y-85725000D01*
X126365000Y-67310000D02*
X126365000Y-85725000D01*
X125450000Y-66395000D02*
X126365000Y-67310000D01*
X125450000Y-66395000D02*
X121920000Y-66395000D01*
X128270000Y-86360000D02*
X129159000Y-86360000D01*
X128270000Y-86360000D02*
X127000000Y-85090000D01*
X127000000Y-85090000D02*
X127000000Y-64770000D01*
X125125000Y-62895000D02*
X127000000Y-64770000D01*
X121920000Y-62895000D02*
X125125000Y-62895000D01*
X128270000Y-85090000D02*
X129159000Y-85090000D01*
X127635000Y-84455000D02*
X128270000Y-85090000D01*
X127635000Y-59690000D02*
X127635000Y-84455000D01*
X127340000Y-59395000D02*
X127635000Y-59690000D01*
X121920000Y-59395000D02*
X127340000Y-59395000D01*
X137795000Y-50165000D02*
X137795000Y-47879000D01*
X137795000Y-50165000D02*
X135890000Y-52070000D01*
X135890000Y-52070000D02*
X130175000Y-52070000D01*
X129540000Y-52070000D02*
X130175000Y-52070000D01*
X125715000Y-55895000D02*
X129540000Y-52070000D01*
X121920000Y-55895000D02*
X125715000Y-55895000D01*
X141605000Y-45720000D02*
X139065000Y-43180000D01*
X135535000Y-42190000D02*
X135535000Y-39370000D01*
X136525000Y-43180000D02*
X139065000Y-43180000D01*
X135535000Y-42190000D02*
X136525000Y-43180000D01*
X141605000Y-47879000D02*
X141605000Y-45720000D01*
X142875000Y-45085000D02*
X140970000Y-43180000D01*
X139035000Y-41245000D02*
X139035000Y-39370000D01*
X139035000Y-41245000D02*
X140970000Y-43180000D01*
X142875000Y-47879000D02*
X142875000Y-45085000D01*
X142535000Y-40935000D02*
X142875000Y-41275000D01*
X144145000Y-42545000D02*
X144145000Y-47879000D01*
X144145000Y-42545000D02*
X142875000Y-41275000D01*
X142535000Y-39370000D02*
X142535000Y-40935000D01*
X145415000Y-42545000D02*
X146035000Y-41925000D01*
X146035000Y-41925000D02*
X146035000Y-39370000D01*
X145415000Y-47879000D02*
X145415000Y-42545000D01*
X131445000Y-69215000D02*
X128905000Y-69215000D01*
X146685000Y-49530000D02*
X142875000Y-52705000D01*
X142875000Y-52705000D02*
X130175000Y-52705000D01*
X130175000Y-52705000D02*
X128270000Y-54610000D01*
X128270000Y-54610000D02*
X128270000Y-67310000D01*
X146685000Y-49530000D02*
X146685000Y-47879000D01*
X128270000Y-68580000D02*
X128270000Y-67310000D01*
X128905000Y-69215000D02*
X128270000Y-68580000D01*
X139065000Y-47879000D02*
X139065000Y-46990000D01*
X139065000Y-46990000D02*
X138430000Y-46355000D01*
X138430000Y-46355000D02*
X132715000Y-46355000D01*
X126675000Y-52395000D02*
X132715000Y-46355000D01*
X126675000Y-52395000D02*
X121920000Y-52395000D01*
X132035000Y-42500000D02*
X133985000Y-44450000D01*
X140335000Y-46355000D02*
X140335000Y-47879000D01*
X138430000Y-44450000D02*
X133985000Y-44450000D01*
X140335000Y-46355000D02*
X138430000Y-44450000D01*
X132035000Y-39370000D02*
X132035000Y-42500000D01*
D54*
X153504900Y-95084900D02*
X153035000Y-94615000D01*
X153035000Y-94615000D02*
X153035000Y-93980000D01*
X154940000Y-95084900D02*
X153504900Y-95084900D01*
D56*
G36*
X151638000Y-62738000D02*
X146177000Y-62738000D01*
X146177000Y-56642000D01*
X147363580Y-56642000D01*
X147595790Y-56874210D01*
X147760597Y-56984331D01*
X147955000Y-57023000D01*
X151638000Y-57023000D01*
X151638000Y-62738000D01*
X151638000Y-62738000D01*
G37*
X151638000Y-62738000D02*
X146177000Y-62738000D01*
X146177000Y-56642000D01*
X147363580Y-56642000D01*
X147595790Y-56874210D01*
X147760597Y-56984331D01*
X147955000Y-57023000D01*
X151638000Y-57023000D01*
X151638000Y-62738000D01*
G36*
X157353000Y-55053230D02*
X157053971Y-55053230D01*
X156845000Y-55139788D01*
X156636030Y-55053230D01*
X156383411Y-55053230D01*
X155783971Y-55053230D01*
X155575000Y-55139788D01*
X155366030Y-55053230D01*
X155113411Y-55053230D01*
X154570000Y-55053230D01*
X154570000Y-40396310D01*
X154570000Y-40143691D01*
X154570000Y-38343691D01*
X154473327Y-38110302D01*
X154294699Y-37931673D01*
X154061310Y-37835000D01*
X153808691Y-37835000D01*
X152008691Y-37835000D01*
X151775302Y-37931673D01*
X151596673Y-38110301D01*
X151500000Y-38343690D01*
X151500000Y-38596309D01*
X151500000Y-40396309D01*
X151596673Y-40629698D01*
X151775301Y-40808327D01*
X152008690Y-40905000D01*
X152261309Y-40905000D01*
X154061309Y-40905000D01*
X154294698Y-40808327D01*
X154473327Y-40629699D01*
X154570000Y-40396310D01*
X154570000Y-55053230D01*
X154513971Y-55053230D01*
X154280582Y-55149903D01*
X154101953Y-55328531D01*
X154005280Y-55561920D01*
X154005280Y-55753000D01*
X153985629Y-55753000D01*
X153634773Y-55402143D01*
X153387563Y-55236962D01*
X153095958Y-55178958D01*
X148331588Y-55178958D01*
X147447000Y-54294369D01*
X147447000Y-49530000D01*
X147447000Y-48904025D01*
X147477327Y-48873699D01*
X147574000Y-48640310D01*
X147574000Y-48387691D01*
X147574000Y-47117691D01*
X147477327Y-46884302D01*
X147447000Y-46853974D01*
X147447000Y-39972243D01*
X147569733Y-39676670D01*
X147570265Y-39066009D01*
X147447000Y-38767684D01*
X147447000Y-37020500D01*
X156654500Y-37020500D01*
X156654500Y-52705000D01*
X156717337Y-53020906D01*
X156896283Y-53288717D01*
X157353000Y-53745433D01*
X157353000Y-55053230D01*
X157353000Y-55053230D01*
G37*
X157353000Y-55053230D02*
X157053971Y-55053230D01*
X156845000Y-55139788D01*
X156636030Y-55053230D01*
X156383411Y-55053230D01*
X155783971Y-55053230D01*
X155575000Y-55139788D01*
X155366030Y-55053230D01*
X155113411Y-55053230D01*
X154570000Y-55053230D01*
X154570000Y-40396310D01*
X154570000Y-40143691D01*
X154570000Y-38343691D01*
X154473327Y-38110302D01*
X154294699Y-37931673D01*
X154061310Y-37835000D01*
X153808691Y-37835000D01*
X152008691Y-37835000D01*
X151775302Y-37931673D01*
X151596673Y-38110301D01*
X151500000Y-38343690D01*
X151500000Y-38596309D01*
X151500000Y-40396309D01*
X151596673Y-40629698D01*
X151775301Y-40808327D01*
X152008690Y-40905000D01*
X152261309Y-40905000D01*
X154061309Y-40905000D01*
X154294698Y-40808327D01*
X154473327Y-40629699D01*
X154570000Y-40396310D01*
X154570000Y-55053230D01*
X154513971Y-55053230D01*
X154280582Y-55149903D01*
X154101953Y-55328531D01*
X154005280Y-55561920D01*
X154005280Y-55753000D01*
X153985629Y-55753000D01*
X153634773Y-55402143D01*
X153387563Y-55236962D01*
X153095958Y-55178958D01*
X148331588Y-55178958D01*
X147447000Y-54294369D01*
X147447000Y-49530000D01*
X147447000Y-48904025D01*
X147477327Y-48873699D01*
X147574000Y-48640310D01*
X147574000Y-48387691D01*
X147574000Y-47117691D01*
X147477327Y-46884302D01*
X147447000Y-46853974D01*
X147447000Y-39972243D01*
X147569733Y-39676670D01*
X147570265Y-39066009D01*
X147447000Y-38767684D01*
X147447000Y-37020500D01*
X156654500Y-37020500D01*
X156654500Y-52705000D01*
X156717337Y-53020906D01*
X156896283Y-53288717D01*
X157353000Y-53745433D01*
X157353000Y-55053230D01*
G36*
X192532000Y-93599000D02*
X190500000Y-93599000D01*
X188752815Y-93599000D01*
X185577815Y-90424000D01*
X181229000Y-90424000D01*
X181229000Y-93345000D01*
X181229000Y-95407815D01*
X181864000Y-96042815D01*
X181864000Y-98806000D01*
X181926230Y-98806000D01*
X181926230Y-98836066D01*
X181926230Y-99435506D01*
X181984234Y-99575540D01*
X182091411Y-99682716D01*
X182118000Y-99693729D01*
X182118000Y-99696270D01*
X182091410Y-99707284D01*
X181984234Y-99814461D01*
X181926230Y-99954495D01*
X181926230Y-100106066D01*
X181926230Y-100705506D01*
X181984234Y-100845540D01*
X182091411Y-100952716D01*
X182118000Y-100963729D01*
X182118000Y-101092000D01*
X184023000Y-101092000D01*
X184023000Y-102108000D01*
X182118000Y-102108000D01*
X182118000Y-104648000D01*
X182010999Y-104648000D01*
X181967996Y-104544180D01*
X181860819Y-104437004D01*
X181720785Y-104379000D01*
X181569214Y-104379000D01*
X180869214Y-104379000D01*
X180729180Y-104437004D01*
X180622004Y-104544181D01*
X180579000Y-104648000D01*
X180287395Y-104648000D01*
X180096895Y-104838500D01*
X176530000Y-104838500D01*
X176311296Y-104882003D01*
X176125888Y-105005888D01*
X176002003Y-105191296D01*
X175958500Y-105410000D01*
X175958500Y-107823000D01*
X167767000Y-107823000D01*
X167767000Y-106172000D01*
X170942000Y-106172000D01*
X170942000Y-103124000D01*
X174688500Y-103124000D01*
X174688500Y-104570194D01*
X174637284Y-104621411D01*
X174579280Y-104761445D01*
X174579280Y-104913016D01*
X174579280Y-106312556D01*
X174637284Y-106452590D01*
X174744461Y-106559766D01*
X174884495Y-106617770D01*
X175036066Y-106617770D01*
X175635506Y-106617770D01*
X175775540Y-106559766D01*
X175882716Y-106452589D01*
X175940720Y-106312555D01*
X175940720Y-106160984D01*
X175940720Y-104761444D01*
X175882716Y-104621410D01*
X175831500Y-104570194D01*
X175831500Y-103124000D01*
X176276000Y-103124000D01*
X176276000Y-102997000D01*
X176582605Y-102997000D01*
X177217605Y-102362000D01*
X178562000Y-102362000D01*
X178562000Y-102233729D01*
X178588590Y-102222716D01*
X178695766Y-102115539D01*
X178753770Y-101975505D01*
X178753770Y-101823934D01*
X178753770Y-101224494D01*
X178695766Y-101084460D01*
X178588589Y-100977284D01*
X178562000Y-100966270D01*
X178562000Y-100963729D01*
X178588590Y-100952716D01*
X178695766Y-100845539D01*
X178753770Y-100705505D01*
X178753770Y-100553934D01*
X178753770Y-99954494D01*
X178695766Y-99814460D01*
X178588589Y-99707284D01*
X178562000Y-99696270D01*
X178562000Y-99693729D01*
X178588590Y-99682716D01*
X178695766Y-99575539D01*
X178753770Y-99435505D01*
X178753770Y-99283934D01*
X178753770Y-98806000D01*
X178816000Y-98806000D01*
X178816000Y-91694000D01*
X178562000Y-91694000D01*
X175984025Y-91694000D01*
X175984025Y-86851639D01*
X175874050Y-86585479D01*
X175670592Y-86381665D01*
X175404624Y-86271226D01*
X175116639Y-86270975D01*
X174850479Y-86380950D01*
X174646665Y-86584408D01*
X174536226Y-86850376D01*
X174535975Y-87138361D01*
X174645950Y-87404521D01*
X174790100Y-87548923D01*
X174790100Y-87985329D01*
X174744460Y-88004234D01*
X174637284Y-88111411D01*
X174579280Y-88251445D01*
X174579280Y-88403016D01*
X174579280Y-89802556D01*
X174637284Y-89942590D01*
X174744461Y-90049766D01*
X174884495Y-90107770D01*
X175036066Y-90107770D01*
X175635506Y-90107770D01*
X175775540Y-90049766D01*
X175882716Y-89942589D01*
X175940720Y-89802555D01*
X175940720Y-89650984D01*
X175940720Y-88251444D01*
X175882716Y-88111410D01*
X175775539Y-88004234D01*
X175729900Y-87985329D01*
X175729900Y-87548776D01*
X175873335Y-87405592D01*
X175983774Y-87139624D01*
X175984025Y-86851639D01*
X175984025Y-91694000D01*
X175260000Y-91694000D01*
X174244000Y-91694000D01*
X170942000Y-91694000D01*
X170942000Y-85217000D01*
X176022000Y-85217000D01*
X176276000Y-85217000D01*
X176276000Y-83947000D01*
X178245505Y-83947000D01*
X178301234Y-84081540D01*
X178408411Y-84188716D01*
X178548445Y-84246720D01*
X178700016Y-84246720D01*
X178854100Y-84246720D01*
X178854100Y-84395947D01*
X178660479Y-84475950D01*
X178456665Y-84679408D01*
X178346226Y-84945376D01*
X178345975Y-85233361D01*
X178455950Y-85499521D01*
X178659408Y-85703335D01*
X178925376Y-85813774D01*
X179213361Y-85814025D01*
X179479521Y-85704050D01*
X179683335Y-85500592D01*
X179793774Y-85234624D01*
X179794025Y-84946639D01*
X179762032Y-84869210D01*
X179767207Y-84843193D01*
X179784967Y-84800191D01*
X179784918Y-84754152D01*
X179793900Y-84709000D01*
X179793900Y-84246720D01*
X180099556Y-84246720D01*
X180239590Y-84188716D01*
X180346766Y-84081539D01*
X180402493Y-83947000D01*
X180467000Y-83947000D01*
X180467000Y-79248000D01*
X180349889Y-79248000D01*
X180346766Y-79240460D01*
X180239589Y-79133284D01*
X180099555Y-79075280D01*
X179947984Y-79075280D01*
X179944095Y-79075280D01*
X179339408Y-78470592D01*
X178592815Y-77724000D01*
X177957815Y-77724000D01*
X176052815Y-75819000D01*
X170307000Y-75819000D01*
X170053000Y-75819000D01*
X165257815Y-75819000D01*
X164622815Y-75184000D01*
X164159785Y-75184000D01*
X164008214Y-75184000D01*
X162738214Y-75184000D01*
X162179000Y-75184000D01*
X162179000Y-84709000D01*
X159512000Y-84709000D01*
X159512000Y-75057000D01*
X183388000Y-75057000D01*
X183388000Y-79375000D01*
X183388000Y-80518000D01*
X183388000Y-83058000D01*
X185659000Y-83058000D01*
X185659000Y-83295786D01*
X185674000Y-83331999D01*
X185674000Y-83947000D01*
X187833000Y-83947000D01*
X187833000Y-86403580D01*
X187749580Y-86487000D01*
X179070000Y-86487000D01*
X178907849Y-86519253D01*
X178875596Y-86525669D01*
X178710790Y-86635790D01*
X177805475Y-87541104D01*
X177656639Y-87540975D01*
X177390479Y-87650950D01*
X177186665Y-87854408D01*
X177076226Y-88120376D01*
X177075975Y-88408361D01*
X177185950Y-88674521D01*
X177389408Y-88878335D01*
X177655376Y-88988774D01*
X177943361Y-88989025D01*
X178209521Y-88879050D01*
X178413335Y-88675592D01*
X178523774Y-88409624D01*
X178523904Y-88259515D01*
X179280420Y-87503000D01*
X187833000Y-87503000D01*
X187833000Y-88952605D01*
X189177395Y-90297000D01*
X192532000Y-90297000D01*
X192532000Y-93599000D01*
X192532000Y-93599000D01*
G37*
X192532000Y-93599000D02*
X190500000Y-93599000D01*
X188752815Y-93599000D01*
X185577815Y-90424000D01*
X181229000Y-90424000D01*
X181229000Y-93345000D01*
X181229000Y-95407815D01*
X181864000Y-96042815D01*
X181864000Y-98806000D01*
X181926230Y-98806000D01*
X181926230Y-98836066D01*
X181926230Y-99435506D01*
X181984234Y-99575540D01*
X182091411Y-99682716D01*
X182118000Y-99693729D01*
X182118000Y-99696270D01*
X182091410Y-99707284D01*
X181984234Y-99814461D01*
X181926230Y-99954495D01*
X181926230Y-100106066D01*
X181926230Y-100705506D01*
X181984234Y-100845540D01*
X182091411Y-100952716D01*
X182118000Y-100963729D01*
X182118000Y-101092000D01*
X184023000Y-101092000D01*
X184023000Y-102108000D01*
X182118000Y-102108000D01*
X182118000Y-104648000D01*
X182010999Y-104648000D01*
X181967996Y-104544180D01*
X181860819Y-104437004D01*
X181720785Y-104379000D01*
X181569214Y-104379000D01*
X180869214Y-104379000D01*
X180729180Y-104437004D01*
X180622004Y-104544181D01*
X180579000Y-104648000D01*
X180287395Y-104648000D01*
X180096895Y-104838500D01*
X176530000Y-104838500D01*
X176311296Y-104882003D01*
X176125888Y-105005888D01*
X176002003Y-105191296D01*
X175958500Y-105410000D01*
X175958500Y-107823000D01*
X167767000Y-107823000D01*
X167767000Y-106172000D01*
X170942000Y-106172000D01*
X170942000Y-103124000D01*
X174688500Y-103124000D01*
X174688500Y-104570194D01*
X174637284Y-104621411D01*
X174579280Y-104761445D01*
X174579280Y-104913016D01*
X174579280Y-106312556D01*
X174637284Y-106452590D01*
X174744461Y-106559766D01*
X174884495Y-106617770D01*
X175036066Y-106617770D01*
X175635506Y-106617770D01*
X175775540Y-106559766D01*
X175882716Y-106452589D01*
X175940720Y-106312555D01*
X175940720Y-106160984D01*
X175940720Y-104761444D01*
X175882716Y-104621410D01*
X175831500Y-104570194D01*
X175831500Y-103124000D01*
X176276000Y-103124000D01*
X176276000Y-102997000D01*
X176582605Y-102997000D01*
X177217605Y-102362000D01*
X178562000Y-102362000D01*
X178562000Y-102233729D01*
X178588590Y-102222716D01*
X178695766Y-102115539D01*
X178753770Y-101975505D01*
X178753770Y-101823934D01*
X178753770Y-101224494D01*
X178695766Y-101084460D01*
X178588589Y-100977284D01*
X178562000Y-100966270D01*
X178562000Y-100963729D01*
X178588590Y-100952716D01*
X178695766Y-100845539D01*
X178753770Y-100705505D01*
X178753770Y-100553934D01*
X178753770Y-99954494D01*
X178695766Y-99814460D01*
X178588589Y-99707284D01*
X178562000Y-99696270D01*
X178562000Y-99693729D01*
X178588590Y-99682716D01*
X178695766Y-99575539D01*
X178753770Y-99435505D01*
X178753770Y-99283934D01*
X178753770Y-98806000D01*
X178816000Y-98806000D01*
X178816000Y-91694000D01*
X178562000Y-91694000D01*
X175984025Y-91694000D01*
X175984025Y-86851639D01*
X175874050Y-86585479D01*
X175670592Y-86381665D01*
X175404624Y-86271226D01*
X175116639Y-86270975D01*
X174850479Y-86380950D01*
X174646665Y-86584408D01*
X174536226Y-86850376D01*
X174535975Y-87138361D01*
X174645950Y-87404521D01*
X174790100Y-87548923D01*
X174790100Y-87985329D01*
X174744460Y-88004234D01*
X174637284Y-88111411D01*
X174579280Y-88251445D01*
X174579280Y-88403016D01*
X174579280Y-89802556D01*
X174637284Y-89942590D01*
X174744461Y-90049766D01*
X174884495Y-90107770D01*
X175036066Y-90107770D01*
X175635506Y-90107770D01*
X175775540Y-90049766D01*
X175882716Y-89942589D01*
X175940720Y-89802555D01*
X175940720Y-89650984D01*
X175940720Y-88251444D01*
X175882716Y-88111410D01*
X175775539Y-88004234D01*
X175729900Y-87985329D01*
X175729900Y-87548776D01*
X175873335Y-87405592D01*
X175983774Y-87139624D01*
X175984025Y-86851639D01*
X175984025Y-91694000D01*
X175260000Y-91694000D01*
X174244000Y-91694000D01*
X170942000Y-91694000D01*
X170942000Y-85217000D01*
X176022000Y-85217000D01*
X176276000Y-85217000D01*
X176276000Y-83947000D01*
X178245505Y-83947000D01*
X178301234Y-84081540D01*
X178408411Y-84188716D01*
X178548445Y-84246720D01*
X178700016Y-84246720D01*
X178854100Y-84246720D01*
X178854100Y-84395947D01*
X178660479Y-84475950D01*
X178456665Y-84679408D01*
X178346226Y-84945376D01*
X178345975Y-85233361D01*
X178455950Y-85499521D01*
X178659408Y-85703335D01*
X178925376Y-85813774D01*
X179213361Y-85814025D01*
X179479521Y-85704050D01*
X179683335Y-85500592D01*
X179793774Y-85234624D01*
X179794025Y-84946639D01*
X179762032Y-84869210D01*
X179767207Y-84843193D01*
X179784967Y-84800191D01*
X179784918Y-84754152D01*
X179793900Y-84709000D01*
X179793900Y-84246720D01*
X180099556Y-84246720D01*
X180239590Y-84188716D01*
X180346766Y-84081539D01*
X180402493Y-83947000D01*
X180467000Y-83947000D01*
X180467000Y-79248000D01*
X180349889Y-79248000D01*
X180346766Y-79240460D01*
X180239589Y-79133284D01*
X180099555Y-79075280D01*
X179947984Y-79075280D01*
X179944095Y-79075280D01*
X179339408Y-78470592D01*
X178592815Y-77724000D01*
X177957815Y-77724000D01*
X176052815Y-75819000D01*
X170307000Y-75819000D01*
X170053000Y-75819000D01*
X165257815Y-75819000D01*
X164622815Y-75184000D01*
X164159785Y-75184000D01*
X164008214Y-75184000D01*
X162738214Y-75184000D01*
X162179000Y-75184000D01*
X162179000Y-84709000D01*
X159512000Y-84709000D01*
X159512000Y-75057000D01*
X183388000Y-75057000D01*
X183388000Y-79375000D01*
X183388000Y-80518000D01*
X183388000Y-83058000D01*
X185659000Y-83058000D01*
X185659000Y-83295786D01*
X185674000Y-83331999D01*
X185674000Y-83947000D01*
X187833000Y-83947000D01*
X187833000Y-86403580D01*
X187749580Y-86487000D01*
X179070000Y-86487000D01*
X178907849Y-86519253D01*
X178875596Y-86525669D01*
X178710790Y-86635790D01*
X177805475Y-87541104D01*
X177656639Y-87540975D01*
X177390479Y-87650950D01*
X177186665Y-87854408D01*
X177076226Y-88120376D01*
X177075975Y-88408361D01*
X177185950Y-88674521D01*
X177389408Y-88878335D01*
X177655376Y-88988774D01*
X177943361Y-88989025D01*
X178209521Y-88879050D01*
X178413335Y-88675592D01*
X178523774Y-88409624D01*
X178523904Y-88259515D01*
X179280420Y-87503000D01*
X187833000Y-87503000D01*
X187833000Y-88952605D01*
X189177395Y-90297000D01*
X192532000Y-90297000D01*
X192532000Y-93599000D01*
G36*
X169799000Y-84328000D02*
X165735000Y-84328000D01*
X165047395Y-84328000D01*
X164338000Y-85037395D01*
X164338000Y-86868000D01*
X159512000Y-86868000D01*
X159512000Y-86360000D01*
X159512000Y-85217000D01*
X162687000Y-85217000D01*
X162687000Y-75692000D01*
X164412395Y-75692000D01*
X165047395Y-76327000D01*
X169799000Y-76327000D01*
X169799000Y-84328000D01*
X169799000Y-84328000D01*
G37*
X169799000Y-84328000D02*
X165735000Y-84328000D01*
X165047395Y-84328000D01*
X164338000Y-85037395D01*
X164338000Y-86868000D01*
X159512000Y-86868000D01*
X159512000Y-86360000D01*
X159512000Y-85217000D01*
X162687000Y-85217000D01*
X162687000Y-75692000D01*
X164412395Y-75692000D01*
X165047395Y-76327000D01*
X169799000Y-76327000D01*
X169799000Y-84328000D01*
G36*
X179578000Y-80345280D02*
X178548444Y-80345280D01*
X178408410Y-80403284D01*
X178390649Y-80421044D01*
X177852605Y-79883000D01*
X175768000Y-79883000D01*
X175768000Y-84709000D01*
X170561000Y-84709000D01*
X170561000Y-76327000D01*
X175842395Y-76327000D01*
X177747395Y-78232000D01*
X178382395Y-78232000D01*
X178980197Y-78829803D01*
X179578000Y-79427605D01*
X179578000Y-80345280D01*
X179578000Y-80345280D01*
G37*
X179578000Y-80345280D02*
X178548444Y-80345280D01*
X178408410Y-80403284D01*
X178390649Y-80421044D01*
X177852605Y-79883000D01*
X175768000Y-79883000D01*
X175768000Y-84709000D01*
X170561000Y-84709000D01*
X170561000Y-76327000D01*
X175842395Y-76327000D01*
X177747395Y-78232000D01*
X178382395Y-78232000D01*
X178980197Y-78829803D01*
X179578000Y-79427605D01*
X179578000Y-80345280D01*
G36*
X191833500Y-79248000D02*
X188542395Y-79248000D01*
X187780395Y-80010000D01*
X186055000Y-80010000D01*
X185420000Y-80010000D01*
X183896000Y-80010000D01*
X183896000Y-75311000D01*
X184785000Y-75311000D01*
X191833500Y-75311000D01*
X191833500Y-79248000D01*
X191833500Y-79248000D01*
G37*
X191833500Y-79248000D02*
X188542395Y-79248000D01*
X187780395Y-80010000D01*
X186055000Y-80010000D01*
X185420000Y-80010000D01*
X183896000Y-80010000D01*
X183896000Y-75311000D01*
X184785000Y-75311000D01*
X191833500Y-75311000D01*
X191833500Y-79248000D01*
G36*
X192532000Y-74803000D02*
X184277000Y-74803000D01*
X184277000Y-73616420D01*
X186414210Y-71479210D01*
X186524331Y-71314403D01*
X186563000Y-71120000D01*
X186563000Y-69342000D01*
X192532000Y-69342000D01*
X192532000Y-74803000D01*
X192532000Y-74803000D01*
G37*
X192532000Y-74803000D02*
X184277000Y-74803000D01*
X184277000Y-73616420D01*
X186414210Y-71479210D01*
X186524331Y-71314403D01*
X186563000Y-71120000D01*
X186563000Y-69342000D01*
X192532000Y-69342000D01*
X192532000Y-74803000D01*
G36*
X192532000Y-97028000D02*
X188542395Y-97028000D01*
X187907395Y-97663000D01*
X184732395Y-97663000D01*
X184097395Y-98298000D01*
X182372000Y-98298000D01*
X182372000Y-95832395D01*
X181737000Y-95197395D01*
X181737000Y-93345000D01*
X181737000Y-90932000D01*
X185367395Y-90932000D01*
X188542395Y-94107000D01*
X190500000Y-94107000D01*
X192532000Y-94107000D01*
X192532000Y-97028000D01*
X192532000Y-97028000D01*
G37*
X192532000Y-97028000D02*
X188542395Y-97028000D01*
X187907395Y-97663000D01*
X184732395Y-97663000D01*
X184097395Y-98298000D01*
X182372000Y-98298000D01*
X182372000Y-95832395D01*
X181737000Y-95197395D01*
X181737000Y-93345000D01*
X181737000Y-90932000D01*
X185367395Y-90932000D01*
X188542395Y-94107000D01*
X190500000Y-94107000D01*
X192532000Y-94107000D01*
X192532000Y-97028000D01*
G36*
X178308000Y-98298000D02*
X176530000Y-98298000D01*
X175768000Y-98298000D01*
X175768000Y-101553776D01*
X174855888Y-102465888D01*
X174755586Y-102616000D01*
X170942000Y-102616000D01*
X170942000Y-98477605D01*
X174752000Y-94667605D01*
X174752000Y-92202000D01*
X175260000Y-92202000D01*
X178308000Y-92202000D01*
X178308000Y-98298000D01*
X178308000Y-98298000D01*
G37*
X178308000Y-98298000D02*
X176530000Y-98298000D01*
X175768000Y-98298000D01*
X175768000Y-101553776D01*
X174855888Y-102465888D01*
X174755586Y-102616000D01*
X170942000Y-102616000D01*
X170942000Y-98477605D01*
X174752000Y-94667605D01*
X174752000Y-92202000D01*
X175260000Y-92202000D01*
X178308000Y-92202000D01*
X178308000Y-98298000D01*
G36*
X170434000Y-91694000D02*
X167259000Y-91694000D01*
X167259000Y-94457185D01*
X165989000Y-95727185D01*
X165989000Y-95962143D01*
X165984000Y-95974215D01*
X165984000Y-96125786D01*
X165984000Y-97525786D01*
X165989000Y-97537857D01*
X165989000Y-98042143D01*
X165984000Y-98054215D01*
X165984000Y-98205786D01*
X165984000Y-99605786D01*
X165989000Y-99617857D01*
X165989000Y-100172185D01*
X165958185Y-100203000D01*
X165481000Y-100203000D01*
X165481000Y-99949000D01*
X161036000Y-99949000D01*
X161036000Y-93726000D01*
X164846000Y-93726000D01*
X164846000Y-93472000D01*
X164846000Y-87376000D01*
X164846000Y-87249000D01*
X164846000Y-85247815D01*
X164876815Y-85217000D01*
X170053000Y-85217000D01*
X170434000Y-85217000D01*
X170434000Y-91694000D01*
X170434000Y-91694000D01*
G37*
X170434000Y-91694000D02*
X167259000Y-91694000D01*
X167259000Y-94457185D01*
X165989000Y-95727185D01*
X165989000Y-95962143D01*
X165984000Y-95974215D01*
X165984000Y-96125786D01*
X165984000Y-97525786D01*
X165989000Y-97537857D01*
X165989000Y-98042143D01*
X165984000Y-98054215D01*
X165984000Y-98205786D01*
X165984000Y-99605786D01*
X165989000Y-99617857D01*
X165989000Y-100172185D01*
X165958185Y-100203000D01*
X165481000Y-100203000D01*
X165481000Y-99949000D01*
X161036000Y-99949000D01*
X161036000Y-93726000D01*
X164846000Y-93726000D01*
X164846000Y-93472000D01*
X164846000Y-87376000D01*
X164846000Y-87249000D01*
X164846000Y-85247815D01*
X164876815Y-85217000D01*
X170053000Y-85217000D01*
X170434000Y-85217000D01*
X170434000Y-91694000D01*
G36*
X174244000Y-94457185D02*
X170434000Y-98267185D01*
X170434000Y-102489000D01*
X170434000Y-103124000D01*
X170434000Y-105664000D01*
X167259000Y-105664000D01*
X167259000Y-106223215D01*
X167259000Y-106374786D01*
X167259000Y-107644786D01*
X167259000Y-108331000D01*
X167513000Y-108331000D01*
X167513000Y-109728000D01*
X165227000Y-109728000D01*
X165227000Y-106426000D01*
X165481000Y-106426000D01*
X165481000Y-105843605D01*
X165862000Y-105462605D01*
X165862000Y-101017605D01*
X166497000Y-100382605D01*
X166497000Y-95937605D01*
X167767000Y-94667605D01*
X167767000Y-92202000D01*
X170434000Y-92202000D01*
X174244000Y-92202000D01*
X174244000Y-94457185D01*
X174244000Y-94457185D01*
G37*
X174244000Y-94457185D02*
X170434000Y-98267185D01*
X170434000Y-102489000D01*
X170434000Y-103124000D01*
X170434000Y-105664000D01*
X167259000Y-105664000D01*
X167259000Y-106223215D01*
X167259000Y-106374786D01*
X167259000Y-107644786D01*
X167259000Y-108331000D01*
X167513000Y-108331000D01*
X167513000Y-109728000D01*
X165227000Y-109728000D01*
X165227000Y-106426000D01*
X165481000Y-106426000D01*
X165481000Y-105843605D01*
X165862000Y-105462605D01*
X165862000Y-101017605D01*
X166497000Y-100382605D01*
X166497000Y-95937605D01*
X167767000Y-94667605D01*
X167767000Y-92202000D01*
X170434000Y-92202000D01*
X174244000Y-92202000D01*
X174244000Y-94457185D01*
G36*
X147447000Y-81704580D02*
X146811999Y-82339581D01*
X146811999Y-76200000D01*
X146753996Y-75908395D01*
X146685000Y-75805135D01*
X146685000Y-75743214D01*
X146685000Y-73711214D01*
X146626996Y-73571180D01*
X146601158Y-73545342D01*
X146753996Y-73316605D01*
X146811999Y-73025000D01*
X146753996Y-72733396D01*
X146588815Y-72486185D01*
X146341604Y-72321004D01*
X146050000Y-72263001D01*
X145758395Y-72321004D01*
X145511184Y-72486185D01*
X145257185Y-72740185D01*
X145092004Y-72987395D01*
X145034000Y-73279000D01*
X145034000Y-73502184D01*
X144965004Y-73571181D01*
X144907000Y-73711215D01*
X144907000Y-73862786D01*
X144907000Y-75894786D01*
X144965004Y-76034820D01*
X145072181Y-76141996D01*
X145073058Y-76142359D01*
X145092004Y-76237605D01*
X145257185Y-76484815D01*
X145511184Y-76738815D01*
X145758395Y-76903996D01*
X146050000Y-76961999D01*
X146341604Y-76903996D01*
X146588815Y-76738815D01*
X146753996Y-76491604D01*
X146811999Y-76200000D01*
X146811999Y-82339581D01*
X144420790Y-84730790D01*
X143150790Y-86000790D01*
X143040669Y-86165597D01*
X143002000Y-86360000D01*
X143002000Y-89408000D01*
X142748000Y-89408000D01*
X142748000Y-88265000D01*
X142748000Y-86995000D01*
X142709331Y-86800597D01*
X142599211Y-86635790D01*
X141964210Y-86000790D01*
X141799403Y-85890669D01*
X141605000Y-85852000D01*
X139730815Y-85852000D01*
X139661819Y-85783004D01*
X139521786Y-85725000D01*
X139661820Y-85666996D01*
X139768996Y-85559819D01*
X139827000Y-85419785D01*
X139827000Y-85268214D01*
X139827000Y-84760214D01*
X139768996Y-84620180D01*
X139661819Y-84513004D01*
X139521785Y-84455000D01*
X139370214Y-84455000D01*
X139192000Y-84455000D01*
X139192000Y-84328000D01*
X139489579Y-84328000D01*
X139924000Y-84762420D01*
X139924000Y-85180786D01*
X139982004Y-85320820D01*
X140089181Y-85427996D01*
X140229215Y-85486000D01*
X140380786Y-85486000D01*
X141080786Y-85486000D01*
X141220820Y-85427996D01*
X141327996Y-85320819D01*
X141386000Y-85180785D01*
X141386000Y-85029214D01*
X141386000Y-83729214D01*
X141327996Y-83589180D01*
X141220819Y-83482004D01*
X141080785Y-83424000D01*
X140929214Y-83424000D01*
X140229214Y-83424000D01*
X140089180Y-83482004D01*
X140084802Y-83486382D01*
X140059210Y-83460790D01*
X139894403Y-83350669D01*
X139700000Y-83312000D01*
X139192000Y-83312000D01*
X139192000Y-82506420D01*
X139424210Y-82274210D01*
X139534331Y-82109404D01*
X139534331Y-82109403D01*
X139540746Y-82077150D01*
X139572999Y-81915000D01*
X139573000Y-81915000D01*
X139573000Y-81280000D01*
X139573000Y-78740000D01*
X139534331Y-78545597D01*
X139424210Y-78380790D01*
X139259403Y-78270669D01*
X139065000Y-78232000D01*
X139014200Y-78232000D01*
X139014200Y-78207014D01*
X138956196Y-78066980D01*
X138849019Y-77959804D01*
X138708985Y-77901800D01*
X138557414Y-77901800D01*
X137643014Y-77901800D01*
X137502980Y-77959804D01*
X137395804Y-78066981D01*
X137337800Y-78207015D01*
X137337800Y-78358586D01*
X137337800Y-78613000D01*
X136835215Y-78613000D01*
X136924196Y-78524019D01*
X136982200Y-78383985D01*
X136982200Y-78232414D01*
X136982200Y-77318014D01*
X136924196Y-77177980D01*
X136817019Y-77070804D01*
X136676985Y-77012800D01*
X136525414Y-77012800D01*
X135611014Y-77012800D01*
X135470980Y-77070804D01*
X135382000Y-77159784D01*
X135382000Y-74969840D01*
X139485840Y-70866000D01*
X140462000Y-70866000D01*
X140462000Y-73502184D01*
X140393004Y-73571181D01*
X140335000Y-73711215D01*
X140335000Y-73862786D01*
X140335000Y-75894786D01*
X140393004Y-76034820D01*
X140500181Y-76141996D01*
X140640215Y-76200000D01*
X140791786Y-76200000D01*
X141807786Y-76200000D01*
X141947820Y-76141996D01*
X142054996Y-76034819D01*
X142113000Y-75894785D01*
X142113000Y-75743214D01*
X142113000Y-73711214D01*
X142054996Y-73571180D01*
X141986000Y-73502184D01*
X141986000Y-70866000D01*
X142240000Y-70866000D01*
X142628806Y-70788662D01*
X142958420Y-70568420D01*
X143178662Y-70238806D01*
X143230738Y-69977000D01*
X144212920Y-69977000D01*
X147447000Y-73211080D01*
X147447000Y-81704580D01*
X147447000Y-81704580D01*
G37*
X147447000Y-81704580D02*
X146811999Y-82339581D01*
X146811999Y-76200000D01*
X146753996Y-75908395D01*
X146685000Y-75805135D01*
X146685000Y-75743214D01*
X146685000Y-73711214D01*
X146626996Y-73571180D01*
X146601158Y-73545342D01*
X146753996Y-73316605D01*
X146811999Y-73025000D01*
X146753996Y-72733396D01*
X146588815Y-72486185D01*
X146341604Y-72321004D01*
X146050000Y-72263001D01*
X145758395Y-72321004D01*
X145511184Y-72486185D01*
X145257185Y-72740185D01*
X145092004Y-72987395D01*
X145034000Y-73279000D01*
X145034000Y-73502184D01*
X144965004Y-73571181D01*
X144907000Y-73711215D01*
X144907000Y-73862786D01*
X144907000Y-75894786D01*
X144965004Y-76034820D01*
X145072181Y-76141996D01*
X145073058Y-76142359D01*
X145092004Y-76237605D01*
X145257185Y-76484815D01*
X145511184Y-76738815D01*
X145758395Y-76903996D01*
X146050000Y-76961999D01*
X146341604Y-76903996D01*
X146588815Y-76738815D01*
X146753996Y-76491604D01*
X146811999Y-76200000D01*
X146811999Y-82339581D01*
X144420790Y-84730790D01*
X143150790Y-86000790D01*
X143040669Y-86165597D01*
X143002000Y-86360000D01*
X143002000Y-89408000D01*
X142748000Y-89408000D01*
X142748000Y-88265000D01*
X142748000Y-86995000D01*
X142709331Y-86800597D01*
X142599211Y-86635790D01*
X141964210Y-86000790D01*
X141799403Y-85890669D01*
X141605000Y-85852000D01*
X139730815Y-85852000D01*
X139661819Y-85783004D01*
X139521786Y-85725000D01*
X139661820Y-85666996D01*
X139768996Y-85559819D01*
X139827000Y-85419785D01*
X139827000Y-85268214D01*
X139827000Y-84760214D01*
X139768996Y-84620180D01*
X139661819Y-84513004D01*
X139521785Y-84455000D01*
X139370214Y-84455000D01*
X139192000Y-84455000D01*
X139192000Y-84328000D01*
X139489579Y-84328000D01*
X139924000Y-84762420D01*
X139924000Y-85180786D01*
X139982004Y-85320820D01*
X140089181Y-85427996D01*
X140229215Y-85486000D01*
X140380786Y-85486000D01*
X141080786Y-85486000D01*
X141220820Y-85427996D01*
X141327996Y-85320819D01*
X141386000Y-85180785D01*
X141386000Y-85029214D01*
X141386000Y-83729214D01*
X141327996Y-83589180D01*
X141220819Y-83482004D01*
X141080785Y-83424000D01*
X140929214Y-83424000D01*
X140229214Y-83424000D01*
X140089180Y-83482004D01*
X140084802Y-83486382D01*
X140059210Y-83460790D01*
X139894403Y-83350669D01*
X139700000Y-83312000D01*
X139192000Y-83312000D01*
X139192000Y-82506420D01*
X139424210Y-82274210D01*
X139534331Y-82109404D01*
X139534331Y-82109403D01*
X139540746Y-82077150D01*
X139572999Y-81915000D01*
X139573000Y-81915000D01*
X139573000Y-81280000D01*
X139573000Y-78740000D01*
X139534331Y-78545597D01*
X139424210Y-78380790D01*
X139259403Y-78270669D01*
X139065000Y-78232000D01*
X139014200Y-78232000D01*
X139014200Y-78207014D01*
X138956196Y-78066980D01*
X138849019Y-77959804D01*
X138708985Y-77901800D01*
X138557414Y-77901800D01*
X137643014Y-77901800D01*
X137502980Y-77959804D01*
X137395804Y-78066981D01*
X137337800Y-78207015D01*
X137337800Y-78358586D01*
X137337800Y-78613000D01*
X136835215Y-78613000D01*
X136924196Y-78524019D01*
X136982200Y-78383985D01*
X136982200Y-78232414D01*
X136982200Y-77318014D01*
X136924196Y-77177980D01*
X136817019Y-77070804D01*
X136676985Y-77012800D01*
X136525414Y-77012800D01*
X135611014Y-77012800D01*
X135470980Y-77070804D01*
X135382000Y-77159784D01*
X135382000Y-74969840D01*
X139485840Y-70866000D01*
X140462000Y-70866000D01*
X140462000Y-73502184D01*
X140393004Y-73571181D01*
X140335000Y-73711215D01*
X140335000Y-73862786D01*
X140335000Y-75894786D01*
X140393004Y-76034820D01*
X140500181Y-76141996D01*
X140640215Y-76200000D01*
X140791786Y-76200000D01*
X141807786Y-76200000D01*
X141947820Y-76141996D01*
X142054996Y-76034819D01*
X142113000Y-75894785D01*
X142113000Y-75743214D01*
X142113000Y-73711214D01*
X142054996Y-73571180D01*
X141986000Y-73502184D01*
X141986000Y-70866000D01*
X142240000Y-70866000D01*
X142628806Y-70788662D01*
X142958420Y-70568420D01*
X143178662Y-70238806D01*
X143230738Y-69977000D01*
X144212920Y-69977000D01*
X147447000Y-73211080D01*
X147447000Y-81704580D01*
G36*
X164973000Y-105918000D02*
X160020000Y-105918000D01*
X158623000Y-105918000D01*
X158623000Y-105410000D01*
X158623000Y-98425000D01*
X158590746Y-98262849D01*
X158584331Y-98230597D01*
X158584331Y-98230596D01*
X158474210Y-98065790D01*
X157607000Y-97198580D01*
X157607000Y-97155000D01*
X157607000Y-91492605D01*
X159512000Y-89587605D01*
X159512000Y-87757000D01*
X164338000Y-87757000D01*
X164338000Y-93218000D01*
X160528000Y-93218000D01*
X160528000Y-95158184D01*
X160512004Y-95174181D01*
X160454000Y-95314215D01*
X160454000Y-95465786D01*
X160454000Y-100265786D01*
X160512004Y-100405820D01*
X160528000Y-100421815D01*
X160528000Y-100457000D01*
X160563184Y-100457000D01*
X160619181Y-100512996D01*
X160759215Y-100571000D01*
X160910786Y-100571000D01*
X164973000Y-100571000D01*
X164973000Y-100965000D01*
X164973000Y-105918000D01*
X164973000Y-105918000D01*
G37*
X164973000Y-105918000D02*
X160020000Y-105918000D01*
X158623000Y-105918000D01*
X158623000Y-105410000D01*
X158623000Y-98425000D01*
X158590746Y-98262849D01*
X158584331Y-98230597D01*
X158584331Y-98230596D01*
X158474210Y-98065790D01*
X157607000Y-97198580D01*
X157607000Y-97155000D01*
X157607000Y-91492605D01*
X159512000Y-89587605D01*
X159512000Y-87757000D01*
X164338000Y-87757000D01*
X164338000Y-93218000D01*
X160528000Y-93218000D01*
X160528000Y-95158184D01*
X160512004Y-95174181D01*
X160454000Y-95314215D01*
X160454000Y-95465786D01*
X160454000Y-100265786D01*
X160512004Y-100405820D01*
X160528000Y-100421815D01*
X160528000Y-100457000D01*
X160563184Y-100457000D01*
X160619181Y-100512996D01*
X160759215Y-100571000D01*
X160910786Y-100571000D01*
X164973000Y-100571000D01*
X164973000Y-100965000D01*
X164973000Y-105918000D01*
G36*
X192786000Y-128778000D02*
X183642000Y-128778000D01*
X183642000Y-116892605D01*
X187452000Y-113082605D01*
X187452000Y-112877738D01*
X187519403Y-112864331D01*
X187684210Y-112754210D01*
X188805420Y-111633000D01*
X191770000Y-111633000D01*
X191964403Y-111594331D01*
X192129210Y-111484210D01*
X192361420Y-111252000D01*
X192786000Y-111252000D01*
X192786000Y-128778000D01*
X192786000Y-128778000D01*
G37*
X192786000Y-128778000D02*
X183642000Y-128778000D01*
X183642000Y-116892605D01*
X187452000Y-113082605D01*
X187452000Y-112877738D01*
X187519403Y-112864331D01*
X187684210Y-112754210D01*
X188805420Y-111633000D01*
X191770000Y-111633000D01*
X191964403Y-111594331D01*
X192129210Y-111484210D01*
X192361420Y-111252000D01*
X192786000Y-111252000D01*
X192786000Y-128778000D01*
G36*
X189738000Y-137033000D02*
X183642000Y-137033000D01*
X183642000Y-129286000D01*
X189738000Y-129286000D01*
X189738000Y-137033000D01*
X189738000Y-137033000D01*
G37*
X189738000Y-137033000D02*
X183642000Y-137033000D01*
X183642000Y-129286000D01*
X189738000Y-129286000D01*
X189738000Y-137033000D01*
M02*
