M48
;DRILL file {kicad (2014-10-08 BZR 5171)-product} date 10/19/2014 5:06:59 PM
;FORMAT={-:-/ absolute / inch / decimal}
FMAT,2
INCH,TZ
T1C0.013
T2C0.032
T3C0.035
T4C0.040
T5C0.043
T6C0.048
T7C0.118
T8C0.126
T9C0.134
%
G90
G05
M72
T1
X4.9Y-5.15
X5.15Y-3.75
X5.15Y-3.8
X5.15Y-4.275
X5.15Y-4.325
X5.2Y-5.2
X5.225Y-3.425
X5.25Y-2.475
X5.3Y-2.325
X5.3Y-2.85
X5.325Y-1.95
X5.325Y-2.2
X5.325Y-4.95
X5.35Y-4.525
X5.375Y-1.95
X5.375Y-2.2
X5.375Y-4.475
X5.375Y-4.85
X5.375Y-4.975
X5.4Y-3.35
X5.4Y-3.4
X5.4Y-3.5
X5.4Y-3.55
X5.4Y-3.65
X5.4Y-3.7
X5.4Y-3.75
X5.4Y-3.8
X5.4Y-3.875
X5.4Y-3.925
X5.4Y-3.975
X5.4Y-4.075
X5.4Y-4.125
X5.4Y-4.175
X5.4Y-4.225
X5.4Y-4.275
X5.4Y-4.325
X5.4Y-4.425
X5.425Y-2.2
X5.425Y-3.175
X5.45Y-2.55
X5.475Y-2.2
X5.5Y-4.375
X5.525Y-2.2
X5.525Y-2.475
X5.55Y-2.75
X5.55Y-3.075
X5.55Y-4.525
X5.575Y-2.2
X5.575Y-2.675
X5.575Y-4.925
X5.6Y-2.75
X5.625Y-2.2
X5.625Y-2.475
X5.625Y-5.
X5.675Y-3.325
X5.7Y-4.225
X5.725Y-2.2
X5.725Y-3.275
X5.725Y-3.7
X5.725Y-3.75
X5.725Y-3.825
X5.75Y-2.875
X5.75Y-3.
X5.75Y-4.775
X5.775Y-2.35
X5.775Y-4.55
X5.775Y-4.925
X5.775Y-4.975
X5.825Y-2.675
X5.85Y-2.35
X5.85Y-3.375
X5.875Y-2.425
X5.875Y-3.05
X5.875Y-3.625
X5.875Y-3.75
X5.875Y-3.925
X5.9Y-2.35
X5.9Y-3.15
X5.9Y-3.475
X5.9Y-4.075
X5.925Y-4.4
X5.925Y-4.45
X5.925Y-4.925
X5.925Y-4.975
X5.95Y-2.35
X5.95Y-3.325
X5.95Y-3.475
X5.95Y-3.625
X5.95Y-4.225
X5.9874Y-4.2626
X6.Y-5.2
X6.025Y-3.7
X6.025Y-3.775
X6.025Y-4.4
X6.025Y-4.45
X6.025Y-5.175
X6.075Y-2.6
X6.075Y-4.3
X6.1Y-2.3
X6.125Y-4.35
X6.175Y-4.275
X6.2Y-3.55
X6.2Y-5.2
X6.25Y-2.15
X6.25Y-3.5
X6.25Y-5.25
X6.275Y-3.75
X6.275Y-3.8
X6.325Y-2.525
X6.325Y-5.2
X6.35Y-4.225
X6.35Y-4.275
X6.375Y-3.025
X6.375Y-3.125
X6.375Y-3.225
X6.4Y-4.925
X6.4Y-5.125
X6.475Y-2.575
X6.5Y-3.25
X6.5Y-4.65
X6.55Y-3.575
X6.55Y-3.625
X6.575Y-2.575
X6.65Y-2.575
X6.75Y-3.425
X6.75Y-3.575
X6.75Y-3.725
X6.75Y-4.1
X6.75Y-4.2
X6.775Y-2.575
X6.8Y-3.425
X6.8Y-3.575
X6.8Y-3.725
X6.8Y-4.1
X6.8Y-4.2
X6.825Y-4.325
X6.825Y-4.4
X6.85Y-3.425
X6.85Y-3.575
X6.85Y-4.1
X6.85Y-4.2
X6.875Y-3.8
X6.9Y-3.425
X6.9Y-4.625
X6.95Y-3.9
X6.95Y-3.95
X6.95Y-4.1
X6.975Y-3.4
X7.Y-3.
X7.Y-3.475
X7.05Y-3.35
X7.05Y-3.825
X7.05Y-4.025
X7.075Y-3.
X7.1Y-3.825
X7.1Y-4.025
X7.1Y-4.075
X7.125Y-3.125
X7.125Y-3.325
X7.15Y-3.825
X7.15Y-4.025
X7.175Y-3.125
X7.175Y-3.325
X7.25Y-3.35
X7.275Y-2.925
X7.3Y-3.375
X7.3Y-3.75
X7.3Y-3.925
X7.3Y-5.75
X7.325Y-2.5
X7.325Y-2.925
X7.35Y-3.75
X7.35Y-5.275
X7.4Y-5.275
X7.425Y-2.825
X7.425Y-3.075
X7.45Y-2.75
X7.45Y-2.8
X7.45Y-2.925
X7.45Y-3.1
X7.45Y-5.275
X7.475Y-3.075
X7.5Y-3.1
X7.525Y-2.225
X7.525Y-3.075
X7.575Y-2.275
T2
X6.1Y-2.95
X6.1Y-3.05
X6.1Y-3.15
X6.1Y-3.25
X6.1Y-3.35
X6.1Y-3.45
X6.475Y-2.075
X6.475Y-2.375
X6.525Y-1.925
X6.575Y-2.075
X6.575Y-2.375
X6.625Y-1.925
X6.675Y-2.075
X6.675Y-2.375
X6.725Y-1.925
X6.775Y-2.075
X6.775Y-2.375
T3
X7.3049Y-2.0652
X7.3049Y-2.1455
X7.3049Y-2.2258
X7.3049Y-2.3061
X7.375Y-2.025
X7.375Y-2.1053
X7.375Y-2.1856
X7.375Y-2.2659
T4
X5.9833Y-2.725
X5.9833Y-4.6541
X6.175Y-2.675
X6.175Y-2.775
X6.275Y-2.675
X6.275Y-2.775
X6.375Y-2.675
X6.375Y-2.775
X6.475Y-2.675
X6.475Y-2.775
X6.575Y-2.675
X6.575Y-2.775
X6.675Y-2.675
X6.675Y-2.775
X6.775Y-2.675
X6.775Y-2.775
X6.875Y-2.675
X6.875Y-2.775
X6.975Y-2.675
X6.975Y-2.775
X7.075Y-2.675
X7.075Y-2.775
X7.175Y-2.675
X7.175Y-2.775
X7.275Y-2.675
X7.275Y-2.775
X7.375Y-2.675
X7.375Y-2.775
T5
X5.175Y-2.425
X5.175Y-2.525
X5.175Y-2.625
X5.175Y-2.725
X5.175Y-2.825
X5.175Y-2.925
X5.175Y-4.625
X5.175Y-4.725
X5.175Y-4.825
X5.175Y-4.925
X5.675Y-4.625
X5.675Y-4.725
X5.675Y-4.825
X5.675Y-4.925
X6.175Y-4.625
X6.175Y-4.725
X6.175Y-4.825
X6.175Y-4.925
X6.625Y-4.625
X6.625Y-4.725
X6.625Y-4.825
X6.625Y-4.925
X7.075Y-4.625
X7.075Y-4.725
X7.075Y-4.825
X7.075Y-4.925
T6
X4.8Y-1.925
X4.8Y-2.0628
X4.8Y-2.2006
X4.8Y-2.3384
X4.8Y-2.4762
X4.8Y-2.614
X4.8Y-2.7518
X4.8Y-2.8896
X4.8Y-3.125
X4.8Y-3.2628
X4.8Y-3.4006
X4.8Y-3.5384
X4.8Y-3.6762
X4.8Y-3.814
X4.8Y-3.9518
X4.8Y-4.0896
X4.8Y-4.325
X4.8Y-4.4628
X4.8Y-4.6006
X4.8Y-4.7384
X4.8Y-4.8762
X4.8Y-5.014
X4.8Y-5.1518
X4.8Y-5.2896
X5.0604Y-1.55
X5.075Y-5.65
X5.1982Y-1.55
X5.2128Y-5.65
X5.336Y-1.55
X5.3506Y-5.65
X5.4738Y-1.55
X5.4884Y-5.65
X5.6116Y-1.55
X5.6262Y-5.65
X5.7494Y-1.55
X5.764Y-5.65
X5.8872Y-1.55
X5.9018Y-5.65
X6.025Y-1.55
X6.0396Y-5.65
X6.275Y-5.65
X6.4116Y-1.55
X6.4128Y-5.65
X6.5494Y-1.55
X6.5506Y-5.65
X6.6872Y-1.55
X6.6884Y-5.65
X6.825Y-1.55
X6.8262Y-5.65
X6.964Y-5.65
X7.1018Y-5.65
X7.2396Y-5.65
X7.475Y-3.4854
X7.475Y-3.6232
X7.475Y-3.761
X7.475Y-3.8988
X7.475Y-4.0366
X7.475Y-4.1744
X7.475Y-4.3122
X7.475Y-4.45
T7
X4.8Y-1.55
X4.8Y-5.65
X7.475Y-1.55
X7.475Y-5.65
T8
X7.475Y-1.915
X7.475Y-2.415
T9
X5.205Y-2.265
X5.205Y-3.085
X5.205Y-4.465
X5.205Y-5.085
X5.705Y-4.465
X5.705Y-5.085
X6.205Y-4.465
X6.205Y-5.085
X6.655Y-4.465
X6.655Y-5.085
X7.105Y-4.465
X7.105Y-5.085
T0
M30
