%FSLAX46Y46*%
G04 Gerber Fmt 4.6, Leading zero omitted, Abs format (unit mm)*
G04 Created by KiCad (PCBNEW (2014-10-08 BZR 5171)-product) date 10/19/2014 5:22:49 PM*
%MOMM*%
G01*
G04 APERTURE LIST*
%ADD10C,0.100000*%
%ADD11R,1.778000X1.778000*%
%ADD12C,1.778000*%
%ADD13C,3.004000*%
%ADD14R,1.778000X2.286000*%
%ADD15R,1.143000X1.651000*%
%ADD16R,2.794000X1.524000*%
%ADD17R,1.651000X1.143000*%
%ADD18R,2.286000X1.778000*%
%ADD19R,1.651000X1.651000*%
%ADD20C,1.651000*%
%ADD21R,1.854200X1.854200*%
%ADD22C,1.854200*%
%ADD23C,3.657600*%
%ADD24C,1.662000*%
%ADD25C,3.454000*%
%ADD26R,0.954000X1.554000*%
%ADD27R,1.554000X0.954000*%
%ADD28R,2.054000X2.054000*%
%ADD29C,2.054000*%
G04 APERTURE END LIST*
D10*
D11*
X156845000Y-70485000D03*
D12*
X156845000Y-67945000D03*
X159385000Y-70485000D03*
X159385000Y-67945000D03*
X161925000Y-70485000D03*
X161925000Y-67945000D03*
X164465000Y-70485000D03*
X164465000Y-67945000D03*
X167005000Y-70485000D03*
X167005000Y-67945000D03*
X169545000Y-70485000D03*
X169545000Y-67945000D03*
X172085000Y-70485000D03*
X172085000Y-67945000D03*
X174625000Y-70485000D03*
X174625000Y-67945000D03*
X177165000Y-70485000D03*
X177165000Y-67945000D03*
X179705000Y-70485000D03*
X179705000Y-67945000D03*
X182245000Y-70485000D03*
X182245000Y-67945000D03*
X184785000Y-70485000D03*
X184785000Y-67945000D03*
X187325000Y-70485000D03*
X187325000Y-67945000D03*
D13*
X151975000Y-69215000D03*
X151975000Y-118215000D03*
D14*
X153924000Y-92075000D03*
X157226000Y-92075000D03*
D15*
X170497500Y-44450000D03*
X168592500Y-44450000D03*
D16*
X186055000Y-105156000D03*
X186055000Y-108204000D03*
X182880000Y-105156000D03*
X182880000Y-108204000D03*
D17*
X186690000Y-103187500D03*
X186690000Y-101282500D03*
X184785000Y-103187500D03*
X184785000Y-101282500D03*
X176530000Y-98107500D03*
X176530000Y-96202500D03*
D16*
X182245000Y-52451000D03*
X182245000Y-55499000D03*
X153670000Y-140589000D03*
X153670000Y-137541000D03*
D17*
X176530000Y-101282500D03*
X176530000Y-103187500D03*
D18*
X186055000Y-93726000D03*
X186055000Y-90424000D03*
D16*
X172085000Y-96266000D03*
X172085000Y-99314000D03*
D15*
X138112500Y-122555000D03*
X140017500Y-122555000D03*
X129222500Y-96520000D03*
X127317500Y-96520000D03*
D17*
X127635000Y-108902500D03*
X127635000Y-106997500D03*
D15*
X134302500Y-49530000D03*
X132397500Y-49530000D03*
X157797500Y-54610000D03*
X155892500Y-54610000D03*
D17*
X153670000Y-107632500D03*
X153670000Y-105727500D03*
D14*
X141224000Y-72390000D03*
X144526000Y-72390000D03*
D18*
X151130000Y-93599000D03*
X151130000Y-96901000D03*
D14*
X142494000Y-78105000D03*
X145796000Y-78105000D03*
D15*
X147637500Y-92075000D03*
X145732500Y-92075000D03*
X143827500Y-95250000D03*
X141922500Y-95250000D03*
X147002500Y-83185000D03*
X148907500Y-83185000D03*
X148272500Y-103505000D03*
X146367500Y-103505000D03*
D19*
X154940000Y-87630000D03*
D20*
X154940000Y-85090000D03*
X154940000Y-82550000D03*
X154940000Y-80010000D03*
X154940000Y-77470000D03*
X154940000Y-74930000D03*
D21*
X179705000Y-125095000D03*
D22*
X179705000Y-122555000D03*
X179705000Y-120015000D03*
X179705000Y-117475000D03*
D23*
X180467000Y-129159000D03*
X180467000Y-113411000D03*
D21*
X168275000Y-125095000D03*
D22*
X168275000Y-122555000D03*
X168275000Y-120015000D03*
X168275000Y-117475000D03*
D23*
X169037000Y-129159000D03*
X169037000Y-113411000D03*
D21*
X156845000Y-125095000D03*
D22*
X156845000Y-122555000D03*
X156845000Y-120015000D03*
X156845000Y-117475000D03*
D23*
X157607000Y-129159000D03*
X157607000Y-113411000D03*
D21*
X131445000Y-74295000D03*
D22*
X131445000Y-71755000D03*
X131445000Y-69215000D03*
X131445000Y-66675000D03*
D23*
X132207000Y-78359000D03*
X132207000Y-57531000D03*
D22*
X131445000Y-64135000D03*
X131445000Y-61595000D03*
D21*
X144145000Y-125095000D03*
D22*
X144145000Y-122555000D03*
X144145000Y-120015000D03*
X144145000Y-117475000D03*
D23*
X144907000Y-129159000D03*
X144907000Y-113411000D03*
D21*
X131445000Y-125095000D03*
D22*
X131445000Y-122555000D03*
X131445000Y-120015000D03*
X131445000Y-117475000D03*
D23*
X132207000Y-129159000D03*
X132207000Y-113411000D03*
D24*
X187325000Y-51435000D03*
X185545000Y-52455000D03*
X187325000Y-53475000D03*
X185545000Y-54495000D03*
X187325000Y-55515000D03*
X185545000Y-56535000D03*
X187325000Y-57555000D03*
X185545000Y-58575000D03*
D25*
X189865000Y-48640000D03*
X189865000Y-61340000D03*
D26*
X133670000Y-109220000D03*
X135570000Y-109220000D03*
X133670000Y-106680000D03*
X135570000Y-106680000D03*
X129860000Y-105410000D03*
X131760000Y-105410000D03*
X133670000Y-104140000D03*
X135570000Y-104140000D03*
X129860000Y-102870000D03*
X131760000Y-102870000D03*
X133670000Y-101600000D03*
X135570000Y-101600000D03*
X133670000Y-99060000D03*
X135570000Y-99060000D03*
X133670000Y-95885000D03*
X135570000Y-95885000D03*
X133670000Y-93345000D03*
X135570000Y-93345000D03*
X133670000Y-90805000D03*
X135570000Y-90805000D03*
X133670000Y-88265000D03*
X135570000Y-88265000D03*
X133670000Y-85725000D03*
X135570000Y-85725000D03*
D27*
X135255000Y-52390000D03*
X135255000Y-54290000D03*
X137795000Y-52390000D03*
X137795000Y-54290000D03*
X139065000Y-48580000D03*
X139065000Y-50480000D03*
X140335000Y-52390000D03*
X140335000Y-54290000D03*
X141605000Y-48580000D03*
X141605000Y-50480000D03*
X142875000Y-52390000D03*
X142875000Y-54290000D03*
X145415000Y-52390000D03*
X145415000Y-54290000D03*
X180975000Y-134305000D03*
X180975000Y-136205000D03*
X177165000Y-134305000D03*
X177165000Y-136205000D03*
X173355000Y-134305000D03*
X173355000Y-136205000D03*
X169545000Y-134305000D03*
X169545000Y-136205000D03*
X165735000Y-134305000D03*
X165735000Y-136205000D03*
X161925000Y-134305000D03*
X161925000Y-136205000D03*
D26*
X177480000Y-120015000D03*
X175580000Y-120015000D03*
X166050000Y-120015000D03*
X164150000Y-120015000D03*
X159070000Y-120015000D03*
X160970000Y-120015000D03*
D27*
X150495000Y-134305000D03*
X150495000Y-136205000D03*
X146685000Y-134305000D03*
X146685000Y-136205000D03*
X142875000Y-134305000D03*
X142875000Y-136205000D03*
X139065000Y-134305000D03*
X139065000Y-136205000D03*
X135255000Y-134305000D03*
X135255000Y-136205000D03*
X131445000Y-134305000D03*
X131445000Y-136205000D03*
D26*
X141920000Y-120015000D03*
X140020000Y-120015000D03*
X133670000Y-120015000D03*
X135570000Y-120015000D03*
X141285000Y-113030000D03*
X139385000Y-113030000D03*
X140020000Y-117475000D03*
X141920000Y-117475000D03*
D27*
X185420000Y-96840000D03*
X185420000Y-98740000D03*
X175260000Y-113350000D03*
X175260000Y-115250000D03*
D12*
X168275000Y-48895000D03*
X170815000Y-48895000D03*
X165735000Y-48895000D03*
D19*
X164465000Y-60325000D03*
D20*
X167005000Y-60325000D03*
X169545000Y-60325000D03*
X172085000Y-60325000D03*
X172085000Y-52705000D03*
X169545000Y-52705000D03*
X167005000Y-52705000D03*
X164465000Y-52705000D03*
D28*
X128905000Y-143510000D03*
D29*
X132405000Y-143510000D03*
X135905000Y-143510000D03*
X139405000Y-143510000D03*
X142905000Y-143510000D03*
X146405000Y-143510000D03*
X149905000Y-143510000D03*
X153405000Y-143510000D03*
D28*
X159385000Y-143510000D03*
D29*
X162885000Y-143510000D03*
X166385000Y-143510000D03*
X169885000Y-143510000D03*
X173385000Y-143510000D03*
X176885000Y-143510000D03*
X180385000Y-143510000D03*
X183885000Y-143510000D03*
D28*
X153035000Y-39370000D03*
D29*
X149535000Y-39370000D03*
X146035000Y-39370000D03*
X142535000Y-39370000D03*
X139035000Y-39370000D03*
X135535000Y-39370000D03*
X132035000Y-39370000D03*
X128535000Y-39370000D03*
D28*
X173355000Y-39370000D03*
D29*
X169855000Y-39370000D03*
X166355000Y-39370000D03*
X162855000Y-39370000D03*
D28*
X121920000Y-109855000D03*
D29*
X121920000Y-113355000D03*
X121920000Y-116855000D03*
X121920000Y-120355000D03*
X121920000Y-123855000D03*
X121920000Y-127355000D03*
X121920000Y-130855000D03*
X121920000Y-134355000D03*
D28*
X121920000Y-79375000D03*
D29*
X121920000Y-82875000D03*
X121920000Y-86375000D03*
X121920000Y-89875000D03*
X121920000Y-93375000D03*
X121920000Y-96875000D03*
X121920000Y-100375000D03*
X121920000Y-103875000D03*
D28*
X121920000Y-48895000D03*
D29*
X121920000Y-52395000D03*
X121920000Y-55895000D03*
X121920000Y-59395000D03*
X121920000Y-62895000D03*
X121920000Y-66395000D03*
X121920000Y-69895000D03*
X121920000Y-73395000D03*
D28*
X189865000Y-113030000D03*
D29*
X189865000Y-109530000D03*
X189865000Y-106030000D03*
X189865000Y-102530000D03*
X189865000Y-99030000D03*
X189865000Y-95530000D03*
X189865000Y-92030000D03*
X189865000Y-88530000D03*
M02*
