%FSLAX46Y46*%
G04 Gerber Fmt 4.6, Leading zero omitted, Abs format (unit mm)*
G04 Created by KiCad (PCBNEW (2014-10-08 BZR 5171)-product) date 10/19/2014 5:22:49 PM*
%MOMM*%
G01*
G04 APERTURE LIST*
%ADD10C,0.100000*%
%ADD11C,0.190500*%
%ADD12C,0.200000*%
%ADD13C,0.300000*%
%ADD14C,0.099060*%
%ADD15C,0.127000*%
%ADD16C,0.304800*%
%ADD17C,0.150000*%
%ADD18C,0.066040*%
%ADD19C,0.101600*%
%ADD20C,0.050800*%
%ADD21C,0.381000*%
%ADD22C,0.119380*%
%ADD23C,0.203200*%
%ADD24C,0.254000*%
%ADD25C,0.078740*%
%ADD26C,0.177800*%
%ADD27R,1.778000X1.778000*%
%ADD28C,1.778000*%
%ADD29C,3.004000*%
%ADD30R,1.651000X1.143000*%
%ADD31R,1.778000X2.286000*%
%ADD32R,2.286000X1.778000*%
%ADD33R,1.524000X2.794000*%
%ADD34R,2.794000X1.524000*%
%ADD35R,1.143000X1.651000*%
%ADD36R,1.651000X1.651000*%
%ADD37C,1.651000*%
%ADD38R,1.854200X1.854200*%
%ADD39C,1.854200*%
%ADD40C,3.657600*%
%ADD41C,1.662000*%
%ADD42C,3.454000*%
%ADD43R,1.452880X1.452880*%
%ADD44R,1.054100X1.054100*%
%ADD45R,5.054000X4.974000*%
%ADD46R,1.654000X1.524000*%
%ADD47R,4.974000X5.054000*%
%ADD48R,1.524000X1.654000*%
%ADD49R,1.168400X1.168400*%
%ADD50R,0.853440X1.653540*%
%ADD51R,0.954000X1.554000*%
%ADD52R,1.554000X0.954000*%
%ADD53R,1.554000X0.854000*%
%ADD54R,0.660400X1.778000*%
%ADD55R,1.778000X0.660400*%
%ADD56R,1.524000X0.762000*%
%ADD57R,0.762000X1.524000*%
%ADD58R,1.254760X0.955040*%
%ADD59R,1.054000X0.804000*%
%ADD60R,1.653540X0.853440*%
%ADD61R,2.514600X3.251200*%
%ADD62R,3.911600X2.286000*%
%ADD63R,1.270000X2.286000*%
%ADD64R,1.254760X1.054100*%
%ADD65C,0.889000*%
%ADD66R,2.254000X3.054000*%
%ADD67R,2.054000X2.054000*%
%ADD68C,2.054000*%
G04 APERTURE END LIST*
D10*
D11*
X184893858Y-87545636D02*
X184930144Y-87509350D01*
X185002715Y-87473064D01*
X185184144Y-87473064D01*
X185256715Y-87509350D01*
X185293001Y-87545636D01*
X185329286Y-87618207D01*
X185329286Y-87690779D01*
X185293001Y-87799636D01*
X184857572Y-88235064D01*
X185329286Y-88235064D01*
X185982429Y-87727064D02*
X185982429Y-88235064D01*
X185801000Y-87436779D02*
X185619572Y-87981064D01*
X186091286Y-87981064D01*
X186272714Y-87473064D02*
X186526714Y-88235064D01*
X186780714Y-87473064D01*
X185456286Y-89492364D02*
X185456286Y-88984364D01*
X185456286Y-88730364D02*
X185420000Y-88766650D01*
X185456286Y-88802936D01*
X185492571Y-88766650D01*
X185456286Y-88730364D01*
X185456286Y-88802936D01*
X185819143Y-88984364D02*
X185819143Y-89492364D01*
X185819143Y-89056936D02*
X185855428Y-89020650D01*
X185928000Y-88984364D01*
X186036857Y-88984364D01*
X186109428Y-89020650D01*
X186145714Y-89093221D01*
X186145714Y-89492364D01*
X185274857Y-91911714D02*
X185274857Y-92528571D01*
X185238571Y-92601143D01*
X185202286Y-92637429D01*
X185129714Y-92673714D01*
X185020857Y-92673714D01*
X184948286Y-92637429D01*
X185274857Y-92383429D02*
X185202286Y-92419714D01*
X185057143Y-92419714D01*
X184984571Y-92383429D01*
X184948286Y-92347143D01*
X184912000Y-92274571D01*
X184912000Y-92056857D01*
X184948286Y-91984286D01*
X184984571Y-91948000D01*
X185057143Y-91911714D01*
X185202286Y-91911714D01*
X185274857Y-91948000D01*
X185637715Y-91911714D02*
X185637715Y-92419714D01*
X185637715Y-91984286D02*
X185674000Y-91948000D01*
X185746572Y-91911714D01*
X185855429Y-91911714D01*
X185928000Y-91948000D01*
X185964286Y-92020571D01*
X185964286Y-92419714D01*
X186653715Y-92419714D02*
X186653715Y-91657714D01*
X186653715Y-92383429D02*
X186581144Y-92419714D01*
X186436001Y-92419714D01*
X186363429Y-92383429D01*
X186327144Y-92347143D01*
X186290858Y-92274571D01*
X186290858Y-92056857D01*
X186327144Y-91984286D01*
X186363429Y-91948000D01*
X186436001Y-91911714D01*
X186581144Y-91911714D01*
X186653715Y-91948000D01*
X185202286Y-94839064D02*
X184766858Y-94839064D01*
X184984572Y-94839064D02*
X184984572Y-94077064D01*
X184912001Y-94185921D01*
X184839429Y-94258493D01*
X184766858Y-94294779D01*
X185492572Y-94149636D02*
X185528858Y-94113350D01*
X185601429Y-94077064D01*
X185782858Y-94077064D01*
X185855429Y-94113350D01*
X185891715Y-94149636D01*
X185928000Y-94222207D01*
X185928000Y-94294779D01*
X185891715Y-94403636D01*
X185456286Y-94839064D01*
X185928000Y-94839064D01*
X186145714Y-94077064D02*
X186399714Y-94839064D01*
X186653714Y-94077064D01*
X185329286Y-96096364D02*
X185329286Y-95588364D01*
X185329286Y-95334364D02*
X185293000Y-95370650D01*
X185329286Y-95406936D01*
X185365571Y-95370650D01*
X185329286Y-95334364D01*
X185329286Y-95406936D01*
X185692143Y-95588364D02*
X185692143Y-96096364D01*
X185692143Y-95660936D02*
X185728428Y-95624650D01*
X185801000Y-95588364D01*
X185909857Y-95588364D01*
X185982428Y-95624650D01*
X186018714Y-95697221D01*
X186018714Y-96096364D01*
X185147857Y-100293714D02*
X185147857Y-100910571D01*
X185111571Y-100983143D01*
X185075286Y-101019429D01*
X185002714Y-101055714D01*
X184893857Y-101055714D01*
X184821286Y-101019429D01*
X185147857Y-100765429D02*
X185075286Y-100801714D01*
X184930143Y-100801714D01*
X184857571Y-100765429D01*
X184821286Y-100729143D01*
X184785000Y-100656571D01*
X184785000Y-100438857D01*
X184821286Y-100366286D01*
X184857571Y-100330000D01*
X184930143Y-100293714D01*
X185075286Y-100293714D01*
X185147857Y-100330000D01*
X185510715Y-100293714D02*
X185510715Y-100801714D01*
X185510715Y-100366286D02*
X185547000Y-100330000D01*
X185619572Y-100293714D01*
X185728429Y-100293714D01*
X185801000Y-100330000D01*
X185837286Y-100402571D01*
X185837286Y-100801714D01*
X186526715Y-100801714D02*
X186526715Y-100039714D01*
X186526715Y-100765429D02*
X186454144Y-100801714D01*
X186309001Y-100801714D01*
X186236429Y-100765429D01*
X186200144Y-100729143D01*
X186163858Y-100656571D01*
X186163858Y-100438857D01*
X186200144Y-100366286D01*
X186236429Y-100330000D01*
X186309001Y-100293714D01*
X186454144Y-100293714D01*
X186526715Y-100330000D01*
X183968572Y-102543429D02*
X184549143Y-102543429D01*
X184258857Y-102833714D02*
X184258857Y-102253143D01*
X185274858Y-102071714D02*
X184912001Y-102071714D01*
X184875715Y-102434571D01*
X184912001Y-102398286D01*
X184984572Y-102362000D01*
X185166001Y-102362000D01*
X185238572Y-102398286D01*
X185274858Y-102434571D01*
X185311143Y-102507143D01*
X185311143Y-102688571D01*
X185274858Y-102761143D01*
X185238572Y-102797429D01*
X185166001Y-102833714D01*
X184984572Y-102833714D01*
X184912001Y-102797429D01*
X184875715Y-102761143D01*
X185528857Y-102071714D02*
X185782857Y-102833714D01*
X186036857Y-102071714D01*
X186617429Y-102833714D02*
X186617429Y-102071714D01*
X186617429Y-102797429D02*
X186544858Y-102833714D01*
X186399715Y-102833714D01*
X186327143Y-102797429D01*
X186290858Y-102761143D01*
X186254572Y-102688571D01*
X186254572Y-102470857D01*
X186290858Y-102398286D01*
X186327143Y-102362000D01*
X186399715Y-102325714D01*
X186544858Y-102325714D01*
X186617429Y-102362000D01*
X184658000Y-106389714D02*
X184404000Y-106026857D01*
X184222572Y-106389714D02*
X184222572Y-105627714D01*
X184512857Y-105627714D01*
X184585429Y-105664000D01*
X184621714Y-105700286D01*
X184658000Y-105772857D01*
X184658000Y-105881714D01*
X184621714Y-105954286D01*
X184585429Y-105990571D01*
X184512857Y-106026857D01*
X184222572Y-106026857D01*
X184912000Y-105881714D02*
X185093429Y-106389714D01*
X185274857Y-105881714D02*
X185093429Y-106389714D01*
X185020857Y-106571143D01*
X184984572Y-106607429D01*
X184912000Y-106643714D01*
X185964285Y-106389714D02*
X185528857Y-106389714D01*
X185746571Y-106389714D02*
X185746571Y-105627714D01*
X185674000Y-105736571D01*
X185601428Y-105809143D01*
X185528857Y-105845429D01*
X186617428Y-106389714D02*
X186617428Y-105990571D01*
X186581142Y-105918000D01*
X186508571Y-105881714D01*
X186363428Y-105881714D01*
X186290857Y-105918000D01*
X186617428Y-106353429D02*
X186544857Y-106389714D01*
X186363428Y-106389714D01*
X186290857Y-106353429D01*
X186254571Y-106280857D01*
X186254571Y-106208286D01*
X186290857Y-106135714D01*
X186363428Y-106099429D01*
X186544857Y-106099429D01*
X186617428Y-106063143D01*
X184785000Y-109818714D02*
X184531000Y-109455857D01*
X184349572Y-109818714D02*
X184349572Y-109056714D01*
X184639857Y-109056714D01*
X184712429Y-109093000D01*
X184748714Y-109129286D01*
X184785000Y-109201857D01*
X184785000Y-109310714D01*
X184748714Y-109383286D01*
X184712429Y-109419571D01*
X184639857Y-109455857D01*
X184349572Y-109455857D01*
X185039000Y-109310714D02*
X185220429Y-109818714D01*
X185401857Y-109310714D02*
X185220429Y-109818714D01*
X185147857Y-110000143D01*
X185111572Y-110036429D01*
X185039000Y-110072714D01*
X186091285Y-109818714D02*
X185655857Y-109818714D01*
X185873571Y-109818714D02*
X185873571Y-109056714D01*
X185801000Y-109165571D01*
X185728428Y-109238143D01*
X185655857Y-109274429D01*
X186417857Y-109818714D02*
X186417857Y-109056714D01*
X186417857Y-109347000D02*
X186490428Y-109310714D01*
X186635571Y-109310714D01*
X186708142Y-109347000D01*
X186744428Y-109383286D01*
X186780714Y-109455857D01*
X186780714Y-109673571D01*
X186744428Y-109746143D01*
X186708142Y-109782429D01*
X186635571Y-109818714D01*
X186490428Y-109818714D01*
X186417857Y-109782429D01*
X189447714Y-122391715D02*
X189447714Y-122246572D01*
X189484000Y-122174000D01*
X189556571Y-122101429D01*
X189701714Y-122065143D01*
X189955714Y-122065143D01*
X190100857Y-122101429D01*
X190173429Y-122174000D01*
X190209714Y-122246572D01*
X190209714Y-122391715D01*
X190173429Y-122464286D01*
X190100857Y-122536857D01*
X189955714Y-122573143D01*
X189701714Y-122573143D01*
X189556571Y-122536857D01*
X189484000Y-122464286D01*
X189447714Y-122391715D01*
X189701714Y-121412000D02*
X190209714Y-121412000D01*
X189701714Y-121738571D02*
X190100857Y-121738571D01*
X190173429Y-121702286D01*
X190209714Y-121629714D01*
X190209714Y-121520857D01*
X190173429Y-121448286D01*
X190137143Y-121412000D01*
X189701714Y-121158000D02*
X189701714Y-120867714D01*
X189447714Y-121049142D02*
X190100857Y-121049142D01*
X190173429Y-121012857D01*
X190209714Y-120940285D01*
X190209714Y-120867714D01*
X189447714Y-120250856D02*
X189447714Y-120613713D01*
X189810571Y-120649999D01*
X189774286Y-120613713D01*
X189738000Y-120541142D01*
X189738000Y-120359713D01*
X189774286Y-120287142D01*
X189810571Y-120250856D01*
X189883143Y-120214571D01*
X190064571Y-120214571D01*
X190137143Y-120250856D01*
X190173429Y-120287142D01*
X190209714Y-120359713D01*
X190209714Y-120541142D01*
X190173429Y-120613713D01*
X190137143Y-120649999D01*
X189447714Y-119380000D02*
X189447714Y-118908286D01*
X189738000Y-119162286D01*
X189738000Y-119053428D01*
X189774286Y-118980857D01*
X189810571Y-118944571D01*
X189883143Y-118908286D01*
X190064571Y-118908286D01*
X190137143Y-118944571D01*
X190173429Y-118980857D01*
X190209714Y-119053428D01*
X190209714Y-119271143D01*
X190173429Y-119343714D01*
X190137143Y-119380000D01*
X189447714Y-118436572D02*
X189447714Y-118364000D01*
X189484000Y-118291429D01*
X189520286Y-118255143D01*
X189592857Y-118218857D01*
X189738000Y-118182572D01*
X189919429Y-118182572D01*
X190064571Y-118218857D01*
X190137143Y-118255143D01*
X190173429Y-118291429D01*
X190209714Y-118364000D01*
X190209714Y-118436572D01*
X190173429Y-118509143D01*
X190137143Y-118545429D01*
X190064571Y-118581714D01*
X189919429Y-118618000D01*
X189738000Y-118618000D01*
X189592857Y-118581714D01*
X189520286Y-118545429D01*
X189484000Y-118509143D01*
X189447714Y-118436572D01*
X189447714Y-117964858D02*
X190209714Y-117710858D01*
X189447714Y-117456858D01*
X190209714Y-117094000D02*
X190173429Y-117166572D01*
X190137143Y-117202857D01*
X190064571Y-117239143D01*
X189846857Y-117239143D01*
X189774286Y-117202857D01*
X189738000Y-117166572D01*
X189701714Y-117094000D01*
X189701714Y-116985143D01*
X189738000Y-116912572D01*
X189774286Y-116876286D01*
X189846857Y-116840000D01*
X190064571Y-116840000D01*
X190137143Y-116876286D01*
X190173429Y-116912572D01*
X190209714Y-116985143D01*
X190209714Y-117094000D01*
X190173429Y-116186857D02*
X190209714Y-116259428D01*
X190209714Y-116404571D01*
X190173429Y-116477143D01*
X190137143Y-116513428D01*
X190064571Y-116549714D01*
X189846857Y-116549714D01*
X189774286Y-116513428D01*
X189738000Y-116477143D01*
X189701714Y-116404571D01*
X189701714Y-116259428D01*
X189738000Y-116186857D01*
X183950429Y-140171714D02*
X183950429Y-139591143D01*
X184240714Y-139881429D02*
X183660143Y-139881429D01*
X183478714Y-138865428D02*
X183478714Y-139228285D01*
X183841571Y-139264571D01*
X183805286Y-139228285D01*
X183769000Y-139155714D01*
X183769000Y-138974285D01*
X183805286Y-138901714D01*
X183841571Y-138865428D01*
X183914143Y-138829143D01*
X184095571Y-138829143D01*
X184168143Y-138865428D01*
X184204429Y-138901714D01*
X184240714Y-138974285D01*
X184240714Y-139155714D01*
X184204429Y-139228285D01*
X184168143Y-139264571D01*
X183478714Y-138611429D02*
X184240714Y-138357429D01*
X183478714Y-138103429D01*
X180684714Y-140135428D02*
X179922714Y-140135428D01*
X180176714Y-139772571D02*
X180684714Y-139772571D01*
X180249286Y-139772571D02*
X180213000Y-139736286D01*
X180176714Y-139663714D01*
X180176714Y-139554857D01*
X180213000Y-139482286D01*
X180285571Y-139446000D01*
X180684714Y-139446000D01*
X180684714Y-138684000D02*
X180684714Y-139119428D01*
X180684714Y-138901714D02*
X179922714Y-138901714D01*
X180031571Y-138974285D01*
X180104143Y-139046857D01*
X180140429Y-139119428D01*
X179995286Y-138393714D02*
X179959000Y-138357428D01*
X179922714Y-138284857D01*
X179922714Y-138103428D01*
X179959000Y-138030857D01*
X179995286Y-137994571D01*
X180067857Y-137958286D01*
X180140429Y-137958286D01*
X180249286Y-137994571D01*
X180684714Y-138430000D01*
X180684714Y-137958286D01*
X177255714Y-140135428D02*
X176493714Y-140135428D01*
X176747714Y-139772571D02*
X177255714Y-139772571D01*
X176820286Y-139772571D02*
X176784000Y-139736286D01*
X176747714Y-139663714D01*
X176747714Y-139554857D01*
X176784000Y-139482286D01*
X176856571Y-139446000D01*
X177255714Y-139446000D01*
X177255714Y-138684000D02*
X177255714Y-139119428D01*
X177255714Y-138901714D02*
X176493714Y-138901714D01*
X176602571Y-138974285D01*
X176675143Y-139046857D01*
X176711429Y-139119428D01*
X177255714Y-137958286D02*
X177255714Y-138393714D01*
X177255714Y-138176000D02*
X176493714Y-138176000D01*
X176602571Y-138248571D01*
X176675143Y-138321143D01*
X176711429Y-138393714D01*
X173699714Y-140135428D02*
X172937714Y-140135428D01*
X173191714Y-139772571D02*
X173699714Y-139772571D01*
X173264286Y-139772571D02*
X173228000Y-139736286D01*
X173191714Y-139663714D01*
X173191714Y-139554857D01*
X173228000Y-139482286D01*
X173300571Y-139446000D01*
X173699714Y-139446000D01*
X173699714Y-138684000D02*
X173699714Y-139119428D01*
X173699714Y-138901714D02*
X172937714Y-138901714D01*
X173046571Y-138974285D01*
X173119143Y-139046857D01*
X173155429Y-139119428D01*
X172937714Y-138212286D02*
X172937714Y-138139714D01*
X172974000Y-138067143D01*
X173010286Y-138030857D01*
X173082857Y-137994571D01*
X173228000Y-137958286D01*
X173409429Y-137958286D01*
X173554571Y-137994571D01*
X173627143Y-138030857D01*
X173663429Y-138067143D01*
X173699714Y-138139714D01*
X173699714Y-138212286D01*
X173663429Y-138284857D01*
X173627143Y-138321143D01*
X173554571Y-138357428D01*
X173409429Y-138393714D01*
X173228000Y-138393714D01*
X173082857Y-138357428D01*
X173010286Y-138321143D01*
X172974000Y-138284857D01*
X172937714Y-138212286D01*
X170270714Y-140153571D02*
X169508714Y-140153571D01*
X169762714Y-139790714D02*
X170270714Y-139790714D01*
X169835286Y-139790714D02*
X169799000Y-139754429D01*
X169762714Y-139681857D01*
X169762714Y-139573000D01*
X169799000Y-139500429D01*
X169871571Y-139464143D01*
X170270714Y-139464143D01*
X170270714Y-139065000D02*
X170270714Y-138919857D01*
X170234429Y-138847285D01*
X170198143Y-138811000D01*
X170089286Y-138738428D01*
X169944143Y-138702143D01*
X169653857Y-138702143D01*
X169581286Y-138738428D01*
X169545000Y-138774714D01*
X169508714Y-138847285D01*
X169508714Y-138992428D01*
X169545000Y-139065000D01*
X169581286Y-139101285D01*
X169653857Y-139137571D01*
X169835286Y-139137571D01*
X169907857Y-139101285D01*
X169944143Y-139065000D01*
X169980429Y-138992428D01*
X169980429Y-138847285D01*
X169944143Y-138774714D01*
X169907857Y-138738428D01*
X169835286Y-138702143D01*
X159221714Y-139845143D02*
X159838571Y-139845143D01*
X159911143Y-139881429D01*
X159947429Y-139917714D01*
X159983714Y-139990286D01*
X159983714Y-140099143D01*
X159947429Y-140171714D01*
X159693429Y-139845143D02*
X159729714Y-139917714D01*
X159729714Y-140062857D01*
X159693429Y-140135429D01*
X159657143Y-140171714D01*
X159584571Y-140208000D01*
X159366857Y-140208000D01*
X159294286Y-140171714D01*
X159258000Y-140135429D01*
X159221714Y-140062857D01*
X159221714Y-139917714D01*
X159258000Y-139845143D01*
X159221714Y-139482285D02*
X159729714Y-139482285D01*
X159294286Y-139482285D02*
X159258000Y-139446000D01*
X159221714Y-139373428D01*
X159221714Y-139264571D01*
X159258000Y-139192000D01*
X159330571Y-139155714D01*
X159729714Y-139155714D01*
X159729714Y-138466285D02*
X158967714Y-138466285D01*
X159693429Y-138466285D02*
X159729714Y-138538856D01*
X159729714Y-138683999D01*
X159693429Y-138756571D01*
X159657143Y-138792856D01*
X159584571Y-138829142D01*
X159366857Y-138829142D01*
X159294286Y-138792856D01*
X159258000Y-138756571D01*
X159221714Y-138683999D01*
X159221714Y-138538856D01*
X159258000Y-138466285D01*
X166714714Y-140153571D02*
X165952714Y-140153571D01*
X166206714Y-139790714D02*
X166714714Y-139790714D01*
X166279286Y-139790714D02*
X166243000Y-139754429D01*
X166206714Y-139681857D01*
X166206714Y-139573000D01*
X166243000Y-139500429D01*
X166315571Y-139464143D01*
X166714714Y-139464143D01*
X166279286Y-138992428D02*
X166243000Y-139065000D01*
X166206714Y-139101285D01*
X166134143Y-139137571D01*
X166097857Y-139137571D01*
X166025286Y-139101285D01*
X165989000Y-139065000D01*
X165952714Y-138992428D01*
X165952714Y-138847285D01*
X165989000Y-138774714D01*
X166025286Y-138738428D01*
X166097857Y-138702143D01*
X166134143Y-138702143D01*
X166206714Y-138738428D01*
X166243000Y-138774714D01*
X166279286Y-138847285D01*
X166279286Y-138992428D01*
X166315571Y-139065000D01*
X166351857Y-139101285D01*
X166424429Y-139137571D01*
X166569571Y-139137571D01*
X166642143Y-139101285D01*
X166678429Y-139065000D01*
X166714714Y-138992428D01*
X166714714Y-138847285D01*
X166678429Y-138774714D01*
X166642143Y-138738428D01*
X166569571Y-138702143D01*
X166424429Y-138702143D01*
X166351857Y-138738428D01*
X166315571Y-138774714D01*
X166279286Y-138847285D01*
X163285714Y-140153571D02*
X162523714Y-140153571D01*
X162777714Y-139790714D02*
X163285714Y-139790714D01*
X162850286Y-139790714D02*
X162814000Y-139754429D01*
X162777714Y-139681857D01*
X162777714Y-139573000D01*
X162814000Y-139500429D01*
X162886571Y-139464143D01*
X163285714Y-139464143D01*
X162523714Y-139173857D02*
X162523714Y-138665857D01*
X163285714Y-138992428D01*
X153470429Y-140171714D02*
X153470429Y-139591143D01*
X153760714Y-139881429D02*
X153180143Y-139881429D01*
X152998714Y-138865428D02*
X152998714Y-139228285D01*
X153361571Y-139264571D01*
X153325286Y-139228285D01*
X153289000Y-139155714D01*
X153289000Y-138974285D01*
X153325286Y-138901714D01*
X153361571Y-138865428D01*
X153434143Y-138829143D01*
X153615571Y-138829143D01*
X153688143Y-138865428D01*
X153724429Y-138901714D01*
X153760714Y-138974285D01*
X153760714Y-139155714D01*
X153724429Y-139228285D01*
X153688143Y-139264571D01*
X152998714Y-138611429D02*
X153760714Y-138357429D01*
X152998714Y-138103429D01*
X150331714Y-140153571D02*
X149569714Y-140153571D01*
X149823714Y-139790714D02*
X150331714Y-139790714D01*
X149896286Y-139790714D02*
X149860000Y-139754429D01*
X149823714Y-139681857D01*
X149823714Y-139573000D01*
X149860000Y-139500429D01*
X149932571Y-139464143D01*
X150331714Y-139464143D01*
X149569714Y-138774714D02*
X149569714Y-138919857D01*
X149606000Y-138992428D01*
X149642286Y-139028714D01*
X149751143Y-139101285D01*
X149896286Y-139137571D01*
X150186571Y-139137571D01*
X150259143Y-139101285D01*
X150295429Y-139065000D01*
X150331714Y-138992428D01*
X150331714Y-138847285D01*
X150295429Y-138774714D01*
X150259143Y-138738428D01*
X150186571Y-138702143D01*
X150005143Y-138702143D01*
X149932571Y-138738428D01*
X149896286Y-138774714D01*
X149860000Y-138847285D01*
X149860000Y-138992428D01*
X149896286Y-139065000D01*
X149932571Y-139101285D01*
X150005143Y-139137571D01*
X146775714Y-140153571D02*
X146013714Y-140153571D01*
X146267714Y-139790714D02*
X146775714Y-139790714D01*
X146340286Y-139790714D02*
X146304000Y-139754429D01*
X146267714Y-139681857D01*
X146267714Y-139573000D01*
X146304000Y-139500429D01*
X146376571Y-139464143D01*
X146775714Y-139464143D01*
X146013714Y-138738428D02*
X146013714Y-139101285D01*
X146376571Y-139137571D01*
X146340286Y-139101285D01*
X146304000Y-139028714D01*
X146304000Y-138847285D01*
X146340286Y-138774714D01*
X146376571Y-138738428D01*
X146449143Y-138702143D01*
X146630571Y-138702143D01*
X146703143Y-138738428D01*
X146739429Y-138774714D01*
X146775714Y-138847285D01*
X146775714Y-139028714D01*
X146739429Y-139101285D01*
X146703143Y-139137571D01*
X143346714Y-140153571D02*
X142584714Y-140153571D01*
X142838714Y-139790714D02*
X143346714Y-139790714D01*
X142911286Y-139790714D02*
X142875000Y-139754429D01*
X142838714Y-139681857D01*
X142838714Y-139573000D01*
X142875000Y-139500429D01*
X142947571Y-139464143D01*
X143346714Y-139464143D01*
X142838714Y-138774714D02*
X143346714Y-138774714D01*
X142548429Y-138956143D02*
X143092714Y-139137571D01*
X143092714Y-138665857D01*
X139790714Y-140153571D02*
X139028714Y-140153571D01*
X139282714Y-139790714D02*
X139790714Y-139790714D01*
X139355286Y-139790714D02*
X139319000Y-139754429D01*
X139282714Y-139681857D01*
X139282714Y-139573000D01*
X139319000Y-139500429D01*
X139391571Y-139464143D01*
X139790714Y-139464143D01*
X139028714Y-139173857D02*
X139028714Y-138702143D01*
X139319000Y-138956143D01*
X139319000Y-138847285D01*
X139355286Y-138774714D01*
X139391571Y-138738428D01*
X139464143Y-138702143D01*
X139645571Y-138702143D01*
X139718143Y-138738428D01*
X139754429Y-138774714D01*
X139790714Y-138847285D01*
X139790714Y-139065000D01*
X139754429Y-139137571D01*
X139718143Y-139173857D01*
X136234714Y-140153571D02*
X135472714Y-140153571D01*
X135726714Y-139790714D02*
X136234714Y-139790714D01*
X135799286Y-139790714D02*
X135763000Y-139754429D01*
X135726714Y-139681857D01*
X135726714Y-139573000D01*
X135763000Y-139500429D01*
X135835571Y-139464143D01*
X136234714Y-139464143D01*
X135545286Y-139137571D02*
X135509000Y-139101285D01*
X135472714Y-139028714D01*
X135472714Y-138847285D01*
X135509000Y-138774714D01*
X135545286Y-138738428D01*
X135617857Y-138702143D01*
X135690429Y-138702143D01*
X135799286Y-138738428D01*
X136234714Y-139173857D01*
X136234714Y-138702143D01*
X132805714Y-140153571D02*
X132043714Y-140153571D01*
X132297714Y-139790714D02*
X132805714Y-139790714D01*
X132370286Y-139790714D02*
X132334000Y-139754429D01*
X132297714Y-139681857D01*
X132297714Y-139573000D01*
X132334000Y-139500429D01*
X132406571Y-139464143D01*
X132805714Y-139464143D01*
X132805714Y-138702143D02*
X132805714Y-139137571D01*
X132805714Y-138919857D02*
X132043714Y-138919857D01*
X132152571Y-138992428D01*
X132225143Y-139065000D01*
X132261429Y-139137571D01*
X128741714Y-139845143D02*
X129358571Y-139845143D01*
X129431143Y-139881429D01*
X129467429Y-139917714D01*
X129503714Y-139990286D01*
X129503714Y-140099143D01*
X129467429Y-140171714D01*
X129213429Y-139845143D02*
X129249714Y-139917714D01*
X129249714Y-140062857D01*
X129213429Y-140135429D01*
X129177143Y-140171714D01*
X129104571Y-140208000D01*
X128886857Y-140208000D01*
X128814286Y-140171714D01*
X128778000Y-140135429D01*
X128741714Y-140062857D01*
X128741714Y-139917714D01*
X128778000Y-139845143D01*
X128741714Y-139482285D02*
X129249714Y-139482285D01*
X128814286Y-139482285D02*
X128778000Y-139446000D01*
X128741714Y-139373428D01*
X128741714Y-139264571D01*
X128778000Y-139192000D01*
X128850571Y-139155714D01*
X129249714Y-139155714D01*
X129249714Y-138466285D02*
X128487714Y-138466285D01*
X129213429Y-138466285D02*
X129249714Y-138538856D01*
X129249714Y-138683999D01*
X129213429Y-138756571D01*
X129177143Y-138792856D01*
X129104571Y-138829142D01*
X128886857Y-138829142D01*
X128814286Y-138792856D01*
X128778000Y-138756571D01*
X128741714Y-138683999D01*
X128741714Y-138538856D01*
X128778000Y-138466285D01*
D12*
X124714000Y-134874000D02*
X124333000Y-134493000D01*
X125349000Y-135509000D02*
X124714000Y-134874000D01*
D11*
X125385286Y-135944429D02*
X125965857Y-135944429D01*
X125675571Y-136234714D02*
X125675571Y-135654143D01*
X126691572Y-135472714D02*
X126328715Y-135472714D01*
X126292429Y-135835571D01*
X126328715Y-135799286D01*
X126401286Y-135763000D01*
X126582715Y-135763000D01*
X126655286Y-135799286D01*
X126691572Y-135835571D01*
X126727857Y-135908143D01*
X126727857Y-136089571D01*
X126691572Y-136162143D01*
X126655286Y-136198429D01*
X126582715Y-136234714D01*
X126401286Y-136234714D01*
X126328715Y-136198429D01*
X126292429Y-136162143D01*
X126945571Y-135472714D02*
X127199571Y-136234714D01*
X127453571Y-135472714D01*
X125258285Y-130265714D02*
X125403428Y-130265714D01*
X125476000Y-130302000D01*
X125548571Y-130374571D01*
X125584857Y-130519714D01*
X125584857Y-130773714D01*
X125548571Y-130918857D01*
X125476000Y-130991429D01*
X125403428Y-131027714D01*
X125258285Y-131027714D01*
X125185714Y-130991429D01*
X125113143Y-130918857D01*
X125076857Y-130773714D01*
X125076857Y-130519714D01*
X125113143Y-130374571D01*
X125185714Y-130302000D01*
X125258285Y-130265714D01*
X126238000Y-130519714D02*
X126238000Y-131027714D01*
X125911429Y-130519714D02*
X125911429Y-130918857D01*
X125947714Y-130991429D01*
X126020286Y-131027714D01*
X126129143Y-131027714D01*
X126201714Y-130991429D01*
X126238000Y-130955143D01*
X126492000Y-130519714D02*
X126782286Y-130519714D01*
X126600858Y-130265714D02*
X126600858Y-130918857D01*
X126637143Y-130991429D01*
X126709715Y-131027714D01*
X126782286Y-131027714D01*
X127435429Y-131027714D02*
X127000001Y-131027714D01*
X127217715Y-131027714D02*
X127217715Y-130265714D01*
X127145144Y-130374571D01*
X127072572Y-130447143D01*
X127000001Y-130483429D01*
X127798286Y-131027714D02*
X127943429Y-131027714D01*
X128016001Y-130991429D01*
X128052286Y-130955143D01*
X128124858Y-130846286D01*
X128161143Y-130701143D01*
X128161143Y-130410857D01*
X128124858Y-130338286D01*
X128088572Y-130302000D01*
X128016001Y-130265714D01*
X127870858Y-130265714D01*
X127798286Y-130302000D01*
X127762001Y-130338286D01*
X127725715Y-130410857D01*
X127725715Y-130592286D01*
X127762001Y-130664857D01*
X127798286Y-130701143D01*
X127870858Y-130737429D01*
X128016001Y-130737429D01*
X128088572Y-130701143D01*
X128124858Y-130664857D01*
X128161143Y-130592286D01*
X125258285Y-126963714D02*
X125403428Y-126963714D01*
X125476000Y-127000000D01*
X125548571Y-127072571D01*
X125584857Y-127217714D01*
X125584857Y-127471714D01*
X125548571Y-127616857D01*
X125476000Y-127689429D01*
X125403428Y-127725714D01*
X125258285Y-127725714D01*
X125185714Y-127689429D01*
X125113143Y-127616857D01*
X125076857Y-127471714D01*
X125076857Y-127217714D01*
X125113143Y-127072571D01*
X125185714Y-127000000D01*
X125258285Y-126963714D01*
X126238000Y-127217714D02*
X126238000Y-127725714D01*
X125911429Y-127217714D02*
X125911429Y-127616857D01*
X125947714Y-127689429D01*
X126020286Y-127725714D01*
X126129143Y-127725714D01*
X126201714Y-127689429D01*
X126238000Y-127653143D01*
X126492000Y-127217714D02*
X126782286Y-127217714D01*
X126600858Y-126963714D02*
X126600858Y-127616857D01*
X126637143Y-127689429D01*
X126709715Y-127725714D01*
X126782286Y-127725714D01*
X127435429Y-127725714D02*
X127000001Y-127725714D01*
X127217715Y-127725714D02*
X127217715Y-126963714D01*
X127145144Y-127072571D01*
X127072572Y-127145143D01*
X127000001Y-127181429D01*
X127870858Y-127290286D02*
X127798286Y-127254000D01*
X127762001Y-127217714D01*
X127725715Y-127145143D01*
X127725715Y-127108857D01*
X127762001Y-127036286D01*
X127798286Y-127000000D01*
X127870858Y-126963714D01*
X128016001Y-126963714D01*
X128088572Y-127000000D01*
X128124858Y-127036286D01*
X128161143Y-127108857D01*
X128161143Y-127145143D01*
X128124858Y-127217714D01*
X128088572Y-127254000D01*
X128016001Y-127290286D01*
X127870858Y-127290286D01*
X127798286Y-127326571D01*
X127762001Y-127362857D01*
X127725715Y-127435429D01*
X127725715Y-127580571D01*
X127762001Y-127653143D01*
X127798286Y-127689429D01*
X127870858Y-127725714D01*
X128016001Y-127725714D01*
X128088572Y-127689429D01*
X128124858Y-127653143D01*
X128161143Y-127580571D01*
X128161143Y-127435429D01*
X128124858Y-127362857D01*
X128088572Y-127326571D01*
X128016001Y-127290286D01*
X125240142Y-123407714D02*
X125385285Y-123407714D01*
X125457857Y-123444000D01*
X125530428Y-123516571D01*
X125566714Y-123661714D01*
X125566714Y-123915714D01*
X125530428Y-124060857D01*
X125457857Y-124133429D01*
X125385285Y-124169714D01*
X125240142Y-124169714D01*
X125167571Y-124133429D01*
X125095000Y-124060857D01*
X125058714Y-123915714D01*
X125058714Y-123661714D01*
X125095000Y-123516571D01*
X125167571Y-123444000D01*
X125240142Y-123407714D01*
X126219857Y-123661714D02*
X126219857Y-124169714D01*
X125893286Y-123661714D02*
X125893286Y-124060857D01*
X125929571Y-124133429D01*
X126002143Y-124169714D01*
X126111000Y-124169714D01*
X126183571Y-124133429D01*
X126219857Y-124097143D01*
X126473857Y-123661714D02*
X126764143Y-123661714D01*
X126582715Y-123407714D02*
X126582715Y-124060857D01*
X126619000Y-124133429D01*
X126691572Y-124169714D01*
X126764143Y-124169714D01*
X127417286Y-124169714D02*
X126981858Y-124169714D01*
X127199572Y-124169714D02*
X127199572Y-123407714D01*
X127127001Y-123516571D01*
X127054429Y-123589143D01*
X126981858Y-123625429D01*
X125258285Y-119978714D02*
X125403428Y-119978714D01*
X125476000Y-120015000D01*
X125548571Y-120087571D01*
X125584857Y-120232714D01*
X125584857Y-120486714D01*
X125548571Y-120631857D01*
X125476000Y-120704429D01*
X125403428Y-120740714D01*
X125258285Y-120740714D01*
X125185714Y-120704429D01*
X125113143Y-120631857D01*
X125076857Y-120486714D01*
X125076857Y-120232714D01*
X125113143Y-120087571D01*
X125185714Y-120015000D01*
X125258285Y-119978714D01*
X126238000Y-120232714D02*
X126238000Y-120740714D01*
X125911429Y-120232714D02*
X125911429Y-120631857D01*
X125947714Y-120704429D01*
X126020286Y-120740714D01*
X126129143Y-120740714D01*
X126201714Y-120704429D01*
X126238000Y-120668143D01*
X126492000Y-120232714D02*
X126782286Y-120232714D01*
X126600858Y-119978714D02*
X126600858Y-120631857D01*
X126637143Y-120704429D01*
X126709715Y-120740714D01*
X126782286Y-120740714D01*
X127435429Y-120740714D02*
X127000001Y-120740714D01*
X127217715Y-120740714D02*
X127217715Y-119978714D01*
X127145144Y-120087571D01*
X127072572Y-120160143D01*
X127000001Y-120196429D01*
X127689429Y-119978714D02*
X128197429Y-119978714D01*
X127870858Y-120740714D01*
X125258285Y-116422714D02*
X125403428Y-116422714D01*
X125476000Y-116459000D01*
X125548571Y-116531571D01*
X125584857Y-116676714D01*
X125584857Y-116930714D01*
X125548571Y-117075857D01*
X125476000Y-117148429D01*
X125403428Y-117184714D01*
X125258285Y-117184714D01*
X125185714Y-117148429D01*
X125113143Y-117075857D01*
X125076857Y-116930714D01*
X125076857Y-116676714D01*
X125113143Y-116531571D01*
X125185714Y-116459000D01*
X125258285Y-116422714D01*
X126238000Y-116676714D02*
X126238000Y-117184714D01*
X125911429Y-116676714D02*
X125911429Y-117075857D01*
X125947714Y-117148429D01*
X126020286Y-117184714D01*
X126129143Y-117184714D01*
X126201714Y-117148429D01*
X126238000Y-117112143D01*
X126492000Y-116676714D02*
X126782286Y-116676714D01*
X126600858Y-116422714D02*
X126600858Y-117075857D01*
X126637143Y-117148429D01*
X126709715Y-117184714D01*
X126782286Y-117184714D01*
X127435429Y-117184714D02*
X127000001Y-117184714D01*
X127217715Y-117184714D02*
X127217715Y-116422714D01*
X127145144Y-116531571D01*
X127072572Y-116604143D01*
X127000001Y-116640429D01*
X128088572Y-116422714D02*
X127943429Y-116422714D01*
X127870858Y-116459000D01*
X127834572Y-116495286D01*
X127762001Y-116604143D01*
X127725715Y-116749286D01*
X127725715Y-117039571D01*
X127762001Y-117112143D01*
X127798286Y-117148429D01*
X127870858Y-117184714D01*
X128016001Y-117184714D01*
X128088572Y-117148429D01*
X128124858Y-117112143D01*
X128161143Y-117039571D01*
X128161143Y-116858143D01*
X128124858Y-116785571D01*
X128088572Y-116749286D01*
X128016001Y-116713000D01*
X127870858Y-116713000D01*
X127798286Y-116749286D01*
X127762001Y-116785571D01*
X127725715Y-116858143D01*
X125240142Y-112866714D02*
X125385285Y-112866714D01*
X125457857Y-112903000D01*
X125530428Y-112975571D01*
X125566714Y-113120714D01*
X125566714Y-113374714D01*
X125530428Y-113519857D01*
X125457857Y-113592429D01*
X125385285Y-113628714D01*
X125240142Y-113628714D01*
X125167571Y-113592429D01*
X125095000Y-113519857D01*
X125058714Y-113374714D01*
X125058714Y-113120714D01*
X125095000Y-112975571D01*
X125167571Y-112903000D01*
X125240142Y-112866714D01*
X126219857Y-113120714D02*
X126219857Y-113628714D01*
X125893286Y-113120714D02*
X125893286Y-113519857D01*
X125929571Y-113592429D01*
X126002143Y-113628714D01*
X126111000Y-113628714D01*
X126183571Y-113592429D01*
X126219857Y-113556143D01*
X126473857Y-113120714D02*
X126764143Y-113120714D01*
X126582715Y-112866714D02*
X126582715Y-113519857D01*
X126619000Y-113592429D01*
X126691572Y-113628714D01*
X126764143Y-113628714D01*
X127417286Y-113628714D02*
X126981858Y-113628714D01*
X127199572Y-113628714D02*
X127199572Y-112866714D01*
X127127001Y-112975571D01*
X127054429Y-113048143D01*
X126981858Y-113084429D01*
X125457857Y-109691714D02*
X125457857Y-110308571D01*
X125421571Y-110381143D01*
X125385286Y-110417429D01*
X125312714Y-110453714D01*
X125203857Y-110453714D01*
X125131286Y-110417429D01*
X125457857Y-110163429D02*
X125385286Y-110199714D01*
X125240143Y-110199714D01*
X125167571Y-110163429D01*
X125131286Y-110127143D01*
X125095000Y-110054571D01*
X125095000Y-109836857D01*
X125131286Y-109764286D01*
X125167571Y-109728000D01*
X125240143Y-109691714D01*
X125385286Y-109691714D01*
X125457857Y-109728000D01*
X125820715Y-109691714D02*
X125820715Y-110199714D01*
X125820715Y-109764286D02*
X125857000Y-109728000D01*
X125929572Y-109691714D01*
X126038429Y-109691714D01*
X126111000Y-109728000D01*
X126147286Y-109800571D01*
X126147286Y-110199714D01*
X126836715Y-110199714D02*
X126836715Y-109437714D01*
X126836715Y-110163429D02*
X126764144Y-110199714D01*
X126619001Y-110199714D01*
X126546429Y-110163429D01*
X126510144Y-110127143D01*
X126473858Y-110054571D01*
X126473858Y-109836857D01*
X126510144Y-109764286D01*
X126546429Y-109728000D01*
X126619001Y-109691714D01*
X126764144Y-109691714D01*
X126836715Y-109728000D01*
X125131286Y-103940429D02*
X125711857Y-103940429D01*
X125421571Y-104230714D02*
X125421571Y-103650143D01*
X126437572Y-103468714D02*
X126074715Y-103468714D01*
X126038429Y-103831571D01*
X126074715Y-103795286D01*
X126147286Y-103759000D01*
X126328715Y-103759000D01*
X126401286Y-103795286D01*
X126437572Y-103831571D01*
X126473857Y-103904143D01*
X126473857Y-104085571D01*
X126437572Y-104158143D01*
X126401286Y-104194429D01*
X126328715Y-104230714D01*
X126147286Y-104230714D01*
X126074715Y-104194429D01*
X126038429Y-104158143D01*
X126691571Y-103468714D02*
X126945571Y-104230714D01*
X127199571Y-103468714D01*
X125258285Y-100039714D02*
X125403428Y-100039714D01*
X125476000Y-100076000D01*
X125548571Y-100148571D01*
X125584857Y-100293714D01*
X125584857Y-100547714D01*
X125548571Y-100692857D01*
X125476000Y-100765429D01*
X125403428Y-100801714D01*
X125258285Y-100801714D01*
X125185714Y-100765429D01*
X125113143Y-100692857D01*
X125076857Y-100547714D01*
X125076857Y-100293714D01*
X125113143Y-100148571D01*
X125185714Y-100076000D01*
X125258285Y-100039714D01*
X126238000Y-100293714D02*
X126238000Y-100801714D01*
X125911429Y-100293714D02*
X125911429Y-100692857D01*
X125947714Y-100765429D01*
X126020286Y-100801714D01*
X126129143Y-100801714D01*
X126201714Y-100765429D01*
X126238000Y-100729143D01*
X126492000Y-100293714D02*
X126782286Y-100293714D01*
X126600858Y-100039714D02*
X126600858Y-100692857D01*
X126637143Y-100765429D01*
X126709715Y-100801714D01*
X126782286Y-100801714D01*
X127435429Y-100801714D02*
X127000001Y-100801714D01*
X127217715Y-100801714D02*
X127217715Y-100039714D01*
X127145144Y-100148571D01*
X127072572Y-100221143D01*
X127000001Y-100257429D01*
X128124858Y-100039714D02*
X127762001Y-100039714D01*
X127725715Y-100402571D01*
X127762001Y-100366286D01*
X127834572Y-100330000D01*
X128016001Y-100330000D01*
X128088572Y-100366286D01*
X128124858Y-100402571D01*
X128161143Y-100475143D01*
X128161143Y-100656571D01*
X128124858Y-100729143D01*
X128088572Y-100765429D01*
X128016001Y-100801714D01*
X127834572Y-100801714D01*
X127762001Y-100765429D01*
X127725715Y-100729143D01*
X125258285Y-96483714D02*
X125403428Y-96483714D01*
X125476000Y-96520000D01*
X125548571Y-96592571D01*
X125584857Y-96737714D01*
X125584857Y-96991714D01*
X125548571Y-97136857D01*
X125476000Y-97209429D01*
X125403428Y-97245714D01*
X125258285Y-97245714D01*
X125185714Y-97209429D01*
X125113143Y-97136857D01*
X125076857Y-96991714D01*
X125076857Y-96737714D01*
X125113143Y-96592571D01*
X125185714Y-96520000D01*
X125258285Y-96483714D01*
X126238000Y-96737714D02*
X126238000Y-97245714D01*
X125911429Y-96737714D02*
X125911429Y-97136857D01*
X125947714Y-97209429D01*
X126020286Y-97245714D01*
X126129143Y-97245714D01*
X126201714Y-97209429D01*
X126238000Y-97173143D01*
X126492000Y-96737714D02*
X126782286Y-96737714D01*
X126600858Y-96483714D02*
X126600858Y-97136857D01*
X126637143Y-97209429D01*
X126709715Y-97245714D01*
X126782286Y-97245714D01*
X127435429Y-97245714D02*
X127000001Y-97245714D01*
X127217715Y-97245714D02*
X127217715Y-96483714D01*
X127145144Y-96592571D01*
X127072572Y-96665143D01*
X127000001Y-96701429D01*
X128088572Y-96737714D02*
X128088572Y-97245714D01*
X127907143Y-96447429D02*
X127725715Y-96991714D01*
X128197429Y-96991714D01*
X125240142Y-92927714D02*
X125385285Y-92927714D01*
X125457857Y-92964000D01*
X125530428Y-93036571D01*
X125566714Y-93181714D01*
X125566714Y-93435714D01*
X125530428Y-93580857D01*
X125457857Y-93653429D01*
X125385285Y-93689714D01*
X125240142Y-93689714D01*
X125167571Y-93653429D01*
X125095000Y-93580857D01*
X125058714Y-93435714D01*
X125058714Y-93181714D01*
X125095000Y-93036571D01*
X125167571Y-92964000D01*
X125240142Y-92927714D01*
X126219857Y-93181714D02*
X126219857Y-93689714D01*
X125893286Y-93181714D02*
X125893286Y-93580857D01*
X125929571Y-93653429D01*
X126002143Y-93689714D01*
X126111000Y-93689714D01*
X126183571Y-93653429D01*
X126219857Y-93617143D01*
X126473857Y-93181714D02*
X126764143Y-93181714D01*
X126582715Y-92927714D02*
X126582715Y-93580857D01*
X126619000Y-93653429D01*
X126691572Y-93689714D01*
X126764143Y-93689714D01*
X127417286Y-93689714D02*
X126981858Y-93689714D01*
X127199572Y-93689714D02*
X127199572Y-92927714D01*
X127127001Y-93036571D01*
X127054429Y-93109143D01*
X126981858Y-93145429D01*
X125258285Y-89498714D02*
X125403428Y-89498714D01*
X125476000Y-89535000D01*
X125548571Y-89607571D01*
X125584857Y-89752714D01*
X125584857Y-90006714D01*
X125548571Y-90151857D01*
X125476000Y-90224429D01*
X125403428Y-90260714D01*
X125258285Y-90260714D01*
X125185714Y-90224429D01*
X125113143Y-90151857D01*
X125076857Y-90006714D01*
X125076857Y-89752714D01*
X125113143Y-89607571D01*
X125185714Y-89535000D01*
X125258285Y-89498714D01*
X126238000Y-89752714D02*
X126238000Y-90260714D01*
X125911429Y-89752714D02*
X125911429Y-90151857D01*
X125947714Y-90224429D01*
X126020286Y-90260714D01*
X126129143Y-90260714D01*
X126201714Y-90224429D01*
X126238000Y-90188143D01*
X126492000Y-89752714D02*
X126782286Y-89752714D01*
X126600858Y-89498714D02*
X126600858Y-90151857D01*
X126637143Y-90224429D01*
X126709715Y-90260714D01*
X126782286Y-90260714D01*
X127435429Y-90260714D02*
X127000001Y-90260714D01*
X127217715Y-90260714D02*
X127217715Y-89498714D01*
X127145144Y-89607571D01*
X127072572Y-89680143D01*
X127000001Y-89716429D01*
X127689429Y-89498714D02*
X128161143Y-89498714D01*
X127907143Y-89789000D01*
X128016001Y-89789000D01*
X128088572Y-89825286D01*
X128124858Y-89861571D01*
X128161143Y-89934143D01*
X128161143Y-90115571D01*
X128124858Y-90188143D01*
X128088572Y-90224429D01*
X128016001Y-90260714D01*
X127798286Y-90260714D01*
X127725715Y-90224429D01*
X127689429Y-90188143D01*
X125258285Y-85942714D02*
X125403428Y-85942714D01*
X125476000Y-85979000D01*
X125548571Y-86051571D01*
X125584857Y-86196714D01*
X125584857Y-86450714D01*
X125548571Y-86595857D01*
X125476000Y-86668429D01*
X125403428Y-86704714D01*
X125258285Y-86704714D01*
X125185714Y-86668429D01*
X125113143Y-86595857D01*
X125076857Y-86450714D01*
X125076857Y-86196714D01*
X125113143Y-86051571D01*
X125185714Y-85979000D01*
X125258285Y-85942714D01*
X126238000Y-86196714D02*
X126238000Y-86704714D01*
X125911429Y-86196714D02*
X125911429Y-86595857D01*
X125947714Y-86668429D01*
X126020286Y-86704714D01*
X126129143Y-86704714D01*
X126201714Y-86668429D01*
X126238000Y-86632143D01*
X126492000Y-86196714D02*
X126782286Y-86196714D01*
X126600858Y-85942714D02*
X126600858Y-86595857D01*
X126637143Y-86668429D01*
X126709715Y-86704714D01*
X126782286Y-86704714D01*
X127435429Y-86704714D02*
X127000001Y-86704714D01*
X127217715Y-86704714D02*
X127217715Y-85942714D01*
X127145144Y-86051571D01*
X127072572Y-86124143D01*
X127000001Y-86160429D01*
X127725715Y-86015286D02*
X127762001Y-85979000D01*
X127834572Y-85942714D01*
X128016001Y-85942714D01*
X128088572Y-85979000D01*
X128124858Y-86015286D01*
X128161143Y-86087857D01*
X128161143Y-86160429D01*
X128124858Y-86269286D01*
X127689429Y-86704714D01*
X128161143Y-86704714D01*
X125240142Y-82513714D02*
X125385285Y-82513714D01*
X125457857Y-82550000D01*
X125530428Y-82622571D01*
X125566714Y-82767714D01*
X125566714Y-83021714D01*
X125530428Y-83166857D01*
X125457857Y-83239429D01*
X125385285Y-83275714D01*
X125240142Y-83275714D01*
X125167571Y-83239429D01*
X125095000Y-83166857D01*
X125058714Y-83021714D01*
X125058714Y-82767714D01*
X125095000Y-82622571D01*
X125167571Y-82550000D01*
X125240142Y-82513714D01*
X126219857Y-82767714D02*
X126219857Y-83275714D01*
X125893286Y-82767714D02*
X125893286Y-83166857D01*
X125929571Y-83239429D01*
X126002143Y-83275714D01*
X126111000Y-83275714D01*
X126183571Y-83239429D01*
X126219857Y-83203143D01*
X126473857Y-82767714D02*
X126764143Y-82767714D01*
X126582715Y-82513714D02*
X126582715Y-83166857D01*
X126619000Y-83239429D01*
X126691572Y-83275714D01*
X126764143Y-83275714D01*
X127417286Y-83275714D02*
X126981858Y-83275714D01*
X127199572Y-83275714D02*
X127199572Y-82513714D01*
X127127001Y-82622571D01*
X127054429Y-82695143D01*
X126981858Y-82731429D01*
X127997858Y-82876571D02*
X128106715Y-82912857D01*
X128143000Y-82949143D01*
X128179286Y-83021714D01*
X128179286Y-83130571D01*
X128143000Y-83203143D01*
X128106715Y-83239429D01*
X128034143Y-83275714D01*
X127743858Y-83275714D01*
X127743858Y-82513714D01*
X127997858Y-82513714D01*
X128070429Y-82550000D01*
X128106715Y-82586286D01*
X128143000Y-82658857D01*
X128143000Y-82731429D01*
X128106715Y-82804000D01*
X128070429Y-82840286D01*
X127997858Y-82876571D01*
X127743858Y-82876571D01*
X125457857Y-79211714D02*
X125457857Y-79828571D01*
X125421571Y-79901143D01*
X125385286Y-79937429D01*
X125312714Y-79973714D01*
X125203857Y-79973714D01*
X125131286Y-79937429D01*
X125457857Y-79683429D02*
X125385286Y-79719714D01*
X125240143Y-79719714D01*
X125167571Y-79683429D01*
X125131286Y-79647143D01*
X125095000Y-79574571D01*
X125095000Y-79356857D01*
X125131286Y-79284286D01*
X125167571Y-79248000D01*
X125240143Y-79211714D01*
X125385286Y-79211714D01*
X125457857Y-79248000D01*
X125820715Y-79211714D02*
X125820715Y-79719714D01*
X125820715Y-79284286D02*
X125857000Y-79248000D01*
X125929572Y-79211714D01*
X126038429Y-79211714D01*
X126111000Y-79248000D01*
X126147286Y-79320571D01*
X126147286Y-79719714D01*
X126836715Y-79719714D02*
X126836715Y-78957714D01*
X126836715Y-79683429D02*
X126764144Y-79719714D01*
X126619001Y-79719714D01*
X126546429Y-79683429D01*
X126510144Y-79647143D01*
X126473858Y-79574571D01*
X126473858Y-79356857D01*
X126510144Y-79284286D01*
X126546429Y-79248000D01*
X126619001Y-79211714D01*
X126764144Y-79211714D01*
X126836715Y-79248000D01*
X125131286Y-73460429D02*
X125711857Y-73460429D01*
X125421571Y-73750714D02*
X125421571Y-73170143D01*
X126437572Y-72988714D02*
X126074715Y-72988714D01*
X126038429Y-73351571D01*
X126074715Y-73315286D01*
X126147286Y-73279000D01*
X126328715Y-73279000D01*
X126401286Y-73315286D01*
X126437572Y-73351571D01*
X126473857Y-73424143D01*
X126473857Y-73605571D01*
X126437572Y-73678143D01*
X126401286Y-73714429D01*
X126328715Y-73750714D01*
X126147286Y-73750714D01*
X126074715Y-73714429D01*
X126038429Y-73678143D01*
X126691571Y-72988714D02*
X126945571Y-73750714D01*
X127199571Y-72988714D01*
X125258285Y-69432714D02*
X125403428Y-69432714D01*
X125476000Y-69469000D01*
X125548571Y-69541571D01*
X125584857Y-69686714D01*
X125584857Y-69940714D01*
X125548571Y-70085857D01*
X125476000Y-70158429D01*
X125403428Y-70194714D01*
X125258285Y-70194714D01*
X125185714Y-70158429D01*
X125113143Y-70085857D01*
X125076857Y-69940714D01*
X125076857Y-69686714D01*
X125113143Y-69541571D01*
X125185714Y-69469000D01*
X125258285Y-69432714D01*
X126238000Y-69686714D02*
X126238000Y-70194714D01*
X125911429Y-69686714D02*
X125911429Y-70085857D01*
X125947714Y-70158429D01*
X126020286Y-70194714D01*
X126129143Y-70194714D01*
X126201714Y-70158429D01*
X126238000Y-70122143D01*
X126492000Y-69686714D02*
X126782286Y-69686714D01*
X126600858Y-69432714D02*
X126600858Y-70085857D01*
X126637143Y-70158429D01*
X126709715Y-70194714D01*
X126782286Y-70194714D01*
X127435429Y-70194714D02*
X127000001Y-70194714D01*
X127217715Y-70194714D02*
X127217715Y-69432714D01*
X127145144Y-69541571D01*
X127072572Y-69614143D01*
X127000001Y-69650429D01*
X128161143Y-70194714D02*
X127725715Y-70194714D01*
X127943429Y-70194714D02*
X127943429Y-69432714D01*
X127870858Y-69541571D01*
X127798286Y-69614143D01*
X127725715Y-69650429D01*
X125258285Y-66003714D02*
X125403428Y-66003714D01*
X125476000Y-66040000D01*
X125548571Y-66112571D01*
X125584857Y-66257714D01*
X125584857Y-66511714D01*
X125548571Y-66656857D01*
X125476000Y-66729429D01*
X125403428Y-66765714D01*
X125258285Y-66765714D01*
X125185714Y-66729429D01*
X125113143Y-66656857D01*
X125076857Y-66511714D01*
X125076857Y-66257714D01*
X125113143Y-66112571D01*
X125185714Y-66040000D01*
X125258285Y-66003714D01*
X126238000Y-66257714D02*
X126238000Y-66765714D01*
X125911429Y-66257714D02*
X125911429Y-66656857D01*
X125947714Y-66729429D01*
X126020286Y-66765714D01*
X126129143Y-66765714D01*
X126201714Y-66729429D01*
X126238000Y-66693143D01*
X126492000Y-66257714D02*
X126782286Y-66257714D01*
X126600858Y-66003714D02*
X126600858Y-66656857D01*
X126637143Y-66729429D01*
X126709715Y-66765714D01*
X126782286Y-66765714D01*
X127435429Y-66765714D02*
X127000001Y-66765714D01*
X127217715Y-66765714D02*
X127217715Y-66003714D01*
X127145144Y-66112571D01*
X127072572Y-66185143D01*
X127000001Y-66221429D01*
X127907143Y-66003714D02*
X127979715Y-66003714D01*
X128052286Y-66040000D01*
X128088572Y-66076286D01*
X128124858Y-66148857D01*
X128161143Y-66294000D01*
X128161143Y-66475429D01*
X128124858Y-66620571D01*
X128088572Y-66693143D01*
X128052286Y-66729429D01*
X127979715Y-66765714D01*
X127907143Y-66765714D01*
X127834572Y-66729429D01*
X127798286Y-66693143D01*
X127762001Y-66620571D01*
X127725715Y-66475429D01*
X127725715Y-66294000D01*
X127762001Y-66148857D01*
X127798286Y-66076286D01*
X127834572Y-66040000D01*
X127907143Y-66003714D01*
X125240142Y-62447714D02*
X125385285Y-62447714D01*
X125457857Y-62484000D01*
X125530428Y-62556571D01*
X125566714Y-62701714D01*
X125566714Y-62955714D01*
X125530428Y-63100857D01*
X125457857Y-63173429D01*
X125385285Y-63209714D01*
X125240142Y-63209714D01*
X125167571Y-63173429D01*
X125095000Y-63100857D01*
X125058714Y-62955714D01*
X125058714Y-62701714D01*
X125095000Y-62556571D01*
X125167571Y-62484000D01*
X125240142Y-62447714D01*
X126219857Y-62701714D02*
X126219857Y-63209714D01*
X125893286Y-62701714D02*
X125893286Y-63100857D01*
X125929571Y-63173429D01*
X126002143Y-63209714D01*
X126111000Y-63209714D01*
X126183571Y-63173429D01*
X126219857Y-63137143D01*
X126473857Y-62701714D02*
X126764143Y-62701714D01*
X126582715Y-62447714D02*
X126582715Y-63100857D01*
X126619000Y-63173429D01*
X126691572Y-63209714D01*
X126764143Y-63209714D01*
X127417286Y-63209714D02*
X126981858Y-63209714D01*
X127199572Y-63209714D02*
X127199572Y-62447714D01*
X127127001Y-62556571D01*
X127054429Y-62629143D01*
X126981858Y-62665429D01*
X127997858Y-62810571D02*
X128106715Y-62846857D01*
X128143000Y-62883143D01*
X128179286Y-62955714D01*
X128179286Y-63064571D01*
X128143000Y-63137143D01*
X128106715Y-63173429D01*
X128034143Y-63209714D01*
X127743858Y-63209714D01*
X127743858Y-62447714D01*
X127997858Y-62447714D01*
X128070429Y-62484000D01*
X128106715Y-62520286D01*
X128143000Y-62592857D01*
X128143000Y-62665429D01*
X128106715Y-62738000D01*
X128070429Y-62774286D01*
X127997858Y-62810571D01*
X127743858Y-62810571D01*
X125240142Y-59018714D02*
X125385285Y-59018714D01*
X125457857Y-59055000D01*
X125530428Y-59127571D01*
X125566714Y-59272714D01*
X125566714Y-59526714D01*
X125530428Y-59671857D01*
X125457857Y-59744429D01*
X125385285Y-59780714D01*
X125240142Y-59780714D01*
X125167571Y-59744429D01*
X125095000Y-59671857D01*
X125058714Y-59526714D01*
X125058714Y-59272714D01*
X125095000Y-59127571D01*
X125167571Y-59055000D01*
X125240142Y-59018714D01*
X126219857Y-59272714D02*
X126219857Y-59780714D01*
X125893286Y-59272714D02*
X125893286Y-59671857D01*
X125929571Y-59744429D01*
X126002143Y-59780714D01*
X126111000Y-59780714D01*
X126183571Y-59744429D01*
X126219857Y-59708143D01*
X126473857Y-59272714D02*
X126764143Y-59272714D01*
X126582715Y-59018714D02*
X126582715Y-59671857D01*
X126619000Y-59744429D01*
X126691572Y-59780714D01*
X126764143Y-59780714D01*
X127054429Y-59780714D02*
X127199572Y-59780714D01*
X127272144Y-59744429D01*
X127308429Y-59708143D01*
X127381001Y-59599286D01*
X127417286Y-59454143D01*
X127417286Y-59163857D01*
X127381001Y-59091286D01*
X127344715Y-59055000D01*
X127272144Y-59018714D01*
X127127001Y-59018714D01*
X127054429Y-59055000D01*
X127018144Y-59091286D01*
X126981858Y-59163857D01*
X126981858Y-59345286D01*
X127018144Y-59417857D01*
X127054429Y-59454143D01*
X127127001Y-59490429D01*
X127272144Y-59490429D01*
X127344715Y-59454143D01*
X127381001Y-59417857D01*
X127417286Y-59345286D01*
X125240142Y-55462714D02*
X125385285Y-55462714D01*
X125457857Y-55499000D01*
X125530428Y-55571571D01*
X125566714Y-55716714D01*
X125566714Y-55970714D01*
X125530428Y-56115857D01*
X125457857Y-56188429D01*
X125385285Y-56224714D01*
X125240142Y-56224714D01*
X125167571Y-56188429D01*
X125095000Y-56115857D01*
X125058714Y-55970714D01*
X125058714Y-55716714D01*
X125095000Y-55571571D01*
X125167571Y-55499000D01*
X125240142Y-55462714D01*
X126219857Y-55716714D02*
X126219857Y-56224714D01*
X125893286Y-55716714D02*
X125893286Y-56115857D01*
X125929571Y-56188429D01*
X126002143Y-56224714D01*
X126111000Y-56224714D01*
X126183571Y-56188429D01*
X126219857Y-56152143D01*
X126473857Y-55716714D02*
X126764143Y-55716714D01*
X126582715Y-55462714D02*
X126582715Y-56115857D01*
X126619000Y-56188429D01*
X126691572Y-56224714D01*
X126764143Y-56224714D01*
X127127001Y-55789286D02*
X127054429Y-55753000D01*
X127018144Y-55716714D01*
X126981858Y-55644143D01*
X126981858Y-55607857D01*
X127018144Y-55535286D01*
X127054429Y-55499000D01*
X127127001Y-55462714D01*
X127272144Y-55462714D01*
X127344715Y-55499000D01*
X127381001Y-55535286D01*
X127417286Y-55607857D01*
X127417286Y-55644143D01*
X127381001Y-55716714D01*
X127344715Y-55753000D01*
X127272144Y-55789286D01*
X127127001Y-55789286D01*
X127054429Y-55825571D01*
X127018144Y-55861857D01*
X126981858Y-55934429D01*
X126981858Y-56079571D01*
X127018144Y-56152143D01*
X127054429Y-56188429D01*
X127127001Y-56224714D01*
X127272144Y-56224714D01*
X127344715Y-56188429D01*
X127381001Y-56152143D01*
X127417286Y-56079571D01*
X127417286Y-55934429D01*
X127381001Y-55861857D01*
X127344715Y-55825571D01*
X127272144Y-55789286D01*
X125240142Y-52033714D02*
X125385285Y-52033714D01*
X125457857Y-52070000D01*
X125530428Y-52142571D01*
X125566714Y-52287714D01*
X125566714Y-52541714D01*
X125530428Y-52686857D01*
X125457857Y-52759429D01*
X125385285Y-52795714D01*
X125240142Y-52795714D01*
X125167571Y-52759429D01*
X125095000Y-52686857D01*
X125058714Y-52541714D01*
X125058714Y-52287714D01*
X125095000Y-52142571D01*
X125167571Y-52070000D01*
X125240142Y-52033714D01*
X126219857Y-52287714D02*
X126219857Y-52795714D01*
X125893286Y-52287714D02*
X125893286Y-52686857D01*
X125929571Y-52759429D01*
X126002143Y-52795714D01*
X126111000Y-52795714D01*
X126183571Y-52759429D01*
X126219857Y-52723143D01*
X126473857Y-52287714D02*
X126764143Y-52287714D01*
X126582715Y-52033714D02*
X126582715Y-52686857D01*
X126619000Y-52759429D01*
X126691572Y-52795714D01*
X126764143Y-52795714D01*
X126945572Y-52033714D02*
X127453572Y-52033714D01*
X127127001Y-52795714D01*
X125457857Y-48731714D02*
X125457857Y-49348571D01*
X125421571Y-49421143D01*
X125385286Y-49457429D01*
X125312714Y-49493714D01*
X125203857Y-49493714D01*
X125131286Y-49457429D01*
X125457857Y-49203429D02*
X125385286Y-49239714D01*
X125240143Y-49239714D01*
X125167571Y-49203429D01*
X125131286Y-49167143D01*
X125095000Y-49094571D01*
X125095000Y-48876857D01*
X125131286Y-48804286D01*
X125167571Y-48768000D01*
X125240143Y-48731714D01*
X125385286Y-48731714D01*
X125457857Y-48768000D01*
X125820715Y-48731714D02*
X125820715Y-49239714D01*
X125820715Y-48804286D02*
X125857000Y-48768000D01*
X125929572Y-48731714D01*
X126038429Y-48731714D01*
X126111000Y-48768000D01*
X126147286Y-48840571D01*
X126147286Y-49239714D01*
X126836715Y-49239714D02*
X126836715Y-48477714D01*
X126836715Y-49203429D02*
X126764144Y-49239714D01*
X126619001Y-49239714D01*
X126546429Y-49203429D01*
X126510144Y-49167143D01*
X126473858Y-49094571D01*
X126473858Y-48876857D01*
X126510144Y-48804286D01*
X126546429Y-48768000D01*
X126619001Y-48731714D01*
X126764144Y-48731714D01*
X126836715Y-48768000D01*
X128578429Y-44794714D02*
X128578429Y-44214143D01*
X128868714Y-44504429D02*
X128288143Y-44504429D01*
X128106714Y-43488428D02*
X128106714Y-43851285D01*
X128469571Y-43887571D01*
X128433286Y-43851285D01*
X128397000Y-43778714D01*
X128397000Y-43597285D01*
X128433286Y-43524714D01*
X128469571Y-43488428D01*
X128542143Y-43452143D01*
X128723571Y-43452143D01*
X128796143Y-43488428D01*
X128832429Y-43524714D01*
X128868714Y-43597285D01*
X128868714Y-43778714D01*
X128832429Y-43851285D01*
X128796143Y-43887571D01*
X128106714Y-43234429D02*
X128868714Y-42980429D01*
X128106714Y-42726429D01*
X131535714Y-44939858D02*
X131535714Y-44794715D01*
X131572000Y-44722143D01*
X131644571Y-44649572D01*
X131789714Y-44613286D01*
X132043714Y-44613286D01*
X132188857Y-44649572D01*
X132261429Y-44722143D01*
X132297714Y-44794715D01*
X132297714Y-44939858D01*
X132261429Y-45012429D01*
X132188857Y-45085000D01*
X132043714Y-45121286D01*
X131789714Y-45121286D01*
X131644571Y-45085000D01*
X131572000Y-45012429D01*
X131535714Y-44939858D01*
X131789714Y-43960143D02*
X132297714Y-43960143D01*
X131789714Y-44286714D02*
X132188857Y-44286714D01*
X132261429Y-44250429D01*
X132297714Y-44177857D01*
X132297714Y-44069000D01*
X132261429Y-43996429D01*
X132225143Y-43960143D01*
X131789714Y-43706143D02*
X131789714Y-43415857D01*
X131535714Y-43597285D02*
X132188857Y-43597285D01*
X132261429Y-43561000D01*
X132297714Y-43488428D01*
X132297714Y-43415857D01*
X131535714Y-42835285D02*
X131535714Y-42980428D01*
X131572000Y-43052999D01*
X131608286Y-43089285D01*
X131717143Y-43161856D01*
X131862286Y-43198142D01*
X132152571Y-43198142D01*
X132225143Y-43161856D01*
X132261429Y-43125571D01*
X132297714Y-43052999D01*
X132297714Y-42907856D01*
X132261429Y-42835285D01*
X132225143Y-42798999D01*
X132152571Y-42762714D01*
X131971143Y-42762714D01*
X131898571Y-42798999D01*
X131862286Y-42835285D01*
X131826000Y-42907856D01*
X131826000Y-43052999D01*
X131862286Y-43125571D01*
X131898571Y-43161856D01*
X131971143Y-43198142D01*
X135091714Y-44939858D02*
X135091714Y-44794715D01*
X135128000Y-44722143D01*
X135200571Y-44649572D01*
X135345714Y-44613286D01*
X135599714Y-44613286D01*
X135744857Y-44649572D01*
X135817429Y-44722143D01*
X135853714Y-44794715D01*
X135853714Y-44939858D01*
X135817429Y-45012429D01*
X135744857Y-45085000D01*
X135599714Y-45121286D01*
X135345714Y-45121286D01*
X135200571Y-45085000D01*
X135128000Y-45012429D01*
X135091714Y-44939858D01*
X135345714Y-43960143D02*
X135853714Y-43960143D01*
X135345714Y-44286714D02*
X135744857Y-44286714D01*
X135817429Y-44250429D01*
X135853714Y-44177857D01*
X135853714Y-44069000D01*
X135817429Y-43996429D01*
X135781143Y-43960143D01*
X135345714Y-43706143D02*
X135345714Y-43415857D01*
X135091714Y-43597285D02*
X135744857Y-43597285D01*
X135817429Y-43561000D01*
X135853714Y-43488428D01*
X135853714Y-43415857D01*
X135091714Y-42798999D02*
X135091714Y-43161856D01*
X135454571Y-43198142D01*
X135418286Y-43161856D01*
X135382000Y-43089285D01*
X135382000Y-42907856D01*
X135418286Y-42835285D01*
X135454571Y-42798999D01*
X135527143Y-42762714D01*
X135708571Y-42762714D01*
X135781143Y-42798999D01*
X135817429Y-42835285D01*
X135853714Y-42907856D01*
X135853714Y-43089285D01*
X135817429Y-43161856D01*
X135781143Y-43198142D01*
X138647714Y-44939858D02*
X138647714Y-44794715D01*
X138684000Y-44722143D01*
X138756571Y-44649572D01*
X138901714Y-44613286D01*
X139155714Y-44613286D01*
X139300857Y-44649572D01*
X139373429Y-44722143D01*
X139409714Y-44794715D01*
X139409714Y-44939858D01*
X139373429Y-45012429D01*
X139300857Y-45085000D01*
X139155714Y-45121286D01*
X138901714Y-45121286D01*
X138756571Y-45085000D01*
X138684000Y-45012429D01*
X138647714Y-44939858D01*
X138901714Y-43960143D02*
X139409714Y-43960143D01*
X138901714Y-44286714D02*
X139300857Y-44286714D01*
X139373429Y-44250429D01*
X139409714Y-44177857D01*
X139409714Y-44069000D01*
X139373429Y-43996429D01*
X139337143Y-43960143D01*
X138901714Y-43706143D02*
X138901714Y-43415857D01*
X138647714Y-43597285D02*
X139300857Y-43597285D01*
X139373429Y-43561000D01*
X139409714Y-43488428D01*
X139409714Y-43415857D01*
X138901714Y-42835285D02*
X139409714Y-42835285D01*
X138611429Y-43016714D02*
X139155714Y-43198142D01*
X139155714Y-42726428D01*
X142076714Y-44939858D02*
X142076714Y-44794715D01*
X142113000Y-44722143D01*
X142185571Y-44649572D01*
X142330714Y-44613286D01*
X142584714Y-44613286D01*
X142729857Y-44649572D01*
X142802429Y-44722143D01*
X142838714Y-44794715D01*
X142838714Y-44939858D01*
X142802429Y-45012429D01*
X142729857Y-45085000D01*
X142584714Y-45121286D01*
X142330714Y-45121286D01*
X142185571Y-45085000D01*
X142113000Y-45012429D01*
X142076714Y-44939858D01*
X142330714Y-43960143D02*
X142838714Y-43960143D01*
X142330714Y-44286714D02*
X142729857Y-44286714D01*
X142802429Y-44250429D01*
X142838714Y-44177857D01*
X142838714Y-44069000D01*
X142802429Y-43996429D01*
X142766143Y-43960143D01*
X142330714Y-43706143D02*
X142330714Y-43415857D01*
X142076714Y-43597285D02*
X142729857Y-43597285D01*
X142802429Y-43561000D01*
X142838714Y-43488428D01*
X142838714Y-43415857D01*
X142076714Y-43234428D02*
X142076714Y-42762714D01*
X142367000Y-43016714D01*
X142367000Y-42907856D01*
X142403286Y-42835285D01*
X142439571Y-42798999D01*
X142512143Y-42762714D01*
X142693571Y-42762714D01*
X142766143Y-42798999D01*
X142802429Y-42835285D01*
X142838714Y-42907856D01*
X142838714Y-43125571D01*
X142802429Y-43198142D01*
X142766143Y-43234428D01*
X145632714Y-44939858D02*
X145632714Y-44794715D01*
X145669000Y-44722143D01*
X145741571Y-44649572D01*
X145886714Y-44613286D01*
X146140714Y-44613286D01*
X146285857Y-44649572D01*
X146358429Y-44722143D01*
X146394714Y-44794715D01*
X146394714Y-44939858D01*
X146358429Y-45012429D01*
X146285857Y-45085000D01*
X146140714Y-45121286D01*
X145886714Y-45121286D01*
X145741571Y-45085000D01*
X145669000Y-45012429D01*
X145632714Y-44939858D01*
X145886714Y-43960143D02*
X146394714Y-43960143D01*
X145886714Y-44286714D02*
X146285857Y-44286714D01*
X146358429Y-44250429D01*
X146394714Y-44177857D01*
X146394714Y-44069000D01*
X146358429Y-43996429D01*
X146322143Y-43960143D01*
X145886714Y-43706143D02*
X145886714Y-43415857D01*
X145632714Y-43597285D02*
X146285857Y-43597285D01*
X146358429Y-43561000D01*
X146394714Y-43488428D01*
X146394714Y-43415857D01*
X145705286Y-43198142D02*
X145669000Y-43161856D01*
X145632714Y-43089285D01*
X145632714Y-42907856D01*
X145669000Y-42835285D01*
X145705286Y-42798999D01*
X145777857Y-42762714D01*
X145850429Y-42762714D01*
X145959286Y-42798999D01*
X146394714Y-43234428D01*
X146394714Y-42762714D01*
X149061714Y-48985715D02*
X149061714Y-48840572D01*
X149098000Y-48768000D01*
X149170571Y-48695429D01*
X149315714Y-48659143D01*
X149569714Y-48659143D01*
X149714857Y-48695429D01*
X149787429Y-48768000D01*
X149823714Y-48840572D01*
X149823714Y-48985715D01*
X149787429Y-49058286D01*
X149714857Y-49130857D01*
X149569714Y-49167143D01*
X149315714Y-49167143D01*
X149170571Y-49130857D01*
X149098000Y-49058286D01*
X149061714Y-48985715D01*
X149315714Y-48006000D02*
X149823714Y-48006000D01*
X149315714Y-48332571D02*
X149714857Y-48332571D01*
X149787429Y-48296286D01*
X149823714Y-48223714D01*
X149823714Y-48114857D01*
X149787429Y-48042286D01*
X149751143Y-48006000D01*
X149315714Y-47752000D02*
X149315714Y-47461714D01*
X149061714Y-47643142D02*
X149714857Y-47643142D01*
X149787429Y-47606857D01*
X149823714Y-47534285D01*
X149823714Y-47461714D01*
X149061714Y-46881142D02*
X149061714Y-47026285D01*
X149098000Y-47098856D01*
X149134286Y-47135142D01*
X149243143Y-47207713D01*
X149388286Y-47243999D01*
X149678571Y-47243999D01*
X149751143Y-47207713D01*
X149787429Y-47171428D01*
X149823714Y-47098856D01*
X149823714Y-46953713D01*
X149787429Y-46881142D01*
X149751143Y-46844856D01*
X149678571Y-46808571D01*
X149497143Y-46808571D01*
X149424571Y-46844856D01*
X149388286Y-46881142D01*
X149352000Y-46953713D01*
X149352000Y-47098856D01*
X149388286Y-47171428D01*
X149424571Y-47207713D01*
X149497143Y-47243999D01*
X149061714Y-45974000D02*
X149061714Y-45502286D01*
X149352000Y-45756286D01*
X149352000Y-45647428D01*
X149388286Y-45574857D01*
X149424571Y-45538571D01*
X149497143Y-45502286D01*
X149678571Y-45502286D01*
X149751143Y-45538571D01*
X149787429Y-45574857D01*
X149823714Y-45647428D01*
X149823714Y-45865143D01*
X149787429Y-45937714D01*
X149751143Y-45974000D01*
X149061714Y-45030572D02*
X149061714Y-44958000D01*
X149098000Y-44885429D01*
X149134286Y-44849143D01*
X149206857Y-44812857D01*
X149352000Y-44776572D01*
X149533429Y-44776572D01*
X149678571Y-44812857D01*
X149751143Y-44849143D01*
X149787429Y-44885429D01*
X149823714Y-44958000D01*
X149823714Y-45030572D01*
X149787429Y-45103143D01*
X149751143Y-45139429D01*
X149678571Y-45175714D01*
X149533429Y-45212000D01*
X149352000Y-45212000D01*
X149206857Y-45175714D01*
X149134286Y-45139429D01*
X149098000Y-45103143D01*
X149061714Y-45030572D01*
X149061714Y-44558858D02*
X149823714Y-44304858D01*
X149061714Y-44050858D01*
X149823714Y-43688000D02*
X149787429Y-43760572D01*
X149751143Y-43796857D01*
X149678571Y-43833143D01*
X149460857Y-43833143D01*
X149388286Y-43796857D01*
X149352000Y-43760572D01*
X149315714Y-43688000D01*
X149315714Y-43579143D01*
X149352000Y-43506572D01*
X149388286Y-43470286D01*
X149460857Y-43434000D01*
X149678571Y-43434000D01*
X149751143Y-43470286D01*
X149787429Y-43506572D01*
X149823714Y-43579143D01*
X149823714Y-43688000D01*
X149787429Y-42780857D02*
X149823714Y-42853428D01*
X149823714Y-42998571D01*
X149787429Y-43071143D01*
X149751143Y-43107428D01*
X149678571Y-43143714D01*
X149460857Y-43143714D01*
X149388286Y-43107428D01*
X149352000Y-43071143D01*
X149315714Y-42998571D01*
X149315714Y-42853428D01*
X149352000Y-42780857D01*
X152871714Y-44214143D02*
X153488571Y-44214143D01*
X153561143Y-44250429D01*
X153597429Y-44286714D01*
X153633714Y-44359286D01*
X153633714Y-44468143D01*
X153597429Y-44540714D01*
X153343429Y-44214143D02*
X153379714Y-44286714D01*
X153379714Y-44431857D01*
X153343429Y-44504429D01*
X153307143Y-44540714D01*
X153234571Y-44577000D01*
X153016857Y-44577000D01*
X152944286Y-44540714D01*
X152908000Y-44504429D01*
X152871714Y-44431857D01*
X152871714Y-44286714D01*
X152908000Y-44214143D01*
X152871714Y-43851285D02*
X153379714Y-43851285D01*
X152944286Y-43851285D02*
X152908000Y-43815000D01*
X152871714Y-43742428D01*
X152871714Y-43633571D01*
X152908000Y-43561000D01*
X152980571Y-43524714D01*
X153379714Y-43524714D01*
X153379714Y-42835285D02*
X152617714Y-42835285D01*
X153343429Y-42835285D02*
X153379714Y-42907856D01*
X153379714Y-43052999D01*
X153343429Y-43125571D01*
X153307143Y-43161856D01*
X153234571Y-43198142D01*
X153016857Y-43198142D01*
X152944286Y-43161856D01*
X152908000Y-43125571D01*
X152871714Y-43052999D01*
X152871714Y-42907856D01*
X152908000Y-42835285D01*
X169508714Y-44939858D02*
X169508714Y-44794715D01*
X169545000Y-44722143D01*
X169617571Y-44649572D01*
X169762714Y-44613286D01*
X170016714Y-44613286D01*
X170161857Y-44649572D01*
X170234429Y-44722143D01*
X170270714Y-44794715D01*
X170270714Y-44939858D01*
X170234429Y-45012429D01*
X170161857Y-45085000D01*
X170016714Y-45121286D01*
X169762714Y-45121286D01*
X169617571Y-45085000D01*
X169545000Y-45012429D01*
X169508714Y-44939858D01*
X169762714Y-43960143D02*
X170270714Y-43960143D01*
X169762714Y-44286714D02*
X170161857Y-44286714D01*
X170234429Y-44250429D01*
X170270714Y-44177857D01*
X170270714Y-44069000D01*
X170234429Y-43996429D01*
X170198143Y-43960143D01*
X169762714Y-43706143D02*
X169762714Y-43415857D01*
X169508714Y-43597285D02*
X170161857Y-43597285D01*
X170234429Y-43561000D01*
X170270714Y-43488428D01*
X170270714Y-43415857D01*
X169762714Y-42835285D02*
X170270714Y-42835285D01*
X169472429Y-43016714D02*
X170016714Y-43198142D01*
X170016714Y-42726428D01*
X165952714Y-44939858D02*
X165952714Y-44794715D01*
X165989000Y-44722143D01*
X166061571Y-44649572D01*
X166206714Y-44613286D01*
X166460714Y-44613286D01*
X166605857Y-44649572D01*
X166678429Y-44722143D01*
X166714714Y-44794715D01*
X166714714Y-44939858D01*
X166678429Y-45012429D01*
X166605857Y-45085000D01*
X166460714Y-45121286D01*
X166206714Y-45121286D01*
X166061571Y-45085000D01*
X165989000Y-45012429D01*
X165952714Y-44939858D01*
X166206714Y-43960143D02*
X166714714Y-43960143D01*
X166206714Y-44286714D02*
X166605857Y-44286714D01*
X166678429Y-44250429D01*
X166714714Y-44177857D01*
X166714714Y-44069000D01*
X166678429Y-43996429D01*
X166642143Y-43960143D01*
X166206714Y-43706143D02*
X166206714Y-43415857D01*
X165952714Y-43597285D02*
X166605857Y-43597285D01*
X166678429Y-43561000D01*
X166714714Y-43488428D01*
X166714714Y-43415857D01*
X165952714Y-43234428D02*
X165952714Y-42762714D01*
X166243000Y-43016714D01*
X166243000Y-42907856D01*
X166279286Y-42835285D01*
X166315571Y-42798999D01*
X166388143Y-42762714D01*
X166569571Y-42762714D01*
X166642143Y-42798999D01*
X166678429Y-42835285D01*
X166714714Y-42907856D01*
X166714714Y-43125571D01*
X166678429Y-43198142D01*
X166642143Y-43234428D01*
X173699714Y-44867286D02*
X173699714Y-45230143D01*
X172937714Y-45230143D01*
X173191714Y-44286715D02*
X173808571Y-44286715D01*
X173881143Y-44323001D01*
X173917429Y-44359286D01*
X173953714Y-44431858D01*
X173953714Y-44540715D01*
X173917429Y-44613286D01*
X173663429Y-44286715D02*
X173699714Y-44359286D01*
X173699714Y-44504429D01*
X173663429Y-44577001D01*
X173627143Y-44613286D01*
X173554571Y-44649572D01*
X173336857Y-44649572D01*
X173264286Y-44613286D01*
X173228000Y-44577001D01*
X173191714Y-44504429D01*
X173191714Y-44359286D01*
X173228000Y-44286715D01*
X173191714Y-43923857D02*
X173699714Y-43923857D01*
X173264286Y-43923857D02*
X173228000Y-43887572D01*
X173191714Y-43815000D01*
X173191714Y-43706143D01*
X173228000Y-43633572D01*
X173300571Y-43597286D01*
X173699714Y-43597286D01*
X173699714Y-42907857D02*
X172937714Y-42907857D01*
X173663429Y-42907857D02*
X173699714Y-42980428D01*
X173699714Y-43125571D01*
X173663429Y-43198143D01*
X173627143Y-43234428D01*
X173554571Y-43270714D01*
X173336857Y-43270714D01*
X173264286Y-43234428D01*
X173228000Y-43198143D01*
X173191714Y-43125571D01*
X173191714Y-42980428D01*
X173228000Y-42907857D01*
X163158714Y-45121285D02*
X163158714Y-45484142D01*
X162396714Y-45484142D01*
X162868429Y-44867285D02*
X162868429Y-44286714D01*
X163158714Y-44577000D02*
X162578143Y-44577000D01*
X162396714Y-43560999D02*
X162396714Y-43923856D01*
X162759571Y-43960142D01*
X162723286Y-43923856D01*
X162687000Y-43851285D01*
X162687000Y-43669856D01*
X162723286Y-43597285D01*
X162759571Y-43560999D01*
X162832143Y-43524714D01*
X163013571Y-43524714D01*
X163086143Y-43560999D01*
X163122429Y-43597285D01*
X163158714Y-43669856D01*
X163158714Y-43851285D01*
X163122429Y-43923856D01*
X163086143Y-43960142D01*
X162396714Y-43307000D02*
X163158714Y-43053000D01*
X162396714Y-42799000D01*
D13*
X179423572Y-41458571D02*
X179423572Y-39958571D01*
X179995000Y-39958571D01*
X180137858Y-40030000D01*
X180209286Y-40101429D01*
X180280715Y-40244286D01*
X180280715Y-40458571D01*
X180209286Y-40601429D01*
X180137858Y-40672857D01*
X179995000Y-40744286D01*
X179423572Y-40744286D01*
X180923572Y-41458571D02*
X180923572Y-39958571D01*
X182495001Y-41315714D02*
X182423572Y-41387143D01*
X182209286Y-41458571D01*
X182066429Y-41458571D01*
X181852144Y-41387143D01*
X181709286Y-41244286D01*
X181637858Y-41101429D01*
X181566429Y-40815714D01*
X181566429Y-40601429D01*
X181637858Y-40315714D01*
X181709286Y-40172857D01*
X181852144Y-40030000D01*
X182066429Y-39958571D01*
X182209286Y-39958571D01*
X182423572Y-40030000D01*
X182495001Y-40101429D01*
X183137858Y-40458571D02*
X183137858Y-41458571D01*
X183137858Y-40601429D02*
X183209286Y-40530000D01*
X183352144Y-40458571D01*
X183566429Y-40458571D01*
X183709286Y-40530000D01*
X183780715Y-40672857D01*
X183780715Y-41458571D01*
X185137858Y-41387143D02*
X184995001Y-41458571D01*
X184709287Y-41458571D01*
X184566429Y-41387143D01*
X184495001Y-41315714D01*
X184423572Y-41172857D01*
X184423572Y-40744286D01*
X184495001Y-40601429D01*
X184566429Y-40530000D01*
X184709287Y-40458571D01*
X184995001Y-40458571D01*
X185137858Y-40530000D01*
X179780715Y-42358571D02*
X179066429Y-42358571D01*
X178995000Y-43072857D01*
X179066429Y-43001429D01*
X179209286Y-42930000D01*
X179566429Y-42930000D01*
X179709286Y-43001429D01*
X179780715Y-43072857D01*
X179852143Y-43215714D01*
X179852143Y-43572857D01*
X179780715Y-43715714D01*
X179709286Y-43787143D01*
X179566429Y-43858571D01*
X179209286Y-43858571D01*
X179066429Y-43787143D01*
X178995000Y-43715714D01*
X182280714Y-43858571D02*
X182280714Y-43072857D01*
X182209285Y-42930000D01*
X182066428Y-42858571D01*
X181780714Y-42858571D01*
X181637857Y-42930000D01*
X182280714Y-43787143D02*
X182137857Y-43858571D01*
X181780714Y-43858571D01*
X181637857Y-43787143D01*
X181566428Y-43644286D01*
X181566428Y-43501429D01*
X181637857Y-43358571D01*
X181780714Y-43287143D01*
X182137857Y-43287143D01*
X182280714Y-43215714D01*
X182852143Y-43858571D02*
X183637857Y-42858571D01*
X182852143Y-42858571D02*
X183637857Y-43858571D01*
X184209286Y-43858571D02*
X184209286Y-42858571D01*
X184209286Y-42358571D02*
X184137857Y-42430000D01*
X184209286Y-42501429D01*
X184280714Y-42430000D01*
X184209286Y-42358571D01*
X184209286Y-42501429D01*
X184852143Y-43787143D02*
X184995000Y-43858571D01*
X185280715Y-43858571D01*
X185423572Y-43787143D01*
X185495000Y-43644286D01*
X185495000Y-43572857D01*
X185423572Y-43430000D01*
X185280715Y-43358571D01*
X185066429Y-43358571D01*
X184923572Y-43287143D01*
X184852143Y-43144286D01*
X184852143Y-43072857D01*
X184923572Y-42930000D01*
X185066429Y-42858571D01*
X185280715Y-42858571D01*
X185423572Y-42930000D01*
X179959286Y-44758571D02*
X180459286Y-46258571D01*
X180959286Y-44758571D01*
X182245000Y-46258571D02*
X181387857Y-46258571D01*
X181816429Y-46258571D02*
X181816429Y-44758571D01*
X181673572Y-44972857D01*
X181530714Y-45115714D01*
X181387857Y-45187143D01*
X182887857Y-46115714D02*
X182959285Y-46187143D01*
X182887857Y-46258571D01*
X182816428Y-46187143D01*
X182887857Y-46115714D01*
X182887857Y-46258571D01*
X184387857Y-46258571D02*
X183530714Y-46258571D01*
X183959286Y-46258571D02*
X183959286Y-44758571D01*
X183816429Y-44972857D01*
X183673571Y-45115714D01*
X183530714Y-45187143D01*
D14*
X178054000Y-81661000D02*
G75*
G03X178054000Y-81661000I-127000J0D01*
G74*
G01*
X177927000Y-80518000D02*
X177927000Y-81534000D01*
X177927000Y-81534000D02*
X176403000Y-81534000D01*
X176403000Y-81534000D02*
X176403000Y-80518000D01*
X176403000Y-79502000D02*
X176403000Y-78486000D01*
X176403000Y-78486000D02*
X177927000Y-78486000D01*
X177927000Y-78486000D02*
X177927000Y-79502000D01*
X176530000Y-82169000D02*
G75*
G03X176530000Y-82169000I-127000J0D01*
G74*
G01*
X176403000Y-83312000D02*
X176403000Y-82296000D01*
X176403000Y-82296000D02*
X177927000Y-82296000D01*
X177927000Y-82296000D02*
X177927000Y-83312000D01*
X177927000Y-84328000D02*
X177927000Y-85344000D01*
X177927000Y-85344000D02*
X176403000Y-85344000D01*
X176403000Y-85344000D02*
X176403000Y-84328000D01*
D15*
X186055000Y-77978000D02*
X186055000Y-75692000D01*
X186055000Y-75692000D02*
X184404000Y-75692000D01*
X182626000Y-77978000D02*
X180975000Y-77978000D01*
X180975000Y-77978000D02*
X180975000Y-75692000D01*
X180975000Y-75692000D02*
X182626000Y-75692000D01*
X184404000Y-77978000D02*
X186055000Y-77978000D01*
X186563000Y-77216000D02*
X188849000Y-77216000D01*
X188849000Y-77216000D02*
X188849000Y-75565000D01*
X186563000Y-73787000D02*
X186563000Y-72136000D01*
X186563000Y-72136000D02*
X188849000Y-72136000D01*
X188849000Y-72136000D02*
X188849000Y-73787000D01*
X186563000Y-75565000D02*
X186563000Y-77216000D01*
X189738000Y-77216000D02*
X192024000Y-77216000D01*
X192024000Y-77216000D02*
X192024000Y-75565000D01*
X189738000Y-73787000D02*
X189738000Y-72136000D01*
X189738000Y-72136000D02*
X192024000Y-72136000D01*
X192024000Y-72136000D02*
X192024000Y-73787000D01*
X189738000Y-75565000D02*
X189738000Y-77216000D01*
X164517605Y-78486000D02*
G75*
G03X164517605Y-78486000I-179605J0D01*
G74*
G01*
X162687000Y-81407000D02*
X164211000Y-81407000D01*
X164211000Y-81407000D02*
X164211000Y-78613000D01*
X164211000Y-78613000D02*
X162687000Y-78613000D01*
X161163000Y-78613000D02*
X159639000Y-78613000D01*
X159639000Y-78613000D02*
X159639000Y-81407000D01*
X159639000Y-81407000D02*
X161163000Y-81407000D01*
X164517605Y-81661000D02*
G75*
G03X164517605Y-81661000I-179605J0D01*
G74*
G01*
X162687000Y-84582000D02*
X164211000Y-84582000D01*
X164211000Y-84582000D02*
X164211000Y-81788000D01*
X164211000Y-81788000D02*
X162687000Y-81788000D01*
X161163000Y-81788000D02*
X159639000Y-81788000D01*
X159639000Y-81788000D02*
X159639000Y-84582000D01*
X159639000Y-84582000D02*
X161163000Y-84582000D01*
X164517605Y-75311000D02*
G75*
G03X164517605Y-75311000I-179605J0D01*
G74*
G01*
X162687000Y-78232000D02*
X164211000Y-78232000D01*
X164211000Y-78232000D02*
X164211000Y-75438000D01*
X164211000Y-75438000D02*
X162687000Y-75438000D01*
X161163000Y-75438000D02*
X159639000Y-75438000D01*
X159639000Y-75438000D02*
X159639000Y-78232000D01*
X159639000Y-78232000D02*
X161163000Y-78232000D01*
X184150000Y-95758000D02*
X184150000Y-93472000D01*
X184150000Y-93472000D02*
X182499000Y-93472000D01*
X180721000Y-95758000D02*
X179070000Y-95758000D01*
X179070000Y-95758000D02*
X179070000Y-93472000D01*
X179070000Y-93472000D02*
X180721000Y-93472000D01*
X182499000Y-95758000D02*
X184150000Y-95758000D01*
X181737000Y-92710000D02*
X184023000Y-92710000D01*
X184023000Y-92710000D02*
X184023000Y-91059000D01*
X181737000Y-89281000D02*
X181737000Y-87630000D01*
X181737000Y-87630000D02*
X184023000Y-87630000D01*
X184023000Y-87630000D02*
X184023000Y-89281000D01*
X181737000Y-91059000D02*
X181737000Y-92710000D01*
X167565605Y-102997000D02*
G75*
G03X167565605Y-102997000I-179605J0D01*
G74*
G01*
X170307000Y-104648000D02*
X170307000Y-103124000D01*
X170307000Y-103124000D02*
X167513000Y-103124000D01*
X167513000Y-103124000D02*
X167513000Y-104648000D01*
X167513000Y-106172000D02*
X167513000Y-107696000D01*
X167513000Y-107696000D02*
X170307000Y-107696000D01*
X170307000Y-107696000D02*
X170307000Y-106172000D01*
X167057605Y-106426000D02*
G75*
G03X167057605Y-106426000I-179605J0D01*
G74*
G01*
X165227000Y-109347000D02*
X166751000Y-109347000D01*
X166751000Y-109347000D02*
X166751000Y-106553000D01*
X166751000Y-106553000D02*
X165227000Y-106553000D01*
X163703000Y-106553000D02*
X162179000Y-106553000D01*
X162179000Y-106553000D02*
X162179000Y-109347000D01*
X162179000Y-109347000D02*
X163703000Y-109347000D01*
D14*
X153543000Y-60833000D02*
G75*
G03X153543000Y-60833000I-127000J0D01*
G74*
G01*
X152273000Y-60833000D02*
X153289000Y-60833000D01*
X153289000Y-60833000D02*
X153289000Y-62357000D01*
X153289000Y-62357000D02*
X152273000Y-62357000D01*
X151257000Y-62357000D02*
X150241000Y-62357000D01*
X150241000Y-62357000D02*
X150241000Y-60833000D01*
X150241000Y-60833000D02*
X151257000Y-60833000D01*
D16*
X156210000Y-88900000D02*
X153670000Y-88900000D01*
X153670000Y-88900000D02*
X153670000Y-73660000D01*
X153670000Y-73660000D02*
X156210000Y-73660000D01*
X156210000Y-73660000D02*
X156210000Y-88900000D01*
X156210000Y-86360000D02*
X153670000Y-86360000D01*
D17*
X182245000Y-130175000D02*
X182245000Y-125095000D01*
X182245000Y-125095000D02*
X183769000Y-125095000D01*
X183769000Y-125095000D02*
X183769000Y-117475000D01*
X183769000Y-117475000D02*
X182245000Y-117475000D01*
X182245000Y-117475000D02*
X182245000Y-112395000D01*
X182245000Y-112395000D02*
X177165000Y-112395000D01*
X177165000Y-112395000D02*
X177165000Y-121285000D01*
X177165000Y-121285000D02*
X177165000Y-130175000D01*
X177165000Y-130175000D02*
X182245000Y-130175000D01*
X170815000Y-130175000D02*
X170815000Y-125095000D01*
X170815000Y-125095000D02*
X172339000Y-125095000D01*
X172339000Y-125095000D02*
X172339000Y-117475000D01*
X172339000Y-117475000D02*
X170815000Y-117475000D01*
X170815000Y-117475000D02*
X170815000Y-112395000D01*
X170815000Y-112395000D02*
X165735000Y-112395000D01*
X165735000Y-112395000D02*
X165735000Y-121285000D01*
X165735000Y-121285000D02*
X165735000Y-130175000D01*
X165735000Y-130175000D02*
X170815000Y-130175000D01*
X159385000Y-130175000D02*
X159385000Y-125095000D01*
X159385000Y-125095000D02*
X160909000Y-125095000D01*
X160909000Y-125095000D02*
X160909000Y-117475000D01*
X160909000Y-117475000D02*
X159385000Y-117475000D01*
X159385000Y-117475000D02*
X159385000Y-112395000D01*
X159385000Y-112395000D02*
X154305000Y-112395000D01*
X154305000Y-112395000D02*
X154305000Y-121285000D01*
X154305000Y-121285000D02*
X154305000Y-130175000D01*
X154305000Y-130175000D02*
X159385000Y-130175000D01*
X133985000Y-79375000D02*
X133985000Y-71755000D01*
X133985000Y-71755000D02*
X135509000Y-71755000D01*
X135509000Y-71755000D02*
X135509000Y-64135000D01*
X135509000Y-64135000D02*
X133985000Y-64135000D01*
X133985000Y-64135000D02*
X133985000Y-56515000D01*
X133985000Y-56515000D02*
X128905000Y-56515000D01*
X128905000Y-56515000D02*
X128905000Y-70485000D01*
X128905000Y-70485000D02*
X128905000Y-79375000D01*
X128905000Y-79375000D02*
X133985000Y-79375000D01*
X146685000Y-130175000D02*
X146685000Y-125095000D01*
X146685000Y-125095000D02*
X148209000Y-125095000D01*
X148209000Y-125095000D02*
X148209000Y-117475000D01*
X148209000Y-117475000D02*
X146685000Y-117475000D01*
X146685000Y-117475000D02*
X146685000Y-112395000D01*
X146685000Y-112395000D02*
X141605000Y-112395000D01*
X141605000Y-112395000D02*
X141605000Y-121285000D01*
X141605000Y-121285000D02*
X141605000Y-130175000D01*
X141605000Y-130175000D02*
X146685000Y-130175000D01*
X133985000Y-130175000D02*
X133985000Y-125095000D01*
X133985000Y-125095000D02*
X135509000Y-125095000D01*
X135509000Y-125095000D02*
X135509000Y-117475000D01*
X135509000Y-117475000D02*
X133985000Y-117475000D01*
X133985000Y-117475000D02*
X133985000Y-112395000D01*
X133985000Y-112395000D02*
X128905000Y-112395000D01*
X128905000Y-112395000D02*
X128905000Y-121285000D01*
X128905000Y-121285000D02*
X128905000Y-130175000D01*
X128905000Y-130175000D02*
X133985000Y-130175000D01*
X194945000Y-47090000D02*
X179945000Y-47090000D01*
X194945000Y-62890000D02*
X194945000Y-47090000D01*
X179945000Y-62890000D02*
X194945000Y-62890000D01*
X179945000Y-62890000D02*
X179945000Y-47090000D01*
D18*
X130037840Y-132379720D02*
X130037840Y-132704840D01*
X130037840Y-132704840D02*
X130538220Y-132704840D01*
X130538220Y-132379720D02*
X130538220Y-132704840D01*
X130037840Y-132379720D02*
X130538220Y-132379720D01*
X130037840Y-131757420D02*
X130037840Y-131907280D01*
X130037840Y-131907280D02*
X130289300Y-131907280D01*
X130289300Y-131757420D02*
X130289300Y-131907280D01*
X130037840Y-131757420D02*
X130289300Y-131757420D01*
X130037840Y-132252720D02*
X130037840Y-132402580D01*
X130037840Y-132402580D02*
X130289300Y-132402580D01*
X130289300Y-132252720D02*
X130289300Y-132402580D01*
X130037840Y-132252720D02*
X130289300Y-132252720D01*
X130037840Y-131881880D02*
X130037840Y-132278120D01*
X130037840Y-132278120D02*
X130213100Y-132278120D01*
X130213100Y-131881880D02*
X130213100Y-132278120D01*
X130037840Y-131881880D02*
X130213100Y-131881880D01*
X128541780Y-132379720D02*
X128541780Y-132704840D01*
X128541780Y-132704840D02*
X129042160Y-132704840D01*
X129042160Y-132379720D02*
X129042160Y-132704840D01*
X128541780Y-132379720D02*
X129042160Y-132379720D01*
X128541780Y-131455160D02*
X128541780Y-131780280D01*
X128541780Y-131780280D02*
X129042160Y-131780280D01*
X129042160Y-131455160D02*
X129042160Y-131780280D01*
X128541780Y-131455160D02*
X129042160Y-131455160D01*
X128790700Y-132252720D02*
X128790700Y-132402580D01*
X128790700Y-132402580D02*
X129042160Y-132402580D01*
X129042160Y-132252720D02*
X129042160Y-132402580D01*
X128790700Y-132252720D02*
X129042160Y-132252720D01*
X128790700Y-131757420D02*
X128790700Y-131907280D01*
X128790700Y-131907280D02*
X129042160Y-131907280D01*
X129042160Y-131757420D02*
X129042160Y-131907280D01*
X128790700Y-131757420D02*
X129042160Y-131757420D01*
X128866900Y-131881880D02*
X128866900Y-132278120D01*
X128866900Y-132278120D02*
X129042160Y-132278120D01*
X129042160Y-131881880D02*
X129042160Y-132278120D01*
X128866900Y-131881880D02*
X129042160Y-131881880D01*
X129540000Y-131980940D02*
X129540000Y-132179060D01*
X129540000Y-132179060D02*
X129738120Y-132179060D01*
X129738120Y-131980940D02*
X129738120Y-132179060D01*
X129540000Y-131980940D02*
X129738120Y-131980940D01*
X130037840Y-131480560D02*
X130037840Y-131780280D01*
X130037840Y-131780280D02*
X130337560Y-131780280D01*
X130337560Y-131480560D02*
X130337560Y-131780280D01*
X130037840Y-131480560D02*
X130337560Y-131480560D01*
X130464560Y-131455160D02*
X130464560Y-131681220D01*
X130464560Y-131681220D02*
X130538220Y-131681220D01*
X130538220Y-131455160D02*
X130538220Y-131681220D01*
X130464560Y-131455160D02*
X130538220Y-131455160D01*
D19*
X130063240Y-132654040D02*
X129016760Y-132654040D01*
X129042160Y-131505960D02*
X130464560Y-131505960D01*
D20*
X130460202Y-131630420D02*
G75*
G03X130460202Y-131630420I-71842J0D01*
G74*
G01*
D19*
X130538220Y-131732020D02*
G75*
G03X130538220Y-132427980I0J-347980D01*
G74*
G01*
X128541780Y-132427980D02*
G75*
G03X128541780Y-131732020I0J347980D01*
G74*
G01*
D18*
X136824720Y-64907160D02*
X137149840Y-64907160D01*
X137149840Y-64907160D02*
X137149840Y-64406780D01*
X136824720Y-64406780D02*
X137149840Y-64406780D01*
X136824720Y-64907160D02*
X136824720Y-64406780D01*
X136202420Y-64907160D02*
X136352280Y-64907160D01*
X136352280Y-64907160D02*
X136352280Y-64655700D01*
X136202420Y-64655700D02*
X136352280Y-64655700D01*
X136202420Y-64907160D02*
X136202420Y-64655700D01*
X136697720Y-64907160D02*
X136847580Y-64907160D01*
X136847580Y-64907160D02*
X136847580Y-64655700D01*
X136697720Y-64655700D02*
X136847580Y-64655700D01*
X136697720Y-64907160D02*
X136697720Y-64655700D01*
X136326880Y-64907160D02*
X136723120Y-64907160D01*
X136723120Y-64907160D02*
X136723120Y-64731900D01*
X136326880Y-64731900D02*
X136723120Y-64731900D01*
X136326880Y-64907160D02*
X136326880Y-64731900D01*
X136824720Y-66403220D02*
X137149840Y-66403220D01*
X137149840Y-66403220D02*
X137149840Y-65902840D01*
X136824720Y-65902840D02*
X137149840Y-65902840D01*
X136824720Y-66403220D02*
X136824720Y-65902840D01*
X135900160Y-66403220D02*
X136225280Y-66403220D01*
X136225280Y-66403220D02*
X136225280Y-65902840D01*
X135900160Y-65902840D02*
X136225280Y-65902840D01*
X135900160Y-66403220D02*
X135900160Y-65902840D01*
X136697720Y-66154300D02*
X136847580Y-66154300D01*
X136847580Y-66154300D02*
X136847580Y-65902840D01*
X136697720Y-65902840D02*
X136847580Y-65902840D01*
X136697720Y-66154300D02*
X136697720Y-65902840D01*
X136202420Y-66154300D02*
X136352280Y-66154300D01*
X136352280Y-66154300D02*
X136352280Y-65902840D01*
X136202420Y-65902840D02*
X136352280Y-65902840D01*
X136202420Y-66154300D02*
X136202420Y-65902840D01*
X136326880Y-66078100D02*
X136723120Y-66078100D01*
X136723120Y-66078100D02*
X136723120Y-65902840D01*
X136326880Y-65902840D02*
X136723120Y-65902840D01*
X136326880Y-66078100D02*
X136326880Y-65902840D01*
X136425940Y-65405000D02*
X136624060Y-65405000D01*
X136624060Y-65405000D02*
X136624060Y-65206880D01*
X136425940Y-65206880D02*
X136624060Y-65206880D01*
X136425940Y-65405000D02*
X136425940Y-65206880D01*
X135925560Y-64907160D02*
X136225280Y-64907160D01*
X136225280Y-64907160D02*
X136225280Y-64607440D01*
X135925560Y-64607440D02*
X136225280Y-64607440D01*
X135925560Y-64907160D02*
X135925560Y-64607440D01*
X135900160Y-64480440D02*
X136126220Y-64480440D01*
X136126220Y-64480440D02*
X136126220Y-64406780D01*
X135900160Y-64406780D02*
X136126220Y-64406780D01*
X135900160Y-64480440D02*
X135900160Y-64406780D01*
D19*
X137099040Y-64881760D02*
X137099040Y-65928240D01*
X135950960Y-65902840D02*
X135950960Y-64480440D01*
D20*
X136147262Y-64556640D02*
G75*
G03X136147262Y-64556640I-71842J0D01*
G74*
G01*
D19*
X136177020Y-64406780D02*
G75*
G03X136872980Y-64406780I347980J0D01*
G74*
G01*
X136872980Y-66403220D02*
G75*
G03X136177020Y-66403220I-347980J0D01*
G74*
G01*
D21*
X136540240Y-83449160D02*
X136540240Y-83400900D01*
X135839200Y-81450180D02*
X136540240Y-81450180D01*
X136540240Y-81450180D02*
X136540240Y-81699100D01*
X136540240Y-83449160D02*
X136540240Y-83649820D01*
X136540240Y-83649820D02*
X135839200Y-83649820D01*
D22*
X136779000Y-80264000D02*
X136779000Y-77216000D01*
X136779000Y-77216000D02*
X137541000Y-77216000D01*
X137541000Y-77216000D02*
X137541000Y-80264000D01*
X137541000Y-80264000D02*
X136779000Y-80264000D01*
X169799000Y-63246000D02*
X166751000Y-63246000D01*
X166751000Y-63246000D02*
X166751000Y-62484000D01*
X166751000Y-62484000D02*
X169799000Y-62484000D01*
X169799000Y-62484000D02*
X169799000Y-63246000D01*
D15*
X170688000Y-88138000D02*
X170688000Y-88265000D01*
X170688000Y-88265000D02*
X176022000Y-88265000D01*
X176022000Y-84455000D02*
X170688000Y-84455000D01*
X170688000Y-84455000D02*
X170688000Y-88138000D01*
X170688000Y-85852000D02*
X171196000Y-85852000D01*
X171196000Y-85852000D02*
X171196000Y-86868000D01*
X171196000Y-86868000D02*
X170688000Y-86868000D01*
X176022000Y-84455000D02*
X176022000Y-88265000D01*
X170688000Y-104648000D02*
X170688000Y-104775000D01*
X170688000Y-104775000D02*
X176022000Y-104775000D01*
X176022000Y-100965000D02*
X170688000Y-100965000D01*
X170688000Y-100965000D02*
X170688000Y-104648000D01*
X170688000Y-102362000D02*
X171196000Y-102362000D01*
X171196000Y-102362000D02*
X171196000Y-103378000D01*
X171196000Y-103378000D02*
X170688000Y-103378000D01*
X176022000Y-100965000D02*
X176022000Y-104775000D01*
D22*
X174879000Y-112014000D02*
X174879000Y-108966000D01*
X174879000Y-108966000D02*
X175641000Y-108966000D01*
X175641000Y-108966000D02*
X175641000Y-112014000D01*
X175641000Y-112014000D02*
X174879000Y-112014000D01*
D15*
X185928000Y-130683000D02*
X185928000Y-130810000D01*
X185928000Y-130810000D02*
X191262000Y-130810000D01*
X191262000Y-127000000D02*
X185928000Y-127000000D01*
X185928000Y-127000000D02*
X185928000Y-130683000D01*
X185928000Y-128397000D02*
X186436000Y-128397000D01*
X186436000Y-128397000D02*
X186436000Y-129413000D01*
X186436000Y-129413000D02*
X185928000Y-129413000D01*
X191262000Y-127000000D02*
X191262000Y-130810000D01*
X147828000Y-57023000D02*
X147828000Y-57150000D01*
X147828000Y-57150000D02*
X153162000Y-57150000D01*
X153162000Y-53340000D02*
X147828000Y-53340000D01*
X147828000Y-53340000D02*
X147828000Y-57023000D01*
X147828000Y-54737000D02*
X148336000Y-54737000D01*
X148336000Y-54737000D02*
X148336000Y-55753000D01*
X148336000Y-55753000D02*
X147828000Y-55753000D01*
X153162000Y-53340000D02*
X153162000Y-57150000D01*
D17*
X151095000Y-86600000D02*
X149895000Y-86600000D01*
X149895000Y-84850000D02*
X151095000Y-84850000D01*
X139665000Y-68820000D02*
X138465000Y-68820000D01*
X138465000Y-67070000D02*
X139665000Y-67070000D01*
X127240000Y-132115000D02*
X127240000Y-133315000D01*
X125490000Y-133315000D02*
X125490000Y-132115000D01*
X142205000Y-85330000D02*
X141005000Y-85330000D01*
X141005000Y-83580000D02*
X142205000Y-83580000D01*
X181850000Y-134655000D02*
X181850000Y-135855000D01*
X180100000Y-135855000D02*
X180100000Y-134655000D01*
X178040000Y-134655000D02*
X178040000Y-135855000D01*
X176290000Y-135855000D02*
X176290000Y-134655000D01*
X174230000Y-134655000D02*
X174230000Y-135855000D01*
X172480000Y-135855000D02*
X172480000Y-134655000D01*
X170420000Y-134655000D02*
X170420000Y-135855000D01*
X168670000Y-135855000D02*
X168670000Y-134655000D01*
X166610000Y-134655000D02*
X166610000Y-135855000D01*
X164860000Y-135855000D02*
X164860000Y-134655000D01*
X162800000Y-134655000D02*
X162800000Y-135855000D01*
X161050000Y-135855000D02*
X161050000Y-134655000D01*
X165340000Y-62265000D02*
X165340000Y-63465000D01*
X163590000Y-63465000D02*
X163590000Y-62265000D01*
X172960000Y-62265000D02*
X172960000Y-63465000D01*
X171210000Y-63465000D02*
X171210000Y-62265000D01*
X151370000Y-134655000D02*
X151370000Y-135855000D01*
X149620000Y-135855000D02*
X149620000Y-134655000D01*
X147560000Y-134655000D02*
X147560000Y-135855000D01*
X145810000Y-135855000D02*
X145810000Y-134655000D01*
X143750000Y-134655000D02*
X143750000Y-135855000D01*
X142000000Y-135855000D02*
X142000000Y-134655000D01*
X139940000Y-134655000D02*
X139940000Y-135855000D01*
X138190000Y-135855000D02*
X138190000Y-134655000D01*
X136130000Y-134655000D02*
X136130000Y-135855000D01*
X134380000Y-135855000D02*
X134380000Y-134655000D01*
X132320000Y-134655000D02*
X132320000Y-135855000D01*
X130570000Y-135855000D02*
X130570000Y-134655000D01*
X133590000Y-81950000D02*
X133590000Y-83150000D01*
X131840000Y-83150000D02*
X131840000Y-81950000D01*
X129780000Y-134655000D02*
X129780000Y-135855000D01*
X128030000Y-135855000D02*
X128030000Y-134655000D01*
X187565000Y-79410000D02*
X187565000Y-80610000D01*
X185815000Y-80610000D02*
X185815000Y-79410000D01*
X188355000Y-84420000D02*
X188355000Y-83220000D01*
X190105000Y-83220000D02*
X190105000Y-84420000D01*
X189265000Y-79770000D02*
X190465000Y-79770000D01*
X190465000Y-81520000D02*
X189265000Y-81520000D01*
X187565000Y-83220000D02*
X187565000Y-84420000D01*
X185815000Y-84420000D02*
X185815000Y-83220000D01*
X186295000Y-97190000D02*
X186295000Y-98390000D01*
X184545000Y-98390000D02*
X184545000Y-97190000D01*
X181645000Y-104535000D02*
X182845000Y-104535000D01*
X182845000Y-106285000D02*
X181645000Y-106285000D01*
X182845000Y-104380000D02*
X181645000Y-104380000D01*
X181645000Y-102630000D02*
X182845000Y-102630000D01*
X185385000Y-113270000D02*
X184185000Y-113270000D01*
X184185000Y-111520000D02*
X185385000Y-111520000D01*
X150530000Y-63260000D02*
X151730000Y-63260000D01*
X151730000Y-65010000D02*
X150530000Y-65010000D01*
X178675000Y-55915000D02*
X178675000Y-57115000D01*
X176925000Y-57115000D02*
X176925000Y-55915000D01*
X176925000Y-61560000D02*
X176925000Y-60360000D01*
X178675000Y-60360000D02*
X178675000Y-61560000D01*
X159350000Y-65010000D02*
X158150000Y-65010000D01*
X158150000Y-63260000D02*
X159350000Y-63260000D01*
X154340000Y-63260000D02*
X155540000Y-63260000D01*
X155540000Y-65010000D02*
X154340000Y-65010000D01*
D21*
X164719000Y-46863000D02*
X164719000Y-48133000D01*
X165506400Y-47612300D02*
X165468300Y-47358300D01*
X165468300Y-47358300D02*
X165290500Y-47078900D01*
X165290500Y-47078900D02*
X164973000Y-46863000D01*
X164973000Y-46863000D02*
X164528500Y-46850300D01*
X164528500Y-46850300D02*
X164172900Y-47053500D01*
X164172900Y-47053500D02*
X163995100Y-47345600D01*
X163995100Y-47345600D02*
X163944300Y-47663100D01*
X163944300Y-47663100D02*
X164045900Y-48069500D01*
X164045900Y-48069500D02*
X164388800Y-48323500D01*
X164388800Y-48323500D02*
X164566600Y-48412400D01*
X173101000Y-50673000D02*
X163449000Y-50673000D01*
X163449000Y-47625000D02*
X163449000Y-46355000D01*
X163449000Y-46355000D02*
X173101000Y-46355000D01*
X173101000Y-46355000D02*
X173101000Y-51435000D01*
X163449000Y-51435000D02*
X163449000Y-48895000D01*
X163449000Y-48895000D02*
X163449000Y-47625000D01*
D17*
X179050000Y-110629500D02*
X179050000Y-106540500D01*
X182505000Y-106540500D02*
X182505000Y-110629500D01*
X182505000Y-110629500D02*
X178695000Y-110629500D01*
X178695000Y-110629500D02*
X178695000Y-106540500D01*
X178695000Y-106540500D02*
X182505000Y-106540500D01*
D16*
X144221200Y-100888800D02*
X144221200Y-90881200D01*
X144221200Y-90881200D02*
X154228800Y-90881200D01*
X154228800Y-100406200D02*
X154228800Y-90881200D01*
X153746200Y-100888800D02*
X144221200Y-100888800D01*
X154228800Y-100406200D02*
X153746200Y-100888800D01*
D23*
X153670000Y-99695000D02*
G75*
G03X153670000Y-99695000I-635000J0D01*
G74*
G01*
D15*
X137668000Y-97790000D02*
X130302000Y-97790000D01*
X130302000Y-110490000D02*
X137668000Y-110490000D01*
X137668000Y-97790000D02*
X137668000Y-110490000D01*
X130302000Y-110490000D02*
X130302000Y-97790000D01*
X133350000Y-110490000D02*
X133350000Y-109220000D01*
X133350000Y-109220000D02*
X134620000Y-109220000D01*
X134620000Y-109220000D02*
X134620000Y-110490000D01*
X137668000Y-84455000D02*
X130302000Y-84455000D01*
X130302000Y-97155000D02*
X137668000Y-97155000D01*
X137668000Y-84455000D02*
X137668000Y-97155000D01*
X130302000Y-97155000D02*
X130302000Y-84455000D01*
X133350000Y-97155000D02*
X133350000Y-95885000D01*
X133350000Y-95885000D02*
X134620000Y-95885000D01*
X134620000Y-95885000D02*
X134620000Y-97155000D01*
X147320000Y-56388000D02*
X147320000Y-49022000D01*
X134620000Y-49022000D02*
X134620000Y-56388000D01*
X147320000Y-56388000D02*
X134620000Y-56388000D01*
X134620000Y-49022000D02*
X147320000Y-49022000D01*
X134620000Y-52070000D02*
X135890000Y-52070000D01*
X135890000Y-52070000D02*
X135890000Y-53340000D01*
X135890000Y-53340000D02*
X134620000Y-53340000D01*
D24*
X163195000Y-55245000D02*
X164465000Y-55245000D01*
X164465000Y-55245000D02*
X164465000Y-57785000D01*
X164465000Y-57785000D02*
X163195000Y-57785000D01*
X163195000Y-53975000D02*
X173355000Y-53975000D01*
X173355000Y-53975000D02*
X173355000Y-59055000D01*
X173355000Y-59055000D02*
X163195000Y-59055000D01*
X163195000Y-59055000D02*
X163195000Y-53975000D01*
D15*
X139827000Y-125603000D02*
X139319000Y-126365000D01*
X139827000Y-123825000D02*
X139827000Y-126428500D01*
X139827000Y-126428500D02*
X138303000Y-126428500D01*
X138303000Y-126428500D02*
X138303000Y-123825000D01*
X138303000Y-123825000D02*
X139827000Y-123825000D01*
D17*
X151465000Y-107720000D02*
X150965000Y-108220000D01*
X150965000Y-110720000D02*
X150965000Y-107720000D01*
X150965000Y-107720000D02*
X152565000Y-107720000D01*
X152565000Y-107720000D02*
X152565000Y-110720000D01*
X152565000Y-110720000D02*
X150965000Y-110720000D01*
D15*
X180340000Y-84361020D02*
X180340000Y-79011780D01*
X183642000Y-79011780D02*
X183642000Y-84361020D01*
X183642000Y-84361020D02*
X180340000Y-84361020D01*
X183642000Y-79011780D02*
X180340000Y-79011780D01*
X182499000Y-78994000D02*
X182499000Y-79502000D01*
X182499000Y-79502000D02*
X181483000Y-79502000D01*
X181483000Y-79502000D02*
X181483000Y-78994000D01*
X178689000Y-102395020D02*
X178689000Y-97045780D01*
X181991000Y-97045780D02*
X181991000Y-102395020D01*
X181991000Y-102395020D02*
X178689000Y-102395020D01*
X181991000Y-97045780D02*
X178689000Y-97045780D01*
X180848000Y-97028000D02*
X180848000Y-97536000D01*
X180848000Y-97536000D02*
X179832000Y-97536000D01*
X179832000Y-97536000D02*
X179832000Y-97028000D01*
D23*
X147066000Y-76581000D02*
X147066000Y-73533000D01*
X147066000Y-73533000D02*
X139954000Y-73533000D01*
X139954000Y-73533000D02*
X139954000Y-76581000D01*
X147066000Y-79629000D02*
X147066000Y-80391000D01*
X147066000Y-80391000D02*
X145542000Y-82677000D01*
X145542000Y-82677000D02*
X141478000Y-82677000D01*
X141478000Y-82677000D02*
X139954000Y-80391000D01*
X139954000Y-80391000D02*
X139954000Y-79629000D01*
D25*
X171324590Y-111666020D02*
G75*
G03X171324590Y-111666020I-159070J0D01*
G74*
G01*
X170307000Y-109220000D02*
X171323000Y-109220000D01*
X170307000Y-111823500D02*
X171323000Y-111823500D01*
X171323000Y-109220000D02*
X171323000Y-111823500D01*
X170307000Y-111823500D02*
X170307000Y-109220000D01*
D15*
X159512000Y-57277000D02*
X159512000Y-57150000D01*
X159512000Y-57150000D02*
X154178000Y-57150000D01*
X154178000Y-60960000D02*
X159512000Y-60960000D01*
X159512000Y-60960000D02*
X159512000Y-57277000D01*
X159512000Y-59563000D02*
X159004000Y-59563000D01*
X159004000Y-59563000D02*
X159004000Y-58547000D01*
X159004000Y-58547000D02*
X159512000Y-58547000D01*
X154178000Y-60960000D02*
X154178000Y-57150000D01*
D26*
X185102498Y-39687499D02*
G75*
G03X185420000Y-38735000I-991017J859508D01*
G74*
G01*
X185102500Y-39528750D02*
G75*
G03X184943750Y-38735000I-476250J317500D01*
G74*
G01*
X185102500Y-39687500D02*
X185102500Y-39528750D01*
X184943750Y-38735000D02*
X184785000Y-38735000D01*
X184466230Y-39371270D02*
G75*
G03X184785000Y-38735000I-158750J477520D01*
G74*
G01*
X184467500Y-39370000D02*
G75*
G03X184467500Y-38735000I-317500J317500D01*
G74*
G01*
X183832002Y-38734833D02*
G75*
G03X184467500Y-38735000I317998J952330D01*
G74*
G01*
X183832500Y-39370000D02*
G75*
G02X183832500Y-38735000I317500J317500D01*
G74*
G01*
X183833770Y-39371270D02*
G75*
G02X183515000Y-38735000I158750J477520D01*
G74*
G01*
X183356250Y-38735000D02*
X183515000Y-38735000D01*
X183197500Y-39687500D02*
X183197500Y-39528750D01*
X183197500Y-39528750D02*
G75*
G02X183356250Y-38735000I476250J317500D01*
G74*
G01*
X183197502Y-39687499D02*
G75*
G02X182880000Y-38735000I991017J859508D01*
G74*
G01*
X185420333Y-38734333D02*
G75*
G03X182880000Y-38735000I-1270333J634333D01*
G74*
G01*
D17*
X168180000Y-82740000D02*
X170180000Y-82740000D01*
X166180000Y-80740000D02*
X168180000Y-82740000D01*
X166180000Y-76740000D02*
X166180000Y-80740000D01*
X168180000Y-74740000D02*
X166180000Y-76740000D01*
X170180000Y-74740000D02*
X168180000Y-74740000D01*
X172180000Y-74740000D02*
X170180000Y-74740000D01*
X174180000Y-76740000D02*
X172180000Y-74740000D01*
X174180000Y-78740000D02*
X174180000Y-76740000D01*
X174180000Y-80740000D02*
X172180000Y-82740000D01*
X174180000Y-78740000D02*
X174180000Y-80740000D01*
X170180000Y-82740000D02*
X172180000Y-82740000D01*
X174330000Y-78740000D02*
G75*
G03X174330000Y-78740000I-4150000J0D01*
G74*
G01*
X171355000Y-98615000D02*
X173355000Y-98615000D01*
X169355000Y-96615000D02*
X171355000Y-98615000D01*
X169355000Y-92615000D02*
X169355000Y-96615000D01*
X171355000Y-90615000D02*
X169355000Y-92615000D01*
X173355000Y-90615000D02*
X171355000Y-90615000D01*
X175355000Y-90615000D02*
X173355000Y-90615000D01*
X177355000Y-92615000D02*
X175355000Y-90615000D01*
X177355000Y-94615000D02*
X177355000Y-92615000D01*
X177355000Y-96615000D02*
X175355000Y-98615000D01*
X177355000Y-94615000D02*
X177355000Y-96615000D01*
X173355000Y-98615000D02*
X175355000Y-98615000D01*
X177505000Y-94615000D02*
G75*
G03X177505000Y-94615000I-4150000J0D01*
G74*
G01*
X126365000Y-147510000D02*
X126365000Y-140610000D01*
X126365000Y-140610000D02*
X155855000Y-140610000D01*
X155855000Y-140610000D02*
X155855000Y-147510000D01*
X155855000Y-147510000D02*
X126365000Y-147510000D01*
X156845000Y-147510000D02*
X156845000Y-140610000D01*
X156845000Y-140610000D02*
X186335000Y-140610000D01*
X186335000Y-140610000D02*
X186335000Y-147510000D01*
X186335000Y-147510000D02*
X156845000Y-147510000D01*
X155575000Y-35370000D02*
X155575000Y-42270000D01*
X155575000Y-42270000D02*
X126085000Y-42270000D01*
X126085000Y-42270000D02*
X126085000Y-35370000D01*
X126085000Y-35370000D02*
X155575000Y-35370000D01*
X175895000Y-35370000D02*
X175895000Y-42270000D01*
X175895000Y-42270000D02*
X160405000Y-42270000D01*
X160405000Y-42270000D02*
X160405000Y-35370000D01*
X160405000Y-35370000D02*
X175895000Y-35370000D01*
X117920000Y-107315000D02*
X124820000Y-107315000D01*
X124820000Y-107315000D02*
X124820000Y-136805000D01*
X124820000Y-136805000D02*
X117920000Y-136805000D01*
X117920000Y-136805000D02*
X117920000Y-107315000D01*
X117920000Y-76835000D02*
X124820000Y-76835000D01*
X124820000Y-76835000D02*
X124820000Y-106325000D01*
X124820000Y-106325000D02*
X117920000Y-106325000D01*
X117920000Y-106325000D02*
X117920000Y-76835000D01*
X117920000Y-46355000D02*
X124820000Y-46355000D01*
X124820000Y-46355000D02*
X124820000Y-75845000D01*
X124820000Y-75845000D02*
X117920000Y-75845000D01*
X117920000Y-75845000D02*
X117920000Y-46355000D01*
X193865000Y-115570000D02*
X186965000Y-115570000D01*
X186965000Y-115570000D02*
X186965000Y-86080000D01*
X186965000Y-86080000D02*
X193865000Y-86080000D01*
X193865000Y-86080000D02*
X193865000Y-115570000D01*
D11*
X155212143Y-69741143D02*
X155248429Y-69777429D01*
X155284714Y-69886286D01*
X155284714Y-69958857D01*
X155248429Y-70067714D01*
X155175857Y-70140286D01*
X155103286Y-70176571D01*
X154958143Y-70212857D01*
X154849286Y-70212857D01*
X154704143Y-70176571D01*
X154631571Y-70140286D01*
X154559000Y-70067714D01*
X154522714Y-69958857D01*
X154522714Y-69886286D01*
X154559000Y-69777429D01*
X154595286Y-69741143D01*
X155284714Y-69414571D02*
X154522714Y-69414571D01*
X155284714Y-68979143D01*
X154522714Y-68979143D01*
X155284714Y-68217143D02*
X155284714Y-68652571D01*
X155284714Y-68434857D02*
X154522714Y-68434857D01*
X154631571Y-68507428D01*
X154704143Y-68580000D01*
X154740429Y-68652571D01*
X177038000Y-78123143D02*
X177001714Y-78159429D01*
X176892857Y-78195714D01*
X176820286Y-78195714D01*
X176711429Y-78159429D01*
X176638857Y-78086857D01*
X176602572Y-78014286D01*
X176566286Y-77869143D01*
X176566286Y-77760286D01*
X176602572Y-77615143D01*
X176638857Y-77542571D01*
X176711429Y-77470000D01*
X176820286Y-77433714D01*
X176892857Y-77433714D01*
X177001714Y-77470000D01*
X177038000Y-77506286D01*
X177292000Y-77433714D02*
X177763714Y-77433714D01*
X177509714Y-77724000D01*
X177618572Y-77724000D01*
X177691143Y-77760286D01*
X177727429Y-77796571D01*
X177763714Y-77869143D01*
X177763714Y-78050571D01*
X177727429Y-78123143D01*
X177691143Y-78159429D01*
X177618572Y-78195714D01*
X177400857Y-78195714D01*
X177328286Y-78159429D01*
X177292000Y-78123143D01*
X178181000Y-86251143D02*
X178144714Y-86287429D01*
X178035857Y-86323714D01*
X177963286Y-86323714D01*
X177854429Y-86287429D01*
X177781857Y-86214857D01*
X177745572Y-86142286D01*
X177709286Y-85997143D01*
X177709286Y-85888286D01*
X177745572Y-85743143D01*
X177781857Y-85670571D01*
X177854429Y-85598000D01*
X177963286Y-85561714D01*
X178035857Y-85561714D01*
X178144714Y-85598000D01*
X178181000Y-85634286D01*
X178616429Y-85888286D02*
X178543857Y-85852000D01*
X178507572Y-85815714D01*
X178471286Y-85743143D01*
X178471286Y-85706857D01*
X178507572Y-85634286D01*
X178543857Y-85598000D01*
X178616429Y-85561714D01*
X178761572Y-85561714D01*
X178834143Y-85598000D01*
X178870429Y-85634286D01*
X178906714Y-85706857D01*
X178906714Y-85743143D01*
X178870429Y-85815714D01*
X178834143Y-85852000D01*
X178761572Y-85888286D01*
X178616429Y-85888286D01*
X178543857Y-85924571D01*
X178507572Y-85960857D01*
X178471286Y-86033429D01*
X178471286Y-86178571D01*
X178507572Y-86251143D01*
X178543857Y-86287429D01*
X178616429Y-86323714D01*
X178761572Y-86323714D01*
X178834143Y-86287429D01*
X178870429Y-86251143D01*
X178906714Y-86178571D01*
X178906714Y-86033429D01*
X178870429Y-85960857D01*
X178834143Y-85924571D01*
X178761572Y-85888286D01*
X183388000Y-75329143D02*
X183351714Y-75365429D01*
X183242857Y-75401714D01*
X183170286Y-75401714D01*
X183061429Y-75365429D01*
X182988857Y-75292857D01*
X182952572Y-75220286D01*
X182916286Y-75075143D01*
X182916286Y-74966286D01*
X182952572Y-74821143D01*
X182988857Y-74748571D01*
X183061429Y-74676000D01*
X183170286Y-74639714D01*
X183242857Y-74639714D01*
X183351714Y-74676000D01*
X183388000Y-74712286D01*
X183750857Y-75401714D02*
X183896000Y-75401714D01*
X183968572Y-75365429D01*
X184004857Y-75329143D01*
X184077429Y-75220286D01*
X184113714Y-75075143D01*
X184113714Y-74784857D01*
X184077429Y-74712286D01*
X184041143Y-74676000D01*
X183968572Y-74639714D01*
X183823429Y-74639714D01*
X183750857Y-74676000D01*
X183714572Y-74712286D01*
X183678286Y-74784857D01*
X183678286Y-74966286D01*
X183714572Y-75038857D01*
X183750857Y-75075143D01*
X183823429Y-75111429D01*
X183968572Y-75111429D01*
X184041143Y-75075143D01*
X184077429Y-75038857D01*
X184113714Y-74966286D01*
X184803143Y-73297143D02*
X184766857Y-73333429D01*
X184658000Y-73369714D01*
X184585429Y-73369714D01*
X184476572Y-73333429D01*
X184404000Y-73260857D01*
X184367715Y-73188286D01*
X184331429Y-73043143D01*
X184331429Y-72934286D01*
X184367715Y-72789143D01*
X184404000Y-72716571D01*
X184476572Y-72644000D01*
X184585429Y-72607714D01*
X184658000Y-72607714D01*
X184766857Y-72644000D01*
X184803143Y-72680286D01*
X185528857Y-73369714D02*
X185093429Y-73369714D01*
X185311143Y-73369714D02*
X185311143Y-72607714D01*
X185238572Y-72716571D01*
X185166000Y-72789143D01*
X185093429Y-72825429D01*
X186000571Y-72607714D02*
X186073143Y-72607714D01*
X186145714Y-72644000D01*
X186182000Y-72680286D01*
X186218286Y-72752857D01*
X186254571Y-72898000D01*
X186254571Y-73079429D01*
X186218286Y-73224571D01*
X186182000Y-73297143D01*
X186145714Y-73333429D01*
X186073143Y-73369714D01*
X186000571Y-73369714D01*
X185928000Y-73333429D01*
X185891714Y-73297143D01*
X185855429Y-73224571D01*
X185819143Y-73079429D01*
X185819143Y-72898000D01*
X185855429Y-72752857D01*
X185891714Y-72680286D01*
X185928000Y-72644000D01*
X186000571Y-72607714D01*
X190645143Y-71773143D02*
X190608857Y-71809429D01*
X190500000Y-71845714D01*
X190427429Y-71845714D01*
X190318572Y-71809429D01*
X190246000Y-71736857D01*
X190209715Y-71664286D01*
X190173429Y-71519143D01*
X190173429Y-71410286D01*
X190209715Y-71265143D01*
X190246000Y-71192571D01*
X190318572Y-71120000D01*
X190427429Y-71083714D01*
X190500000Y-71083714D01*
X190608857Y-71120000D01*
X190645143Y-71156286D01*
X191370857Y-71845714D02*
X190935429Y-71845714D01*
X191153143Y-71845714D02*
X191153143Y-71083714D01*
X191080572Y-71192571D01*
X191008000Y-71265143D01*
X190935429Y-71301429D01*
X192096571Y-71845714D02*
X191661143Y-71845714D01*
X191878857Y-71845714D02*
X191878857Y-71083714D01*
X191806286Y-71192571D01*
X191733714Y-71265143D01*
X191661143Y-71301429D01*
X159276143Y-80499857D02*
X159312429Y-80536143D01*
X159348714Y-80645000D01*
X159348714Y-80717571D01*
X159312429Y-80826428D01*
X159239857Y-80899000D01*
X159167286Y-80935285D01*
X159022143Y-80971571D01*
X158913286Y-80971571D01*
X158768143Y-80935285D01*
X158695571Y-80899000D01*
X158623000Y-80826428D01*
X158586714Y-80717571D01*
X158586714Y-80645000D01*
X158623000Y-80536143D01*
X158659286Y-80499857D01*
X159348714Y-79774143D02*
X159348714Y-80209571D01*
X159348714Y-79991857D02*
X158586714Y-79991857D01*
X158695571Y-80064428D01*
X158768143Y-80137000D01*
X158804429Y-80209571D01*
X158659286Y-79483857D02*
X158623000Y-79447571D01*
X158586714Y-79375000D01*
X158586714Y-79193571D01*
X158623000Y-79121000D01*
X158659286Y-79084714D01*
X158731857Y-79048429D01*
X158804429Y-79048429D01*
X158913286Y-79084714D01*
X159348714Y-79520143D01*
X159348714Y-79048429D01*
X159276143Y-83547857D02*
X159312429Y-83584143D01*
X159348714Y-83693000D01*
X159348714Y-83765571D01*
X159312429Y-83874428D01*
X159239857Y-83947000D01*
X159167286Y-83983285D01*
X159022143Y-84019571D01*
X158913286Y-84019571D01*
X158768143Y-83983285D01*
X158695571Y-83947000D01*
X158623000Y-83874428D01*
X158586714Y-83765571D01*
X158586714Y-83693000D01*
X158623000Y-83584143D01*
X158659286Y-83547857D01*
X159348714Y-82822143D02*
X159348714Y-83257571D01*
X159348714Y-83039857D02*
X158586714Y-83039857D01*
X158695571Y-83112428D01*
X158768143Y-83185000D01*
X158804429Y-83257571D01*
X158586714Y-82568143D02*
X158586714Y-82096429D01*
X158877000Y-82350429D01*
X158877000Y-82241571D01*
X158913286Y-82169000D01*
X158949571Y-82132714D01*
X159022143Y-82096429D01*
X159203571Y-82096429D01*
X159276143Y-82132714D01*
X159312429Y-82169000D01*
X159348714Y-82241571D01*
X159348714Y-82459286D01*
X159312429Y-82531857D01*
X159276143Y-82568143D01*
X159276143Y-77324857D02*
X159312429Y-77361143D01*
X159348714Y-77470000D01*
X159348714Y-77542571D01*
X159312429Y-77651428D01*
X159239857Y-77724000D01*
X159167286Y-77760285D01*
X159022143Y-77796571D01*
X158913286Y-77796571D01*
X158768143Y-77760285D01*
X158695571Y-77724000D01*
X158623000Y-77651428D01*
X158586714Y-77542571D01*
X158586714Y-77470000D01*
X158623000Y-77361143D01*
X158659286Y-77324857D01*
X159348714Y-76599143D02*
X159348714Y-77034571D01*
X159348714Y-76816857D02*
X158586714Y-76816857D01*
X158695571Y-76889428D01*
X158768143Y-76962000D01*
X158804429Y-77034571D01*
X158840714Y-75946000D02*
X159348714Y-75946000D01*
X158550429Y-76127429D02*
X159094714Y-76308857D01*
X159094714Y-75837143D01*
X179723143Y-93109143D02*
X179686857Y-93145429D01*
X179578000Y-93181714D01*
X179505429Y-93181714D01*
X179396572Y-93145429D01*
X179324000Y-93072857D01*
X179287715Y-93000286D01*
X179251429Y-92855143D01*
X179251429Y-92746286D01*
X179287715Y-92601143D01*
X179324000Y-92528571D01*
X179396572Y-92456000D01*
X179505429Y-92419714D01*
X179578000Y-92419714D01*
X179686857Y-92456000D01*
X179723143Y-92492286D01*
X180013429Y-92492286D02*
X180049715Y-92456000D01*
X180122286Y-92419714D01*
X180303715Y-92419714D01*
X180376286Y-92456000D01*
X180412572Y-92492286D01*
X180448857Y-92564857D01*
X180448857Y-92637429D01*
X180412572Y-92746286D01*
X179977143Y-93181714D01*
X180448857Y-93181714D01*
X180920571Y-92419714D02*
X180993143Y-92419714D01*
X181065714Y-92456000D01*
X181102000Y-92492286D01*
X181138286Y-92564857D01*
X181174571Y-92710000D01*
X181174571Y-92891429D01*
X181138286Y-93036571D01*
X181102000Y-93109143D01*
X181065714Y-93145429D01*
X180993143Y-93181714D01*
X180920571Y-93181714D01*
X180848000Y-93145429D01*
X180811714Y-93109143D01*
X180775429Y-93036571D01*
X180739143Y-92891429D01*
X180739143Y-92710000D01*
X180775429Y-92564857D01*
X180811714Y-92492286D01*
X180848000Y-92456000D01*
X180920571Y-92419714D01*
X181374143Y-90659857D02*
X181410429Y-90696143D01*
X181446714Y-90805000D01*
X181446714Y-90877571D01*
X181410429Y-90986428D01*
X181337857Y-91059000D01*
X181265286Y-91095285D01*
X181120143Y-91131571D01*
X181011286Y-91131571D01*
X180866143Y-91095285D01*
X180793571Y-91059000D01*
X180721000Y-90986428D01*
X180684714Y-90877571D01*
X180684714Y-90805000D01*
X180721000Y-90696143D01*
X180757286Y-90659857D01*
X180757286Y-90369571D02*
X180721000Y-90333285D01*
X180684714Y-90260714D01*
X180684714Y-90079285D01*
X180721000Y-90006714D01*
X180757286Y-89970428D01*
X180829857Y-89934143D01*
X180902429Y-89934143D01*
X181011286Y-89970428D01*
X181446714Y-90405857D01*
X181446714Y-89934143D01*
X181446714Y-89208429D02*
X181446714Y-89643857D01*
X181446714Y-89426143D02*
X180684714Y-89426143D01*
X180793571Y-89498714D01*
X180866143Y-89571286D01*
X180902429Y-89643857D01*
X168420143Y-108603143D02*
X168383857Y-108639429D01*
X168275000Y-108675714D01*
X168202429Y-108675714D01*
X168093572Y-108639429D01*
X168021000Y-108566857D01*
X167984715Y-108494286D01*
X167948429Y-108349143D01*
X167948429Y-108240286D01*
X167984715Y-108095143D01*
X168021000Y-108022571D01*
X168093572Y-107950000D01*
X168202429Y-107913714D01*
X168275000Y-107913714D01*
X168383857Y-107950000D01*
X168420143Y-107986286D01*
X168710429Y-107986286D02*
X168746715Y-107950000D01*
X168819286Y-107913714D01*
X169000715Y-107913714D01*
X169073286Y-107950000D01*
X169109572Y-107986286D01*
X169145857Y-108058857D01*
X169145857Y-108131429D01*
X169109572Y-108240286D01*
X168674143Y-108675714D01*
X169145857Y-108675714D01*
X169436143Y-107986286D02*
X169472429Y-107950000D01*
X169545000Y-107913714D01*
X169726429Y-107913714D01*
X169799000Y-107950000D01*
X169835286Y-107986286D01*
X169871571Y-108058857D01*
X169871571Y-108131429D01*
X169835286Y-108240286D01*
X169399857Y-108675714D01*
X169871571Y-108675714D01*
X163848143Y-110381143D02*
X163811857Y-110417429D01*
X163703000Y-110453714D01*
X163630429Y-110453714D01*
X163521572Y-110417429D01*
X163449000Y-110344857D01*
X163412715Y-110272286D01*
X163376429Y-110127143D01*
X163376429Y-110018286D01*
X163412715Y-109873143D01*
X163449000Y-109800571D01*
X163521572Y-109728000D01*
X163630429Y-109691714D01*
X163703000Y-109691714D01*
X163811857Y-109728000D01*
X163848143Y-109764286D01*
X164138429Y-109764286D02*
X164174715Y-109728000D01*
X164247286Y-109691714D01*
X164428715Y-109691714D01*
X164501286Y-109728000D01*
X164537572Y-109764286D01*
X164573857Y-109836857D01*
X164573857Y-109909429D01*
X164537572Y-110018286D01*
X164102143Y-110453714D01*
X164573857Y-110453714D01*
X164827857Y-109691714D02*
X165299571Y-109691714D01*
X165045571Y-109982000D01*
X165154429Y-109982000D01*
X165227000Y-110018286D01*
X165263286Y-110054571D01*
X165299571Y-110127143D01*
X165299571Y-110308571D01*
X165263286Y-110381143D01*
X165227000Y-110417429D01*
X165154429Y-110453714D01*
X164936714Y-110453714D01*
X164864143Y-110417429D01*
X164827857Y-110381143D01*
X152164143Y-60343143D02*
X152127857Y-60379429D01*
X152019000Y-60415714D01*
X151946429Y-60415714D01*
X151837572Y-60379429D01*
X151765000Y-60306857D01*
X151728715Y-60234286D01*
X151692429Y-60089143D01*
X151692429Y-59980286D01*
X151728715Y-59835143D01*
X151765000Y-59762571D01*
X151837572Y-59690000D01*
X151946429Y-59653714D01*
X152019000Y-59653714D01*
X152127857Y-59690000D01*
X152164143Y-59726286D01*
X152418143Y-59653714D02*
X152889857Y-59653714D01*
X152635857Y-59944000D01*
X152744715Y-59944000D01*
X152817286Y-59980286D01*
X152853572Y-60016571D01*
X152889857Y-60089143D01*
X152889857Y-60270571D01*
X152853572Y-60343143D01*
X152817286Y-60379429D01*
X152744715Y-60415714D01*
X152527000Y-60415714D01*
X152454429Y-60379429D01*
X152418143Y-60343143D01*
X153325286Y-59980286D02*
X153252714Y-59944000D01*
X153216429Y-59907714D01*
X153180143Y-59835143D01*
X153180143Y-59798857D01*
X153216429Y-59726286D01*
X153252714Y-59690000D01*
X153325286Y-59653714D01*
X153470429Y-59653714D01*
X153543000Y-59690000D01*
X153579286Y-59726286D01*
X153615571Y-59798857D01*
X153615571Y-59835143D01*
X153579286Y-59907714D01*
X153543000Y-59944000D01*
X153470429Y-59980286D01*
X153325286Y-59980286D01*
X153252714Y-60016571D01*
X153216429Y-60052857D01*
X153180143Y-60125429D01*
X153180143Y-60270571D01*
X153216429Y-60343143D01*
X153252714Y-60379429D01*
X153325286Y-60415714D01*
X153470429Y-60415714D01*
X153543000Y-60379429D01*
X153579286Y-60343143D01*
X153615571Y-60270571D01*
X153615571Y-60125429D01*
X153579286Y-60052857D01*
X153543000Y-60016571D01*
X153470429Y-59980286D01*
X154413857Y-73170143D02*
X154377571Y-73206429D01*
X154268714Y-73242714D01*
X154196143Y-73242714D01*
X154087286Y-73206429D01*
X154014714Y-73133857D01*
X153978429Y-73061286D01*
X153942143Y-72916143D01*
X153942143Y-72807286D01*
X153978429Y-72662143D01*
X154014714Y-72589571D01*
X154087286Y-72517000D01*
X154196143Y-72480714D01*
X154268714Y-72480714D01*
X154377571Y-72517000D01*
X154413857Y-72553286D01*
X154740429Y-73242714D02*
X154740429Y-72480714D01*
X155175857Y-73242714D01*
X155175857Y-72480714D01*
X155502429Y-72553286D02*
X155538715Y-72517000D01*
X155611286Y-72480714D01*
X155792715Y-72480714D01*
X155865286Y-72517000D01*
X155901572Y-72553286D01*
X155937857Y-72625857D01*
X155937857Y-72698429D01*
X155901572Y-72807286D01*
X155466143Y-73242714D01*
X155937857Y-73242714D01*
X183279143Y-116604143D02*
X183315429Y-116640429D01*
X183351714Y-116749286D01*
X183351714Y-116821857D01*
X183315429Y-116930714D01*
X183242857Y-117003286D01*
X183170286Y-117039571D01*
X183025143Y-117075857D01*
X182916286Y-117075857D01*
X182771143Y-117039571D01*
X182698571Y-117003286D01*
X182626000Y-116930714D01*
X182589714Y-116821857D01*
X182589714Y-116749286D01*
X182626000Y-116640429D01*
X182662286Y-116604143D01*
X183351714Y-116277571D02*
X182589714Y-116277571D01*
X183351714Y-115842143D01*
X182589714Y-115842143D01*
X182589714Y-115551857D02*
X182589714Y-115080143D01*
X182880000Y-115334143D01*
X182880000Y-115225285D01*
X182916286Y-115152714D01*
X182952571Y-115116428D01*
X183025143Y-115080143D01*
X183206571Y-115080143D01*
X183279143Y-115116428D01*
X183315429Y-115152714D01*
X183351714Y-115225285D01*
X183351714Y-115443000D01*
X183315429Y-115515571D01*
X183279143Y-115551857D01*
X171849143Y-116604143D02*
X171885429Y-116640429D01*
X171921714Y-116749286D01*
X171921714Y-116821857D01*
X171885429Y-116930714D01*
X171812857Y-117003286D01*
X171740286Y-117039571D01*
X171595143Y-117075857D01*
X171486286Y-117075857D01*
X171341143Y-117039571D01*
X171268571Y-117003286D01*
X171196000Y-116930714D01*
X171159714Y-116821857D01*
X171159714Y-116749286D01*
X171196000Y-116640429D01*
X171232286Y-116604143D01*
X171921714Y-116277571D02*
X171159714Y-116277571D01*
X171921714Y-115842143D01*
X171159714Y-115842143D01*
X171413714Y-115152714D02*
X171921714Y-115152714D01*
X171123429Y-115334143D02*
X171667714Y-115515571D01*
X171667714Y-115043857D01*
X160546143Y-116604143D02*
X160582429Y-116640429D01*
X160618714Y-116749286D01*
X160618714Y-116821857D01*
X160582429Y-116930714D01*
X160509857Y-117003286D01*
X160437286Y-117039571D01*
X160292143Y-117075857D01*
X160183286Y-117075857D01*
X160038143Y-117039571D01*
X159965571Y-117003286D01*
X159893000Y-116930714D01*
X159856714Y-116821857D01*
X159856714Y-116749286D01*
X159893000Y-116640429D01*
X159929286Y-116604143D01*
X160618714Y-116277571D02*
X159856714Y-116277571D01*
X160618714Y-115842143D01*
X159856714Y-115842143D01*
X159856714Y-115116428D02*
X159856714Y-115479285D01*
X160219571Y-115515571D01*
X160183286Y-115479285D01*
X160147000Y-115406714D01*
X160147000Y-115225285D01*
X160183286Y-115152714D01*
X160219571Y-115116428D01*
X160292143Y-115080143D01*
X160473571Y-115080143D01*
X160546143Y-115116428D01*
X160582429Y-115152714D01*
X160618714Y-115225285D01*
X160618714Y-115406714D01*
X160582429Y-115479285D01*
X160546143Y-115515571D01*
X135400143Y-61994143D02*
X135436429Y-62030429D01*
X135472714Y-62139286D01*
X135472714Y-62211857D01*
X135436429Y-62320714D01*
X135363857Y-62393286D01*
X135291286Y-62429571D01*
X135146143Y-62465857D01*
X135037286Y-62465857D01*
X134892143Y-62429571D01*
X134819571Y-62393286D01*
X134747000Y-62320714D01*
X134710714Y-62211857D01*
X134710714Y-62139286D01*
X134747000Y-62030429D01*
X134783286Y-61994143D01*
X135472714Y-61667571D02*
X134710714Y-61667571D01*
X135472714Y-61232143D01*
X134710714Y-61232143D01*
X134710714Y-60542714D02*
X134710714Y-60687857D01*
X134747000Y-60760428D01*
X134783286Y-60796714D01*
X134892143Y-60869285D01*
X135037286Y-60905571D01*
X135327571Y-60905571D01*
X135400143Y-60869285D01*
X135436429Y-60833000D01*
X135472714Y-60760428D01*
X135472714Y-60615285D01*
X135436429Y-60542714D01*
X135400143Y-60506428D01*
X135327571Y-60470143D01*
X135146143Y-60470143D01*
X135073571Y-60506428D01*
X135037286Y-60542714D01*
X135001000Y-60615285D01*
X135001000Y-60760428D01*
X135037286Y-60833000D01*
X135073571Y-60869285D01*
X135146143Y-60905571D01*
X147846143Y-116604143D02*
X147882429Y-116640429D01*
X147918714Y-116749286D01*
X147918714Y-116821857D01*
X147882429Y-116930714D01*
X147809857Y-117003286D01*
X147737286Y-117039571D01*
X147592143Y-117075857D01*
X147483286Y-117075857D01*
X147338143Y-117039571D01*
X147265571Y-117003286D01*
X147193000Y-116930714D01*
X147156714Y-116821857D01*
X147156714Y-116749286D01*
X147193000Y-116640429D01*
X147229286Y-116604143D01*
X147918714Y-116277571D02*
X147156714Y-116277571D01*
X147918714Y-115842143D01*
X147156714Y-115842143D01*
X147156714Y-115551857D02*
X147156714Y-115043857D01*
X147918714Y-115370428D01*
X135019143Y-116604143D02*
X135055429Y-116640429D01*
X135091714Y-116749286D01*
X135091714Y-116821857D01*
X135055429Y-116930714D01*
X134982857Y-117003286D01*
X134910286Y-117039571D01*
X134765143Y-117075857D01*
X134656286Y-117075857D01*
X134511143Y-117039571D01*
X134438571Y-117003286D01*
X134366000Y-116930714D01*
X134329714Y-116821857D01*
X134329714Y-116749286D01*
X134366000Y-116640429D01*
X134402286Y-116604143D01*
X135091714Y-116277571D02*
X134329714Y-116277571D01*
X135091714Y-115842143D01*
X134329714Y-115842143D01*
X134656286Y-115370428D02*
X134620000Y-115443000D01*
X134583714Y-115479285D01*
X134511143Y-115515571D01*
X134474857Y-115515571D01*
X134402286Y-115479285D01*
X134366000Y-115443000D01*
X134329714Y-115370428D01*
X134329714Y-115225285D01*
X134366000Y-115152714D01*
X134402286Y-115116428D01*
X134474857Y-115080143D01*
X134511143Y-115080143D01*
X134583714Y-115116428D01*
X134620000Y-115152714D01*
X134656286Y-115225285D01*
X134656286Y-115370428D01*
X134692571Y-115443000D01*
X134728857Y-115479285D01*
X134801429Y-115515571D01*
X134946571Y-115515571D01*
X135019143Y-115479285D01*
X135055429Y-115443000D01*
X135091714Y-115370428D01*
X135091714Y-115225285D01*
X135055429Y-115152714D01*
X135019143Y-115116428D01*
X134946571Y-115080143D01*
X134801429Y-115080143D01*
X134728857Y-115116428D01*
X134692571Y-115152714D01*
X134656286Y-115225285D01*
X180702857Y-63899143D02*
X180666571Y-63935429D01*
X180557714Y-63971714D01*
X180485143Y-63971714D01*
X180376286Y-63935429D01*
X180303714Y-63862857D01*
X180267429Y-63790286D01*
X180231143Y-63645143D01*
X180231143Y-63536286D01*
X180267429Y-63391143D01*
X180303714Y-63318571D01*
X180376286Y-63246000D01*
X180485143Y-63209714D01*
X180557714Y-63209714D01*
X180666571Y-63246000D01*
X180702857Y-63282286D01*
X181029429Y-63971714D02*
X181029429Y-63209714D01*
X181464857Y-63971714D01*
X181464857Y-63209714D01*
X181864000Y-63971714D02*
X182009143Y-63971714D01*
X182081715Y-63935429D01*
X182118000Y-63899143D01*
X182190572Y-63790286D01*
X182226857Y-63645143D01*
X182226857Y-63354857D01*
X182190572Y-63282286D01*
X182154286Y-63246000D01*
X182081715Y-63209714D01*
X181936572Y-63209714D01*
X181864000Y-63246000D01*
X181827715Y-63282286D01*
X181791429Y-63354857D01*
X181791429Y-63536286D01*
X181827715Y-63608857D01*
X181864000Y-63645143D01*
X181936572Y-63681429D01*
X182081715Y-63681429D01*
X182154286Y-63645143D01*
X182190572Y-63608857D01*
X182226857Y-63536286D01*
X128977572Y-131154714D02*
X128977572Y-130392714D01*
X129159000Y-130392714D01*
X129267857Y-130429000D01*
X129340429Y-130501571D01*
X129376714Y-130574143D01*
X129413000Y-130719286D01*
X129413000Y-130828143D01*
X129376714Y-130973286D01*
X129340429Y-131045857D01*
X129267857Y-131118429D01*
X129159000Y-131154714D01*
X128977572Y-131154714D01*
X130138714Y-131154714D02*
X129703286Y-131154714D01*
X129921000Y-131154714D02*
X129921000Y-130392714D01*
X129848429Y-130501571D01*
X129775857Y-130574143D01*
X129703286Y-130610429D01*
X138266714Y-66475428D02*
X137504714Y-66475428D01*
X137504714Y-66294000D01*
X137541000Y-66185143D01*
X137613571Y-66112571D01*
X137686143Y-66076286D01*
X137831286Y-66040000D01*
X137940143Y-66040000D01*
X138085286Y-66076286D01*
X138157857Y-66112571D01*
X138230429Y-66185143D01*
X138266714Y-66294000D01*
X138266714Y-66475428D01*
X137577286Y-65749714D02*
X137541000Y-65713428D01*
X137504714Y-65640857D01*
X137504714Y-65459428D01*
X137541000Y-65386857D01*
X137577286Y-65350571D01*
X137649857Y-65314286D01*
X137722429Y-65314286D01*
X137831286Y-65350571D01*
X138266714Y-65786000D01*
X138266714Y-65314286D01*
X135327572Y-81116714D02*
X135327572Y-80354714D01*
X135509000Y-80354714D01*
X135617857Y-80391000D01*
X135690429Y-80463571D01*
X135726714Y-80536143D01*
X135763000Y-80681286D01*
X135763000Y-80790143D01*
X135726714Y-80935286D01*
X135690429Y-81007857D01*
X135617857Y-81080429D01*
X135509000Y-81116714D01*
X135327572Y-81116714D01*
X136017000Y-80354714D02*
X136488714Y-80354714D01*
X136234714Y-80645000D01*
X136343572Y-80645000D01*
X136416143Y-80681286D01*
X136452429Y-80717571D01*
X136488714Y-80790143D01*
X136488714Y-80971571D01*
X136452429Y-81044143D01*
X136416143Y-81080429D01*
X136343572Y-81116714D01*
X136125857Y-81116714D01*
X136053286Y-81080429D01*
X136017000Y-81044143D01*
X167331572Y-91149714D02*
X167331572Y-90387714D01*
X167513000Y-90387714D01*
X167621857Y-90424000D01*
X167694429Y-90496571D01*
X167730714Y-90569143D01*
X167767000Y-90714286D01*
X167767000Y-90823143D01*
X167730714Y-90968286D01*
X167694429Y-91040857D01*
X167621857Y-91113429D01*
X167513000Y-91149714D01*
X167331572Y-91149714D01*
X168420143Y-90641714D02*
X168420143Y-91149714D01*
X168238714Y-90351429D02*
X168057286Y-90895714D01*
X168529000Y-90895714D01*
X161362572Y-93689714D02*
X161362572Y-92927714D01*
X161544000Y-92927714D01*
X161652857Y-92964000D01*
X161725429Y-93036571D01*
X161761714Y-93109143D01*
X161798000Y-93254286D01*
X161798000Y-93363143D01*
X161761714Y-93508286D01*
X161725429Y-93580857D01*
X161652857Y-93653429D01*
X161544000Y-93689714D01*
X161362572Y-93689714D01*
X162487429Y-92927714D02*
X162124572Y-92927714D01*
X162088286Y-93290571D01*
X162124572Y-93254286D01*
X162197143Y-93218000D01*
X162378572Y-93218000D01*
X162451143Y-93254286D01*
X162487429Y-93290571D01*
X162523714Y-93363143D01*
X162523714Y-93544571D01*
X162487429Y-93617143D01*
X162451143Y-93653429D01*
X162378572Y-93689714D01*
X162197143Y-93689714D01*
X162124572Y-93653429D01*
X162088286Y-93617143D01*
X159729714Y-104194428D02*
X158967714Y-104194428D01*
X158967714Y-104013000D01*
X159004000Y-103904143D01*
X159076571Y-103831571D01*
X159149143Y-103795286D01*
X159294286Y-103759000D01*
X159403143Y-103759000D01*
X159548286Y-103795286D01*
X159620857Y-103831571D01*
X159693429Y-103904143D01*
X159729714Y-104013000D01*
X159729714Y-104194428D01*
X158967714Y-103105857D02*
X158967714Y-103251000D01*
X159004000Y-103323571D01*
X159040286Y-103359857D01*
X159149143Y-103432428D01*
X159294286Y-103468714D01*
X159584571Y-103468714D01*
X159657143Y-103432428D01*
X159693429Y-103396143D01*
X159729714Y-103323571D01*
X159729714Y-103178428D01*
X159693429Y-103105857D01*
X159657143Y-103069571D01*
X159584571Y-103033286D01*
X159403143Y-103033286D01*
X159330571Y-103069571D01*
X159294286Y-103105857D01*
X159258000Y-103178428D01*
X159258000Y-103323571D01*
X159294286Y-103396143D01*
X159330571Y-103432428D01*
X159403143Y-103468714D01*
X160364714Y-98225428D02*
X159602714Y-98225428D01*
X159602714Y-98044000D01*
X159639000Y-97935143D01*
X159711571Y-97862571D01*
X159784143Y-97826286D01*
X159929286Y-97790000D01*
X160038143Y-97790000D01*
X160183286Y-97826286D01*
X160255857Y-97862571D01*
X160328429Y-97935143D01*
X160364714Y-98044000D01*
X160364714Y-98225428D01*
X159602714Y-97536000D02*
X159602714Y-97028000D01*
X160364714Y-97354571D01*
X137087429Y-76998286D02*
X137014857Y-76962000D01*
X136942286Y-76889429D01*
X136833429Y-76780571D01*
X136760857Y-76744286D01*
X136688286Y-76744286D01*
X136724571Y-76925714D02*
X136652000Y-76889429D01*
X136579429Y-76816857D01*
X136543143Y-76671714D01*
X136543143Y-76417714D01*
X136579429Y-76272571D01*
X136652000Y-76200000D01*
X136724571Y-76163714D01*
X136869714Y-76163714D01*
X136942286Y-76200000D01*
X137014857Y-76272571D01*
X137051143Y-76417714D01*
X137051143Y-76671714D01*
X137014857Y-76816857D01*
X136942286Y-76889429D01*
X136869714Y-76925714D01*
X136724571Y-76925714D01*
X137776857Y-76925714D02*
X137341429Y-76925714D01*
X137559143Y-76925714D02*
X137559143Y-76163714D01*
X137486572Y-76272571D01*
X137414000Y-76345143D01*
X137341429Y-76381429D01*
X170851286Y-63064571D02*
X170815000Y-63137143D01*
X170742429Y-63209714D01*
X170633571Y-63318571D01*
X170597286Y-63391143D01*
X170597286Y-63463714D01*
X170778714Y-63427429D02*
X170742429Y-63500000D01*
X170669857Y-63572571D01*
X170524714Y-63608857D01*
X170270714Y-63608857D01*
X170125571Y-63572571D01*
X170053000Y-63500000D01*
X170016714Y-63427429D01*
X170016714Y-63282286D01*
X170053000Y-63209714D01*
X170125571Y-63137143D01*
X170270714Y-63100857D01*
X170524714Y-63100857D01*
X170669857Y-63137143D01*
X170742429Y-63209714D01*
X170778714Y-63282286D01*
X170778714Y-63427429D01*
X170089286Y-62810571D02*
X170053000Y-62774285D01*
X170016714Y-62701714D01*
X170016714Y-62520285D01*
X170053000Y-62447714D01*
X170089286Y-62411428D01*
X170161857Y-62375143D01*
X170234429Y-62375143D01*
X170343286Y-62411428D01*
X170778714Y-62846857D01*
X170778714Y-62375143D01*
X177074286Y-87575571D02*
X177038000Y-87648143D01*
X176965429Y-87720714D01*
X176856571Y-87829571D01*
X176820286Y-87902143D01*
X176820286Y-87974714D01*
X177001714Y-87938429D02*
X176965429Y-88011000D01*
X176892857Y-88083571D01*
X176747714Y-88119857D01*
X176493714Y-88119857D01*
X176348571Y-88083571D01*
X176276000Y-88011000D01*
X176239714Y-87938429D01*
X176239714Y-87793286D01*
X176276000Y-87720714D01*
X176348571Y-87648143D01*
X176493714Y-87611857D01*
X176747714Y-87611857D01*
X176892857Y-87648143D01*
X176965429Y-87720714D01*
X177001714Y-87793286D01*
X177001714Y-87938429D01*
X176239714Y-87357857D02*
X176239714Y-86886143D01*
X176530000Y-87140143D01*
X176530000Y-87031285D01*
X176566286Y-86958714D01*
X176602571Y-86922428D01*
X176675143Y-86886143D01*
X176856571Y-86886143D01*
X176929143Y-86922428D01*
X176965429Y-86958714D01*
X177001714Y-87031285D01*
X177001714Y-87249000D01*
X176965429Y-87321571D01*
X176929143Y-87357857D01*
X170343286Y-101799571D02*
X170307000Y-101872143D01*
X170234429Y-101944714D01*
X170125571Y-102053571D01*
X170089286Y-102126143D01*
X170089286Y-102198714D01*
X170270714Y-102162429D02*
X170234429Y-102235000D01*
X170161857Y-102307571D01*
X170016714Y-102343857D01*
X169762714Y-102343857D01*
X169617571Y-102307571D01*
X169545000Y-102235000D01*
X169508714Y-102162429D01*
X169508714Y-102017286D01*
X169545000Y-101944714D01*
X169617571Y-101872143D01*
X169762714Y-101835857D01*
X170016714Y-101835857D01*
X170161857Y-101872143D01*
X170234429Y-101944714D01*
X170270714Y-102017286D01*
X170270714Y-102162429D01*
X169762714Y-101182714D02*
X170270714Y-101182714D01*
X169472429Y-101364143D02*
X170016714Y-101545571D01*
X170016714Y-101073857D01*
X175187429Y-108748286D02*
X175114857Y-108712000D01*
X175042286Y-108639429D01*
X174933429Y-108530571D01*
X174860857Y-108494286D01*
X174788286Y-108494286D01*
X174824571Y-108675714D02*
X174752000Y-108639429D01*
X174679429Y-108566857D01*
X174643143Y-108421714D01*
X174643143Y-108167714D01*
X174679429Y-108022571D01*
X174752000Y-107950000D01*
X174824571Y-107913714D01*
X174969714Y-107913714D01*
X175042286Y-107950000D01*
X175114857Y-108022571D01*
X175151143Y-108167714D01*
X175151143Y-108421714D01*
X175114857Y-108566857D01*
X175042286Y-108639429D01*
X174969714Y-108675714D01*
X174824571Y-108675714D01*
X175840572Y-107913714D02*
X175477715Y-107913714D01*
X175441429Y-108276571D01*
X175477715Y-108240286D01*
X175550286Y-108204000D01*
X175731715Y-108204000D01*
X175804286Y-108240286D01*
X175840572Y-108276571D01*
X175876857Y-108349143D01*
X175876857Y-108530571D01*
X175840572Y-108603143D01*
X175804286Y-108639429D01*
X175731715Y-108675714D01*
X175550286Y-108675714D01*
X175477715Y-108639429D01*
X175441429Y-108603143D01*
X185710286Y-128977571D02*
X185674000Y-129050143D01*
X185601429Y-129122714D01*
X185492571Y-129231571D01*
X185456286Y-129304143D01*
X185456286Y-129376714D01*
X185637714Y-129340429D02*
X185601429Y-129413000D01*
X185528857Y-129485571D01*
X185383714Y-129521857D01*
X185129714Y-129521857D01*
X184984571Y-129485571D01*
X184912000Y-129413000D01*
X184875714Y-129340429D01*
X184875714Y-129195286D01*
X184912000Y-129122714D01*
X184984571Y-129050143D01*
X185129714Y-129013857D01*
X185383714Y-129013857D01*
X185528857Y-129050143D01*
X185601429Y-129122714D01*
X185637714Y-129195286D01*
X185637714Y-129340429D01*
X184875714Y-128360714D02*
X184875714Y-128505857D01*
X184912000Y-128578428D01*
X184948286Y-128614714D01*
X185057143Y-128687285D01*
X185202286Y-128723571D01*
X185492571Y-128723571D01*
X185565143Y-128687285D01*
X185601429Y-128651000D01*
X185637714Y-128578428D01*
X185637714Y-128433285D01*
X185601429Y-128360714D01*
X185565143Y-128324428D01*
X185492571Y-128288143D01*
X185311143Y-128288143D01*
X185238571Y-128324428D01*
X185202286Y-128360714D01*
X185166000Y-128433285D01*
X185166000Y-128578428D01*
X185202286Y-128651000D01*
X185238571Y-128687285D01*
X185311143Y-128723571D01*
X154341286Y-54174571D02*
X154305000Y-54247143D01*
X154232429Y-54319714D01*
X154123571Y-54428571D01*
X154087286Y-54501143D01*
X154087286Y-54573714D01*
X154268714Y-54537429D02*
X154232429Y-54610000D01*
X154159857Y-54682571D01*
X154014714Y-54718857D01*
X153760714Y-54718857D01*
X153615571Y-54682571D01*
X153543000Y-54610000D01*
X153506714Y-54537429D01*
X153506714Y-54392286D01*
X153543000Y-54319714D01*
X153615571Y-54247143D01*
X153760714Y-54210857D01*
X154014714Y-54210857D01*
X154159857Y-54247143D01*
X154232429Y-54319714D01*
X154268714Y-54392286D01*
X154268714Y-54537429D01*
X153506714Y-53956857D02*
X153506714Y-53448857D01*
X154268714Y-53775428D01*
X150495000Y-87593714D02*
X150241000Y-87230857D01*
X150059572Y-87593714D02*
X150059572Y-86831714D01*
X150349857Y-86831714D01*
X150422429Y-86868000D01*
X150458714Y-86904286D01*
X150495000Y-86976857D01*
X150495000Y-87085714D01*
X150458714Y-87158286D01*
X150422429Y-87194571D01*
X150349857Y-87230857D01*
X150059572Y-87230857D01*
X151220714Y-87593714D02*
X150785286Y-87593714D01*
X151003000Y-87593714D02*
X151003000Y-86831714D01*
X150930429Y-86940571D01*
X150857857Y-87013143D01*
X150785286Y-87049429D01*
X138938000Y-70067714D02*
X138684000Y-69704857D01*
X138502572Y-70067714D02*
X138502572Y-69305714D01*
X138792857Y-69305714D01*
X138865429Y-69342000D01*
X138901714Y-69378286D01*
X138938000Y-69450857D01*
X138938000Y-69559714D01*
X138901714Y-69632286D01*
X138865429Y-69668571D01*
X138792857Y-69704857D01*
X138502572Y-69704857D01*
X139228286Y-69378286D02*
X139264572Y-69342000D01*
X139337143Y-69305714D01*
X139518572Y-69305714D01*
X139591143Y-69342000D01*
X139627429Y-69378286D01*
X139663714Y-69450857D01*
X139663714Y-69523429D01*
X139627429Y-69632286D01*
X139192000Y-70067714D01*
X139663714Y-70067714D01*
X126238000Y-135091714D02*
X125984000Y-134728857D01*
X125802572Y-135091714D02*
X125802572Y-134329714D01*
X126092857Y-134329714D01*
X126165429Y-134366000D01*
X126201714Y-134402286D01*
X126238000Y-134474857D01*
X126238000Y-134583714D01*
X126201714Y-134656286D01*
X126165429Y-134692571D01*
X126092857Y-134728857D01*
X125802572Y-134728857D01*
X126492000Y-134329714D02*
X126963714Y-134329714D01*
X126709714Y-134620000D01*
X126818572Y-134620000D01*
X126891143Y-134656286D01*
X126927429Y-134692571D01*
X126963714Y-134765143D01*
X126963714Y-134946571D01*
X126927429Y-135019143D01*
X126891143Y-135055429D01*
X126818572Y-135091714D01*
X126600857Y-135091714D01*
X126528286Y-135055429D01*
X126492000Y-135019143D01*
X141242143Y-86323714D02*
X140988143Y-85960857D01*
X140806715Y-86323714D02*
X140806715Y-85561714D01*
X141097000Y-85561714D01*
X141169572Y-85598000D01*
X141205857Y-85634286D01*
X141242143Y-85706857D01*
X141242143Y-85815714D01*
X141205857Y-85888286D01*
X141169572Y-85924571D01*
X141097000Y-85960857D01*
X140806715Y-85960857D01*
X141967857Y-86323714D02*
X141532429Y-86323714D01*
X141750143Y-86323714D02*
X141750143Y-85561714D01*
X141677572Y-85670571D01*
X141605000Y-85743143D01*
X141532429Y-85779429D01*
X142693571Y-86323714D02*
X142258143Y-86323714D01*
X142475857Y-86323714D02*
X142475857Y-85561714D01*
X142403286Y-85670571D01*
X142330714Y-85743143D01*
X142258143Y-85779429D01*
X180485143Y-133567714D02*
X180231143Y-133204857D01*
X180049715Y-133567714D02*
X180049715Y-132805714D01*
X180340000Y-132805714D01*
X180412572Y-132842000D01*
X180448857Y-132878286D01*
X180485143Y-132950857D01*
X180485143Y-133059714D01*
X180448857Y-133132286D01*
X180412572Y-133168571D01*
X180340000Y-133204857D01*
X180049715Y-133204857D01*
X180775429Y-132878286D02*
X180811715Y-132842000D01*
X180884286Y-132805714D01*
X181065715Y-132805714D01*
X181138286Y-132842000D01*
X181174572Y-132878286D01*
X181210857Y-132950857D01*
X181210857Y-133023429D01*
X181174572Y-133132286D01*
X180739143Y-133567714D01*
X181210857Y-133567714D01*
X181864000Y-133059714D02*
X181864000Y-133567714D01*
X181682571Y-132769429D02*
X181501143Y-133313714D01*
X181972857Y-133313714D01*
X176675143Y-133567714D02*
X176421143Y-133204857D01*
X176239715Y-133567714D02*
X176239715Y-132805714D01*
X176530000Y-132805714D01*
X176602572Y-132842000D01*
X176638857Y-132878286D01*
X176675143Y-132950857D01*
X176675143Y-133059714D01*
X176638857Y-133132286D01*
X176602572Y-133168571D01*
X176530000Y-133204857D01*
X176239715Y-133204857D01*
X176965429Y-132878286D02*
X177001715Y-132842000D01*
X177074286Y-132805714D01*
X177255715Y-132805714D01*
X177328286Y-132842000D01*
X177364572Y-132878286D01*
X177400857Y-132950857D01*
X177400857Y-133023429D01*
X177364572Y-133132286D01*
X176929143Y-133567714D01*
X177400857Y-133567714D01*
X178090286Y-132805714D02*
X177727429Y-132805714D01*
X177691143Y-133168571D01*
X177727429Y-133132286D01*
X177800000Y-133096000D01*
X177981429Y-133096000D01*
X178054000Y-133132286D01*
X178090286Y-133168571D01*
X178126571Y-133241143D01*
X178126571Y-133422571D01*
X178090286Y-133495143D01*
X178054000Y-133531429D01*
X177981429Y-133567714D01*
X177800000Y-133567714D01*
X177727429Y-133531429D01*
X177691143Y-133495143D01*
X172865143Y-133567714D02*
X172611143Y-133204857D01*
X172429715Y-133567714D02*
X172429715Y-132805714D01*
X172720000Y-132805714D01*
X172792572Y-132842000D01*
X172828857Y-132878286D01*
X172865143Y-132950857D01*
X172865143Y-133059714D01*
X172828857Y-133132286D01*
X172792572Y-133168571D01*
X172720000Y-133204857D01*
X172429715Y-133204857D01*
X173155429Y-132878286D02*
X173191715Y-132842000D01*
X173264286Y-132805714D01*
X173445715Y-132805714D01*
X173518286Y-132842000D01*
X173554572Y-132878286D01*
X173590857Y-132950857D01*
X173590857Y-133023429D01*
X173554572Y-133132286D01*
X173119143Y-133567714D01*
X173590857Y-133567714D01*
X174244000Y-132805714D02*
X174098857Y-132805714D01*
X174026286Y-132842000D01*
X173990000Y-132878286D01*
X173917429Y-132987143D01*
X173881143Y-133132286D01*
X173881143Y-133422571D01*
X173917429Y-133495143D01*
X173953714Y-133531429D01*
X174026286Y-133567714D01*
X174171429Y-133567714D01*
X174244000Y-133531429D01*
X174280286Y-133495143D01*
X174316571Y-133422571D01*
X174316571Y-133241143D01*
X174280286Y-133168571D01*
X174244000Y-133132286D01*
X174171429Y-133096000D01*
X174026286Y-133096000D01*
X173953714Y-133132286D01*
X173917429Y-133168571D01*
X173881143Y-133241143D01*
X169055143Y-133567714D02*
X168801143Y-133204857D01*
X168619715Y-133567714D02*
X168619715Y-132805714D01*
X168910000Y-132805714D01*
X168982572Y-132842000D01*
X169018857Y-132878286D01*
X169055143Y-132950857D01*
X169055143Y-133059714D01*
X169018857Y-133132286D01*
X168982572Y-133168571D01*
X168910000Y-133204857D01*
X168619715Y-133204857D01*
X169345429Y-132878286D02*
X169381715Y-132842000D01*
X169454286Y-132805714D01*
X169635715Y-132805714D01*
X169708286Y-132842000D01*
X169744572Y-132878286D01*
X169780857Y-132950857D01*
X169780857Y-133023429D01*
X169744572Y-133132286D01*
X169309143Y-133567714D01*
X169780857Y-133567714D01*
X170034857Y-132805714D02*
X170542857Y-132805714D01*
X170216286Y-133567714D01*
X165245143Y-133567714D02*
X164991143Y-133204857D01*
X164809715Y-133567714D02*
X164809715Y-132805714D01*
X165100000Y-132805714D01*
X165172572Y-132842000D01*
X165208857Y-132878286D01*
X165245143Y-132950857D01*
X165245143Y-133059714D01*
X165208857Y-133132286D01*
X165172572Y-133168571D01*
X165100000Y-133204857D01*
X164809715Y-133204857D01*
X165535429Y-132878286D02*
X165571715Y-132842000D01*
X165644286Y-132805714D01*
X165825715Y-132805714D01*
X165898286Y-132842000D01*
X165934572Y-132878286D01*
X165970857Y-132950857D01*
X165970857Y-133023429D01*
X165934572Y-133132286D01*
X165499143Y-133567714D01*
X165970857Y-133567714D01*
X166406286Y-133132286D02*
X166333714Y-133096000D01*
X166297429Y-133059714D01*
X166261143Y-132987143D01*
X166261143Y-132950857D01*
X166297429Y-132878286D01*
X166333714Y-132842000D01*
X166406286Y-132805714D01*
X166551429Y-132805714D01*
X166624000Y-132842000D01*
X166660286Y-132878286D01*
X166696571Y-132950857D01*
X166696571Y-132987143D01*
X166660286Y-133059714D01*
X166624000Y-133096000D01*
X166551429Y-133132286D01*
X166406286Y-133132286D01*
X166333714Y-133168571D01*
X166297429Y-133204857D01*
X166261143Y-133277429D01*
X166261143Y-133422571D01*
X166297429Y-133495143D01*
X166333714Y-133531429D01*
X166406286Y-133567714D01*
X166551429Y-133567714D01*
X166624000Y-133531429D01*
X166660286Y-133495143D01*
X166696571Y-133422571D01*
X166696571Y-133277429D01*
X166660286Y-133204857D01*
X166624000Y-133168571D01*
X166551429Y-133132286D01*
X161435143Y-133567714D02*
X161181143Y-133204857D01*
X160999715Y-133567714D02*
X160999715Y-132805714D01*
X161290000Y-132805714D01*
X161362572Y-132842000D01*
X161398857Y-132878286D01*
X161435143Y-132950857D01*
X161435143Y-133059714D01*
X161398857Y-133132286D01*
X161362572Y-133168571D01*
X161290000Y-133204857D01*
X160999715Y-133204857D01*
X161725429Y-132878286D02*
X161761715Y-132842000D01*
X161834286Y-132805714D01*
X162015715Y-132805714D01*
X162088286Y-132842000D01*
X162124572Y-132878286D01*
X162160857Y-132950857D01*
X162160857Y-133023429D01*
X162124572Y-133132286D01*
X161689143Y-133567714D01*
X162160857Y-133567714D01*
X162523714Y-133567714D02*
X162668857Y-133567714D01*
X162741429Y-133531429D01*
X162777714Y-133495143D01*
X162850286Y-133386286D01*
X162886571Y-133241143D01*
X162886571Y-132950857D01*
X162850286Y-132878286D01*
X162814000Y-132842000D01*
X162741429Y-132805714D01*
X162596286Y-132805714D01*
X162523714Y-132842000D01*
X162487429Y-132878286D01*
X162451143Y-132950857D01*
X162451143Y-133132286D01*
X162487429Y-133204857D01*
X162523714Y-133241143D01*
X162596286Y-133277429D01*
X162741429Y-133277429D01*
X162814000Y-133241143D01*
X162850286Y-133204857D01*
X162886571Y-133132286D01*
X166460714Y-63481857D02*
X166097857Y-63735857D01*
X166460714Y-63917285D02*
X165698714Y-63917285D01*
X165698714Y-63627000D01*
X165735000Y-63554428D01*
X165771286Y-63518143D01*
X165843857Y-63481857D01*
X165952714Y-63481857D01*
X166025286Y-63518143D01*
X166061571Y-63554428D01*
X166097857Y-63627000D01*
X166097857Y-63917285D01*
X165698714Y-63227857D02*
X165698714Y-62756143D01*
X165989000Y-63010143D01*
X165989000Y-62901285D01*
X166025286Y-62828714D01*
X166061571Y-62792428D01*
X166134143Y-62756143D01*
X166315571Y-62756143D01*
X166388143Y-62792428D01*
X166424429Y-62828714D01*
X166460714Y-62901285D01*
X166460714Y-63119000D01*
X166424429Y-63191571D01*
X166388143Y-63227857D01*
X165698714Y-62284429D02*
X165698714Y-62211857D01*
X165735000Y-62139286D01*
X165771286Y-62103000D01*
X165843857Y-62066714D01*
X165989000Y-62030429D01*
X166170429Y-62030429D01*
X166315571Y-62066714D01*
X166388143Y-62103000D01*
X166424429Y-62139286D01*
X166460714Y-62211857D01*
X166460714Y-62284429D01*
X166424429Y-62357000D01*
X166388143Y-62393286D01*
X166315571Y-62429571D01*
X166170429Y-62465857D01*
X165989000Y-62465857D01*
X165843857Y-62429571D01*
X165771286Y-62393286D01*
X165735000Y-62357000D01*
X165698714Y-62284429D01*
X174080714Y-63354857D02*
X173717857Y-63608857D01*
X174080714Y-63790285D02*
X173318714Y-63790285D01*
X173318714Y-63500000D01*
X173355000Y-63427428D01*
X173391286Y-63391143D01*
X173463857Y-63354857D01*
X173572714Y-63354857D01*
X173645286Y-63391143D01*
X173681571Y-63427428D01*
X173717857Y-63500000D01*
X173717857Y-63790285D01*
X173318714Y-63100857D02*
X173318714Y-62629143D01*
X173609000Y-62883143D01*
X173609000Y-62774285D01*
X173645286Y-62701714D01*
X173681571Y-62665428D01*
X173754143Y-62629143D01*
X173935571Y-62629143D01*
X174008143Y-62665428D01*
X174044429Y-62701714D01*
X174080714Y-62774285D01*
X174080714Y-62992000D01*
X174044429Y-63064571D01*
X174008143Y-63100857D01*
X174080714Y-61903429D02*
X174080714Y-62338857D01*
X174080714Y-62121143D02*
X173318714Y-62121143D01*
X173427571Y-62193714D01*
X173500143Y-62266286D01*
X173536429Y-62338857D01*
X150005143Y-133567714D02*
X149751143Y-133204857D01*
X149569715Y-133567714D02*
X149569715Y-132805714D01*
X149860000Y-132805714D01*
X149932572Y-132842000D01*
X149968857Y-132878286D01*
X150005143Y-132950857D01*
X150005143Y-133059714D01*
X149968857Y-133132286D01*
X149932572Y-133168571D01*
X149860000Y-133204857D01*
X149569715Y-133204857D01*
X150259143Y-132805714D02*
X150730857Y-132805714D01*
X150476857Y-133096000D01*
X150585715Y-133096000D01*
X150658286Y-133132286D01*
X150694572Y-133168571D01*
X150730857Y-133241143D01*
X150730857Y-133422571D01*
X150694572Y-133495143D01*
X150658286Y-133531429D01*
X150585715Y-133567714D01*
X150368000Y-133567714D01*
X150295429Y-133531429D01*
X150259143Y-133495143D01*
X151166286Y-133132286D02*
X151093714Y-133096000D01*
X151057429Y-133059714D01*
X151021143Y-132987143D01*
X151021143Y-132950857D01*
X151057429Y-132878286D01*
X151093714Y-132842000D01*
X151166286Y-132805714D01*
X151311429Y-132805714D01*
X151384000Y-132842000D01*
X151420286Y-132878286D01*
X151456571Y-132950857D01*
X151456571Y-132987143D01*
X151420286Y-133059714D01*
X151384000Y-133096000D01*
X151311429Y-133132286D01*
X151166286Y-133132286D01*
X151093714Y-133168571D01*
X151057429Y-133204857D01*
X151021143Y-133277429D01*
X151021143Y-133422571D01*
X151057429Y-133495143D01*
X151093714Y-133531429D01*
X151166286Y-133567714D01*
X151311429Y-133567714D01*
X151384000Y-133531429D01*
X151420286Y-133495143D01*
X151456571Y-133422571D01*
X151456571Y-133277429D01*
X151420286Y-133204857D01*
X151384000Y-133168571D01*
X151311429Y-133132286D01*
X146195143Y-133567714D02*
X145941143Y-133204857D01*
X145759715Y-133567714D02*
X145759715Y-132805714D01*
X146050000Y-132805714D01*
X146122572Y-132842000D01*
X146158857Y-132878286D01*
X146195143Y-132950857D01*
X146195143Y-133059714D01*
X146158857Y-133132286D01*
X146122572Y-133168571D01*
X146050000Y-133204857D01*
X145759715Y-133204857D01*
X146449143Y-132805714D02*
X146920857Y-132805714D01*
X146666857Y-133096000D01*
X146775715Y-133096000D01*
X146848286Y-133132286D01*
X146884572Y-133168571D01*
X146920857Y-133241143D01*
X146920857Y-133422571D01*
X146884572Y-133495143D01*
X146848286Y-133531429D01*
X146775715Y-133567714D01*
X146558000Y-133567714D01*
X146485429Y-133531429D01*
X146449143Y-133495143D01*
X147283714Y-133567714D02*
X147428857Y-133567714D01*
X147501429Y-133531429D01*
X147537714Y-133495143D01*
X147610286Y-133386286D01*
X147646571Y-133241143D01*
X147646571Y-132950857D01*
X147610286Y-132878286D01*
X147574000Y-132842000D01*
X147501429Y-132805714D01*
X147356286Y-132805714D01*
X147283714Y-132842000D01*
X147247429Y-132878286D01*
X147211143Y-132950857D01*
X147211143Y-133132286D01*
X147247429Y-133204857D01*
X147283714Y-133241143D01*
X147356286Y-133277429D01*
X147501429Y-133277429D01*
X147574000Y-133241143D01*
X147610286Y-133204857D01*
X147646571Y-133132286D01*
X142385143Y-133567714D02*
X142131143Y-133204857D01*
X141949715Y-133567714D02*
X141949715Y-132805714D01*
X142240000Y-132805714D01*
X142312572Y-132842000D01*
X142348857Y-132878286D01*
X142385143Y-132950857D01*
X142385143Y-133059714D01*
X142348857Y-133132286D01*
X142312572Y-133168571D01*
X142240000Y-133204857D01*
X141949715Y-133204857D01*
X143038286Y-133059714D02*
X143038286Y-133567714D01*
X142856857Y-132769429D02*
X142675429Y-133313714D01*
X143147143Y-133313714D01*
X143582571Y-132805714D02*
X143655143Y-132805714D01*
X143727714Y-132842000D01*
X143764000Y-132878286D01*
X143800286Y-132950857D01*
X143836571Y-133096000D01*
X143836571Y-133277429D01*
X143800286Y-133422571D01*
X143764000Y-133495143D01*
X143727714Y-133531429D01*
X143655143Y-133567714D01*
X143582571Y-133567714D01*
X143510000Y-133531429D01*
X143473714Y-133495143D01*
X143437429Y-133422571D01*
X143401143Y-133277429D01*
X143401143Y-133096000D01*
X143437429Y-132950857D01*
X143473714Y-132878286D01*
X143510000Y-132842000D01*
X143582571Y-132805714D01*
X138575143Y-133567714D02*
X138321143Y-133204857D01*
X138139715Y-133567714D02*
X138139715Y-132805714D01*
X138430000Y-132805714D01*
X138502572Y-132842000D01*
X138538857Y-132878286D01*
X138575143Y-132950857D01*
X138575143Y-133059714D01*
X138538857Y-133132286D01*
X138502572Y-133168571D01*
X138430000Y-133204857D01*
X138139715Y-133204857D01*
X139228286Y-133059714D02*
X139228286Y-133567714D01*
X139046857Y-132769429D02*
X138865429Y-133313714D01*
X139337143Y-133313714D01*
X140026571Y-133567714D02*
X139591143Y-133567714D01*
X139808857Y-133567714D02*
X139808857Y-132805714D01*
X139736286Y-132914571D01*
X139663714Y-132987143D01*
X139591143Y-133023429D01*
X134765143Y-133567714D02*
X134511143Y-133204857D01*
X134329715Y-133567714D02*
X134329715Y-132805714D01*
X134620000Y-132805714D01*
X134692572Y-132842000D01*
X134728857Y-132878286D01*
X134765143Y-132950857D01*
X134765143Y-133059714D01*
X134728857Y-133132286D01*
X134692572Y-133168571D01*
X134620000Y-133204857D01*
X134329715Y-133204857D01*
X135418286Y-133059714D02*
X135418286Y-133567714D01*
X135236857Y-132769429D02*
X135055429Y-133313714D01*
X135527143Y-133313714D01*
X135781143Y-132878286D02*
X135817429Y-132842000D01*
X135890000Y-132805714D01*
X136071429Y-132805714D01*
X136144000Y-132842000D01*
X136180286Y-132878286D01*
X136216571Y-132950857D01*
X136216571Y-133023429D01*
X136180286Y-133132286D01*
X135744857Y-133567714D01*
X136216571Y-133567714D01*
X130955143Y-133694714D02*
X130701143Y-133331857D01*
X130519715Y-133694714D02*
X130519715Y-132932714D01*
X130810000Y-132932714D01*
X130882572Y-132969000D01*
X130918857Y-133005286D01*
X130955143Y-133077857D01*
X130955143Y-133186714D01*
X130918857Y-133259286D01*
X130882572Y-133295571D01*
X130810000Y-133331857D01*
X130519715Y-133331857D01*
X131608286Y-133186714D02*
X131608286Y-133694714D01*
X131426857Y-132896429D02*
X131245429Y-133440714D01*
X131717143Y-133440714D01*
X131934857Y-132932714D02*
X132406571Y-132932714D01*
X132152571Y-133223000D01*
X132261429Y-133223000D01*
X132334000Y-133259286D01*
X132370286Y-133295571D01*
X132406571Y-133368143D01*
X132406571Y-133549571D01*
X132370286Y-133622143D01*
X132334000Y-133658429D01*
X132261429Y-133694714D01*
X132043714Y-133694714D01*
X131971143Y-133658429D01*
X131934857Y-133622143D01*
X131535714Y-83039857D02*
X131172857Y-83293857D01*
X131535714Y-83475285D02*
X130773714Y-83475285D01*
X130773714Y-83185000D01*
X130810000Y-83112428D01*
X130846286Y-83076143D01*
X130918857Y-83039857D01*
X131027714Y-83039857D01*
X131100286Y-83076143D01*
X131136571Y-83112428D01*
X131172857Y-83185000D01*
X131172857Y-83475285D01*
X131027714Y-82386714D02*
X131535714Y-82386714D01*
X130737429Y-82568143D02*
X131281714Y-82749571D01*
X131281714Y-82277857D01*
X131027714Y-81661000D02*
X131535714Y-81661000D01*
X130737429Y-81842429D02*
X131281714Y-82023857D01*
X131281714Y-81552143D01*
X128415143Y-133694714D02*
X128161143Y-133331857D01*
X127979715Y-133694714D02*
X127979715Y-132932714D01*
X128270000Y-132932714D01*
X128342572Y-132969000D01*
X128378857Y-133005286D01*
X128415143Y-133077857D01*
X128415143Y-133186714D01*
X128378857Y-133259286D01*
X128342572Y-133295571D01*
X128270000Y-133331857D01*
X127979715Y-133331857D01*
X129068286Y-133186714D02*
X129068286Y-133694714D01*
X128886857Y-132896429D02*
X128705429Y-133440714D01*
X129177143Y-133440714D01*
X129576286Y-133259286D02*
X129503714Y-133223000D01*
X129467429Y-133186714D01*
X129431143Y-133114143D01*
X129431143Y-133077857D01*
X129467429Y-133005286D01*
X129503714Y-132969000D01*
X129576286Y-132932714D01*
X129721429Y-132932714D01*
X129794000Y-132969000D01*
X129830286Y-133005286D01*
X129866571Y-133077857D01*
X129866571Y-133114143D01*
X129830286Y-133186714D01*
X129794000Y-133223000D01*
X129721429Y-133259286D01*
X129576286Y-133259286D01*
X129503714Y-133295571D01*
X129467429Y-133331857D01*
X129431143Y-133404429D01*
X129431143Y-133549571D01*
X129467429Y-133622143D01*
X129503714Y-133658429D01*
X129576286Y-133694714D01*
X129721429Y-133694714D01*
X129794000Y-133658429D01*
X129830286Y-133622143D01*
X129866571Y-133549571D01*
X129866571Y-133404429D01*
X129830286Y-133331857D01*
X129794000Y-133295571D01*
X129721429Y-133259286D01*
X184295143Y-79084714D02*
X184041143Y-78721857D01*
X183859715Y-79084714D02*
X183859715Y-78322714D01*
X184150000Y-78322714D01*
X184222572Y-78359000D01*
X184258857Y-78395286D01*
X184295143Y-78467857D01*
X184295143Y-78576714D01*
X184258857Y-78649286D01*
X184222572Y-78685571D01*
X184150000Y-78721857D01*
X183859715Y-78721857D01*
X184984572Y-78322714D02*
X184621715Y-78322714D01*
X184585429Y-78685571D01*
X184621715Y-78649286D01*
X184694286Y-78613000D01*
X184875715Y-78613000D01*
X184948286Y-78649286D01*
X184984572Y-78685571D01*
X185020857Y-78758143D01*
X185020857Y-78939571D01*
X184984572Y-79012143D01*
X184948286Y-79048429D01*
X184875715Y-79084714D01*
X184694286Y-79084714D01*
X184621715Y-79048429D01*
X184585429Y-79012143D01*
X185383714Y-79084714D02*
X185528857Y-79084714D01*
X185601429Y-79048429D01*
X185637714Y-79012143D01*
X185710286Y-78903286D01*
X185746571Y-78758143D01*
X185746571Y-78467857D01*
X185710286Y-78395286D01*
X185674000Y-78359000D01*
X185601429Y-78322714D01*
X185456286Y-78322714D01*
X185383714Y-78359000D01*
X185347429Y-78395286D01*
X185311143Y-78467857D01*
X185311143Y-78649286D01*
X185347429Y-78721857D01*
X185383714Y-78758143D01*
X185456286Y-78794429D01*
X185601429Y-78794429D01*
X185674000Y-78758143D01*
X185710286Y-78721857D01*
X185746571Y-78649286D01*
X191225714Y-84309857D02*
X190862857Y-84563857D01*
X191225714Y-84745285D02*
X190463714Y-84745285D01*
X190463714Y-84455000D01*
X190500000Y-84382428D01*
X190536286Y-84346143D01*
X190608857Y-84309857D01*
X190717714Y-84309857D01*
X190790286Y-84346143D01*
X190826571Y-84382428D01*
X190862857Y-84455000D01*
X190862857Y-84745285D01*
X190463714Y-83656714D02*
X190463714Y-83801857D01*
X190500000Y-83874428D01*
X190536286Y-83910714D01*
X190645143Y-83983285D01*
X190790286Y-84019571D01*
X191080571Y-84019571D01*
X191153143Y-83983285D01*
X191189429Y-83947000D01*
X191225714Y-83874428D01*
X191225714Y-83729285D01*
X191189429Y-83656714D01*
X191153143Y-83620428D01*
X191080571Y-83584143D01*
X190899143Y-83584143D01*
X190826571Y-83620428D01*
X190790286Y-83656714D01*
X190754000Y-83729285D01*
X190754000Y-83874428D01*
X190790286Y-83947000D01*
X190826571Y-83983285D01*
X190899143Y-84019571D01*
X190463714Y-83112429D02*
X190463714Y-83039857D01*
X190500000Y-82967286D01*
X190536286Y-82931000D01*
X190608857Y-82894714D01*
X190754000Y-82858429D01*
X190935429Y-82858429D01*
X191080571Y-82894714D01*
X191153143Y-82931000D01*
X191189429Y-82967286D01*
X191225714Y-83039857D01*
X191225714Y-83112429D01*
X191189429Y-83185000D01*
X191153143Y-83221286D01*
X191080571Y-83257571D01*
X190935429Y-83293857D01*
X190754000Y-83293857D01*
X190608857Y-83257571D01*
X190536286Y-83221286D01*
X190500000Y-83185000D01*
X190463714Y-83112429D01*
X192368714Y-81134857D02*
X192005857Y-81388857D01*
X192368714Y-81570285D02*
X191606714Y-81570285D01*
X191606714Y-81280000D01*
X191643000Y-81207428D01*
X191679286Y-81171143D01*
X191751857Y-81134857D01*
X191860714Y-81134857D01*
X191933286Y-81171143D01*
X191969571Y-81207428D01*
X192005857Y-81280000D01*
X192005857Y-81570285D01*
X191606714Y-80481714D02*
X191606714Y-80626857D01*
X191643000Y-80699428D01*
X191679286Y-80735714D01*
X191788143Y-80808285D01*
X191933286Y-80844571D01*
X192223571Y-80844571D01*
X192296143Y-80808285D01*
X192332429Y-80772000D01*
X192368714Y-80699428D01*
X192368714Y-80554285D01*
X192332429Y-80481714D01*
X192296143Y-80445428D01*
X192223571Y-80409143D01*
X192042143Y-80409143D01*
X191969571Y-80445428D01*
X191933286Y-80481714D01*
X191897000Y-80554285D01*
X191897000Y-80699428D01*
X191933286Y-80772000D01*
X191969571Y-80808285D01*
X192042143Y-80844571D01*
X192368714Y-79683429D02*
X192368714Y-80118857D01*
X192368714Y-79901143D02*
X191606714Y-79901143D01*
X191715571Y-79973714D01*
X191788143Y-80046286D01*
X191824429Y-80118857D01*
X186327143Y-82259714D02*
X186073143Y-81896857D01*
X185891715Y-82259714D02*
X185891715Y-81497714D01*
X186182000Y-81497714D01*
X186254572Y-81534000D01*
X186290857Y-81570286D01*
X186327143Y-81642857D01*
X186327143Y-81751714D01*
X186290857Y-81824286D01*
X186254572Y-81860571D01*
X186182000Y-81896857D01*
X185891715Y-81896857D01*
X186980286Y-81497714D02*
X186835143Y-81497714D01*
X186762572Y-81534000D01*
X186726286Y-81570286D01*
X186653715Y-81679143D01*
X186617429Y-81824286D01*
X186617429Y-82114571D01*
X186653715Y-82187143D01*
X186690000Y-82223429D01*
X186762572Y-82259714D01*
X186907715Y-82259714D01*
X186980286Y-82223429D01*
X187016572Y-82187143D01*
X187052857Y-82114571D01*
X187052857Y-81933143D01*
X187016572Y-81860571D01*
X186980286Y-81824286D01*
X186907715Y-81788000D01*
X186762572Y-81788000D01*
X186690000Y-81824286D01*
X186653715Y-81860571D01*
X186617429Y-81933143D01*
X187343143Y-81570286D02*
X187379429Y-81534000D01*
X187452000Y-81497714D01*
X187633429Y-81497714D01*
X187706000Y-81534000D01*
X187742286Y-81570286D01*
X187778571Y-81642857D01*
X187778571Y-81715429D01*
X187742286Y-81824286D01*
X187306857Y-82259714D01*
X187778571Y-82259714D01*
X182898143Y-97118714D02*
X182644143Y-96755857D01*
X182462715Y-97118714D02*
X182462715Y-96356714D01*
X182753000Y-96356714D01*
X182825572Y-96393000D01*
X182861857Y-96429286D01*
X182898143Y-96501857D01*
X182898143Y-96610714D01*
X182861857Y-96683286D01*
X182825572Y-96719571D01*
X182753000Y-96755857D01*
X182462715Y-96755857D01*
X183551286Y-96356714D02*
X183406143Y-96356714D01*
X183333572Y-96393000D01*
X183297286Y-96429286D01*
X183224715Y-96538143D01*
X183188429Y-96683286D01*
X183188429Y-96973571D01*
X183224715Y-97046143D01*
X183261000Y-97082429D01*
X183333572Y-97118714D01*
X183478715Y-97118714D01*
X183551286Y-97082429D01*
X183587572Y-97046143D01*
X183623857Y-96973571D01*
X183623857Y-96792143D01*
X183587572Y-96719571D01*
X183551286Y-96683286D01*
X183478715Y-96647000D01*
X183333572Y-96647000D01*
X183261000Y-96683286D01*
X183224715Y-96719571D01*
X183188429Y-96792143D01*
X183877857Y-96356714D02*
X184349571Y-96356714D01*
X184095571Y-96647000D01*
X184204429Y-96647000D01*
X184277000Y-96683286D01*
X184313286Y-96719571D01*
X184349571Y-96792143D01*
X184349571Y-96973571D01*
X184313286Y-97046143D01*
X184277000Y-97082429D01*
X184204429Y-97118714D01*
X183986714Y-97118714D01*
X183914143Y-97082429D01*
X183877857Y-97046143D01*
X179088143Y-105754714D02*
X178834143Y-105391857D01*
X178652715Y-105754714D02*
X178652715Y-104992714D01*
X178943000Y-104992714D01*
X179015572Y-105029000D01*
X179051857Y-105065286D01*
X179088143Y-105137857D01*
X179088143Y-105246714D01*
X179051857Y-105319286D01*
X179015572Y-105355571D01*
X178943000Y-105391857D01*
X178652715Y-105391857D01*
X179741286Y-104992714D02*
X179596143Y-104992714D01*
X179523572Y-105029000D01*
X179487286Y-105065286D01*
X179414715Y-105174143D01*
X179378429Y-105319286D01*
X179378429Y-105609571D01*
X179414715Y-105682143D01*
X179451000Y-105718429D01*
X179523572Y-105754714D01*
X179668715Y-105754714D01*
X179741286Y-105718429D01*
X179777572Y-105682143D01*
X179813857Y-105609571D01*
X179813857Y-105428143D01*
X179777572Y-105355571D01*
X179741286Y-105319286D01*
X179668715Y-105283000D01*
X179523572Y-105283000D01*
X179451000Y-105319286D01*
X179414715Y-105355571D01*
X179378429Y-105428143D01*
X180467000Y-105246714D02*
X180467000Y-105754714D01*
X180285571Y-104956429D02*
X180104143Y-105500714D01*
X180575857Y-105500714D01*
X178326143Y-103849714D02*
X178072143Y-103486857D01*
X177890715Y-103849714D02*
X177890715Y-103087714D01*
X178181000Y-103087714D01*
X178253572Y-103124000D01*
X178289857Y-103160286D01*
X178326143Y-103232857D01*
X178326143Y-103341714D01*
X178289857Y-103414286D01*
X178253572Y-103450571D01*
X178181000Y-103486857D01*
X177890715Y-103486857D01*
X178979286Y-103087714D02*
X178834143Y-103087714D01*
X178761572Y-103124000D01*
X178725286Y-103160286D01*
X178652715Y-103269143D01*
X178616429Y-103414286D01*
X178616429Y-103704571D01*
X178652715Y-103777143D01*
X178689000Y-103813429D01*
X178761572Y-103849714D01*
X178906715Y-103849714D01*
X178979286Y-103813429D01*
X179015572Y-103777143D01*
X179051857Y-103704571D01*
X179051857Y-103523143D01*
X179015572Y-103450571D01*
X178979286Y-103414286D01*
X178906715Y-103378000D01*
X178761572Y-103378000D01*
X178689000Y-103414286D01*
X178652715Y-103450571D01*
X178616429Y-103523143D01*
X179705000Y-103087714D02*
X179559857Y-103087714D01*
X179487286Y-103124000D01*
X179451000Y-103160286D01*
X179378429Y-103269143D01*
X179342143Y-103414286D01*
X179342143Y-103704571D01*
X179378429Y-103777143D01*
X179414714Y-103813429D01*
X179487286Y-103849714D01*
X179632429Y-103849714D01*
X179705000Y-103813429D01*
X179741286Y-103777143D01*
X179777571Y-103704571D01*
X179777571Y-103523143D01*
X179741286Y-103450571D01*
X179705000Y-103414286D01*
X179632429Y-103378000D01*
X179487286Y-103378000D01*
X179414714Y-103414286D01*
X179378429Y-103450571D01*
X179342143Y-103523143D01*
X184295143Y-114390714D02*
X184041143Y-114027857D01*
X183859715Y-114390714D02*
X183859715Y-113628714D01*
X184150000Y-113628714D01*
X184222572Y-113665000D01*
X184258857Y-113701286D01*
X184295143Y-113773857D01*
X184295143Y-113882714D01*
X184258857Y-113955286D01*
X184222572Y-113991571D01*
X184150000Y-114027857D01*
X183859715Y-114027857D01*
X184948286Y-113628714D02*
X184803143Y-113628714D01*
X184730572Y-113665000D01*
X184694286Y-113701286D01*
X184621715Y-113810143D01*
X184585429Y-113955286D01*
X184585429Y-114245571D01*
X184621715Y-114318143D01*
X184658000Y-114354429D01*
X184730572Y-114390714D01*
X184875715Y-114390714D01*
X184948286Y-114354429D01*
X184984572Y-114318143D01*
X185020857Y-114245571D01*
X185020857Y-114064143D01*
X184984572Y-113991571D01*
X184948286Y-113955286D01*
X184875715Y-113919000D01*
X184730572Y-113919000D01*
X184658000Y-113955286D01*
X184621715Y-113991571D01*
X184585429Y-114064143D01*
X185274857Y-113628714D02*
X185782857Y-113628714D01*
X185456286Y-114390714D01*
X150640143Y-66130714D02*
X150386143Y-65767857D01*
X150204715Y-66130714D02*
X150204715Y-65368714D01*
X150495000Y-65368714D01*
X150567572Y-65405000D01*
X150603857Y-65441286D01*
X150640143Y-65513857D01*
X150640143Y-65622714D01*
X150603857Y-65695286D01*
X150567572Y-65731571D01*
X150495000Y-65767857D01*
X150204715Y-65767857D01*
X151293286Y-65368714D02*
X151148143Y-65368714D01*
X151075572Y-65405000D01*
X151039286Y-65441286D01*
X150966715Y-65550143D01*
X150930429Y-65695286D01*
X150930429Y-65985571D01*
X150966715Y-66058143D01*
X151003000Y-66094429D01*
X151075572Y-66130714D01*
X151220715Y-66130714D01*
X151293286Y-66094429D01*
X151329572Y-66058143D01*
X151365857Y-65985571D01*
X151365857Y-65804143D01*
X151329572Y-65731571D01*
X151293286Y-65695286D01*
X151220715Y-65659000D01*
X151075572Y-65659000D01*
X151003000Y-65695286D01*
X150966715Y-65731571D01*
X150930429Y-65804143D01*
X151728714Y-66130714D02*
X151873857Y-66130714D01*
X151946429Y-66094429D01*
X151982714Y-66058143D01*
X152055286Y-65949286D01*
X152091571Y-65804143D01*
X152091571Y-65513857D01*
X152055286Y-65441286D01*
X152019000Y-65405000D01*
X151946429Y-65368714D01*
X151801286Y-65368714D01*
X151728714Y-65405000D01*
X151692429Y-65441286D01*
X151656143Y-65513857D01*
X151656143Y-65695286D01*
X151692429Y-65767857D01*
X151728714Y-65804143D01*
X151801286Y-65840429D01*
X151946429Y-65840429D01*
X152019000Y-65804143D01*
X152055286Y-65767857D01*
X152091571Y-65695286D01*
X176620714Y-57004857D02*
X176257857Y-57258857D01*
X176620714Y-57440285D02*
X175858714Y-57440285D01*
X175858714Y-57150000D01*
X175895000Y-57077428D01*
X175931286Y-57041143D01*
X176003857Y-57004857D01*
X176112714Y-57004857D01*
X176185286Y-57041143D01*
X176221571Y-57077428D01*
X176257857Y-57150000D01*
X176257857Y-57440285D01*
X175858714Y-56750857D02*
X175858714Y-56242857D01*
X176620714Y-56569428D01*
X175858714Y-55807429D02*
X175858714Y-55734857D01*
X175895000Y-55662286D01*
X175931286Y-55626000D01*
X176003857Y-55589714D01*
X176149000Y-55553429D01*
X176330429Y-55553429D01*
X176475571Y-55589714D01*
X176548143Y-55626000D01*
X176584429Y-55662286D01*
X176620714Y-55734857D01*
X176620714Y-55807429D01*
X176584429Y-55880000D01*
X176548143Y-55916286D01*
X176475571Y-55952571D01*
X176330429Y-55988857D01*
X176149000Y-55988857D01*
X176003857Y-55952571D01*
X175931286Y-55916286D01*
X175895000Y-55880000D01*
X175858714Y-55807429D01*
X176620714Y-61449857D02*
X176257857Y-61703857D01*
X176620714Y-61885285D02*
X175858714Y-61885285D01*
X175858714Y-61595000D01*
X175895000Y-61522428D01*
X175931286Y-61486143D01*
X176003857Y-61449857D01*
X176112714Y-61449857D01*
X176185286Y-61486143D01*
X176221571Y-61522428D01*
X176257857Y-61595000D01*
X176257857Y-61885285D01*
X175858714Y-61195857D02*
X175858714Y-60687857D01*
X176620714Y-61014428D01*
X176620714Y-59998429D02*
X176620714Y-60433857D01*
X176620714Y-60216143D02*
X175858714Y-60216143D01*
X175967571Y-60288714D01*
X176040143Y-60361286D01*
X176076429Y-60433857D01*
X158260143Y-66130714D02*
X158006143Y-65767857D01*
X157824715Y-66130714D02*
X157824715Y-65368714D01*
X158115000Y-65368714D01*
X158187572Y-65405000D01*
X158223857Y-65441286D01*
X158260143Y-65513857D01*
X158260143Y-65622714D01*
X158223857Y-65695286D01*
X158187572Y-65731571D01*
X158115000Y-65767857D01*
X157824715Y-65767857D01*
X158514143Y-65368714D02*
X159022143Y-65368714D01*
X158695572Y-66130714D01*
X159276143Y-65441286D02*
X159312429Y-65405000D01*
X159385000Y-65368714D01*
X159566429Y-65368714D01*
X159639000Y-65405000D01*
X159675286Y-65441286D01*
X159711571Y-65513857D01*
X159711571Y-65586429D01*
X159675286Y-65695286D01*
X159239857Y-66130714D01*
X159711571Y-66130714D01*
X155339143Y-66130714D02*
X155085143Y-65767857D01*
X154903715Y-66130714D02*
X154903715Y-65368714D01*
X155194000Y-65368714D01*
X155266572Y-65405000D01*
X155302857Y-65441286D01*
X155339143Y-65513857D01*
X155339143Y-65622714D01*
X155302857Y-65695286D01*
X155266572Y-65731571D01*
X155194000Y-65767857D01*
X154903715Y-65767857D01*
X155593143Y-65368714D02*
X156101143Y-65368714D01*
X155774572Y-66130714D01*
X156318857Y-65368714D02*
X156790571Y-65368714D01*
X156536571Y-65659000D01*
X156645429Y-65659000D01*
X156718000Y-65695286D01*
X156754286Y-65731571D01*
X156790571Y-65804143D01*
X156790571Y-65985571D01*
X156754286Y-66058143D01*
X156718000Y-66094429D01*
X156645429Y-66130714D01*
X156427714Y-66130714D01*
X156355143Y-66094429D01*
X156318857Y-66058143D01*
X174461714Y-50872571D02*
X174098857Y-51126571D01*
X174461714Y-51307999D02*
X173699714Y-51307999D01*
X173699714Y-51017714D01*
X173736000Y-50945142D01*
X173772286Y-50908857D01*
X173844857Y-50872571D01*
X173953714Y-50872571D01*
X174026286Y-50908857D01*
X174062571Y-50945142D01*
X174098857Y-51017714D01*
X174098857Y-51307999D01*
X173699714Y-50654857D02*
X174461714Y-50400857D01*
X173699714Y-50146857D01*
X174461714Y-49493714D02*
X174461714Y-49929142D01*
X174461714Y-49711428D02*
X173699714Y-49711428D01*
X173808571Y-49783999D01*
X173881143Y-49856571D01*
X173917429Y-49929142D01*
X177092429Y-108929714D02*
X176838429Y-108566857D01*
X176657001Y-108929714D02*
X176657001Y-108167714D01*
X176947286Y-108167714D01*
X177019858Y-108204000D01*
X177056143Y-108240286D01*
X177092429Y-108312857D01*
X177092429Y-108421714D01*
X177056143Y-108494286D01*
X177019858Y-108530571D01*
X176947286Y-108566857D01*
X176657001Y-108566857D01*
X177564143Y-108566857D02*
X177564143Y-108929714D01*
X177310143Y-108167714D02*
X177564143Y-108566857D01*
X177818143Y-108167714D01*
X178471286Y-108929714D02*
X178035858Y-108929714D01*
X178253572Y-108929714D02*
X178253572Y-108167714D01*
X178181001Y-108276571D01*
X178108429Y-108349143D01*
X178035858Y-108385429D01*
X142929429Y-101309714D02*
X142929429Y-101926571D01*
X142965714Y-101999143D01*
X143002000Y-102035429D01*
X143074571Y-102071714D01*
X143219714Y-102071714D01*
X143292286Y-102035429D01*
X143328571Y-101999143D01*
X143364857Y-101926571D01*
X143364857Y-101309714D01*
X144126857Y-102071714D02*
X143691429Y-102071714D01*
X143909143Y-102071714D02*
X143909143Y-101309714D01*
X143836572Y-101418571D01*
X143764000Y-101491143D01*
X143691429Y-101527429D01*
X132297714Y-104720571D02*
X132914571Y-104720571D01*
X132987143Y-104684286D01*
X133023429Y-104648000D01*
X133059714Y-104575429D01*
X133059714Y-104430286D01*
X133023429Y-104357714D01*
X132987143Y-104321429D01*
X132914571Y-104285143D01*
X132297714Y-104285143D01*
X132370286Y-103958571D02*
X132334000Y-103922285D01*
X132297714Y-103849714D01*
X132297714Y-103668285D01*
X132334000Y-103595714D01*
X132370286Y-103559428D01*
X132442857Y-103523143D01*
X132515429Y-103523143D01*
X132624286Y-103559428D01*
X133059714Y-103994857D01*
X133059714Y-103523143D01*
X132297714Y-91385571D02*
X132914571Y-91385571D01*
X132987143Y-91349286D01*
X133023429Y-91313000D01*
X133059714Y-91240429D01*
X133059714Y-91095286D01*
X133023429Y-91022714D01*
X132987143Y-90986429D01*
X132914571Y-90950143D01*
X132297714Y-90950143D01*
X132297714Y-90659857D02*
X132297714Y-90188143D01*
X132588000Y-90442143D01*
X132588000Y-90333285D01*
X132624286Y-90260714D01*
X132660571Y-90224428D01*
X132733143Y-90188143D01*
X132914571Y-90188143D01*
X132987143Y-90224428D01*
X133023429Y-90260714D01*
X133059714Y-90333285D01*
X133059714Y-90551000D01*
X133023429Y-90623571D01*
X132987143Y-90659857D01*
X133059714Y-53539571D02*
X133676571Y-53539571D01*
X133749143Y-53503286D01*
X133785429Y-53467000D01*
X133821714Y-53394429D01*
X133821714Y-53249286D01*
X133785429Y-53176714D01*
X133749143Y-53140429D01*
X133676571Y-53104143D01*
X133059714Y-53104143D01*
X133313714Y-52414714D02*
X133821714Y-52414714D01*
X133023429Y-52596143D02*
X133567714Y-52777571D01*
X133567714Y-52305857D01*
X162015714Y-57095571D02*
X162632571Y-57095571D01*
X162705143Y-57059286D01*
X162741429Y-57023000D01*
X162777714Y-56950429D01*
X162777714Y-56805286D01*
X162741429Y-56732714D01*
X162705143Y-56696429D01*
X162632571Y-56660143D01*
X162015714Y-56660143D01*
X162015714Y-55934428D02*
X162015714Y-56297285D01*
X162378571Y-56333571D01*
X162342286Y-56297285D01*
X162306000Y-56224714D01*
X162306000Y-56043285D01*
X162342286Y-55970714D01*
X162378571Y-55934428D01*
X162451143Y-55898143D01*
X162632571Y-55898143D01*
X162705143Y-55934428D01*
X162741429Y-55970714D01*
X162777714Y-56043285D01*
X162777714Y-56224714D01*
X162741429Y-56297285D01*
X162705143Y-56333571D01*
X138484429Y-122678734D02*
X138484429Y-123295591D01*
X138520714Y-123368163D01*
X138557000Y-123404449D01*
X138629571Y-123440734D01*
X138774714Y-123440734D01*
X138847286Y-123404449D01*
X138883571Y-123368163D01*
X138919857Y-123295591D01*
X138919857Y-122678734D01*
X139609286Y-122678734D02*
X139464143Y-122678734D01*
X139391572Y-122715020D01*
X139355286Y-122751306D01*
X139282715Y-122860163D01*
X139246429Y-123005306D01*
X139246429Y-123295591D01*
X139282715Y-123368163D01*
X139319000Y-123404449D01*
X139391572Y-123440734D01*
X139536715Y-123440734D01*
X139609286Y-123404449D01*
X139645572Y-123368163D01*
X139681857Y-123295591D01*
X139681857Y-123114163D01*
X139645572Y-123041591D01*
X139609286Y-123005306D01*
X139536715Y-122969020D01*
X139391572Y-122969020D01*
X139319000Y-123005306D01*
X139282715Y-123041591D01*
X139246429Y-123114163D01*
X151184429Y-111088714D02*
X151184429Y-111705571D01*
X151220714Y-111778143D01*
X151257000Y-111814429D01*
X151329571Y-111850714D01*
X151474714Y-111850714D01*
X151547286Y-111814429D01*
X151583571Y-111778143D01*
X151619857Y-111705571D01*
X151619857Y-111088714D01*
X151910143Y-111088714D02*
X152418143Y-111088714D01*
X152091572Y-111850714D01*
X181410429Y-84926714D02*
X181410429Y-85543571D01*
X181446714Y-85616143D01*
X181483000Y-85652429D01*
X181555571Y-85688714D01*
X181700714Y-85688714D01*
X181773286Y-85652429D01*
X181809571Y-85616143D01*
X181845857Y-85543571D01*
X181845857Y-84926714D01*
X182317572Y-85253286D02*
X182245000Y-85217000D01*
X182208715Y-85180714D01*
X182172429Y-85108143D01*
X182172429Y-85071857D01*
X182208715Y-84999286D01*
X182245000Y-84963000D01*
X182317572Y-84926714D01*
X182462715Y-84926714D01*
X182535286Y-84963000D01*
X182571572Y-84999286D01*
X182607857Y-85071857D01*
X182607857Y-85108143D01*
X182571572Y-85180714D01*
X182535286Y-85217000D01*
X182462715Y-85253286D01*
X182317572Y-85253286D01*
X182245000Y-85289571D01*
X182208715Y-85325857D01*
X182172429Y-85398429D01*
X182172429Y-85543571D01*
X182208715Y-85616143D01*
X182245000Y-85652429D01*
X182317572Y-85688714D01*
X182462715Y-85688714D01*
X182535286Y-85652429D01*
X182571572Y-85616143D01*
X182607857Y-85543571D01*
X182607857Y-85398429D01*
X182571572Y-85325857D01*
X182535286Y-85289571D01*
X182462715Y-85253286D01*
X179858489Y-95927454D02*
X179858489Y-96544311D01*
X179894774Y-96616883D01*
X179931060Y-96653169D01*
X180003631Y-96689454D01*
X180148774Y-96689454D01*
X180221346Y-96653169D01*
X180257631Y-96616883D01*
X180293917Y-96544311D01*
X180293917Y-95927454D01*
X180693060Y-96689454D02*
X180838203Y-96689454D01*
X180910775Y-96653169D01*
X180947060Y-96616883D01*
X181019632Y-96508026D01*
X181055917Y-96362883D01*
X181055917Y-96072597D01*
X181019632Y-96000026D01*
X180983346Y-95963740D01*
X180910775Y-95927454D01*
X180765632Y-95927454D01*
X180693060Y-95963740D01*
X180656775Y-96000026D01*
X180620489Y-96072597D01*
X180620489Y-96254026D01*
X180656775Y-96326597D01*
X180693060Y-96362883D01*
X180765632Y-96399169D01*
X180910775Y-96399169D01*
X180983346Y-96362883D01*
X181019632Y-96326597D01*
X181055917Y-96254026D01*
X139536714Y-79048428D02*
X140153571Y-79048428D01*
X140226143Y-79012143D01*
X140262429Y-78975857D01*
X140298714Y-78903286D01*
X140298714Y-78758143D01*
X140262429Y-78685571D01*
X140226143Y-78649286D01*
X140153571Y-78613000D01*
X139536714Y-78613000D01*
X140298714Y-77851000D02*
X140298714Y-78286428D01*
X140298714Y-78068714D02*
X139536714Y-78068714D01*
X139645571Y-78141285D01*
X139718143Y-78213857D01*
X139754429Y-78286428D01*
X139536714Y-77379286D02*
X139536714Y-77306714D01*
X139573000Y-77234143D01*
X139609286Y-77197857D01*
X139681857Y-77161571D01*
X139827000Y-77125286D01*
X140008429Y-77125286D01*
X140153571Y-77161571D01*
X140226143Y-77197857D01*
X140262429Y-77234143D01*
X140298714Y-77306714D01*
X140298714Y-77379286D01*
X140262429Y-77451857D01*
X140226143Y-77488143D01*
X140153571Y-77524428D01*
X140008429Y-77560714D01*
X139827000Y-77560714D01*
X139681857Y-77524428D01*
X139609286Y-77488143D01*
X139573000Y-77451857D01*
X139536714Y-77379286D01*
X170506572Y-108040714D02*
X170506572Y-108657571D01*
X170542857Y-108730143D01*
X170579143Y-108766429D01*
X170651714Y-108802714D01*
X170796857Y-108802714D01*
X170869429Y-108766429D01*
X170905714Y-108730143D01*
X170942000Y-108657571D01*
X170942000Y-108040714D01*
X171704000Y-108802714D02*
X171268572Y-108802714D01*
X171486286Y-108802714D02*
X171486286Y-108040714D01*
X171413715Y-108149571D01*
X171341143Y-108222143D01*
X171268572Y-108258429D01*
X172429714Y-108802714D02*
X171994286Y-108802714D01*
X172212000Y-108802714D02*
X172212000Y-108040714D01*
X172139429Y-108149571D01*
X172066857Y-108222143D01*
X171994286Y-108258429D01*
X159856714Y-59998428D02*
X160473571Y-59998428D01*
X160546143Y-59962143D01*
X160582429Y-59925857D01*
X160618714Y-59853286D01*
X160618714Y-59708143D01*
X160582429Y-59635571D01*
X160546143Y-59599286D01*
X160473571Y-59563000D01*
X159856714Y-59563000D01*
X160618714Y-58801000D02*
X160618714Y-59236428D01*
X160618714Y-59018714D02*
X159856714Y-59018714D01*
X159965571Y-59091285D01*
X160038143Y-59163857D01*
X160074429Y-59236428D01*
X159929286Y-58510714D02*
X159893000Y-58474428D01*
X159856714Y-58401857D01*
X159856714Y-58220428D01*
X159893000Y-58147857D01*
X159929286Y-58111571D01*
X160001857Y-58075286D01*
X160074429Y-58075286D01*
X160183286Y-58111571D01*
X160618714Y-58547000D01*
X160618714Y-58075286D01*
X166497001Y-82513714D02*
X166134144Y-82513714D01*
X166134144Y-81751714D01*
X167150143Y-82513714D02*
X166714715Y-82513714D01*
X166932429Y-82513714D02*
X166932429Y-81751714D01*
X166859858Y-81860571D01*
X166787286Y-81933143D01*
X166714715Y-81969429D01*
X169545001Y-98515714D02*
X169182144Y-98515714D01*
X169182144Y-97753714D01*
X169762715Y-97826286D02*
X169799001Y-97790000D01*
X169871572Y-97753714D01*
X170053001Y-97753714D01*
X170125572Y-97790000D01*
X170161858Y-97826286D01*
X170198143Y-97898857D01*
X170198143Y-97971429D01*
X170161858Y-98080286D01*
X169726429Y-98515714D01*
X170198143Y-98515714D01*
X126074714Y-140534571D02*
X126074714Y-140099142D01*
X126836714Y-140316856D02*
X126074714Y-140316856D01*
X126437571Y-139591142D02*
X126473857Y-139482285D01*
X126510143Y-139446000D01*
X126582714Y-139409714D01*
X126691571Y-139409714D01*
X126764143Y-139446000D01*
X126800429Y-139482285D01*
X126836714Y-139554857D01*
X126836714Y-139845142D01*
X126074714Y-139845142D01*
X126074714Y-139591142D01*
X126111000Y-139518571D01*
X126147286Y-139482285D01*
X126219857Y-139446000D01*
X126292429Y-139446000D01*
X126365000Y-139482285D01*
X126401286Y-139518571D01*
X126437571Y-139591142D01*
X126437571Y-139845142D01*
X126074714Y-139155714D02*
X126074714Y-138647714D01*
X126836714Y-138974285D01*
X156554714Y-140534571D02*
X156554714Y-140099142D01*
X157316714Y-140316856D02*
X156554714Y-140316856D01*
X156917571Y-139591142D02*
X156953857Y-139482285D01*
X156990143Y-139446000D01*
X157062714Y-139409714D01*
X157171571Y-139409714D01*
X157244143Y-139446000D01*
X157280429Y-139482285D01*
X157316714Y-139554857D01*
X157316714Y-139845142D01*
X156554714Y-139845142D01*
X156554714Y-139591142D01*
X156591000Y-139518571D01*
X156627286Y-139482285D01*
X156699857Y-139446000D01*
X156772429Y-139446000D01*
X156845000Y-139482285D01*
X156881286Y-139518571D01*
X156917571Y-139591142D01*
X156917571Y-139845142D01*
X156554714Y-138720285D02*
X156554714Y-139083142D01*
X156917571Y-139119428D01*
X156881286Y-139083142D01*
X156845000Y-139010571D01*
X156845000Y-138829142D01*
X156881286Y-138756571D01*
X156917571Y-138720285D01*
X156990143Y-138684000D01*
X157171571Y-138684000D01*
X157244143Y-138720285D01*
X157280429Y-138756571D01*
X157316714Y-138829142D01*
X157316714Y-139010571D01*
X157280429Y-139083142D01*
X157244143Y-139119428D01*
X156046714Y-42236571D02*
X156046714Y-41801142D01*
X156808714Y-42018856D02*
X156046714Y-42018856D01*
X156409571Y-41293142D02*
X156445857Y-41184285D01*
X156482143Y-41148000D01*
X156554714Y-41111714D01*
X156663571Y-41111714D01*
X156736143Y-41148000D01*
X156772429Y-41184285D01*
X156808714Y-41256857D01*
X156808714Y-41547142D01*
X156046714Y-41547142D01*
X156046714Y-41293142D01*
X156083000Y-41220571D01*
X156119286Y-41184285D01*
X156191857Y-41148000D01*
X156264429Y-41148000D01*
X156337000Y-41184285D01*
X156373286Y-41220571D01*
X156409571Y-41293142D01*
X156409571Y-41547142D01*
X156300714Y-40458571D02*
X156808714Y-40458571D01*
X156010429Y-40640000D02*
X156554714Y-40821428D01*
X156554714Y-40349714D01*
X176239714Y-42236571D02*
X176239714Y-41801142D01*
X177001714Y-42018856D02*
X176239714Y-42018856D01*
X176602571Y-41293142D02*
X176638857Y-41184285D01*
X176675143Y-41148000D01*
X176747714Y-41111714D01*
X176856571Y-41111714D01*
X176929143Y-41148000D01*
X176965429Y-41184285D01*
X177001714Y-41256857D01*
X177001714Y-41547142D01*
X176239714Y-41547142D01*
X176239714Y-41293142D01*
X176276000Y-41220571D01*
X176312286Y-41184285D01*
X176384857Y-41148000D01*
X176457429Y-41148000D01*
X176530000Y-41184285D01*
X176566286Y-41220571D01*
X176602571Y-41293142D01*
X176602571Y-41547142D01*
X176239714Y-40458571D02*
X176239714Y-40603714D01*
X176276000Y-40676285D01*
X176312286Y-40712571D01*
X176421143Y-40785142D01*
X176566286Y-40821428D01*
X176856571Y-40821428D01*
X176929143Y-40785142D01*
X176965429Y-40748857D01*
X177001714Y-40676285D01*
X177001714Y-40531142D01*
X176965429Y-40458571D01*
X176929143Y-40422285D01*
X176856571Y-40386000D01*
X176675143Y-40386000D01*
X176602571Y-40422285D01*
X176566286Y-40458571D01*
X176530000Y-40531142D01*
X176530000Y-40676285D01*
X176566286Y-40748857D01*
X176602571Y-40785142D01*
X176675143Y-40821428D01*
X124895429Y-107024714D02*
X125330858Y-107024714D01*
X125113144Y-107786714D02*
X125113144Y-107024714D01*
X125838858Y-107387571D02*
X125947715Y-107423857D01*
X125984000Y-107460143D01*
X126020286Y-107532714D01*
X126020286Y-107641571D01*
X125984000Y-107714143D01*
X125947715Y-107750429D01*
X125875143Y-107786714D01*
X125584858Y-107786714D01*
X125584858Y-107024714D01*
X125838858Y-107024714D01*
X125911429Y-107061000D01*
X125947715Y-107097286D01*
X125984000Y-107169857D01*
X125984000Y-107242429D01*
X125947715Y-107315000D01*
X125911429Y-107351286D01*
X125838858Y-107387571D01*
X125584858Y-107387571D01*
X126746000Y-107786714D02*
X126310572Y-107786714D01*
X126528286Y-107786714D02*
X126528286Y-107024714D01*
X126455715Y-107133571D01*
X126383143Y-107206143D01*
X126310572Y-107242429D01*
X124895429Y-76544714D02*
X125330858Y-76544714D01*
X125113144Y-77306714D02*
X125113144Y-76544714D01*
X125838858Y-76907571D02*
X125947715Y-76943857D01*
X125984000Y-76980143D01*
X126020286Y-77052714D01*
X126020286Y-77161571D01*
X125984000Y-77234143D01*
X125947715Y-77270429D01*
X125875143Y-77306714D01*
X125584858Y-77306714D01*
X125584858Y-76544714D01*
X125838858Y-76544714D01*
X125911429Y-76581000D01*
X125947715Y-76617286D01*
X125984000Y-76689857D01*
X125984000Y-76762429D01*
X125947715Y-76835000D01*
X125911429Y-76871286D01*
X125838858Y-76907571D01*
X125584858Y-76907571D01*
X126310572Y-76617286D02*
X126346858Y-76581000D01*
X126419429Y-76544714D01*
X126600858Y-76544714D01*
X126673429Y-76581000D01*
X126709715Y-76617286D01*
X126746000Y-76689857D01*
X126746000Y-76762429D01*
X126709715Y-76871286D01*
X126274286Y-77306714D01*
X126746000Y-77306714D01*
X122990429Y-45302714D02*
X123425858Y-45302714D01*
X123208144Y-46064714D02*
X123208144Y-45302714D01*
X123933858Y-45665571D02*
X124042715Y-45701857D01*
X124079000Y-45738143D01*
X124115286Y-45810714D01*
X124115286Y-45919571D01*
X124079000Y-45992143D01*
X124042715Y-46028429D01*
X123970143Y-46064714D01*
X123679858Y-46064714D01*
X123679858Y-45302714D01*
X123933858Y-45302714D01*
X124006429Y-45339000D01*
X124042715Y-45375286D01*
X124079000Y-45447857D01*
X124079000Y-45520429D01*
X124042715Y-45593000D01*
X124006429Y-45629286D01*
X123933858Y-45665571D01*
X123679858Y-45665571D01*
X124369286Y-45302714D02*
X124841000Y-45302714D01*
X124587000Y-45593000D01*
X124695858Y-45593000D01*
X124768429Y-45629286D01*
X124804715Y-45665571D01*
X124841000Y-45738143D01*
X124841000Y-45919571D01*
X124804715Y-45992143D01*
X124768429Y-46028429D01*
X124695858Y-46064714D01*
X124478143Y-46064714D01*
X124405572Y-46028429D01*
X124369286Y-45992143D01*
X186871429Y-116041714D02*
X187306858Y-116041714D01*
X187089144Y-116803714D02*
X187089144Y-116041714D01*
X187814858Y-116404571D02*
X187923715Y-116440857D01*
X187960000Y-116477143D01*
X187996286Y-116549714D01*
X187996286Y-116658571D01*
X187960000Y-116731143D01*
X187923715Y-116767429D01*
X187851143Y-116803714D01*
X187560858Y-116803714D01*
X187560858Y-116041714D01*
X187814858Y-116041714D01*
X187887429Y-116078000D01*
X187923715Y-116114286D01*
X187960000Y-116186857D01*
X187960000Y-116259429D01*
X187923715Y-116332000D01*
X187887429Y-116368286D01*
X187814858Y-116404571D01*
X187560858Y-116404571D01*
X188431715Y-116368286D02*
X188359143Y-116332000D01*
X188322858Y-116295714D01*
X188286572Y-116223143D01*
X188286572Y-116186857D01*
X188322858Y-116114286D01*
X188359143Y-116078000D01*
X188431715Y-116041714D01*
X188576858Y-116041714D01*
X188649429Y-116078000D01*
X188685715Y-116114286D01*
X188722000Y-116186857D01*
X188722000Y-116223143D01*
X188685715Y-116295714D01*
X188649429Y-116332000D01*
X188576858Y-116368286D01*
X188431715Y-116368286D01*
X188359143Y-116404571D01*
X188322858Y-116440857D01*
X188286572Y-116513429D01*
X188286572Y-116658571D01*
X188322858Y-116731143D01*
X188359143Y-116767429D01*
X188431715Y-116803714D01*
X188576858Y-116803714D01*
X188649429Y-116767429D01*
X188685715Y-116731143D01*
X188722000Y-116658571D01*
X188722000Y-116513429D01*
X188685715Y-116440857D01*
X188649429Y-116404571D01*
X188576858Y-116368286D01*
%LPC*%
D27*
X156845000Y-70485000D03*
D28*
X156845000Y-67945000D03*
X159385000Y-70485000D03*
X159385000Y-67945000D03*
X161925000Y-70485000D03*
X161925000Y-67945000D03*
X164465000Y-70485000D03*
X164465000Y-67945000D03*
X167005000Y-70485000D03*
X167005000Y-67945000D03*
X169545000Y-70485000D03*
X169545000Y-67945000D03*
X172085000Y-70485000D03*
X172085000Y-67945000D03*
X174625000Y-70485000D03*
X174625000Y-67945000D03*
X177165000Y-70485000D03*
X177165000Y-67945000D03*
X179705000Y-70485000D03*
X179705000Y-67945000D03*
X182245000Y-70485000D03*
X182245000Y-67945000D03*
X184785000Y-70485000D03*
X184785000Y-67945000D03*
X187325000Y-70485000D03*
X187325000Y-67945000D03*
D29*
X151975000Y-69215000D03*
X151975000Y-118215000D03*
D30*
X177165000Y-80962500D03*
X177165000Y-79057500D03*
X177165000Y-82867500D03*
X177165000Y-84772500D03*
D31*
X185166000Y-76835000D03*
X181864000Y-76835000D03*
D32*
X187706000Y-76327000D03*
X187706000Y-73025000D03*
X190881000Y-76327000D03*
X190881000Y-73025000D03*
D33*
X163449000Y-80010000D03*
X160401000Y-80010000D03*
X163449000Y-83185000D03*
X160401000Y-83185000D03*
X163449000Y-76835000D03*
X160401000Y-76835000D03*
D31*
X183261000Y-94615000D03*
X179959000Y-94615000D03*
D32*
X182880000Y-91821000D03*
X182880000Y-88519000D03*
D34*
X168910000Y-103886000D03*
X168910000Y-106934000D03*
D33*
X165989000Y-107950000D03*
X162941000Y-107950000D03*
D35*
X152717500Y-61595000D03*
X150812500Y-61595000D03*
D36*
X154940000Y-87630000D03*
D37*
X154940000Y-85090000D03*
X154940000Y-82550000D03*
X154940000Y-80010000D03*
X154940000Y-77470000D03*
X154940000Y-74930000D03*
D38*
X179705000Y-125095000D03*
D39*
X179705000Y-122555000D03*
X179705000Y-120015000D03*
X179705000Y-117475000D03*
D40*
X180467000Y-129159000D03*
X180467000Y-113411000D03*
D38*
X168275000Y-125095000D03*
D39*
X168275000Y-122555000D03*
X168275000Y-120015000D03*
X168275000Y-117475000D03*
D40*
X169037000Y-129159000D03*
X169037000Y-113411000D03*
D38*
X156845000Y-125095000D03*
D39*
X156845000Y-122555000D03*
X156845000Y-120015000D03*
X156845000Y-117475000D03*
D40*
X157607000Y-129159000D03*
X157607000Y-113411000D03*
D38*
X131445000Y-74295000D03*
D39*
X131445000Y-71755000D03*
X131445000Y-69215000D03*
X131445000Y-66675000D03*
D40*
X132207000Y-78359000D03*
X132207000Y-57531000D03*
D39*
X131445000Y-64135000D03*
X131445000Y-61595000D03*
D38*
X144145000Y-125095000D03*
D39*
X144145000Y-122555000D03*
X144145000Y-120015000D03*
X144145000Y-117475000D03*
D40*
X144907000Y-129159000D03*
X144907000Y-113411000D03*
D38*
X131445000Y-125095000D03*
D39*
X131445000Y-122555000D03*
X131445000Y-120015000D03*
X131445000Y-117475000D03*
D40*
X132207000Y-129159000D03*
X132207000Y-113411000D03*
D41*
X187325000Y-51435000D03*
X185545000Y-52455000D03*
X187325000Y-53475000D03*
X185545000Y-54495000D03*
X187325000Y-55515000D03*
X185545000Y-56535000D03*
X187325000Y-57555000D03*
X185545000Y-58575000D03*
D42*
X189865000Y-48640000D03*
X189865000Y-61340000D03*
D43*
X128490980Y-132080000D03*
X130589020Y-132080000D03*
X136525000Y-66454020D03*
X136525000Y-64355980D03*
D44*
X134889240Y-81848960D03*
X134889240Y-83251040D03*
X136888220Y-82550000D03*
D45*
X167640000Y-87630000D03*
D46*
X166600000Y-83825000D03*
X168680000Y-83825000D03*
D45*
X161925000Y-90170000D03*
D46*
X160885000Y-86365000D03*
X162965000Y-86365000D03*
D47*
X162560000Y-103505000D03*
D48*
X166365000Y-102465000D03*
X166365000Y-104545000D03*
D47*
X163195000Y-97790000D03*
D48*
X167000000Y-96750000D03*
X167000000Y-98830000D03*
D49*
X136144000Y-79629000D03*
X136144000Y-77851000D03*
X138176000Y-78740000D03*
X169164000Y-63881000D03*
X167386000Y-63881000D03*
X168275000Y-61849000D03*
D50*
X171450000Y-83693000D03*
X171450000Y-89027000D03*
X172720000Y-83693000D03*
X173990000Y-83693000D03*
X175260000Y-83693000D03*
X172720000Y-89027000D03*
X173990000Y-89027000D03*
X175260000Y-89027000D03*
X171450000Y-100203000D03*
X171450000Y-105537000D03*
X172720000Y-100203000D03*
X173990000Y-100203000D03*
X175260000Y-100203000D03*
X172720000Y-105537000D03*
X173990000Y-105537000D03*
X175260000Y-105537000D03*
D49*
X174244000Y-111379000D03*
X174244000Y-109601000D03*
X176276000Y-110490000D03*
D50*
X186690000Y-126238000D03*
X186690000Y-131572000D03*
X187960000Y-126238000D03*
X189230000Y-126238000D03*
X190500000Y-126238000D03*
X187960000Y-131572000D03*
X189230000Y-131572000D03*
X190500000Y-131572000D03*
X148590000Y-52578000D03*
X148590000Y-57912000D03*
X149860000Y-52578000D03*
X151130000Y-52578000D03*
X152400000Y-52578000D03*
X149860000Y-57912000D03*
X151130000Y-57912000D03*
X152400000Y-57912000D03*
D51*
X149545000Y-85725000D03*
X151445000Y-85725000D03*
X138115000Y-67945000D03*
X140015000Y-67945000D03*
D52*
X126365000Y-133665000D03*
X126365000Y-131765000D03*
D51*
X140655000Y-84455000D03*
X142555000Y-84455000D03*
D52*
X180975000Y-136205000D03*
X180975000Y-134305000D03*
X177165000Y-136205000D03*
X177165000Y-134305000D03*
X173355000Y-136205000D03*
X173355000Y-134305000D03*
X169545000Y-136205000D03*
X169545000Y-134305000D03*
X165735000Y-136205000D03*
X165735000Y-134305000D03*
X161925000Y-136205000D03*
X161925000Y-134305000D03*
X164465000Y-63815000D03*
X164465000Y-61915000D03*
X172085000Y-63815000D03*
X172085000Y-61915000D03*
X150495000Y-136205000D03*
X150495000Y-134305000D03*
X146685000Y-136205000D03*
X146685000Y-134305000D03*
X142875000Y-136205000D03*
X142875000Y-134305000D03*
X139065000Y-136205000D03*
X139065000Y-134305000D03*
X135255000Y-136205000D03*
X135255000Y-134305000D03*
X131445000Y-136205000D03*
X131445000Y-134305000D03*
X132715000Y-83500000D03*
X132715000Y-81600000D03*
X128905000Y-136205000D03*
X128905000Y-134305000D03*
X186690000Y-80960000D03*
X186690000Y-79060000D03*
X189230000Y-82870000D03*
X189230000Y-84770000D03*
D51*
X190815000Y-80645000D03*
X188915000Y-80645000D03*
D52*
X186690000Y-84770000D03*
X186690000Y-82870000D03*
X185420000Y-98740000D03*
X185420000Y-96840000D03*
D51*
X183195000Y-105410000D03*
X181295000Y-105410000D03*
X181295000Y-103505000D03*
X183195000Y-103505000D03*
X183835000Y-112395000D03*
X185735000Y-112395000D03*
X152080000Y-64135000D03*
X150180000Y-64135000D03*
D52*
X177800000Y-57465000D03*
X177800000Y-55565000D03*
X177800000Y-60010000D03*
X177800000Y-61910000D03*
D51*
X157800000Y-64135000D03*
X159700000Y-64135000D03*
X155890000Y-64135000D03*
X153990000Y-64135000D03*
D28*
X168275000Y-48895000D03*
X170815000Y-48895000D03*
X165735000Y-48895000D03*
D53*
X177800000Y-107315000D03*
X177800000Y-109855000D03*
X183400000Y-109855000D03*
X183400000Y-107315000D03*
D54*
X149225000Y-101600000D03*
X150025100Y-101600000D03*
X150825200Y-101600000D03*
X151625300Y-101600000D03*
X152425400Y-101600000D03*
X153225500Y-101600000D03*
X148424900Y-101600000D03*
X147624800Y-101600000D03*
X146824700Y-101600000D03*
X146024600Y-101600000D03*
X145224500Y-101600000D03*
X149225000Y-90170000D03*
X150025100Y-90170000D03*
X150825200Y-90170000D03*
X151625300Y-90170000D03*
X152425400Y-90170000D03*
X153225500Y-90170000D03*
X148424900Y-90170000D03*
X147624800Y-90170000D03*
X146824700Y-90170000D03*
X146024600Y-90170000D03*
X145224500Y-90170000D03*
D55*
X154940000Y-95885000D03*
X143510000Y-95885000D03*
X154940000Y-95084900D03*
X143510000Y-95084900D03*
X143510000Y-94284800D03*
X154940000Y-94284800D03*
X154940000Y-93484700D03*
X143510000Y-93484700D03*
X143510000Y-92684600D03*
X154940000Y-92684600D03*
X154940000Y-91884500D03*
X143510000Y-91884500D03*
X143510000Y-96685100D03*
X154940000Y-96685100D03*
X154940000Y-97485200D03*
X143510000Y-97485200D03*
X143510000Y-98285300D03*
X154940000Y-98285300D03*
X154940000Y-99085400D03*
X143510000Y-99085400D03*
X143510000Y-99885500D03*
X154940000Y-99885500D03*
D56*
X129159000Y-98425000D03*
X129159000Y-99695000D03*
X129159000Y-100965000D03*
X129159000Y-102235000D03*
X129159000Y-103505000D03*
X129159000Y-104775000D03*
X129159000Y-106045000D03*
X129159000Y-107315000D03*
X129159000Y-108585000D03*
X129159000Y-109855000D03*
X138811000Y-109855000D03*
X138811000Y-108585000D03*
X138811000Y-107315000D03*
X138811000Y-106045000D03*
X138811000Y-104775000D03*
X138811000Y-103505000D03*
X138811000Y-102235000D03*
X138811000Y-100965000D03*
X138811000Y-99695000D03*
X138811000Y-98425000D03*
X129159000Y-85090000D03*
X129159000Y-86360000D03*
X129159000Y-87630000D03*
X129159000Y-88900000D03*
X129159000Y-90170000D03*
X129159000Y-91440000D03*
X129159000Y-92710000D03*
X129159000Y-93980000D03*
X129159000Y-95250000D03*
X129159000Y-96520000D03*
X138811000Y-96520000D03*
X138811000Y-95250000D03*
X138811000Y-93980000D03*
X138811000Y-92710000D03*
X138811000Y-91440000D03*
X138811000Y-90170000D03*
X138811000Y-88900000D03*
X138811000Y-87630000D03*
X138811000Y-86360000D03*
X138811000Y-85090000D03*
D57*
X146685000Y-47879000D03*
X145415000Y-47879000D03*
X144145000Y-47879000D03*
X142875000Y-47879000D03*
X141605000Y-47879000D03*
X140335000Y-47879000D03*
X139065000Y-47879000D03*
X137795000Y-47879000D03*
X136525000Y-47879000D03*
X135255000Y-47879000D03*
X135255000Y-57531000D03*
X136525000Y-57531000D03*
X137795000Y-57531000D03*
X139065000Y-57531000D03*
X140335000Y-57531000D03*
X141605000Y-57531000D03*
X142875000Y-57531000D03*
X144145000Y-57531000D03*
X145415000Y-57531000D03*
X146685000Y-57531000D03*
D36*
X164465000Y-60325000D03*
D37*
X167005000Y-60325000D03*
X169545000Y-60325000D03*
X172085000Y-60325000D03*
X172085000Y-52705000D03*
X169545000Y-52705000D03*
X167005000Y-52705000D03*
X164465000Y-52705000D03*
D58*
X137795000Y-126047500D03*
X137795000Y-125095000D03*
X137795000Y-124142500D03*
X140335000Y-124142500D03*
X140335000Y-125095000D03*
X140335000Y-126047500D03*
D59*
X150565000Y-108270000D03*
X150565000Y-109220000D03*
X150565000Y-110170000D03*
X152965000Y-110170000D03*
X152965000Y-108270000D03*
D60*
X184658000Y-79756000D03*
X179324000Y-79756000D03*
X184658000Y-81026000D03*
X184658000Y-82296000D03*
X184658000Y-83566000D03*
X179324000Y-81026000D03*
X179324000Y-82296000D03*
X179324000Y-83566000D03*
D61*
X181991000Y-81661000D03*
D60*
X183007000Y-97790000D03*
X177673000Y-97790000D03*
X183007000Y-99060000D03*
X183007000Y-100330000D03*
X183007000Y-101600000D03*
X177673000Y-99060000D03*
X177673000Y-100330000D03*
X177673000Y-101600000D03*
D61*
X180340000Y-99695000D03*
D62*
X143510000Y-81407000D03*
D63*
X143510000Y-74803000D03*
X141224000Y-74803000D03*
X145796000Y-74803000D03*
D64*
X169715180Y-110490000D03*
X171914820Y-109537500D03*
X171914820Y-111442500D03*
D50*
X158750000Y-61722000D03*
X158750000Y-56388000D03*
X157480000Y-61722000D03*
X156210000Y-61722000D03*
X154940000Y-61722000D03*
X157480000Y-56388000D03*
X156210000Y-56388000D03*
X154940000Y-56388000D03*
D65*
X183515000Y-38100000D03*
X184785000Y-38100000D03*
X184150000Y-37465000D03*
D66*
X174230000Y-78740000D03*
X166130000Y-78740000D03*
X177405000Y-94615000D03*
X169305000Y-94615000D03*
D67*
X128905000Y-143510000D03*
D68*
X132405000Y-143510000D03*
X135905000Y-143510000D03*
X139405000Y-143510000D03*
X142905000Y-143510000D03*
X146405000Y-143510000D03*
X149905000Y-143510000D03*
X153405000Y-143510000D03*
D67*
X159385000Y-143510000D03*
D68*
X162885000Y-143510000D03*
X166385000Y-143510000D03*
X169885000Y-143510000D03*
X173385000Y-143510000D03*
X176885000Y-143510000D03*
X180385000Y-143510000D03*
X183885000Y-143510000D03*
D67*
X153035000Y-39370000D03*
D68*
X149535000Y-39370000D03*
X146035000Y-39370000D03*
X142535000Y-39370000D03*
X139035000Y-39370000D03*
X135535000Y-39370000D03*
X132035000Y-39370000D03*
X128535000Y-39370000D03*
D67*
X173355000Y-39370000D03*
D68*
X169855000Y-39370000D03*
X166355000Y-39370000D03*
X162855000Y-39370000D03*
D67*
X121920000Y-109855000D03*
D68*
X121920000Y-113355000D03*
X121920000Y-116855000D03*
X121920000Y-120355000D03*
X121920000Y-123855000D03*
X121920000Y-127355000D03*
X121920000Y-130855000D03*
X121920000Y-134355000D03*
D67*
X121920000Y-79375000D03*
D68*
X121920000Y-82875000D03*
X121920000Y-86375000D03*
X121920000Y-89875000D03*
X121920000Y-93375000D03*
X121920000Y-96875000D03*
X121920000Y-100375000D03*
X121920000Y-103875000D03*
D67*
X121920000Y-48895000D03*
D68*
X121920000Y-52395000D03*
X121920000Y-55895000D03*
X121920000Y-59395000D03*
X121920000Y-62895000D03*
X121920000Y-66395000D03*
X121920000Y-69895000D03*
X121920000Y-73395000D03*
D67*
X189865000Y-113030000D03*
D68*
X189865000Y-109530000D03*
X189865000Y-106030000D03*
X189865000Y-102530000D03*
X189865000Y-99030000D03*
X189865000Y-95530000D03*
X189865000Y-92030000D03*
X189865000Y-88530000D03*
M02*
