%FSLAX46Y46*%
G04 Gerber Fmt 4.6, Leading zero omitted, Abs format (unit mm)*
G04 Created by KiCad (PCBNEW (2014-10-08 BZR 5171)-product) date 10/19/2014 5:22:49 PM*
%MOMM*%
G01*
G04 APERTURE LIST*
%ADD10C,0.100000*%
%ADD11R,1.778000X1.778000*%
%ADD12C,1.778000*%
%ADD13C,3.004000*%
%ADD14R,1.651000X1.143000*%
%ADD15R,1.778000X2.286000*%
%ADD16R,2.286000X1.778000*%
%ADD17R,1.524000X2.794000*%
%ADD18R,2.794000X1.524000*%
%ADD19R,1.143000X1.651000*%
%ADD20R,1.651000X1.651000*%
%ADD21C,1.651000*%
%ADD22R,1.854200X1.854200*%
%ADD23C,1.854200*%
%ADD24C,3.657600*%
%ADD25C,1.662000*%
%ADD26C,3.454000*%
%ADD27R,1.452880X1.452880*%
%ADD28R,1.054100X1.054100*%
%ADD29R,5.054000X4.974000*%
%ADD30R,1.654000X1.524000*%
%ADD31R,4.974000X5.054000*%
%ADD32R,1.524000X1.654000*%
%ADD33R,1.168400X1.168400*%
%ADD34R,0.853440X1.653540*%
%ADD35R,0.954000X1.554000*%
%ADD36R,1.554000X0.954000*%
%ADD37R,1.554000X0.854000*%
%ADD38R,0.660400X1.778000*%
%ADD39R,1.778000X0.660400*%
%ADD40R,1.524000X0.762000*%
%ADD41R,0.762000X1.524000*%
%ADD42R,1.254760X0.955040*%
%ADD43R,1.054000X0.804000*%
%ADD44R,1.653540X0.853440*%
%ADD45R,2.514600X3.251200*%
%ADD46R,3.911600X2.286000*%
%ADD47R,1.270000X2.286000*%
%ADD48R,1.254760X1.054100*%
%ADD49C,0.889000*%
%ADD50R,2.254000X3.054000*%
%ADD51R,2.054000X2.054000*%
%ADD52C,2.054000*%
G04 APERTURE END LIST*
D10*
D11*
X156845000Y-70485000D03*
D12*
X156845000Y-67945000D03*
X159385000Y-70485000D03*
X159385000Y-67945000D03*
X161925000Y-70485000D03*
X161925000Y-67945000D03*
X164465000Y-70485000D03*
X164465000Y-67945000D03*
X167005000Y-70485000D03*
X167005000Y-67945000D03*
X169545000Y-70485000D03*
X169545000Y-67945000D03*
X172085000Y-70485000D03*
X172085000Y-67945000D03*
X174625000Y-70485000D03*
X174625000Y-67945000D03*
X177165000Y-70485000D03*
X177165000Y-67945000D03*
X179705000Y-70485000D03*
X179705000Y-67945000D03*
X182245000Y-70485000D03*
X182245000Y-67945000D03*
X184785000Y-70485000D03*
X184785000Y-67945000D03*
X187325000Y-70485000D03*
X187325000Y-67945000D03*
D13*
X151975000Y-69215000D03*
X151975000Y-118215000D03*
D14*
X177165000Y-80962500D03*
X177165000Y-79057500D03*
X177165000Y-82867500D03*
X177165000Y-84772500D03*
D15*
X185166000Y-76835000D03*
X181864000Y-76835000D03*
D16*
X187706000Y-76327000D03*
X187706000Y-73025000D03*
X190881000Y-76327000D03*
X190881000Y-73025000D03*
D17*
X163449000Y-80010000D03*
X160401000Y-80010000D03*
X163449000Y-83185000D03*
X160401000Y-83185000D03*
X163449000Y-76835000D03*
X160401000Y-76835000D03*
D15*
X183261000Y-94615000D03*
X179959000Y-94615000D03*
D16*
X182880000Y-91821000D03*
X182880000Y-88519000D03*
D18*
X168910000Y-103886000D03*
X168910000Y-106934000D03*
D17*
X165989000Y-107950000D03*
X162941000Y-107950000D03*
D19*
X152717500Y-61595000D03*
X150812500Y-61595000D03*
D20*
X154940000Y-87630000D03*
D21*
X154940000Y-85090000D03*
X154940000Y-82550000D03*
X154940000Y-80010000D03*
X154940000Y-77470000D03*
X154940000Y-74930000D03*
D22*
X179705000Y-125095000D03*
D23*
X179705000Y-122555000D03*
X179705000Y-120015000D03*
X179705000Y-117475000D03*
D24*
X180467000Y-129159000D03*
X180467000Y-113411000D03*
D22*
X168275000Y-125095000D03*
D23*
X168275000Y-122555000D03*
X168275000Y-120015000D03*
X168275000Y-117475000D03*
D24*
X169037000Y-129159000D03*
X169037000Y-113411000D03*
D22*
X156845000Y-125095000D03*
D23*
X156845000Y-122555000D03*
X156845000Y-120015000D03*
X156845000Y-117475000D03*
D24*
X157607000Y-129159000D03*
X157607000Y-113411000D03*
D22*
X131445000Y-74295000D03*
D23*
X131445000Y-71755000D03*
X131445000Y-69215000D03*
X131445000Y-66675000D03*
D24*
X132207000Y-78359000D03*
X132207000Y-57531000D03*
D23*
X131445000Y-64135000D03*
X131445000Y-61595000D03*
D22*
X144145000Y-125095000D03*
D23*
X144145000Y-122555000D03*
X144145000Y-120015000D03*
X144145000Y-117475000D03*
D24*
X144907000Y-129159000D03*
X144907000Y-113411000D03*
D22*
X131445000Y-125095000D03*
D23*
X131445000Y-122555000D03*
X131445000Y-120015000D03*
X131445000Y-117475000D03*
D24*
X132207000Y-129159000D03*
X132207000Y-113411000D03*
D25*
X187325000Y-51435000D03*
X185545000Y-52455000D03*
X187325000Y-53475000D03*
X185545000Y-54495000D03*
X187325000Y-55515000D03*
X185545000Y-56535000D03*
X187325000Y-57555000D03*
X185545000Y-58575000D03*
D26*
X189865000Y-48640000D03*
X189865000Y-61340000D03*
D27*
X128490980Y-132080000D03*
X130589020Y-132080000D03*
X136525000Y-66454020D03*
X136525000Y-64355980D03*
D28*
X134889240Y-81848960D03*
X134889240Y-83251040D03*
X136888220Y-82550000D03*
D29*
X167640000Y-87630000D03*
D30*
X166600000Y-83825000D03*
X168680000Y-83825000D03*
D29*
X161925000Y-90170000D03*
D30*
X160885000Y-86365000D03*
X162965000Y-86365000D03*
D31*
X162560000Y-103505000D03*
D32*
X166365000Y-102465000D03*
X166365000Y-104545000D03*
D31*
X163195000Y-97790000D03*
D32*
X167000000Y-96750000D03*
X167000000Y-98830000D03*
D33*
X136144000Y-79629000D03*
X136144000Y-77851000D03*
X138176000Y-78740000D03*
X169164000Y-63881000D03*
X167386000Y-63881000D03*
X168275000Y-61849000D03*
D34*
X171450000Y-83693000D03*
X171450000Y-89027000D03*
X172720000Y-83693000D03*
X173990000Y-83693000D03*
X175260000Y-83693000D03*
X172720000Y-89027000D03*
X173990000Y-89027000D03*
X175260000Y-89027000D03*
X171450000Y-100203000D03*
X171450000Y-105537000D03*
X172720000Y-100203000D03*
X173990000Y-100203000D03*
X175260000Y-100203000D03*
X172720000Y-105537000D03*
X173990000Y-105537000D03*
X175260000Y-105537000D03*
D33*
X174244000Y-111379000D03*
X174244000Y-109601000D03*
X176276000Y-110490000D03*
D34*
X186690000Y-126238000D03*
X186690000Y-131572000D03*
X187960000Y-126238000D03*
X189230000Y-126238000D03*
X190500000Y-126238000D03*
X187960000Y-131572000D03*
X189230000Y-131572000D03*
X190500000Y-131572000D03*
X148590000Y-52578000D03*
X148590000Y-57912000D03*
X149860000Y-52578000D03*
X151130000Y-52578000D03*
X152400000Y-52578000D03*
X149860000Y-57912000D03*
X151130000Y-57912000D03*
X152400000Y-57912000D03*
D35*
X149545000Y-85725000D03*
X151445000Y-85725000D03*
X138115000Y-67945000D03*
X140015000Y-67945000D03*
D36*
X126365000Y-133665000D03*
X126365000Y-131765000D03*
D35*
X140655000Y-84455000D03*
X142555000Y-84455000D03*
D36*
X180975000Y-136205000D03*
X180975000Y-134305000D03*
X177165000Y-136205000D03*
X177165000Y-134305000D03*
X173355000Y-136205000D03*
X173355000Y-134305000D03*
X169545000Y-136205000D03*
X169545000Y-134305000D03*
X165735000Y-136205000D03*
X165735000Y-134305000D03*
X161925000Y-136205000D03*
X161925000Y-134305000D03*
X164465000Y-63815000D03*
X164465000Y-61915000D03*
X172085000Y-63815000D03*
X172085000Y-61915000D03*
X150495000Y-136205000D03*
X150495000Y-134305000D03*
X146685000Y-136205000D03*
X146685000Y-134305000D03*
X142875000Y-136205000D03*
X142875000Y-134305000D03*
X139065000Y-136205000D03*
X139065000Y-134305000D03*
X135255000Y-136205000D03*
X135255000Y-134305000D03*
X131445000Y-136205000D03*
X131445000Y-134305000D03*
X132715000Y-83500000D03*
X132715000Y-81600000D03*
X128905000Y-136205000D03*
X128905000Y-134305000D03*
X186690000Y-80960000D03*
X186690000Y-79060000D03*
X189230000Y-82870000D03*
X189230000Y-84770000D03*
D35*
X190815000Y-80645000D03*
X188915000Y-80645000D03*
D36*
X186690000Y-84770000D03*
X186690000Y-82870000D03*
X185420000Y-98740000D03*
X185420000Y-96840000D03*
D35*
X183195000Y-105410000D03*
X181295000Y-105410000D03*
X181295000Y-103505000D03*
X183195000Y-103505000D03*
X183835000Y-112395000D03*
X185735000Y-112395000D03*
X152080000Y-64135000D03*
X150180000Y-64135000D03*
D36*
X177800000Y-57465000D03*
X177800000Y-55565000D03*
X177800000Y-60010000D03*
X177800000Y-61910000D03*
D35*
X157800000Y-64135000D03*
X159700000Y-64135000D03*
X155890000Y-64135000D03*
X153990000Y-64135000D03*
D12*
X168275000Y-48895000D03*
X170815000Y-48895000D03*
X165735000Y-48895000D03*
D37*
X177800000Y-107315000D03*
X177800000Y-109855000D03*
X183400000Y-109855000D03*
X183400000Y-107315000D03*
D38*
X149225000Y-101600000D03*
X150025100Y-101600000D03*
X150825200Y-101600000D03*
X151625300Y-101600000D03*
X152425400Y-101600000D03*
X153225500Y-101600000D03*
X148424900Y-101600000D03*
X147624800Y-101600000D03*
X146824700Y-101600000D03*
X146024600Y-101600000D03*
X145224500Y-101600000D03*
X149225000Y-90170000D03*
X150025100Y-90170000D03*
X150825200Y-90170000D03*
X151625300Y-90170000D03*
X152425400Y-90170000D03*
X153225500Y-90170000D03*
X148424900Y-90170000D03*
X147624800Y-90170000D03*
X146824700Y-90170000D03*
X146024600Y-90170000D03*
X145224500Y-90170000D03*
D39*
X154940000Y-95885000D03*
X143510000Y-95885000D03*
X154940000Y-95084900D03*
X143510000Y-95084900D03*
X143510000Y-94284800D03*
X154940000Y-94284800D03*
X154940000Y-93484700D03*
X143510000Y-93484700D03*
X143510000Y-92684600D03*
X154940000Y-92684600D03*
X154940000Y-91884500D03*
X143510000Y-91884500D03*
X143510000Y-96685100D03*
X154940000Y-96685100D03*
X154940000Y-97485200D03*
X143510000Y-97485200D03*
X143510000Y-98285300D03*
X154940000Y-98285300D03*
X154940000Y-99085400D03*
X143510000Y-99085400D03*
X143510000Y-99885500D03*
X154940000Y-99885500D03*
D40*
X129159000Y-98425000D03*
X129159000Y-99695000D03*
X129159000Y-100965000D03*
X129159000Y-102235000D03*
X129159000Y-103505000D03*
X129159000Y-104775000D03*
X129159000Y-106045000D03*
X129159000Y-107315000D03*
X129159000Y-108585000D03*
X129159000Y-109855000D03*
X138811000Y-109855000D03*
X138811000Y-108585000D03*
X138811000Y-107315000D03*
X138811000Y-106045000D03*
X138811000Y-104775000D03*
X138811000Y-103505000D03*
X138811000Y-102235000D03*
X138811000Y-100965000D03*
X138811000Y-99695000D03*
X138811000Y-98425000D03*
X129159000Y-85090000D03*
X129159000Y-86360000D03*
X129159000Y-87630000D03*
X129159000Y-88900000D03*
X129159000Y-90170000D03*
X129159000Y-91440000D03*
X129159000Y-92710000D03*
X129159000Y-93980000D03*
X129159000Y-95250000D03*
X129159000Y-96520000D03*
X138811000Y-96520000D03*
X138811000Y-95250000D03*
X138811000Y-93980000D03*
X138811000Y-92710000D03*
X138811000Y-91440000D03*
X138811000Y-90170000D03*
X138811000Y-88900000D03*
X138811000Y-87630000D03*
X138811000Y-86360000D03*
X138811000Y-85090000D03*
D41*
X146685000Y-47879000D03*
X145415000Y-47879000D03*
X144145000Y-47879000D03*
X142875000Y-47879000D03*
X141605000Y-47879000D03*
X140335000Y-47879000D03*
X139065000Y-47879000D03*
X137795000Y-47879000D03*
X136525000Y-47879000D03*
X135255000Y-47879000D03*
X135255000Y-57531000D03*
X136525000Y-57531000D03*
X137795000Y-57531000D03*
X139065000Y-57531000D03*
X140335000Y-57531000D03*
X141605000Y-57531000D03*
X142875000Y-57531000D03*
X144145000Y-57531000D03*
X145415000Y-57531000D03*
X146685000Y-57531000D03*
D20*
X164465000Y-60325000D03*
D21*
X167005000Y-60325000D03*
X169545000Y-60325000D03*
X172085000Y-60325000D03*
X172085000Y-52705000D03*
X169545000Y-52705000D03*
X167005000Y-52705000D03*
X164465000Y-52705000D03*
D42*
X137795000Y-126047500D03*
X137795000Y-125095000D03*
X137795000Y-124142500D03*
X140335000Y-124142500D03*
X140335000Y-125095000D03*
X140335000Y-126047500D03*
D43*
X150565000Y-108270000D03*
X150565000Y-109220000D03*
X150565000Y-110170000D03*
X152965000Y-110170000D03*
X152965000Y-108270000D03*
D44*
X184658000Y-79756000D03*
X179324000Y-79756000D03*
X184658000Y-81026000D03*
X184658000Y-82296000D03*
X184658000Y-83566000D03*
X179324000Y-81026000D03*
X179324000Y-82296000D03*
X179324000Y-83566000D03*
D45*
X181991000Y-81661000D03*
D44*
X183007000Y-97790000D03*
X177673000Y-97790000D03*
X183007000Y-99060000D03*
X183007000Y-100330000D03*
X183007000Y-101600000D03*
X177673000Y-99060000D03*
X177673000Y-100330000D03*
X177673000Y-101600000D03*
D45*
X180340000Y-99695000D03*
D46*
X143510000Y-81407000D03*
D47*
X143510000Y-74803000D03*
X141224000Y-74803000D03*
X145796000Y-74803000D03*
D48*
X169715180Y-110490000D03*
X171914820Y-109537500D03*
X171914820Y-111442500D03*
D34*
X158750000Y-61722000D03*
X158750000Y-56388000D03*
X157480000Y-61722000D03*
X156210000Y-61722000D03*
X154940000Y-61722000D03*
X157480000Y-56388000D03*
X156210000Y-56388000D03*
X154940000Y-56388000D03*
D49*
X183515000Y-38100000D03*
X184785000Y-38100000D03*
X184150000Y-37465000D03*
D50*
X174230000Y-78740000D03*
X166130000Y-78740000D03*
X177405000Y-94615000D03*
X169305000Y-94615000D03*
D51*
X128905000Y-143510000D03*
D52*
X132405000Y-143510000D03*
X135905000Y-143510000D03*
X139405000Y-143510000D03*
X142905000Y-143510000D03*
X146405000Y-143510000D03*
X149905000Y-143510000D03*
X153405000Y-143510000D03*
D51*
X159385000Y-143510000D03*
D52*
X162885000Y-143510000D03*
X166385000Y-143510000D03*
X169885000Y-143510000D03*
X173385000Y-143510000D03*
X176885000Y-143510000D03*
X180385000Y-143510000D03*
X183885000Y-143510000D03*
D51*
X153035000Y-39370000D03*
D52*
X149535000Y-39370000D03*
X146035000Y-39370000D03*
X142535000Y-39370000D03*
X139035000Y-39370000D03*
X135535000Y-39370000D03*
X132035000Y-39370000D03*
X128535000Y-39370000D03*
D51*
X173355000Y-39370000D03*
D52*
X169855000Y-39370000D03*
X166355000Y-39370000D03*
X162855000Y-39370000D03*
D51*
X121920000Y-109855000D03*
D52*
X121920000Y-113355000D03*
X121920000Y-116855000D03*
X121920000Y-120355000D03*
X121920000Y-123855000D03*
X121920000Y-127355000D03*
X121920000Y-130855000D03*
X121920000Y-134355000D03*
D51*
X121920000Y-79375000D03*
D52*
X121920000Y-82875000D03*
X121920000Y-86375000D03*
X121920000Y-89875000D03*
X121920000Y-93375000D03*
X121920000Y-96875000D03*
X121920000Y-100375000D03*
X121920000Y-103875000D03*
D51*
X121920000Y-48895000D03*
D52*
X121920000Y-52395000D03*
X121920000Y-55895000D03*
X121920000Y-59395000D03*
X121920000Y-62895000D03*
X121920000Y-66395000D03*
X121920000Y-69895000D03*
X121920000Y-73395000D03*
D51*
X189865000Y-113030000D03*
D52*
X189865000Y-109530000D03*
X189865000Y-106030000D03*
X189865000Y-102530000D03*
X189865000Y-99030000D03*
X189865000Y-95530000D03*
X189865000Y-92030000D03*
X189865000Y-88530000D03*
M02*
